<svg viewBox="30 210 2250 1439.9999999999998" fill="none" xmlns="http://www.w3.org/2000/svg" xmlns:xlink="http://www.w3.org/1999/xlink" overflow="visible" width="2250px" height="1439.9999999999998px"><g id="Master/Scenes/Mobile"><g id="Big Plants" transform="matrix(-1 0 0 1 1226 156) scale(1 1)"><g id="Big Plants/2"><g id="leafs"><path id="Fill 4 (Stroke)" fill-rule="evenodd" clip-rule="evenodd" d="M514.671 378.608C522.067 395.79 522.658 418.491 511.316 447.554C493.383 493.509 458.263 524.573 426.021 552.555C425.464 553.039 424.908 553.521 424.352 554.003C408.984 567.337 394.213 580.152 382.94 593.473C371.204 607.342 362.803 622.273 361.488 639.635C360.624 651.065 363.264 664.161 367.184 678.1C369.648 686.863 372.738 696.342 375.957 706.214C377.847 712.011 379.782 717.943 381.659 723.947C391.944 756.825 401.076 793.446 396.202 831.356C393.065 855.754 385.798 873.153 376.82 886.828C367.784 900.592 356.901 910.779 346.032 920.792C345.688 921.108 345.345 921.424 345.001 921.74C334.61 931.307 324.096 940.986 316.437 953.336C308.382 966.323 303.596 982.02 304.412 1003.46C305.734 1038.14 326.278 1060.96 348.329 1083.82C349.665 1085.21 351.009 1086.6 352.357 1087.99C373.506 1109.83 395.754 1132.81 408.205 1167.7C424.597 1213.64 415.962 1257.72 402.969 1290.63C396.482 1307.07 388.951 1320.6 383.047 1330.02C380.097 1334.72 377.56 1338.39 375.772 1340.86C375.322 1341.48 374.919 1342.03 374.57 1342.5H-6.3266C-6.89484 1341.76 -7.60492 1340.83 -8.43976 1339.7C-10.8225 1336.5 -14.2197 1331.76 -18.2354 1325.69C-26.2708 1313.54 -36.7601 1296.09 -46.5526 1274.89C-66.1801 1232.4 -82.7698 1175.41 -71.814 1116.13C-61.68 1061.31 -32.6273 1028.42 -3.56616 1002.65C3.17902 996.67 9.89963 991.094 16.4218 985.683C16.9551 985.24 17.4871 984.799 18.0177 984.359C25.0034 978.56 31.7621 972.913 37.8728 967.26C50.0276 956.015 60.2173 944.221 64.8234 930.054C76.529 894.045 69.8649 857.777 62.2617 821.456C61.7968 819.235 61.3282 817.013 60.8592 814.79C53.5763 780.259 46.2169 745.367 51.5039 708.232C60.3277 646.262 95.2898 612.474 133.716 587.498C146.644 579.095 159.724 571.831 172.415 564.783C178.822 561.225 185.13 557.721 191.269 554.155C209.233 543.718 225.628 532.79 236.493 518.882C245.846 506.909 252.942 493.088 259.554 478.613C261.994 473.271 264.348 467.892 266.723 462.463C270.883 452.954 275.109 443.295 279.981 433.425C295.075 402.847 315.582 372.026 355.234 347.247C386.091 327.965 436.922 324.676 474.161 340.817C492.616 348.817 507.255 361.379 514.671 378.608ZM-8.99988 1348C-13.2614 1351.48 -13.2629 1351.48 -13.2647 1351.47L-13.27 1351.47L-13.2869 1351.45L-13.3451 1351.37C-13.3947 1351.31 -13.4656 1351.22 -13.5573 1351.11C-13.6589 1350.98 -13.7861 1350.82 -13.9376 1350.63C-14.0591 1350.48 -14.1962 1350.3 -14.3485 1350.11C-15.0328 1349.23 -16.0226 1347.94 -17.2679 1346.27C-19.7582 1342.92 -23.2723 1338.02 -27.4097 1331.76C-35.6804 1319.26 -46.4639 1301.31 -56.5386 1279.5C-76.6453 1235.98 -94.1668 1176.55 -82.6307 1114.13C-71.868 1055.91 -40.8289 1020.99 -10.8644 994.422C-3.97748 988.315 2.87714 982.627 9.37769 977.234C9.91827 976.786 10.4564 976.339 10.9919 975.895C18.0002 970.077 24.5399 964.609 30.4026 959.185C42.1947 948.276 50.6526 938.063 54.3623 926.653C65.0449 893.791 59.1514 860.284 51.4951 823.71C51.0082 821.384 50.5144 819.047 50.018 816.697C42.7932 782.499 35.0426 745.812 40.6137 706.681C50.0526 640.392 87.8225 604.209 127.721 578.275C140.951 569.676 154.655 562.062 167.544 554.901C173.856 551.394 179.973 547.996 185.743 544.644C203.629 534.252 218.372 524.211 227.825 512.11C236.362 501.181 243.029 488.313 249.548 474.043C251.836 469.035 254.126 463.803 256.476 458.435C260.719 448.743 265.155 438.609 270.117 428.556C285.753 396.881 307.436 364.146 349.405 337.918C383.574 316.567 438.249 313.262 478.536 330.725C498.845 339.528 515.975 353.817 524.775 374.259C533.595 394.748 533.667 420.538 521.563 451.553C502.513 500.371 465.284 533.045 433.231 560.863C432.788 561.248 432.346 561.631 431.905 562.014C416.247 575.601 402.049 587.92 391.337 600.579C380.38 613.528 373.528 626.318 372.457 640.466C371.746 649.863 373.912 661.393 377.773 675.122C380.187 683.706 383.144 692.773 386.302 702.453C388.207 708.291 390.184 714.351 392.158 720.663C402.521 753.794 412.307 792.349 407.112 832.759C403.77 858.754 395.941 877.748 386.015 892.865C376.148 907.894 364.321 918.899 353.484 928.882L352.921 929.401C342.169 939.304 332.639 948.082 325.785 959.134C318.953 970.149 314.667 983.659 315.404 1003.04C316.549 1033.08 334.032 1053.15 356.247 1076.19C357.643 1077.64 359.057 1079.1 360.483 1080.57C381.491 1102.24 405.287 1126.8 418.565 1164.01C436.171 1213.34 426.757 1260.33 413.2 1294.67C406.412 1311.87 398.542 1326.01 392.366 1335.86C389.275 1340.79 386.602 1344.65 384.689 1347.3C383.732 1348.63 382.965 1349.65 382.43 1350.35C382.163 1350.69 381.953 1350.96 381.807 1351.15L381.707 1351.28L381.637 1351.36L381.588 1351.42L381.573 1351.44L381.568 1351.45C381.567 1351.45 381.565 1351.45 377.285 1348L381.565 1351.45L379.914 1353.5H-11.6108L-13.2614 1351.48L-8.99988 1348Z" fill="white"/><path id="Fill 1" fill-rule="evenodd" clip-rule="evenodd" d="M815.714 743.606C892.958 728.493 1035.69 740.247 1057.52 763.757C1081.98 790.092 1020.62 935.468 991.183 947.246C947.021 947.246 873.421 938.413 885.196 961.966C896.972 985.518 935.246 1014.96 935.246 1029.68C935.246 1044.4 908.749 1138.61 876.364 1144.49C843.981 1150.38 764.491 1123.89 761.546 1144.49C758.603 1165.1 802.764 1191.6 805.708 1215.15C808.651 1238.71 764.491 1303.47 576.071 1359.41H414.151C414.151 1359.41 384.71 1156.27 455.366 1070.9C511.305 1091.5 534.858 1094.45 534.858 1094.45C534.858 1094.45 528.968 979.629 549.576 929.581C570.185 879.531 598.007 836.164 634.358 835.963C661.596 835.814 719.977 888.477 731.752 867.868C743.528 847.26 717.436 762.834 815.714 743.606" fill="white"/><path id="Fill 5" fill-rule="evenodd" clip-rule="evenodd" d="M879.989 282.14C913.627 285.985 945.489 538.882 832.439 568.257C790.603 579.127 721.719 599.731 759.189 641.366C778.275 662.57 854.937 686.357 874.131 729.009C888.752 761.494 851.466 860.069 795.41 885.729C731.227 915.105 670.554 902.328 665.172 941.785C659.792 981.242 753.12 1005.87 758.885 1059.69C762.941 1097.52 699.968 1236.17 493.327 1353.03C371.366 1353.03 269.161 1351.23 269.161 1351.23C269.161 1351.23 170.799 1195.53 145.691 1012.59C120.58 829.655 159.321 765.646 227.554 757.052C263.919 752.471 334.07 804.991 369.241 794.716C398.558 786.15 360.981 687.52 360.981 617.572C360.981 547.626 379.242 484.937 408.699 470.087C432.421 458.13 502.927 510.669 526.243 521.429C549.561 532.191 595.375 543.337 604.147 519.537C614.924 490.286 576.273 413.813 605.107 370.564C641.155 316.488 803.156 273.359 879.989 282.14" fill="#D3E2F2"/><path id="Stroke 10" d="M830.612 357.098C832.006 358.438 832.049 360.654 830.709 362.047L829.465 363.357C828.843 364.017 828.153 364.753 827.396 365.565L825.795 367.29C821.942 371.457 817.497 376.361 812.507 381.985L811.824 382.756C797.075 399.406 780.671 418.807 763.018 440.79L761.89 442.197C710.212 506.678 658.531 579.762 610.297 660.009C549.863 760.553 499.226 865.224 461.601 972.674C417.268 1099.28 392.36 1225.98 390.08 1351.45C390.045 1353.38 388.45 1354.92 386.517 1354.88C384.584 1354.85 383.046 1353.25 383.081 1351.32C385.376 1225.07 410.426 1097.64 454.994 970.36C492.787 862.432 543.63 757.336 604.298 656.402C652.165 576.766 703.411 504.164 754.699 439.98L756.427 437.819C773.828 416.108 790.039 396.871 804.683 380.266L806.584 378.115C810.963 373.17 814.938 368.762 818.478 364.902L820.655 362.538C821.509 361.614 822.298 360.766 823.02 359.995L825.664 357.195C827.004 355.801 829.219 355.758 830.612 357.098Z" fill="white"/></g></g></g><g id="Background"><g id="Plant" transform="matrix(-1 0 0 1 2072 659) scale(1 1)"><g id="Plant/Plant 5"><g id="Leaf"><path id="Fill 1" fill-rule="evenodd" clip-rule="evenodd" d="M142.073 854C142.073 854 38.7938 792.106 59.8255 680.113C72.3796 613.26 114.963 616.538 139.609 565.925C155.338 533.623 131.439 446.932 180.495 389.904C226.323 336.629 301.255 341.458 325.391 329.885C357.739 314.375 370.058 281.791 379.304 255.03C413.783 155.257 493.443 157.951 506.41 207.589C522.043 267.434 507.075 303.502 433.524 362.151C378.258 406.22 459.174 455.663 411.041 535.903C384.145 580.739 311.823 604.043 347.15 662.018C395.526 741.406 386.44 819.449 361.777 854H142.073Z" fill="#FF4B33"/><path id="Fill 10" fill-rule="evenodd" clip-rule="evenodd" d="M443.406 258.575C442.624 257.801 441.361 257.808 440.586 258.595C440.327 258.858 414.244 285.467 380.282 331.474C348.951 373.923 304.281 442.077 269.41 525.699C238.434 599.984 204.117 704.414 213.608 854H217.604C208.11 705.103 242.264 601.165 273.091 527.238C339.511 367.957 442.394 262.447 443.426 261.399C444.199 260.615 444.19 259.349 443.406 258.575" fill="white"/><path id="Fill 4" fill-rule="evenodd" clip-rule="evenodd" d="M511.73 488C505.488 488 499.131 493.164 499.131 499.42C499.131 500.461 499.283 501.463 499.546 502.421C446.698 528.402 399.565 562.051 359.321 602.561C325.081 637.028 295.722 676.507 272.062 719.896C251.011 758.501 238.459 793.126 231.637 815.376C225.256 836.184 222.553 850.375 221.91 854H225.965C226.77 849.598 229.474 836.045 235.451 816.549C242.22 794.479 254.672 760.126 275.563 721.816C299.043 678.756 328.175 639.583 362.149 605.384C402.073 565.197 448.833 531.812 501.268 506.029C503.32 508.883 506.656 510.748 510.433 510.748C516.675 510.748 521.91 506.764 521.91 500.508C521.91 494.253 517.971 488 511.73 488" fill="#141414"/><path id="Fill 7" fill-rule="evenodd" clip-rule="evenodd" d="M578.336 616.953C572.079 616.953 565.708 622.117 565.708 628.374V628.377C546.338 631.849 513.648 639.101 454.234 660.976C375.152 690.094 320.491 740.93 288.562 778.445C253.959 819.101 237.815 853.387 237.656 853.728C237.615 853.817 237.59 853.908 237.562 854H241.975C245.354 847.205 261.341 816.578 291.695 780.933C323.306 743.818 377.401 693.529 455.617 664.73C514.728 642.967 547.197 635.762 566.427 632.312C568.028 636.624 572.167 639.702 577.036 639.702C583.293 639.702 588.54 635.719 588.54 629.462C588.54 623.205 584.593 616.953 578.336 616.953" fill="#141414"/></g></g></g><g id="Phone" transform="translate(867 210) scale(1 1)"><g id="Phone/Screen 4"><g id="mobile frame"><path id="mobile" d="M0 81C0 36.2649 36.2649 0 81 0H585C629.735 0 666 36.2649 666 81V1222C666 1266.74 629.735 1303 585 1303H81C36.2649 1303 0 1266.74 0 1222V81Z" fill="white"/><path id="mobile (Stroke)" fill-rule="evenodd" clip-rule="evenodd" d="M585 24H81C49.5198 24 24 49.5198 24 81V1222C24 1253.48 49.5198 1279 81 1279H585C616.48 1279 642 1253.48 642 1222V81C642 49.5198 616.48 24 585 24ZM81 0C36.2649 0 0 36.2649 0 81V1222C0 1266.74 36.2649 1303 81 1303H585C629.735 1303 666 1266.74 666 1222V81C666 36.2649 629.735 0 585 0H81Z" fill="#141414"/></g><g id="Assets 85"><path id="Bg-2 (Stroke)" fill-rule="evenodd" clip-rule="evenodd" d="M469.387 582.129L471.359 582.478C492.656 586.249 511.962 597.441 525.86 614.075C539.759 630.707 547.382 651.737 547.382 673.447V675.447H453L469.387 582.129ZM472.63 586.789L457.764 671.447H543.359C542.907 651.385 535.66 632.039 522.791 616.639C509.925 601.242 492.217 590.72 472.63 586.789Z" fill="#D3E2F2"/><path id="Stork-4 (Stroke)" fill-rule="evenodd" clip-rule="evenodd" d="M437.5 599.129C388.958 599.129 349 639.087 349 687.629C349 736.171 388.958 776.129 437.5 776.129C485.374 776.129 524.898 737.264 525.977 689.629H435.116L450.895 600.148C446.463 599.47 441.985 599.129 437.5 599.129ZM345 687.629C345 636.878 386.749 595.129 437.5 595.129C442.885 595.129 448.26 595.599 453.563 596.534L455.532 596.881L439.884 685.629H530V687.629C530 738.38 488.252 780.129 437.5 780.129C386.749 780.129 345 738.38 345 687.629Z" fill="#D3E2F2"/><path id="BG (Stroke)" fill-rule="evenodd" clip-rule="evenodd" d="M286 586.129C265.013 586.129 248 603.142 248 624.129C248 645.116 265.013 662.129 286 662.129C306.987 662.129 324 645.116 324 624.129C324 603.142 306.987 586.129 286 586.129ZM244 624.129C244 600.933 262.804 582.129 286 582.129C309.196 582.129 328 600.933 328 624.129C328 647.325 309.196 666.129 286 666.129C262.804 666.129 244 647.325 244 624.129Z" fill="#D3E2F2"/><path id="Stork-3" d="M453 671.129L468.629 582.129C489.461 585.817 508.347 596.766 521.944 613.038C535.541 629.31 543 649.887 543 671.129H453Z" fill="#EDF3F9"/><path id="Stoke-2" d="M435.5 685.629H526C526 735.275 485.147 776.129 435.5 776.129C385.854 776.129 345 735.275 345 685.629C345 635.982 385.854 595.129 435.5 595.129C440.768 595.129 446.027 595.589 451.215 596.504L435.5 685.629Z" fill="#EDF3F9"/><path id="Stroke" d="M324 622.129C324 644.22 306.091 662.129 284 662.129C261.909 662.129 244 644.22 244 622.129C244 600.038 261.909 582.129 284 582.129C306.091 582.129 324 600.038 324 622.129Z" fill="#EDF3F9"/></g><path id="Graph" fill-rule="evenodd" clip-rule="evenodd" d="M149 1182.13V836.129H104V1182.13H149ZM313 1182.13V1007.13H268V1182.13H313ZM235 932.129V1182.13H190V932.129H235ZM401 1182.13V1059.13H356V1182.13H401ZM488 1088.13V1182.13H443V1088.13H488ZM562 1182.13V1066.13H517V1182.13H562Z" fill="#D3E2F2"/><path id="Up" d="M457.481 891.528L314.689 967.937L144.896 709.016L162.19 699.065L106.656 663L110.227 728.968L124.78 720.593L306.913 998.334L449.734 921.91L541.265 1061L560.656 1048.31L457.481 891.528Z" fill="#02BAD3"/><path id="Info" fill-rule="evenodd" clip-rule="evenodd" d="M541 139V104H99V139H541ZM488 193V228H98V193H488ZM367 304V269H99V304H367ZM407 350V385H99V350H407ZM293 427V462H98V427H293Z" fill="#D3E2F2"/><path id="$" d="M527.396 487.716V471.893C538.046 469.992 546.247 466.072 552 460.132C557.753 454.193 560.629 447.231 560.629 439.248C560.629 432.026 558.703 426.323 554.852 422.142C551.001 417.96 546.461 414.943 541.231 413.09C536.001 411.237 529.583 409.597 521.976 408.172C516.081 407.031 511.849 405.962 509.282 404.964C506.714 403.966 505.431 402.469 505.431 400.474C505.431 396.292 509.757 394.201 518.41 394.201C527.158 394.201 536.429 396.672 546.223 401.614V401.614L556.35 377.238C548.458 372.771 538.806 370.015 527.396 368.97V368.97V353.716H507.285V369.255C495.97 370.87 487.293 374.672 481.255 380.659C475.217 386.646 472.198 393.821 472.198 402.184C472.198 409.407 474.1 415.133 477.903 419.362C481.707 423.591 486.176 426.632 491.31 428.485C496.445 430.339 502.863 432.073 510.566 433.689C516.556 434.924 520.859 436.065 523.474 437.11C526.088 438.155 527.396 439.723 527.396 441.814C527.396 443.62 526.398 444.974 524.401 445.877C522.404 446.78 519.076 447.231 514.417 447.231C508.997 447.231 503.339 446.4 497.443 444.737C491.548 443.073 486.223 440.864 481.469 438.108V438.108L470.629 462.627C474.908 465.288 480.304 467.521 486.817 469.327C493.331 471.133 500.153 472.226 507.285 472.606V472.606V487.716H527.396Z" fill="#FFC81A"/></g></g><path id="line (Stroke)" fill-rule="evenodd" clip-rule="evenodd" d="M2266 1515H57V1511H2266V1515Z" fill="#141414"/></g><g id="Master/Character/Standing" transform="matrix(-1 0 0 1 1422 287) scale(1 1)"><g id="Master/Character/Standing"><g id="Lower Body" transform="translate(0 569) scale(1 1)"><g id="Lower Body/Fat Pant"><g id="Group"><g id="Assets 46"><path id="SKIN" fill-rule="evenodd" clip-rule="evenodd" d="M469.221 597L479.493 692.789L529.827 689.728L539.203 598.39L469.221 597Z" fill="white"/><path id="Fill 14" fill-rule="evenodd" clip-rule="evenodd" d="M536.363 605.21L527.908 687.577L481.378 690.407L472.24 605.199C472.117 604.055 471.208 603.192 470.127 603.192C468.857 603.192 467.87 604.369 468.014 605.713L477.38 693.047C477.503 694.195 478.418 695.053 479.491 695.053C479.532 695.053 479.573 695.052 479.614 695.05L529.947 691.989C530.985 691.925 531.827 691.073 531.941 689.975L540.592 605.702C540.729 604.362 539.743 603.192 538.477 603.192C537.392 603.192 536.481 604.062 536.363 605.21" fill="#141414"/></g><g id="Assets 47"><path id="SKIN_2" fill-rule="evenodd" clip-rule="evenodd" d="M581.872 560L585.798 684.49L642.932 689.42L668.246 595.745L581.872 560Z" fill="white"/><path id="Fill 2" fill-rule="evenodd" clip-rule="evenodd" d="M664.586 601.104L641.365 687.031L587.86 682.415L584.253 574.123C584.206 572.707 582.945 571.69 581.64 572.015C580.651 572.261 579.965 573.209 580.001 574.281L583.672 684.563C583.709 685.704 584.548 686.634 585.625 686.727L642.758 691.658C642.816 691.663 642.875 691.666 642.933 691.666C643.874 691.666 644.714 691.007 644.976 690.037L668.676 602.336C669.052 600.944 668.101 599.544 666.731 599.476C665.745 599.428 664.857 600.101 664.586 601.104" fill="#141414"/></g><g id="Assets 48"><path id="Fill 4" fill-rule="evenodd" clip-rule="evenodd" d="M578.83 676.481C579.088 675.41 580.088 674.732 581.121 674.926C582.105 675.112 583.349 675.364 584.815 675.662C593.796 677.483 612.485 681.273 630.196 681.287H630.242C640.675 681.287 643.762 676.949 649.991 671.487C650.485 671.053 651.148 670.898 651.774 671.067C682.171 679.405 710.223 686.761 726.499 698.197C729.36 700.208 739.676 708.983 737.892 715.188C737.066 718.058 734.128 719.513 729.159 719.513C711.014 719.513 671.923 719.619 637.434 719.714C609.528 719.791 585.427 719.858 576.353 719.858C575.395 719.858 574.529 719.399 573.916 718.568C570.343 713.726 576.162 687.521 578.83 676.481" fill="#ffc81a"/><path id="Fill 6" fill-rule="evenodd" clip-rule="evenodd" d="M576.719 729.136H733.555C736.162 729.136 738.275 726.911 738.275 724.164V722.522C738.275 719.775 736.162 717.549 733.555 717.549H576.719C574.113 717.549 572 719.775 572 722.522V724.164C572 726.911 574.113 729.136 576.719 729.136" fill="#141414"/><path id="Fill 8" fill-rule="evenodd" clip-rule="evenodd" d="M689.015 692.251C689.81 692.251 690.572 691.78 690.936 690.973C694.273 683.589 700.684 685.396 701.405 685.629C702.523 685.986 703.713 685.328 704.06 684.152C704.407 682.974 703.793 681.725 702.678 681.352C699.042 680.137 691.104 680.181 687.097 689.047C686.592 690.165 687.042 691.5 688.102 692.033C688.397 692.181 688.708 692.251 689.015 692.251" fill="#141414"/><path id="Fill 10" fill-rule="evenodd" clip-rule="evenodd" d="M670.234 686.854C671.029 686.854 671.791 686.383 672.155 685.576C675.493 678.193 681.904 680 682.623 680.232C683.742 680.591 684.932 679.931 685.279 678.755C685.626 677.577 685.011 676.329 683.897 675.956C680.257 674.741 672.321 674.787 668.316 683.65C667.811 684.768 668.261 686.104 669.321 686.636C669.616 686.785 669.927 686.854 670.234 686.854" fill="#141414"/></g><g id="Assets 49"><path id="Fill 16" fill-rule="evenodd" clip-rule="evenodd" d="M475.235 669.523C475.235 669.523 445.759 696.202 459.785 716.602C478.366 722.093 522.775 727.194 542.493 717.318C556.315 710.395 534.457 669 534.457 669C512.205 671.344 495.958 670.226 475.235 669.523" fill="#ffc81a"/><path id="Fill 18" fill-rule="evenodd" clip-rule="evenodd" d="M548.261 721.296C548.053 725.297 544.017 727.787 539.734 727.787H463.406C458.899 727.787 455.867 723.534 456.664 718.964C457.46 714.396 458.784 714.789 461.784 714.789L539.734 715.22C542.936 715.22 548.491 716.863 548.261 721.296" fill="#141414"/><path id="Fill 20" fill-rule="evenodd" clip-rule="evenodd" d="M479.825 699.591C479.065 699.591 478.339 699.131 478.003 698.356C477.546 697.298 477.988 696.05 478.992 695.567C479.792 695.181 498.811 686.227 520.03 692.734C521.091 693.06 521.7 694.228 521.392 695.346C521.083 696.463 519.973 697.108 518.913 696.78C499.159 690.728 480.834 699.314 480.651 699.401C480.383 699.529 480.102 699.591 479.825 699.591" fill="#141414"/><path id="Fill 22" fill-rule="evenodd" clip-rule="evenodd" d="M485.937 685.621C485.158 685.621 484.417 685.139 484.094 684.336C483.664 683.266 484.136 682.03 485.152 681.575C485.789 681.29 500.885 674.677 514.138 681.37C515.134 681.873 515.554 683.133 515.076 684.182C514.599 685.232 513.404 685.674 512.408 685.171C500.809 679.31 486.854 685.392 486.715 685.455C486.461 685.568 486.197 685.621 485.937 685.621" fill="#141414"/></g><g id="Pant"><path id="Fill 24" fill-rule="evenodd" clip-rule="evenodd" d="M390.562 241.043C414.443 462.886 407.742 624.366 407.742 624.366C455.956 632.36 503.27 632.39 548.975 618.187L560 151.184L617 295.171C617 295.171 551.091 542.515 562.527 563.269C573.962 584.023 673.866 626.838 700.712 610.773C711.819 604.125 771.767 399.254 769 280.348C767.553 218.152 663.06 46.4052 656 0.845087C622.389 -3.30617 439.298 0.844769 439.298 0.844769C439.298 0.844769 370.861 58.0371 390.562 241.043Z" fill="#141414"/><path id="Fill 27" fill-rule="evenodd" clip-rule="evenodd" d="M555.611 29.8584C559.902 33.024 569.463 39.1984 585.413 45.0722C591.118 47.1728 594.162 46.852 595.037 45.9383C595.628 45.321 595.349 44.0516 595.129 43.3497C593.403 37.8348 584.081 29.1744 571.067 27.2581C566.424 26.5774 561.119 27.6954 555.611 29.8584M540.007 25.4954C537.021 25.4954 533.54 27.2825 530.638 28.7742C518.634 34.9392 508.784 48.3734 507.88 54.839C510.301 53.8618 515.744 49.9053 520.622 46.3586C528.58 40.5716 538.112 33.6391 547.672 28.8039C545.968 27.5038 544.074 26.5107 541.944 25.7918C541.332 25.5864 540.682 25.4954 540.007 25.4954M536.231 76.6127C535.99 76.6127 535.745 76.5661 535.507 76.4677C534.478 76.0442 533.968 74.8182 534.368 73.7277C539.159 60.6694 545.934 41.6494 548.537 33.1076C539.346 37.8793 530.127 44.5842 522.885 49.8492C512.014 57.7558 508.115 60.4121 505.431 58.9151C504.826 58.5784 503.812 57.7187 503.812 55.7474C503.812 46.8805 516.469 31.3438 528.892 24.9628C533.089 22.8083 538.318 20.1245 543.158 21.7581C546.515 22.8888 549.349 24.6029 551.778 26.8632C558.69 23.8406 565.503 22.1604 571.617 23.0645C585.646 25.1301 596.518 34.3241 598.925 42.0178C600.117 45.8292 598.76 48.0007 597.845 48.9546C595.41 51.4955 590.786 51.5336 584.099 49.0711C572.605 44.8393 564.352 40.4827 558.876 37.0937C562.994 45.9288 565.383 57.9612 567.898 72.5843C568.095 73.7351 567.376 74.8372 566.289 75.0479C565.211 75.2544 564.161 74.4953 563.963 73.3434C560.66 54.1296 557.646 41.552 552.461 33.9525C549.111 45.1697 539.383 71.7553 538.097 75.2618C537.789 76.0992 537.032 76.6117 536.231 76.6127" fill="white"/></g></g></g></g><g id="Upper Body" transform="translate(272 187) scale(1 1)"><g id="Upper Body/Taking Picture"><g id="Assets 118"><path id="SKIN" fill-rule="evenodd" clip-rule="evenodd" d="M466.685 529.488C465.542 525.352 462.461 516.072 460.903 506.043C451.004 442.277 436.137 281.143 434.877 274.126L360.129 290.095C360.129 290.095 412.121 500.742 411.664 523.123C411.006 555.331 421.927 575.03 424.231 581.787C426.775 589.246 433.469 593.949 437.487 590.949C437.634 595.709 443.96 599.4 446.77 595.218C447.147 598.093 451 598.589 452.2 598.529C457.363 598.269 460.218 594.961 463.327 587.04C468.91 572.817 471.401 546.562 466.685 529.488" fill="white"/><path id="Fill 3" fill-rule="evenodd" clip-rule="evenodd" d="M468.734 528.922C454.066 472.762 448.755 375.189 440.959 311.709C438.783 290.105 437.343 275.833 436.969 273.751C436.761 272.595 435.655 271.826 434.5 272.033C433.344 272.241 432.575 273.346 432.783 274.503C433.128 276.423 434.639 291.403 436.73 312.135C444.247 374.434 450.121 472.051 463.788 527.151C465.484 532.694 466.517 537.802 466.771 544.044C467.788 548.287 459.7 578.017 454.641 564.795C453.457 561.078 453.048 556.9 452.692 552.945C452.612 551.984 451.881 551.166 450.885 551.018C443.443 549.999 437.709 542.816 436.519 535.554C436.262 533.814 433.531 534.222 433.772 535.953C434.671 544.315 440.397 552.298 448.603 554.856C449.397 560.372 449.319 566.955 453.705 571.129C459.166 575.312 464.475 568.828 466.292 564.13C464.944 574.525 461.54 596.205 452.093 596.406C451.355 596.445 449.026 596.07 448.878 594.943C448.687 593.032 446.02 592.43 445.005 594.032C444.661 594.544 444.053 595.18 442.749 594.804C441.285 594.382 439.67 592.764 439.611 590.884C439.61 589.205 437.522 588.214 436.213 589.246C435.497 589.781 434.579 589.881 433.488 589.544C429.216 588.417 426.425 582.17 424.5 576.713C420.847 567.963 413.246 549.754 413.789 523.167C412.292 499.951 366.977 293.89 359.622 288.029C358.478 288.312 357.781 289.464 358.063 290.605C358.582 292.709 409.983 501.234 409.537 523.08C408.976 550.564 416.81 569.332 420.575 578.352C423.2 585.993 427.716 594.877 436.009 593.866C437.498 597.617 442.393 600.51 446.173 598.541C470.847 613.151 474.7 544.875 468.734 528.922" fill="#141414"/></g><g id="Assets 119"><path id="t-shirt" fill-rule="evenodd" clip-rule="evenodd" d="M82.8516 219.661C85.9366 222.672 96.7216 232.22 96.7216 232.22L168.471 281.966L156.296 402.216H395.192L374.662 288.549C374.662 288.549 403.831 286.387 445.737 272.44C434.648 207.492 422.316 133.432 343.865 106.975C312.101 105.918 230.412 101.323 198.003 103.186C182.951 106.655 169.05 112.791 155.267 122.014C118.322 146.736 95.7266 191.199 82.8516 219.661Z" fill="#ffc81a"/><path id="path 12" fill-rule="evenodd" clip-rule="evenodd" d="M364.46 213.366C364.283 212.275 363.257 211.535 362.166 211.71C361.075 211.887 360.335 212.914 360.51 214.004L372.624 288.825C372.644 288.957 372.68 289.083 372.726 289.203L392.94 400.216H157.659L170.444 282.297C170.572 281.533 170.247 280.764 169.611 280.323L97.9586 230.644C97.0216 229.814 88.9296 222.637 85.2596 219.195C98.9076 189.212 121.011 147.343 156.379 123.677C169.897 114.631 183.606 108.578 198.287 105.174C222.881 103.783 275.312 106.069 313.619 107.738C325.557 108.258 335.889 108.708 343.504 108.964C419.892 134.893 432.553 207.103 443.477 271.081C408.862 282.436 383.052 285.683 376.281 286.387L364.46 213.366ZM447.57 271.287C436.409 205.909 423.76 131.808 344.504 105.08C344.319 105.018 344.127 104.983 343.931 104.976C336.311 104.723 325.876 104.268 313.793 103.742C275.312 102.065 222.613 99.7689 197.888 101.19C197.775 101.197 197.663 101.213 197.553 101.238C182.329 104.746 168.134 110.998 154.155 120.352C117.426 144.929 94.8296 188.33 81.0296 218.837C80.6826 219.604 80.8526 220.505 81.4546 221.093C84.5396 224.103 94.9536 233.326 95.3956 233.717C95.4546 233.77 95.5166 233.819 95.5816 233.864L166.288 282.887L153.323 401.885C153.226 402.465 153.389 403.059 153.769 403.508C154.149 403.957 154.707 404.216 155.296 404.216H395.192C395.763 404.216 396.308 403.972 396.687 403.544C397.067 403.116 397.246 402.547 397.178 401.98L376.89 290.345C384.324 289.558 411.002 286.109 446.37 274.338C447.306 274.027 447.876 273.077 447.71 272.104L447.57 271.287Z" fill="#141414"/></g><g id="phone"><path id="path 13" fill-rule="evenodd" clip-rule="evenodd" d="M296.509 296.227L245.111 311.852C239.622 313.52 233.82 310.423 232.151 304.935L200.155 199.681C198.487 194.193 201.583 188.391 207.072 186.722L258.471 171.098C263.96 169.429 269.761 172.526 271.43 178.015L303.426 283.268C305.095 288.756 301.998 294.558 296.509 296.227" fill="#141414"/><path id="path 14" fill-rule="evenodd" clip-rule="evenodd" d="M250.153 189.003C250.688 190.868 249.61 192.813 247.744 193.348C245.88 193.883 243.934 192.804 243.399 190.94C242.864 189.074 243.943 187.129 245.808 186.594C247.673 186.06 249.618 187.138 250.153 189.003" fill="white"/><path id="path 15" fill-rule="evenodd" clip-rule="evenodd" d="M262.89 185.35C263.425 187.215 262.347 189.161 260.481 189.695C258.617 190.23 256.671 189.152 256.137 187.287C255.601 185.422 256.68 183.476 258.545 182.942C260.41 182.407 262.355 183.485 262.89 185.35" fill="white"/><path id="path 16" fill-rule="evenodd" clip-rule="evenodd" d="M292.929 186.069L292.859 186.029L284.066 180.975L290.617 170.645C290.722 170.477 290.81 170.284 290.863 170.083C291.144 169.014 290.506 167.921 289.437 167.639L279.834 165.111L280.366 149.693C280.381 149.253 280.251 148.803 279.967 148.424C279.304 147.54 278.05 147.361 277.166 148.024L267.167 155.523L258.348 141.516C258.062 141.065 257.592 140.723 257.025 140.616C255.939 140.413 254.894 141.128 254.69 142.214L251.599 158.7L237.364 153.701L237.264 153.666C236.895 153.536 236.483 153.515 236.079 153.632C235.048 153.931 234.454 155.009 234.753 156.04L238.325 168.374C238.511 169.007 239.148 169.418 239.812 169.3C240.526 169.175 241.002 168.494 240.877 167.781L239.261 158.606L252.472 163.246C252.564 163.277 252.669 163.306 252.766 163.324C253.852 163.528 254.897 162.813 255.101 161.727L257.681 147.965L264.939 159.49C264.967 159.535 264.999 159.582 265.031 159.625C265.694 160.508 266.948 160.687 267.831 160.024L276.224 153.731L275.781 166.571C275.749 167.484 276.35 168.332 277.271 168.574L285.775 170.812L279.57 180.597C279.556 180.619 279.538 180.648 279.525 180.671C278.974 181.629 279.304 182.851 280.262 183.402L288.568 188.177L280.95 195.574C280.415 196.097 280.356 196.955 280.841 197.543C281.352 198.164 282.269 198.253 282.89 197.742L293.196 189.255C293.369 189.111 293.526 188.929 293.645 188.722C294.18 187.792 293.859 186.604 292.929 186.069" fill="white"/></g><g id="hand"><path id="SKIN_2" fill-rule="evenodd" clip-rule="evenodd" d="M274.143 250.486C272.61 247.791 268.879 246.875 266.747 249.126C266.747 249.126 269.683 246.233 271.299 243.362C272.829 240.645 272.735 237.452 271.066 235.654C268.492 232.882 265.223 233.668 262.74 236.187L265.202 233.207C267.722 230.45 268.276 226.656 265.601 223.504C263.61 221.157 258.522 221.532 255.552 224.149C254.482 225.091 251.309 227.983 251.309 227.983C253.416 225.555 252.696 221.128 250.247 219.045V219.045C248.004 217.138 244.649 217.192 242.54 219.247C232.816 228.722 220.77 238.643 213.132 244.659C213.132 244.659 210.433 233.512 208.976 230.114C207.62 226.948 201.128 223.596 199.511 228.96C197.317 236.232 196.068 248.148 194.894 257.182C182.395 266.904 175.712 272.011 162.873 278.166C150.294 269.769 88.5257 224.865 88.5257 224.865C83.0817 234.228 23.3017 348.167 74.5307 365.91C121.795 382.28 177.027 353.496 223.613 312.482C251.571 287.869 264.945 269.245 270.519 262.36C272.53 259.876 276.291 254.264 274.143 250.486" fill="white"/><path id="path 18" fill-rule="evenodd" clip-rule="evenodd" d="M272.603 256.021C271.902 257.774 270.824 259.481 269.609 261.047C266.985 264.318 264.434 267.672 261.771 270.89C256.466 277.362 250.89 283.602 245.085 289.627C239.285 295.657 233.233 301.445 227.018 307.05C220.799 312.655 214.436 318.097 207.872 323.282C194.752 333.646 180.879 343.098 166.119 350.868C151.381 358.601 135.67 364.714 119.308 367.354C111.145 368.678 102.839 369.063 94.6417 368.305C90.5437 367.919 86.4767 367.253 82.4867 366.27C80.4897 365.787 78.5127 365.223 76.5617 364.581C74.5707 363.96 72.7887 363.25 71.0247 362.332C67.5417 360.503 64.5197 357.911 62.2427 354.721C59.9477 351.542 58.3947 347.819 57.4087 343.928C55.4547 336.102 55.5847 327.737 56.5027 319.549C57.4477 311.333 59.2557 303.185 61.4797 295.158C63.7167 287.128 66.3997 279.208 69.3637 271.393C72.3317 263.579 75.5867 255.865 79.0657 248.254C80.8067 244.451 82.6037 240.671 84.4627 236.925C85.9887 233.866 87.5577 230.785 89.1817 227.811L124.411 253.305L142.998 266.646C148.295 270.416 153.568 274.184 158.945 277.893C156.218 279.155 153.369 280.331 150.552 281.49C146.578 283.1 142.571 284.655 138.556 286.191C130.52 289.248 122.437 292.222 114.339 295.118C113.598 295.383 113.196 296.196 113.446 296.946C113.7 297.706 114.522 298.117 115.282 297.863C123.469 295.13 131.619 292.326 139.751 289.429C143.815 287.972 147.873 286.497 151.917 284.957C155.968 283.383 159.973 281.86 164.028 279.864C164.038 279.859 164.057 279.85 164.066 279.845C164.157 279.797 164.237 279.739 164.317 279.68C169.948 276.963 175.47 273.874 180.645 270.316C186.011 266.653 191.064 262.681 196.121 258.762C196.52 258.451 196.807 257.983 196.876 257.441C197.474 252.781 198.055 248.151 198.729 243.556C199.42 238.977 200.162 234.377 201.389 230.082C201.556 229.471 201.66 229.197 201.818 228.917C201.971 228.655 202.123 228.517 202.263 228.414C202.413 228.325 202.603 228.256 202.891 228.237C203.179 228.224 203.544 228.278 203.924 228.394C204.69 228.625 205.511 229.107 206.151 229.693C206.471 229.984 206.751 230.303 206.944 230.602C206.981 230.674 207.04 230.75 207.065 230.815L207.118 230.917L207.19 231.093C207.286 231.33 207.385 231.559 207.478 231.825C208.23 233.893 208.837 236.164 209.449 238.387C210.051 240.624 210.629 242.885 211.177 245.132C211.244 245.401 211.37 245.674 211.553 245.905C212.24 246.777 213.503 246.926 214.374 246.239C221.896 240.307 229.253 234.184 236.393 227.774C238.172 226.165 239.942 224.544 241.686 222.89L242.99 221.644L243.641 221.019L243.965 220.708L244.179 220.521C244.762 220.046 245.492 219.746 246.266 219.714C247.035 219.669 247.823 219.868 248.472 220.285C248.806 220.492 249.09 220.733 249.336 221.039C249.594 221.333 249.817 221.692 249.992 222.083C250.741 223.631 250.647 225.7 249.764 226.644C249.66 226.755 249.576 226.877 249.501 227.005C248.624 227.999 247.686 228.992 246.738 229.973C245.687 231.059 244.618 232.137 243.539 233.209C241.384 235.352 239.192 237.478 236.992 239.576L236.984 239.584C236.425 240.119 236.374 241.003 236.881 241.601C237.408 242.221 238.338 242.296 238.958 241.77C241.3 239.781 243.615 237.78 245.916 235.742C247.066 234.723 248.21 233.695 249.347 232.648C250.384 231.69 251.412 230.722 252.435 229.69C252.498 229.644 252.564 229.604 252.623 229.55L252.684 229.496L255.566 226.886L256.982 225.611C257.347 225.299 257.765 225.024 258.216 224.795C259.116 224.333 260.152 224.051 261.152 223.993C262.145 223.926 263.125 224.125 263.679 224.5C263.821 224.59 263.933 224.688 264.021 224.79C264.134 224.928 264.324 225.163 264.452 225.35C264.728 225.751 264.932 226.172 265.092 226.6C265.382 227.461 265.41 228.366 265.171 229.269C264.912 230.186 264.451 231.013 263.699 231.851L261.181 234.901C261.144 234.947 261.117 234.998 261.084 235.045C258.457 237.849 255.666 240.616 252.898 243.366L244.256 251.815L244.239 251.832C243.645 252.415 243.612 253.369 244.178 253.991C244.756 254.627 245.741 254.674 246.378 254.096L255.354 245.94C258.293 243.224 261.219 240.535 264.103 237.667C264.124 237.648 264.149 237.633 264.17 237.612L264.177 237.606C264.771 237.008 265.433 236.523 266.088 236.226C266.749 235.946 267.364 235.858 267.913 235.983C268.465 236.09 269.014 236.442 269.54 236.977C269.944 237.396 270.213 237.963 270.318 238.679C270.431 239.379 270.366 240.174 270.147 240.934C269.936 241.712 269.579 242.383 269.048 243.201C268.049 244.727 266.745 246.258 265.438 247.599C265.403 247.633 265.363 247.66 265.33 247.697L265.316 247.712L254.757 259.307L254.749 259.316C254.191 259.93 254.205 260.88 254.794 261.478C255.404 262.097 256.401 262.105 257.02 261.495L268.03 250.65C268.069 250.616 268.112 250.588 268.149 250.551C268.166 250.535 268.181 250.517 268.197 250.5L268.198 250.501C268.463 250.216 268.754 250.022 269.107 249.874C269.459 249.732 269.893 249.648 270.36 249.696C270.825 249.74 271.316 249.89 271.754 250.153C272.19 250.419 272.554 250.8 272.816 251.24C273.538 252.446 273.304 254.28 272.603 256.021M275.467 249.733C275.007 248.912 274.384 248.188 273.653 247.591C273.07 247.109 272.402 246.713 271.671 246.435C271.919 246.092 272.168 245.75 272.408 245.389C273.022 244.461 273.677 243.274 274.011 242.027C274.365 240.782 274.5 239.443 274.293 238.077C274.105 236.727 273.502 235.286 272.449 234.196C271.532 233.24 270.273 232.357 268.764 232.044C268.655 232.019 268.545 232.005 268.436 231.987C268.697 231.454 268.929 230.901 269.084 230.322C269.295 229.51 269.402 228.661 269.388 227.803C269.356 226.946 269.197 226.096 268.933 225.288C268.646 224.49 268.269 223.736 267.807 223.061C267.565 222.713 267.349 222.435 267.044 222.075C266.701 221.689 266.31 221.363 265.903 221.1C264.249 220.047 262.512 219.855 260.923 219.929C259.32 220.025 257.788 220.443 256.364 221.164C255.673 221.515 255.011 221.946 254.397 222.459C254.251 221.739 254.025 221.036 253.711 220.362C253.1 218.993 252.02 217.656 250.643 216.814C249.278 215.952 247.645 215.539 246.036 215.633C244.424 215.709 242.83 216.339 241.574 217.377L241.118 217.783L240.798 218.091L240.161 218.707L238.881 219.932C237.169 221.562 235.425 223.164 233.67 224.755C227.399 230.405 220.915 235.848 214.314 241.133C213.412 237.588 212.47 234.074 211.262 230.461C211.168 230.173 211.045 229.861 210.926 229.554L210.837 229.324L210.701 229.029C210.61 228.826 210.503 228.658 210.401 228.473C209.975 227.778 209.48 227.208 208.949 226.699C207.879 225.694 206.662 224.917 205.201 224.424C204.469 224.185 203.669 224.02 202.786 224.033C201.906 224.049 200.929 224.274 200.07 224.783C198.313 225.804 197.593 227.789 197.326 228.912C196.027 233.63 195.329 238.303 194.665 242.975C194.051 247.37 193.567 251.758 193.01 256.113C188.179 259.861 183.373 263.612 178.395 267.009C173.517 270.362 168.373 273.25 163.035 275.851C157.108 271.801 151.208 267.58 145.322 263.39L126.749 250.06L89.6997 223.249L89.6767 223.231C89.6177 223.189 89.5567 223.15 89.4927 223.114C88.5407 222.575 87.3327 222.91 86.7947 223.861C84.6647 227.625 82.7817 231.359 80.8907 235.156C79.0167 238.944 77.2067 242.762 75.4547 246.605C71.9507 254.293 68.6727 262.087 65.6807 269.999C62.6917 277.91 59.9817 285.938 57.7167 294.114C55.4627 302.289 53.6217 310.614 52.6537 319.112C52.1757 323.36 51.9157 327.65 52.0247 331.965C52.1337 336.275 52.5977 340.621 53.6857 344.877C54.7677 349.123 56.4977 353.305 59.1367 356.956C61.7497 360.614 65.2847 363.634 69.2517 365.704C71.2167 366.733 73.3597 367.57 75.3837 368.196C77.4277 368.866 79.4977 369.453 81.5877 369.956C85.7647 370.979 90.0177 371.669 94.2917 372.067C102.847 372.847 111.474 372.429 119.903 371.052C136.803 368.3 152.85 362.008 167.834 354.125C182.839 346.201 196.87 336.609 210.117 326.118C223.364 315.612 235.848 304.182 247.49 291.926C253.3 285.79 258.878 279.426 264.173 272.841L272.019 262.926C273.372 261.172 274.576 259.297 275.441 257.142C275.863 256.062 276.2 254.903 276.289 253.632C276.383 252.375 276.169 250.954 275.467 249.733" fill="#141414"/></g><g id="neck"><path id="SKIN_3" fill-rule="evenodd" clip-rule="evenodd" d="M241.062 34C241.062 34 240.975 69.356 240.975 87.263C240.975 100.44 215.821 97.81 196 103.187C207.482 123.075 230.617 141.046 269.005 141.049H269.023C307.411 141.046 330.388 126.865 341.869 106.977C321.733 99.262 297.053 100.44 297.053 87.263C297.053 69.356 296.966 34 296.966 34H241.062Z" fill="white"/><path id="path 20" fill-rule="evenodd" clip-rule="evenodd" d="M296.962 32.0001C298.017 31.9975 298.882 32.8112 298.961 33.8459L298.984 41.3075L299.054 86.1883L299.054 87.2631C299.054 92.7776 303.989 95.4269 318.346 98.6634L325.642 100.278L326.962 100.578C329.104 101.071 330.966 101.526 332.769 102.002C336.387 102.959 339.599 103.965 342.586 105.109C343.734 105.549 344.217 106.912 343.602 107.977C330.807 130.141 305.998 142.792 270.115 143.045L269.006 143.049C233.807 143.046 208.077 128.104 194.269 104.187C193.613 103.05 194.211 101.6 195.478 101.257C198.513 100.433 201.788 99.7557 205.592 99.1309L206.415 98.9977C207.786 98.7793 209.212 98.5686 210.84 98.3409L217.9 97.3827C233.801 95.1562 238.976 92.9251 238.976 87.2631L239.023 52.3L239.063 33.9951C239.066 32.8906 239.964 31.9973 241.068 32.0001C242.173 32.0028 243.066 32.9004 243.063 34.005L242.977 83.8997L242.976 87.2631C242.976 92.193 240.121 95.5628 234.864 97.7475L234.518 97.8883C230.781 99.3756 226.645 100.213 218.547 101.333L212.008 102.217L210.228 102.468C209.093 102.631 208.052 102.787 207.044 102.948C204.359 103.375 201.955 103.824 199.733 104.324L199.107 104.467L199.359 104.868C212.656 125.761 236.096 138.773 267.996 139.045L269.024 139.049C302.739 139.046 326.051 127.986 338.623 108.462L338.899 108.024L338.228 107.795C336.467 107.203 334.606 106.643 332.61 106.101L331.746 105.869L330.682 105.592C329.069 105.179 327.367 104.772 325.421 104.329L317.968 102.678C310.162 100.937 305.869 99.6774 302.323 97.8183C297.592 95.3378 295.054 91.9296 295.054 87.2631L295.004 50.7027L294.967 34.005C294.964 32.9004 295.858 32.0028 296.962 32.0001Z" fill="#141414"/></g></g></g><g id="Head" transform="translate(439 92) scale(1 1)"><g id="Head/Bun 1"><path id="SKIN" fill-rule="evenodd" clip-rule="evenodd" d="M149.882 102.094C143.885 52.3538 111.153 49.4878 87.5365 53.7808C68.7135 57.2038 44.6345 72.7648 46.7665 104.073C37.3415 101.013 30.4605 106.742 29.2365 114.189C27.8495 122.64 32.2855 136.935 46.2375 134.473C49.2925 158.699 66.0495 186.607 111.579 181.938C146.05 178.402 155.34 147.368 149.882 102.094" fill="white"/><path id="Combined Shape" fill-rule="evenodd" clip-rule="evenodd" d="M48.2218 134.223C50.0038 147.852 56.1648 161.361 67.2638 169.967C80.2308 182.118 123.203 187.006 138.219 166.456C150.998 153.433 152.906 108.249 143.117 82.1546C136.341 82.9006 125.94 83.7646 116.458 83.3946C114.284 80.3254 111.939 74.4372 110.251 70.2005C109.438 68.1591 108.778 66.5011 108.363 65.7266C107.149 67.3883 108.797 76.1561 109.788 81.4324C109.982 82.462 110.15 83.3587 110.268 84.0436C97.0758 90.4936 68.8828 93.7306 53.0198 90.8096C52.8477 93.8559 53.3909 97.1587 53.8662 100.049C54.9346 106.546 55.6603 110.959 47.1488 105.69C33.7148 97.3736 26.8068 119.976 36.0728 128.937C41.1758 133.873 44.9738 134.217 48.2218 134.223ZM68.0298 20.0796C63.1798 22.1526 50.3648 27.8466 50.1838 33.2466C71.0618 15.7416 140.214 7.6086 161.314 70.6596C168.06 92.5106 172.203 170.211 170.874 177.185C159.948 179.461 143.566 181.963 128.953 181.631C128.698 180.908 128.536 180.137 128.41 179.347C110.504 187.697 84.463 186.383 69 176C69.4059 179.508 69.358 181.906 69.3227 183.671C69.2949 185.064 69.275 186.062 69.4918 186.9C54.2508 189.358 31.6008 183.212 31.6008 183.212C31.6008 183.212 -7.27916 103.685 29.5848 57.1906C20.9498 55.1986 2.86084 42.6746 15.1488 16.7706C24.6558 -3.2704 58.7758 -3.6294 68.0298 20.0796ZM43.8325 118.933C43.6189 119.964 43.4228 120.91 42.3775 120.698C39.1875 120.05 38.7805 115.497 41.6905 114.023C44.0785 112.814 44.8125 115.511 44.0495 118.022C43.9606 118.314 43.8958 118.627 43.8325 118.933Z" fill="#141414"/></g></g><g id="Face" transform="translate(499 178) scale(1 1)"><g id="Face/Normal Face 2"><path id="Normal face 2" fill-rule="evenodd" clip-rule="evenodd" d="M78.6678 13.3124C77.5278 11.8974 76.0488 10.6384 74.3148 9.74741C72.5888 8.83741 70.6498 8.37241 68.7778 8.15441C66.8968 7.94241 65.0538 7.96141 63.2758 8.13341C61.4978 8.30741 59.7718 8.58841 58.0678 8.89041C57.8938 8.92241 57.7018 8.97341 57.5288 9.03641C55.9038 9.63541 55.0728 11.4394 55.6718 13.0644C56.2718 14.6894 58.0748 15.5204 59.6998 14.9214C61.1678 14.3794 62.6468 13.9194 64.1118 13.5884C65.5758 13.2594 67.0288 13.0184 68.4248 13.0444C71.2348 13.0974 73.6308 14.1784 75.9948 15.9984L76.0218 16.0194C76.7028 16.5434 77.6788 16.5554 78.3788 15.9914C79.1978 15.3314 79.3278 14.1314 78.6678 13.3124ZM26.5348 10.7451C27.8138 10.7087 29.0491 10.6735 30.2504 10.5639C31.9014 10.4139 33.3624 11.6309 33.5124 13.2829C33.6624 14.9339 32.4454 16.3949 30.7934 16.5439C30.7254 16.5509 30.6564 16.5549 30.5884 16.5559L30.5414 16.5569C28.6041 16.5948 26.7364 16.4748 24.9549 16.3603L24.9549 16.3603C23.4912 16.2662 22.0856 16.1758 20.7474 16.1799C19.2624 16.1819 17.8524 16.3239 16.4984 16.6889C15.1454 17.0589 13.8434 17.6039 12.4334 18.2039L12.3614 18.2339C11.4994 18.6019 10.5024 18.1999 10.1354 17.3379C9.86637 16.7059 10.0124 16.0009 10.4484 15.5249C11.6784 14.1879 13.2804 13.1399 15.0244 12.4399C16.7654 11.7229 18.6144 11.3109 20.3944 11.0869C21.9192 10.8953 23.3965 10.8464 24.8169 10.7993L24.8169 10.7993L24.817 10.7993C25.0574 10.7914 25.2962 10.7835 25.5334 10.7749C25.8702 10.764 26.2039 10.7545 26.5347 10.7451L26.5348 10.7451ZM66.0818 30.3932C65.6738 27.5712 67.4098 24.9832 69.9618 24.6142C72.5128 24.2452 74.9108 26.2342 75.3188 29.0562C75.7278 31.8792 73.9908 34.4662 71.4408 34.8352C68.8888 35.2042 66.4898 33.2152 66.0818 30.3932ZM48.6647 56.9164C48.2147 56.8144 47.8807 56.7204 47.3057 56.4744C46.5957 56.1714 46.2657 55.3504 46.5697 54.6404C46.7477 54.2224 47.1067 53.9364 47.5157 53.8334L48.0587 53.7004C48.2797 53.6464 48.7597 53.6634 49.1197 53.6824L49.2238 53.6894C49.5738 53.7128 49.8236 53.7295 50.1867 53.7304C50.9187 53.7374 51.6387 53.6824 52.3197 53.5634C53.6837 53.3234 54.8547 52.7604 55.4057 52.0114C55.6897 51.6364 55.8617 51.1994 55.9297 50.6594C56.0027 50.1344 55.9627 49.4604 55.8247 48.9954C55.5757 48.0634 54.8177 47.2804 53.6557 46.5034C53.0877 46.1224 52.4497 45.7684 51.7667 45.4554L51.5137 45.3344L51.3567 45.2604C51.2017 45.1854 51.0047 45.0564 50.9157 44.9784C50.8197 44.8964 50.7227 44.8044 50.6407 44.7134L50.4757 44.5034C50.1816 44.0661 50.0961 43.8105 50.0152 43.5686C49.9984 43.5184 49.9819 43.4689 49.9637 43.4184C49.7987 42.8724 49.7167 42.4184 49.6427 41.9674C49.3707 40.1914 49.2827 38.5434 49.1977 36.8714C49.0357 33.5424 49.0307 30.2574 49.1067 26.9454C49.1247 26.1664 49.7697 25.5494 50.5487 25.5674C51.2857 25.5844 51.8787 26.1634 51.9247 26.8864L51.9257 26.9054C52.1227 30.1454 52.3497 33.4104 52.6527 36.6194C52.8167 38.2124 53.0017 39.8344 53.3067 41.2864C53.3627 41.5454 53.4267 41.7874 53.4917 41.9994C54.2557 42.3124 55.0207 42.6744 55.7797 43.1254C56.5897 43.6244 57.4147 44.2214 58.1257 45.0504C58.8487 45.8574 59.4137 46.9404 59.6617 48.0494C59.9067 49.1754 59.9107 50.1734 59.7377 51.2644C59.5637 52.3424 59.0947 53.4764 58.3417 54.3734C57.5967 55.2774 56.6387 55.9174 55.6837 56.3264C54.7197 56.7354 53.7547 56.9374 52.8127 57.0494C51.8707 57.1544 50.9467 57.1614 50.0427 57.0944C49.6217 57.0664 49.0677 57.0134 48.6647 56.9164ZM61.1112 69.5312L61.0952 69.5392C57.2432 71.4512 52.7582 71.8822 48.5372 71.3392C46.4512 71.1012 44.4252 70.5622 42.5902 69.6642C41.6692 69.2282 40.7902 68.7112 39.9862 68.1162C39.5832 67.8202 39.1982 67.5062 38.8352 67.1812C38.7863 67.1346 38.7368 67.0883 38.6874 67.042C38.5609 66.9237 38.4351 66.806 38.3222 66.6852C38.1692 66.5362 37.9802 66.3152 37.9372 66.2582C37.8892 66.1932 37.8362 66.1272 37.7812 66.0672C36.8542 65.0412 35.2702 64.9612 34.2442 65.8882C33.2182 66.8152 33.1392 68.3982 34.0662 69.4242L34.0882 69.4482C34.4272 69.8242 34.6382 70.0202 34.9082 70.2632C35.1152 70.4549 35.3256 70.6276 35.536 70.8004C35.5857 70.8413 35.6355 70.8821 35.6852 70.9232C36.2112 71.3362 36.7482 71.7192 37.3002 72.0722C38.4032 72.7812 39.5662 73.3672 40.7642 73.8452C43.1542 74.8272 45.6972 75.3262 48.2112 75.4512C50.7132 75.5762 53.1742 75.2872 55.5922 74.7232C58.0002 74.1412 60.3322 73.1982 62.4272 71.8642C62.9962 71.4992 63.2152 70.7542 62.9092 70.1362C62.5792 69.4722 61.7742 69.2012 61.1112 69.5312ZM16.7508 30.7827C17.1588 27.9607 19.5578 25.9717 22.1088 26.3407C24.6598 26.7097 26.3968 29.2967 25.9888 32.1187C25.5808 34.9417 23.1818 36.9297 20.6298 36.5617C18.0798 36.1927 16.3428 33.6047 16.7508 30.7827Z" fill="#141414"/></g></g><g id="Accessories" transform="translate(491 176) scale(103 60)"><g id="Accessories/None" stroke="none" stroke-width="1" fill="none" fill-rule="evenodd" fill-opacity="0"/></g><g id="Facial Hair" transform="translate(501 234) scale(90 60)"><g id="Facial Hair/None" stroke="none" stroke-width="1" fill="none" fill-rule="evenodd" fill-opacity="0"/></g></g></g><g id="Master/Character/Sitting on Floor" transform="translate(1131.63 270) scale(1 1)"><g id="Master/Character/Sitting on Floor"><g id="Upper Body" transform="translate(190 768) scale(1 1)"><g id="Upper Body/Recording"><g id="Hand 2"><path id="SKIN" fill-rule="evenodd" clip-rule="evenodd" d="M451.522 102.348C445.326 122.645 418.117 193.86 399.303 200.614L336.449 250.647C346.182 271.736 381.289 297.7 399.643 297.7C417.996 297.7 477.046 283.969 501.517 124.141C506.962 100.149 497.635 69.0493 491.516 75.5083C478.275 89.4833 451.522 102.348 451.522 102.348" fill="white"/><path id="Fill 3" fill-rule="evenodd" clip-rule="evenodd" d="M339.11 251.248C349.346 271.128 382.455 295.573 399.644 295.573C421.849 295.573 439.931 277.319 446.674 269.471C471.254 240.864 488.999 191.86 499.417 123.82C499.424 123.77 499.434 123.72 499.445 123.671C503.378 106.342 499.339 85.3107 494.832 78.4457C493.957 77.1137 493.393 76.8307 493.26 76.7797C493.247 76.8007 493.171 76.8547 493.061 76.9707C480.871 89.8377 458.02 101.511 453.282 103.856C448.217 119.91 421.089 194.331 400.367 202.486L339.11 251.248ZM399.644 299.827C380.427 299.827 344.517 273.2 334.52 251.539C334.109 250.649 334.359 249.594 335.126 248.983L397.98 198.95C398.162 198.806 398.367 198.691 398.586 198.612C415.415 192.571 441.819 126.856 449.489 101.727C449.663 101.16 450.067 100.69 450.602 100.432C450.866 100.305 477.16 87.5707 489.973 74.0457C491.491 72.4437 493.502 72.0797 495.352 73.0677C502.688 76.9877 508.186 104.247 503.61 124.538C478.69 287.198 417.735 299.827 399.644 299.827V299.827Z" fill="#141414"/><g id="Phone"><path id="Fill 5" fill-rule="evenodd" clip-rule="evenodd" d="M508.704 130.705L474.751 141.625C470.444 143.01 465.829 140.642 464.443 136.334L438.485 55.6227C437.1 51.3157 439.468 46.7007 443.775 45.3157L477.728 34.3957C482.036 33.0097 486.651 35.3787 488.036 39.6857L513.995 120.397C515.38 124.705 513.012 129.319 508.704 130.705" fill="#141414"/><circle id="Oval" cx="479.289" cy="47.75" r="3.75" fill="#13D6C3"/></g><g id="palm"><path id="SKIN_2" fill-rule="evenodd" clip-rule="evenodd" d="M508.405 105.404C504.072 104.497 498.066 107.552 498.329 112.155C498.53 115.681 502.964 118.553 509.211 115.279C513.795 112.876 512.335 106.227 508.405 105.404" fill="white"/><path id="SKIN_3" fill-rule="evenodd" clip-rule="evenodd" d="M501.058 75.8014C502.574 69.6034 497.558 65.3934 490.548 68.6844C488.57 69.6134 485.557 71.7994 485.427 75.2694C485.094 84.1154 499.981 80.2024 501.058 75.8014" fill="white"/><path id="SKIN_4" fill-rule="evenodd" clip-rule="evenodd" d="M507.63 103.648C512.079 100.775 510.186 92.4986 504.878 91.7156C503.653 91.5346 502.386 91.6096 501.148 91.8836C503.223 90.8756 504.718 89.5626 505.304 88.2836C507.782 82.8726 502.619 75.2246 491.128 81.9906C484.859 85.6816 487.302 93.4306 492.451 93.6266C494.442 93.7016 496.328 93.4686 498.018 93.0306C493.933 95.1566 491.07 99.3336 492.866 103.131C494.877 107.382 501.055 107.894 507.63 103.648" fill="white"/><path id="Fill 14" fill-rule="evenodd" clip-rule="evenodd" d="M508.227 113.395C505.72 114.709 503.386 114.955 501.822 114.069C501.001 113.604 500.502 112.862 500.455 112.034C500.381 110.738 501.192 109.754 501.886 109.157C503.179 108.045 505.104 107.372 506.816 107.372C507.217 107.372 507.606 107.409 507.973 107.486C508.924 107.685 509.715 108.731 509.896 110.03C509.993 110.728 510.025 112.453 508.227 113.395M494.789 102.222C493.976 100.501 494.766 98.8437 495.571 97.7567C496.404 96.6327 497.564 95.6947 498.852 95.0017C499.885 94.7157 500.851 94.3587 501.74 93.9467C502.335 93.8247 502.93 93.7437 503.511 93.7437C503.87 93.7437 504.224 93.7687 504.568 93.8197C506.476 94.1007 507.532 95.9497 507.856 97.4467C508.165 98.8727 507.989 100.884 506.476 101.861C503.112 104.034 499.662 104.918 497.256 104.233C496.093 103.901 495.263 103.225 494.789 102.222M489.644 88.9297C489.458 88.1947 489.095 85.6547 492.207 83.8227C494.865 82.2577 497.313 81.4587 499.284 81.4587C500.608 81.4587 501.717 81.8197 502.528 82.5517C503.804 83.7037 504.151 85.6957 503.371 87.3977C503.036 88.1297 501.956 89.0987 500.323 89.9137C499.306 90.1687 498.303 90.5347 497.346 91.0027C495.923 91.3607 494.304 91.5667 492.532 91.5007C490.863 91.4377 489.933 90.0767 489.644 88.9297M491.455 70.6087C494.063 69.3847 496.472 69.3497 497.895 70.5147C499.097 71.4987 499.498 73.2407 498.995 75.2957C498.752 76.2867 494.421 78.9637 490.269 78.3837C487.79 78.0377 487.505 76.6557 487.554 75.3497C487.66 72.5317 490.822 70.9067 491.455 70.6087M514.108 109.444C513.768 106.996 512.362 104.961 510.445 103.93C512.001 102.022 512.616 99.3277 512.013 96.5457C511.337 93.4247 509.334 91.0257 506.737 90.0367C506.93 89.7487 507.105 89.4597 507.238 89.1697C508.808 85.7427 508.06 81.8137 505.377 79.3947C504.806 78.8787 503.852 78.1997 502.503 77.7337C502.789 77.2787 503.005 76.8037 503.126 76.3067C504.02 72.6517 503.072 69.2557 500.589 67.2237C497.866 64.9947 493.775 64.8217 489.647 66.7587V66.7597C488.207 67.4357 483.498 70.0407 483.304 75.1887C483.179 78.5257 484.77 80.9877 487.643 82.0817C485.625 84.2617 484.805 87.1367 485.519 89.9707C486.315 93.1227 488.826 95.3467 491.85 95.6867C490.044 98.3897 489.697 101.404 490.944 104.04C491.951 106.169 493.73 107.65 496.09 108.323C496.397 108.41 496.721 108.461 497.041 108.519C496.431 109.692 496.134 110.965 496.209 112.277C496.338 114.542 497.653 116.596 499.726 117.77C500.985 118.483 502.435 118.838 503.991 118.838C505.95 118.838 508.077 118.276 510.202 117.162C513.065 115.661 514.562 112.704 514.108 109.444" fill="#141414"/><path id="SKIN_5" fill-rule="evenodd" clip-rule="evenodd" d="M472.99 135.328C471.484 127.612 464.212 124.771 459.885 124.083C461.489 111.89 455.927 101.452 453.974 98.6859C450.999 94.4709 440.097 92.2039 442.109 103.38C443.668 112.043 445.903 116.97 444.115 124.346L452.983 130.111C452.592 131.227 452.266 132.371 452.044 133.427C449.011 147.861 467.07 152.62 472.435 149.082C475.308 147.188 474.552 143.335 472.99 135.328" fill="white"/><path id="Fill 18" fill-rule="evenodd" clip-rule="evenodd" d="M476.035 141.052C476.035 142.422 475.974 143.722 475.745 145.162C475.625 145.922 474.915 146.432 474.155 146.312C473.435 146.192 472.935 145.532 473.005 144.812L473.014 144.722C473.235 142.422 473.115 139.872 472.605 137.552C472.135 135.202 471.235 132.972 469.925 131.092C469.275 130.142 468.514 129.282 467.695 128.632C466.855 127.952 465.885 127.392 464.825 126.962C463.795 126.542 462.685 126.212 461.565 125.972C461.325 127.042 461.025 128.102 460.675 129.152C460.385 130.002 459.455 130.472 458.595 130.182C457.755 129.892 457.295 128.972 457.565 128.122C457.835 127.272 458.065 126.422 458.264 125.552C458.575 124.172 458.795 122.772 458.925 121.352C459.235 117.952 459.014 114.492 458.325 111.132C457.755 108.322 456.865 105.532 455.595 103.072C455.285 102.472 454.935 101.882 454.585 101.432C454.275 101.032 453.795 100.592 453.295 100.202C452.264 99.4219 451.055 98.7619 449.825 98.2919C448.605 97.8219 447.305 97.5419 446.235 97.6319C445.715 97.6719 445.285 97.8119 444.985 98.0019C444.695 98.1919 444.485 98.4419 444.315 98.8419C443.974 99.6319 443.965 100.942 444.165 102.232C444.215 102.562 444.285 102.892 444.355 103.222L444.595 104.302L445.115 106.462C445.805 109.352 446.685 112.342 446.945 115.652C447.065 117.292 447.014 118.982 446.764 120.622C446.505 122.252 446.085 123.822 445.595 125.352C445.235 126.472 444.045 127.082 442.925 126.722C441.805 126.372 441.185 125.172 441.545 124.052L441.555 124.042L441.565 123.982C442.014 122.652 442.385 121.312 442.615 119.972C442.845 118.622 442.905 117.292 442.825 115.932C442.655 113.212 441.895 110.362 441.205 107.402L440.705 105.162L440.465 104.032C440.385 103.632 440.315 103.222 440.255 102.802C440.055 101.142 439.915 99.3019 440.745 97.3019C441.165 96.3119 441.945 95.3319 442.935 94.7319C443.925 94.1219 444.995 93.8719 445.965 93.8119C447.925 93.7019 449.615 94.1719 451.195 94.7819C452.764 95.4119 454.215 96.2219 455.575 97.2819C456.255 97.8219 456.895 98.4019 457.505 99.2019C458.065 99.9519 458.465 100.672 458.835 101.412C460.285 104.332 461.185 107.352 461.775 110.452C462.485 114.222 462.675 118.122 462.245 121.952C462.305 121.972 462.375 121.982 462.435 122.002C463.785 122.352 465.125 122.812 466.425 123.422C467.715 124.032 468.965 124.812 470.085 125.802C471.224 126.822 472.115 127.962 472.855 129.162C474.375 131.582 475.285 134.282 475.695 136.982C475.925 138.332 476.035 139.692 476.035 141.052" fill="#141414"/></g></g><g id="T Shirt"><path id="Fill 1" fill-rule="evenodd" clip-rule="evenodd" d="M155.976 395C153.9 360.757 133.33 174.519 155.976 138.194C191.192 81.7047 282.75 86.3977 282.75 86.3977C282.75 86.3977 329.197 81.5837 362.574 119.297C372.479 130.488 395.954 183.53 400.526 200.125C397.816 208.903 376.927 228.542 366.474 235.236C384.177 310.945 384.979 394.352 384.979 394.352C384.979 394.352 191.452 398.254 155.976 395Z" fill="#ff4b33"/><path id="Fill 3_2" fill-rule="evenodd" clip-rule="evenodd" d="M356.122 184.488C355.476 182.768 352.729 183.977 353.53 185.699C356.52 194.928 363.304 231.047 364.356 235.061C376.995 300.78 382.998 379.532 382.866 392.315C362.992 392.479 198.712 396.129 158.272 393.541C157.998 353 131.998 184 157.82 139.255C174.593 110.191 207.488 97.9178 232.154 92.7658C259.114 87.1338 282.385 88.5058 282.618 88.5208C283.815 88.3368 328.23 84.2498 360.983 120.706C370.269 131.198 393.302 182.705 398.301 200.061C395.326 207.802 378.137 224.404 367.583 231.913C366.603 228.561 358.52 193.928 356.122 184.488ZM364.168 117.887C331.529 81.0088 286.013 83.9958 282.718 84.2668C243.387 81.8978 176.547 94.9828 154.135 137.134C128.01 191.268 151.583 322.081 153.539 371.371C154.245 380.387 153.473 397.097 155.397 397.147C207.784 397.814 366.071 396.505 385.076 396.477C386.2 396.426 387.091 395.508 387.107 394.383C387.119 393.582 381.059 307.663 368.113 236.249C378.522 228.684 401.001 209.961 402.578 199.561C398.253 183.862 374.685 129.77 364.168 117.887Z" fill="#141414"/></g><g id="neck"><path id="SKIN_6" fill-rule="evenodd" clip-rule="evenodd" d="M244.135 56.8269C244.135 56.8269 242.777 91.2659 228.548 96.1829C224.677 115.539 250.909 128.756 270.849 127.82C309.45 126.008 297.437 94.4569 294.782 94.3709C294.859 90.4159 296.991 60.8339 296.991 60.8339L244.135 56.8269Z" fill="white"/><path id="Fill 27" fill-rule="evenodd" clip-rule="evenodd" d="M230.446 97.7058C229.755 102.768 231.324 107.565 235.121 111.981C242.489 120.552 257.469 126.329 270.749 125.696C284.016 125.073 292.545 120.657 295.412 112.926C298.106 105.665 295.139 97.7908 293.941 96.3258C293.17 95.9938 292.637 95.2198 292.654 94.3298C292.721 90.9438 294.225 69.6848 294.718 62.7938L246.128 59.1108C245.563 66.8108 242.787 91.9588 230.446 97.7058M268.819 129.994C254.89 129.994 239.651 123.774 231.896 114.754C226.996 109.056 225.117 102.489 226.462 95.7668C226.61 95.0258 227.139 94.4198 227.852 94.1738C238.387 90.5328 241.643 65.9188 242.009 56.7428C242.032 56.1658 242.288 55.6228 242.719 55.2388C243.151 54.8548 243.724 54.6678 244.295 54.7058L297.151 58.7128C298.319 58.8018 299.196 59.8178 299.112 60.9868C299.092 61.2628 297.244 86.9208 296.946 93.3708C299.261 95.8658 300.73 101.981 300.761 106.312C300.806 112.38 298.725 117.675 294.742 121.624C289.683 126.642 281.677 129.441 270.948 129.945C270.243 129.977 269.532 129.994 268.819 129.994" fill="#141414"/></g><g id="Hand 1"><path id="Fill 29" fill-rule="evenodd" clip-rule="evenodd" d="M232.75 189.505C231.656 198.008 230.677 206.546 229.8 215.078C228.937 223.613 228.176 232.16 227.713 240.691V240.698C227.653 241.802 226.71 242.648 225.607 242.587C224.504 242.527 223.659 241.585 223.718 240.482C223.719 240.476 223.72 240.459 223.72 240.452C224.316 231.819 225.207 223.244 226.198 214.685C227.205 206.126 228.31 197.594 229.535 189.058C229.663 188.171 230.485 187.555 231.372 187.682C232.251 187.809 232.864 188.617 232.751 189.494L232.75 189.505Z" fill="#141414"/><path id="SKIN_7" fill-rule="evenodd" clip-rule="evenodd" d="M452.935 335.888C451.678 330.323 438.487 326.247 428.106 322.354C428.023 322.106 427.953 321.852 427.866 321.605C420.52 300.865 243.771 296.937 233.645 289.75C225.571 284.02 225.858 249.584 225.716 240.571C210.159 241.64 143.621 247.271 143.621 247.271C146.466 342.467 176.378 353.648 197.563 360.492C233.775 372.191 345.337 356.049 370.013 362.503C391.108 368.02 402.004 347.83 415.933 362.351C420.554 367.168 426.751 361.94 428.621 356.053C429.747 352.511 430.688 346.61 430.698 340.007C444.451 342.589 454.328 342.056 452.935 335.888" fill="white"/><path id="Fill 33" fill-rule="evenodd" clip-rule="evenodd" d="M391.516 350.659C393.539 352.437 395.518 356.189 395.519 362.557C395.521 368.322 396.976 370.487 399.981 370.818C404.049 371.265 405.866 367.685 406.822 361.233C407.209 358.618 407.224 353.835 406.472 350.663" fill="white"/><path id="Fill 35" fill-rule="evenodd" clip-rule="evenodd" d="M417.939 337.421C419.677 349.371 418.293 362.439 414.729 366.15C410.876 370.164 405.864 368.677 406.573 362.876C407.277 357.123 406.641 348.72 404.902 343.505" fill="white"/><path id="Fill 37" fill-rule="evenodd" clip-rule="evenodd" d="M450.587 337.892C449.097 339.382 443.657 340.102 432.817 338.222C432.727 334.192 432.267 329.942 431.287 325.802C439.003 328.87 452.668 332.864 450.587 337.892M426.597 355.412C425.234 359.149 422.424 362.766 418.997 361.942C420.959 353.824 420.509 345.359 419.067 337.251C418.841 335.927 416.769 336.125 416.797 337.472C417.464 344.723 417.353 352.136 415.677 359.182C415.013 361.498 414.377 363.957 412.367 365.382C411.176 366.184 409.728 366.759 408.977 365.462C408.321 362.249 409.227 356.308 408.247 350.852C407.88 348.812 407.326 341.919 404.608 342.221C403.857 342.402 403.397 343.152 403.577 343.892C405.139 350.298 404.95 357.165 404.347 363.722C403.435 366.194 401.98 369.926 398.947 368.162C396.357 364.664 398.141 359.116 396.246 355.082C395.462 353.196 393.163 347.455 390.317 349.522C389.687 350.192 389.717 351.242 390.377 351.871C391.872 353.244 392.804 355.565 393.197 357.692C386.416 360.168 379.607 362.813 370.547 360.442C336.162 354.258 228.31 369.833 198.217 358.47C178.597 352.132 149.017 342.572 145.807 249.222C156.527 248.312 206.887 244.072 223.617 242.852C223.816 263.86 225.035 286.266 232.417 291.482C236.337 294.272 255.987 296.072 293.287 299.282C330.855 302.882 384.726 306.06 416.357 316.291C423.237 318.772 425.357 320.892 425.857 322.312C429.406 332.031 429.297 346.417 426.597 355.412M455.007 335.422C453.95 329.045 440.274 324.541 430.259 320.881C430.105 320.825 430.198 320.87 429.797 320.712C429.129 317.92 426.56 315.082 419.65 312.681C384.272 300.384 267.24 294.797 234.875 288.015C230.497 284.912 228.147 269.742 227.867 242.922C227.905 240.929 228.108 238.413 225.566 238.452C210.177 239.512 144.107 245.092 143.447 245.152C142.317 245.251 141.467 246.202 141.497 247.331C144.402 331.328 163.381 370.26 242.657 367C276.27 367.889 344.96 359.876 369.477 364.561C379.287 367.132 386.887 364.541 393.577 362.072C393.574 365.328 393.415 368.827 396.037 371.452C399.352 374.435 404.795 373.281 406.757 369.462C410.532 372.255 415.594 369.442 417.477 365.902C429.629 368.394 432.413 353.387 432.787 342.541C440.707 343.615 456.386 346.259 455.007 335.422" fill="#141414"/></g></g></g><g id="Lower Body Floor" transform="translate(182 1025) scale(1 1)"><g id="Lower Body Floor/Legs Crossed"><g id="Shoe 1"><path id="Fill 1" fill-rule="evenodd" clip-rule="evenodd" d="M350.201 237C350.201 237 297.529 267.81 300.09 297.259C302.651 326.708 325.538 326.068 336.101 325.588C362.348 324.395 390.999 301.461 390.999 301.461L350.201 237Z" fill="#ff4b33"/><path id="Fill 5" fill-rule="evenodd" clip-rule="evenodd" d="M351.191 302.189C350.739 302.189 350.284 302.037 349.91 301.724C336.551 290.57 332.472 276.668 332.305 276.081C332.002 275.019 332.618 273.912 333.68 273.609C334.74 273.308 335.847 273.92 336.151 274.982C336.189 275.114 340.1 288.322 352.474 298.654C353.322 299.362 353.435 300.623 352.727 301.471C352.332 301.945 351.763 302.189 351.191 302.189" fill="#141414"/></g><g id="Leg 1"><path id="Fill 7" fill-rule="evenodd" clip-rule="evenodd" d="M302 108.389C302 108.389 387.625 68.4751 493.526 53.9131C595.957 39.8291 611.633 106.481 586.994 156.344C533.219 265.177 393.587 313.862 393.587 313.862C317.928 275.635 343.287 184.769 302 108.389" fill="#141414"/><path id="Fill 9" fill-rule="evenodd" clip-rule="evenodd" d="M389.116 193.392C388.5 193.392 387.891 193.108 387.5 192.573C386.847 191.681 387.042 190.43 387.933 189.778C388.627 189.271 457.477 138.625 478.089 98.855C478.596 97.875 479.803 97.491 480.784 98C481.765 98.508 482.148 99.715 481.639 100.696C472.789 117.775 454.714 138.51 427.916 162.325C408.021 180.006 390.47 192.878 390.295 193.006C389.938 193.267 389.525 193.392 389.116 193.392" fill="white"/></g><g id="Shoe 2"><path id="Fill 11" fill-rule="evenodd" clip-rule="evenodd" d="M504.78 261.366C504.78 261.366 490.304 271.214 505.081 287.253C512.228 295.012 598.434 329.295 626.118 311.794C638.906 303.71 641.816 294.626 643.154 290.751C628.63 286.326 504.78 261.366 504.78 261.366" fill="#141414"/><path id="Fill 13" fill-rule="evenodd" clip-rule="evenodd" d="M534.438 208.058C551.733 206.951 584.239 221.851 624.391 242.115C664.663 262.438 648.827 305.537 612.106 308.026C590.386 309.498 536.049 296.971 511.193 281.909C491.912 270.225 498.241 247.43 502.523 238.443C508.846 225.174 522.535 208.82 534.438 208.058" fill="#ff4b33"/><path id="Fill 16" fill-rule="evenodd" clip-rule="evenodd" d="M576.784 276.269C576.761 276.268 576.735 276.267 576.71 276.264C575.663 276.181 574.882 275.264 574.966 274.216C576.508 254.85 586.533 242.175 586.958 241.645C587.616 240.828 588.811 240.696 589.634 241.354C590.452 242.012 590.582 243.208 589.926 244.028C589.829 244.148 580.203 256.369 578.758 274.519C578.677 275.541 577.801 276.31 576.784 276.269" fill="#141414"/><path id="Fill 18" fill-rule="evenodd" clip-rule="evenodd" d="M596.324 279.879C596.3 279.878 596.274 279.877 596.25 279.874C595.203 279.791 594.421 278.874 594.505 277.826C595.648 263.461 603.099 254.04 603.416 253.647C604.074 252.828 605.27 252.697 606.091 253.356C606.909 254.014 607.04 255.209 606.384 256.027C606.313 256.116 599.345 264.98 598.297 278.129C598.216 279.151 597.34 279.92 596.324 279.879" fill="#141414"/><path id="SKIN" fill-rule="evenodd" clip-rule="evenodd" d="M513.568 191.311C513.568 191.311 560.968 223.98 563.819 232.374C569.794 249.965 560.353 264.504 548.638 269.291C526.91 278.17 477.944 247.689 477.944 247.689" fill="white"/><path id="Fill 22" fill-rule="evenodd" clip-rule="evenodd" d="M542.146 272.779C518.016 274.776 478.723 250.529 476.887 249.386C475.949 248.802 475.663 247.568 476.246 246.631C476.83 245.695 478.064 245.408 479.001 245.99C479.123 246.066 491.326 253.628 505.983 260.004C525.026 268.287 539.515 270.856 547.882 267.439C558.837 262.964 567.482 249.378 561.925 233.017C560.003 227.359 530.548 205.443 512.433 192.957C511.524 192.33 511.294 191.085 511.921 190.175C512.547 189.265 513.792 189.036 514.703 189.664C514.823 189.746 526.729 197.962 538.83 207.098C561.152 223.952 564.862 229.228 565.712 231.73C572.056 250.407 562.04 265.975 549.395 271.141C547.203 272.038 544.761 272.563 542.146 272.779" fill="#141414"/></g><g id="Leg 2"><path id="Fill 24" fill-rule="evenodd" clip-rule="evenodd" d="M158.43 153.617C166.483 -15.4981 323.957 63.2599 354.919 79.1729C455.59 130.916 557.875 194.139 557.875 194.139C560.758 246.803 501.836 294.03 465.935 299.277L341.297 236.679C341.297 236.679 309.643 282.211 252.84 279.801C178.376 276.641 154.384 238.585 158.43 153.617" fill="#0B379B"/><path id="Fill 27" fill-rule="evenodd" clip-rule="evenodd" d="M341.402 236.758C335.16 233.463 293.082 211.039 272.055 194.455C271.187 193.771 269.929 193.919 269.246 194.787C268.562 195.654 268.711 196.912 269.578 197.596C290.212 213.87 330.628 235.575 338.852 239.935C339.781 238.88 340.734 237.733 341.402 236.758" fill="white"/></g></g></g><g id="Head" transform="translate(357 673) scale(1 1)"><g id="Head/Short Hair 5"><g id="Short Hair"><path id="SKIN" fill-rule="evenodd" clip-rule="evenodd" d="M148.168 96.6129C136.722 46.4539 104.121 42.8329 80.5028 47.1269C61.6798 50.5489 43.4008 66.7319 45.5328 98.0389C38.8888 91.6439 29.4398 95.5399 27.6758 102.878C25.6178 111.445 31.0518 130.902 45.0038 128.439C46.3478 151.434 65.3538 185.121 103.058 184.812C144.128 184.476 158.313 141.072 148.168 96.6129" fill="white"/><path id="ink" fill-rule="evenodd" clip-rule="evenodd" d="M42.9566 126.437C44.9768 126.458 46.5634 126.475 46.9992 128.321C54.1232 198.435 150.725 204.722 149.331 124.61C149.471 107.366 145.192 86.3874 136.872 72.1414C127.664 73.7864 116.36 72.2374 105.354 67.8734C102.858 66.884 100.1 68.0971 96.5728 69.6483C91.5592 71.8534 84.9925 74.7416 75.4172 72.9564C55.8432 69.3064 55.2792 80.0554 57.6812 92.2184C61.3742 110.919 48.6222 105.113 44.6632 99.8364C42.0372 97.4674 38.8512 96.1154 35.5892 97.1504C25.2142 100.849 28.9532 115.829 35.0472 123.166C37.481 126.38 40.5312 126.412 42.9566 126.437ZM148.715 39.3054C161.157 42.0974 159.453 58.2914 149.167 66.9544C154.239 75.4574 157.399 100.671 152.503 109.936C155.331 133.903 150.816 155.567 139.708 169.612C113.803 202.344 61.8872 184.043 49.4372 152.163C37.4062 148.155 12.6532 120.936 26.0072 73.2834C25.1897 72.5239 22.7553 72.808 20.3832 73.0849C17.1925 73.4573 14.1144 73.8165 15.2352 71.6054C15.6735 70.7413 20.9995 69.3052 24.5696 68.3426C25.5689 68.0731 26.4307 67.8407 27.0092 67.6684C27.0536 67.5599 26.9428 66.4713 26.7837 64.9087C26.098 58.1731 24.5157 42.6311 30.6092 58.8334C41.5617 42.5864 50.755 41.5088 58.6705 40.581C64.4706 39.9011 69.5847 39.3017 74.2022 32.8734C87.6572 14.1434 103.715 12.0514 110.96 21.4704C116.812 29.0774 118.476 29.9984 124.352 25.5184C139.49 13.9774 147.759 24.5824 148.715 39.3054ZM37.0365 109.805C36.6175 107.228 37.3055 105.957 38.3805 105.782C39.4555 105.607 40.9105 106.295 41.3295 108.872C41.7495 111.449 40.8175 113.98 39.7425 114.155C38.6675 114.329 37.4555 112.382 37.0365 109.805Z" fill="#141414"/></g></g></g><g id="Face" transform="translate(417 759) scale(1 1)"><g id="Face/Happy"><path id="Happy" fill-rule="evenodd" clip-rule="evenodd" d="M28.2306 19.1149C27.9276 19.0909 27.4006 19.0529 26.9546 19.0459C26.6004 19.0306 26.2392 19.0399 25.8777 19.0491C25.7656 19.0519 25.6535 19.0548 25.5416 19.0569C24.5906 19.1039 23.6326 19.1709 22.6836 19.3199C20.7916 19.6309 18.8906 20.0459 17.0996 20.7939C15.3156 21.5319 13.5216 22.3529 11.9156 23.5119C10.3495 24.4885 8.95584 25.7236 7.53129 26.986L7.2006 27.2789L7.1066 27.3619C6.5836 27.8259 5.7816 27.7769 5.3176 27.2529C4.9206 26.8039 4.8996 26.1509 5.2316 25.6809C5.35826 25.502 5.48428 25.3217 5.61063 25.141C6.12273 24.4085 6.64007 23.6685 7.2256 22.9819C7.40976 22.7841 7.59172 22.5831 7.77402 22.3817L7.77412 22.3816C8.35009 21.7454 8.92952 21.1054 9.5926 20.5479C11.2736 19.0099 13.2106 17.7219 15.2756 16.6899C17.3466 15.6659 19.5596 14.8869 21.8466 14.4659C22.9886 14.2479 24.1466 14.0949 25.3156 14.0269C25.4029 14.0245 25.4902 14.022 25.5774 14.0194C26.0776 14.0048 26.5774 13.9902 27.0866 14.0089C27.7016 14.0179 28.2356 14.0559 28.9866 14.1589C30.3556 14.3469 31.3126 15.6099 31.1246 16.9779C30.9436 18.2969 29.7666 19.2339 28.4566 19.1329L28.2306 19.1149ZM75.1516 34.2331L75.1518 34.2333C75.311 34.3531 75.4613 34.4662 75.5939 34.5578L75.9109 34.7778C76.3449 35.0758 76.9209 35.1428 77.4319 34.9038C78.1989 34.5438 78.5299 33.6308 78.1699 32.8638C77.7989 32.0708 77.4159 31.5258 76.9419 30.9228C76.4709 30.3458 75.9229 29.8268 75.3219 29.3548C74.1049 28.4208 72.6519 27.7598 71.0739 27.4608C69.4989 27.1608 67.7849 27.2648 66.2629 27.8108C64.7239 28.3298 63.4249 29.2648 62.3939 30.3228C61.7669 30.9658 61.6329 31.9778 62.1289 32.7748C62.7129 33.7128 63.9459 33.9988 64.8839 33.4148L64.9939 33.3468C65.8869 32.7908 66.7609 32.3488 67.6369 32.1258C68.5109 31.8798 69.3859 31.8518 70.2919 31.9678C71.1909 32.1238 72.1249 32.4158 73.0069 32.8758C73.4559 33.0988 73.9009 33.3648 74.3399 33.6578C74.6089 33.8245 74.892 34.0377 75.1516 34.2331ZM15.3559 33.1489C14.7779 33.8689 14.2989 34.5439 13.8429 35.4509C13.5609 36.0129 13.6899 36.7149 14.1939 37.1339C14.7799 37.6229 15.6529 37.5439 16.1409 36.9569L16.2449 36.8319C16.6249 36.3769 17.1549 35.8029 17.6759 35.3659C18.2069 34.9119 18.7589 34.4969 19.3429 34.1719C20.5099 33.5159 21.7289 33.1369 22.9569 33.1219C23.2679 33.1219 23.5629 33.1339 23.8859 33.1719C24.0074 33.1897 24.1309 33.2013 24.2541 33.2129C24.4637 33.2326 24.6724 33.2522 24.8689 33.3019C25.5169 33.3989 26.1039 33.6059 26.6549 33.8319C27.2089 34.0499 27.6909 34.3549 28.1089 34.6979L28.1793 34.7601C28.3569 34.9166 28.5327 35.0714 28.6749 35.2419C28.7544 35.3279 28.821 35.4172 28.8844 35.5021L28.8999 35.5229L28.9889 35.6479C28.9955 35.6549 29.0061 35.6721 29.0147 35.686C29.0293 35.7099 29.038 35.724 29.0109 35.6609C29.5219 36.8059 30.8639 37.3199 32.0099 36.8089C33.1549 36.2979 33.6679 34.9559 33.1569 33.8109C33.0454 33.569 32.9922 33.4763 32.9243 33.3582L32.9243 33.3582L32.8909 33.2999C32.8277 33.1864 32.7665 33.0933 32.7026 32.9962L32.7026 32.9961L32.6807 32.9629L32.6539 32.9219C32.4899 32.6889 32.3219 32.4649 32.1429 32.2599C31.7879 31.8419 31.4029 31.4719 30.9899 31.1399C30.1599 30.4899 29.2469 29.9779 28.3059 29.6319C27.3619 29.3069 26.4009 29.0749 25.4599 28.9929C25.1383 28.9442 24.8236 28.9348 24.5093 28.9255C24.3593 28.9211 24.2094 28.9166 24.0589 28.9079C23.5839 28.9009 23.0799 28.9419 22.5939 29.0009C20.6349 29.2639 18.7769 30.0669 17.3229 31.2359C16.5879 31.8099 15.9319 32.4529 15.3559 33.1489ZM62.3409 14.7222C61.7589 14.8522 61.2579 14.9932 60.5749 15.2282C59.3989 15.6382 58.7229 16.9002 59.0639 18.1152C59.4179 19.3782 60.7289 20.1162 61.9929 19.7612L62.1749 19.7102C62.4729 19.6262 62.9709 19.5002 63.3969 19.4102C63.8399 19.3092 64.2949 19.2352 64.7519 19.1652L66.1299 18.9912L67.5179 18.9022C69.3719 18.8482 71.2289 18.9972 73.0269 19.4162C74.8229 19.8362 76.5779 20.4692 78.2249 21.3712C79.7834 22.1207 81.1811 23.1734 82.6181 24.2557L82.6202 24.2573C82.7527 24.3571 82.8856 24.4571 83.0189 24.5572L83.1219 24.6352C83.6039 24.9972 84.2849 25.0072 84.7829 24.6202C85.3809 24.1562 85.4889 23.2962 85.0239 22.6992C84.6889 22.2682 84.3369 21.8462 83.9819 21.4242C83.8828 21.3106 83.7865 21.1938 83.6901 21.0769L83.6897 21.0764C83.4332 20.7652 83.1758 20.453 82.8619 20.1972C82.693 20.0451 82.5254 19.8905 82.3574 19.7354C81.7047 19.133 81.046 18.5252 80.2849 18.0432C78.4679 16.6972 76.3519 15.7482 74.1699 15.1012C71.9859 14.4432 69.6999 14.0942 67.4269 14.1352C66.2909 14.1592 65.1539 14.2112 64.0279 14.3992C63.4659 14.4912 62.9029 14.5892 62.3409 14.7222ZM49.8507 33.5661C49.9857 35.7441 50.2307 37.9171 50.7947 39.7871C50.9457 40.2411 51.1127 40.6851 51.3017 41.0401C51.4857 41.3961 51.7177 41.6741 51.8387 41.7411C52.0857 41.9211 52.5727 42.2431 53.0317 42.5291C53.5057 42.8291 54.0127 43.1521 54.5267 43.5211C55.5277 44.2751 56.6517 45.2241 57.3767 46.7691C57.6997 47.5551 57.9277 48.3791 57.8467 49.4021C57.7707 50.4071 57.2947 51.3651 56.7367 51.9991C55.6067 53.2931 54.3797 53.8321 53.2447 54.3281C52.0907 54.7841 50.9707 55.1141 49.8537 55.3671C49.0097 55.5591 48.1707 55.0301 47.9797 54.1861C47.8167 53.4661 48.1767 52.7511 48.8097 52.4371L48.8177 52.4331C49.1421 52.272 49.4659 52.1169 49.7854 51.9638L49.7855 51.9638C50.4477 51.6465 51.0914 51.338 51.6837 51.0041C52.5557 50.5381 53.3537 49.9641 53.6657 49.5191C53.8213 49.2918 53.8326 49.1817 53.8446 49.0661L53.8447 49.0651C53.8567 48.9661 53.7887 48.6711 53.6807 48.4311C53.4677 47.9181 52.8827 47.2931 52.1167 46.6951C51.7357 46.3871 51.3147 46.0811 50.8587 45.7541C50.7412 45.6669 50.624 45.5836 50.5047 45.499C50.1511 45.2479 49.7799 44.9844 49.3327 44.5671C48.6197 43.8781 48.2727 43.1671 47.9977 42.5051C47.7217 41.8371 47.5877 41.1951 47.4717 40.5621C47.0527 38.0461 47.2987 35.6771 47.7847 33.3941C47.9047 32.8291 48.4597 32.4691 49.0237 32.5891C49.4937 32.6891 49.8217 33.0891 49.8497 33.5451L49.8507 33.5661ZM34.3663 68.3769C39.5273 71.3069 60.7703 70.7559 67.5133 66.4909C68.1083 64.4579 67.3563 63.5219 67.3563 63.5219C67.3563 63.5219 47.4373 66.4319 34.3803 64.8919C34.3803 64.8919 33.9463 67.5379 34.3663 68.3769ZM68.0263 60.2979C69.4483 60.0149 70.7503 60.5149 71.5093 61.6299C74.5893 68.6889 64.8293 80.1889 50.8123 80.1239C41.4983 80.6109 30.2033 74.9489 29.7223 68.5269C29.2853 65.7529 31.7743 61.0039 35.6163 61.7009C38.3533 62.1969 44.8963 62.3799 51.2903 62.1519C59.6542 61.8579 67.6242 60.3728 68.0121 60.3005C68.02 60.2991 68.0247 60.2982 68.0263 60.2979Z" fill="#141414"/></g></g><g id="Accessories" transform="translate(409 757) scale(103 60)"><g id="Accessories/None" stroke="none" stroke-width="1" fill="none" fill-rule="evenodd" fill-opacity="0"/></g><g id="Facial Hair" transform="translate(419 815) scale(90 60)"><g id="Facial Hair/None" stroke="none" stroke-width="1" fill="none" fill-rule="evenodd" fill-opacity="0"/></g></g></g></g></svg>