<svg width="2209" height="1411" viewBox="0 0 2209 1411" fill="none" xmlns="http://www.w3.org/2000/svg">
<path fill-rule="evenodd" clip-rule="evenodd" d="M654.329 324.608C646.933 341.79 646.342 364.491 657.684 393.554C675.617 439.509 710.737 470.573 742.979 498.555C743.536 499.039 744.092 499.521 744.648 500.003C760.016 513.337 774.787 526.152 786.06 539.473C797.796 553.342 806.197 568.273 807.512 585.635C808.376 597.065 805.736 610.161 801.816 624.1C799.352 632.863 796.262 642.342 793.043 652.214C791.153 658.011 789.218 663.943 787.341 669.947C777.056 702.825 767.924 739.446 772.798 777.356C775.935 801.754 783.202 819.153 792.18 832.828C801.216 846.592 812.099 856.779 822.968 866.792C823.312 867.108 823.655 867.424 823.999 867.74C834.39 877.307 844.904 886.986 852.563 899.336C860.618 912.323 865.404 928.02 864.588 949.46C863.266 984.14 842.722 1006.96 820.671 1029.82C819.335 1031.21 817.991 1032.6 816.643 1033.99C795.494 1055.83 773.246 1078.81 760.795 1113.7C744.403 1159.64 753.038 1203.72 766.031 1236.63C772.518 1253.07 780.049 1266.6 785.953 1276.02C788.903 1280.72 791.44 1284.39 793.228 1286.86C793.678 1287.48 794.081 1288.03 794.43 1288.5H1175.33C1175.89 1287.76 1176.6 1286.83 1177.44 1285.7C1179.82 1282.5 1183.22 1277.76 1187.24 1271.69C1195.27 1259.54 1205.76 1242.09 1215.55 1220.89C1235.18 1178.4 1251.77 1121.41 1240.81 1062.13C1230.68 1007.31 1201.63 974.42 1172.57 948.65C1165.82 942.67 1159.1 937.094 1152.58 931.683C1152.04 931.24 1151.51 930.799 1150.98 930.359C1144 924.56 1137.24 918.913 1131.13 913.26C1118.97 902.015 1108.78 890.221 1104.18 876.054C1092.47 840.045 1099.13 803.777 1106.74 767.456C1107.2 765.235 1107.67 763.013 1108.14 760.79C1115.42 726.259 1122.78 691.367 1117.5 654.232C1108.67 592.262 1073.71 558.474 1035.28 533.498C1022.36 525.095 1009.28 517.831 996.585 510.783C990.178 507.225 983.87 503.721 977.731 500.155C959.767 489.718 943.372 478.79 932.507 464.882C923.154 452.909 916.058 439.088 909.446 424.613C907.006 419.271 904.652 413.892 902.277 408.463C898.117 398.954 893.891 389.295 889.019 379.425C873.925 348.847 853.418 318.026 813.766 293.247C782.909 273.965 732.078 270.676 694.839 286.817C676.384 294.817 661.745 307.379 654.329 324.608ZM1178 1294C1182.26 1297.48 1182.26 1297.48 1182.26 1297.47H1182.27L1182.29 1297.45L1182.34 1297.37C1182.39 1297.31 1182.47 1297.22 1182.56 1297.11C1182.66 1296.98 1182.79 1296.82 1182.94 1296.63C1183.06 1296.48 1183.2 1296.3 1183.35 1296.11C1184.03 1295.23 1185.02 1293.94 1186.27 1292.27C1188.76 1288.92 1192.27 1284.02 1196.41 1277.76C1204.68 1265.26 1215.46 1247.31 1225.54 1225.5C1245.65 1181.98 1263.17 1122.55 1251.63 1060.13C1240.87 1001.91 1209.83 966.99 1179.86 940.422C1172.98 934.315 1166.12 928.627 1159.62 923.234C1159.08 922.786 1158.54 922.339 1158.01 921.895C1151 916.077 1144.46 910.609 1138.6 905.185C1126.81 894.276 1118.35 884.063 1114.64 872.653C1103.95 839.791 1109.85 806.284 1117.5 769.71C1117.99 767.384 1118.49 765.047 1118.98 762.697C1126.21 728.499 1133.96 691.812 1128.39 652.681C1118.95 586.392 1081.18 550.209 1041.28 524.275C1028.05 515.676 1014.34 508.062 1001.46 500.901C995.144 497.394 989.027 493.996 983.257 490.644C965.371 480.252 950.628 470.211 941.175 458.11C932.638 447.181 925.971 434.313 919.452 420.043C917.164 415.035 914.874 409.803 912.524 404.435C908.281 394.743 903.845 384.609 898.883 374.556C883.247 342.881 861.564 310.146 819.595 283.918C785.426 262.567 730.751 259.262 690.464 276.725C670.155 285.528 653.025 299.817 644.225 320.259C635.405 340.748 635.333 366.538 647.437 397.553C666.487 446.371 703.716 479.045 735.769 506.863C736.212 507.248 736.654 507.631 737.095 508.014C752.753 521.601 766.951 533.92 777.663 546.579C788.62 559.528 795.472 572.318 796.543 586.466C797.254 595.863 795.088 607.393 791.227 621.122C788.813 629.706 785.856 638.773 782.698 648.453C780.793 654.291 778.816 660.351 776.842 666.663C766.479 699.794 756.693 738.349 761.888 778.759C765.23 804.754 773.059 823.748 782.985 838.865C792.852 853.894 804.679 864.899 815.516 874.882L816.079 875.401C826.831 885.304 836.361 894.082 843.215 905.134C850.047 916.149 854.333 929.659 853.596 949.04C852.451 979.08 834.968 999.15 812.753 1022.19C811.357 1023.64 809.943 1025.1 808.517 1026.57C787.509 1048.24 763.713 1072.8 750.435 1110.01C732.829 1159.34 742.243 1206.33 755.8 1240.67C762.588 1257.87 770.458 1272.01 776.634 1281.86C779.725 1286.79 782.398 1290.65 784.311 1293.3C785.268 1294.63 786.035 1295.65 786.57 1296.35C786.837 1296.69 787.047 1296.96 787.193 1297.15L787.293 1297.28L787.363 1297.36L787.412 1297.42L787.427 1297.44L787.432 1297.45C787.433 1297.45 787.435 1297.45 791.715 1294L787.435 1297.45L789.086 1299.5H1180.61L1182.26 1297.48L1178 1294Z" fill="white"/>
<path fill-rule="evenodd" clip-rule="evenodd" d="M353.286 689.606C276.042 674.493 133.31 686.247 111.48 709.757C87.02 736.092 148.38 881.468 177.817 893.246C221.979 893.246 295.579 884.413 283.804 907.966C272.028 931.518 233.754 960.961 233.754 975.681C233.754 990.401 260.251 1084.61 292.636 1090.49C325.019 1096.38 404.509 1069.89 407.454 1090.49C410.397 1111.1 366.236 1137.6 363.292 1161.15C360.349 1184.71 404.509 1249.47 592.929 1305.41H754.849C754.849 1305.41 784.29 1102.27 713.634 1016.9C657.695 1037.5 634.142 1040.45 634.142 1040.45C634.142 1040.45 640.032 925.629 619.424 875.581C598.815 825.531 570.993 782.164 534.642 781.963C507.404 781.814 449.023 834.477 437.248 813.868C425.472 793.26 451.564 708.834 353.286 689.606Z" fill="white"/>
<path fill-rule="evenodd" clip-rule="evenodd" d="M289.011 228.14C255.373 231.985 223.511 484.882 336.561 514.257C378.397 525.127 447.281 545.731 409.811 587.366C390.725 608.57 314.063 632.357 294.869 675.009C280.248 707.494 317.534 806.069 373.59 831.729C437.773 861.105 498.446 848.328 503.828 887.785C509.208 927.242 415.88 951.87 410.115 1005.69C406.059 1043.52 469.032 1182.17 675.673 1299.03C797.634 1299.03 899.839 1297.23 899.839 1297.23C899.839 1297.23 998.201 1141.53 1023.31 958.59C1048.42 775.655 1009.68 711.646 941.446 703.052C905.081 698.471 834.93 750.991 799.759 740.716C770.442 732.15 808.019 633.52 808.019 563.572C808.019 493.626 789.758 430.937 760.301 416.087C736.579 404.13 666.073 456.669 642.757 467.429C619.439 478.191 573.625 489.337 564.853 465.537C554.076 436.286 592.727 359.813 563.893 316.564C527.845 262.488 365.844 219.359 289.011 228.14Z" fill="#D3E2F2"/>
<path d="M338.388 303.099C336.994 304.439 336.951 306.655 338.291 308.048L339.535 309.358C340.157 310.018 340.847 310.754 341.604 311.566L343.205 313.291C347.058 317.458 351.503 322.362 356.493 327.986L357.176 328.757C371.925 345.407 388.329 364.808 405.982 386.791L407.11 388.198C458.788 452.679 510.469 525.762 558.703 606.009C619.137 706.553 669.774 811.225 707.399 918.674C751.732 1045.28 776.64 1171.98 778.92 1297.45C778.955 1299.38 780.55 1300.92 782.483 1300.88C784.416 1300.85 785.954 1299.25 785.919 1297.32C783.624 1171.07 758.574 1043.64 714.006 916.36C676.213 808.432 625.37 703.336 564.702 602.402C516.835 522.766 465.589 450.165 414.301 385.981L412.573 383.82C395.172 362.109 378.961 342.872 364.317 326.267L362.416 324.116C358.037 319.171 354.062 314.763 350.522 310.903L348.345 308.539C347.491 307.615 346.702 306.767 345.98 305.996L343.336 303.196C341.996 301.802 339.781 301.759 338.388 303.099Z" fill="white"/>
<path fill-rule="evenodd" clip-rule="evenodd" d="M1872.93 1303C1872.93 1303 1976.21 1241.11 1955.17 1129.11C1942.62 1062.26 1900.04 1065.54 1875.39 1014.93C1859.66 982.623 1883.56 895.932 1834.5 838.904C1788.68 785.629 1713.74 790.458 1689.61 778.885C1657.26 763.375 1644.94 730.791 1635.7 704.03C1601.22 604.257 1521.56 606.951 1508.59 656.589C1492.96 716.434 1507.92 752.502 1581.48 811.151C1636.74 855.22 1555.83 904.663 1603.96 984.903C1630.85 1029.74 1703.18 1053.04 1667.85 1111.02C1619.47 1190.41 1628.56 1268.45 1653.22 1303H1872.93Z" fill="#FF4B33"/>
<path fill-rule="evenodd" clip-rule="evenodd" d="M1571.59 707.575C1572.38 706.801 1573.64 706.808 1574.41 707.595C1574.67 707.858 1600.76 734.467 1634.72 780.474C1666.05 822.923 1710.72 891.077 1745.59 974.699C1776.57 1048.98 1810.88 1153.41 1801.39 1303H1797.4C1806.89 1154.1 1772.74 1050.17 1741.91 976.238C1675.49 816.957 1572.61 711.447 1571.57 710.399C1570.8 709.615 1570.81 708.349 1571.59 707.575Z" fill="white"/>
<path fill-rule="evenodd" clip-rule="evenodd" d="M1503.27 937C1509.51 937 1515.87 942.164 1515.87 948.42C1515.87 949.461 1515.72 950.463 1515.45 951.421C1568.3 977.402 1615.43 1011.05 1655.68 1051.56C1689.92 1086.03 1719.28 1125.51 1742.94 1168.9C1763.99 1207.5 1776.54 1242.13 1783.36 1264.38C1789.74 1285.18 1792.45 1299.38 1793.09 1303H1789.03C1788.23 1298.6 1785.53 1285.05 1779.55 1265.55C1772.78 1243.48 1760.33 1209.13 1739.44 1170.82C1715.96 1127.76 1686.82 1088.58 1652.85 1054.38C1612.93 1014.2 1566.17 980.812 1513.73 955.029C1511.68 957.883 1508.34 959.748 1504.57 959.748C1498.32 959.748 1493.09 955.764 1493.09 949.508C1493.09 943.253 1497.03 937 1503.27 937Z" fill="#141414"/>
<path fill-rule="evenodd" clip-rule="evenodd" d="M1436.66 1065.95C1442.92 1065.95 1449.29 1071.12 1449.29 1077.37V1077.38C1468.66 1080.85 1501.35 1088.1 1560.77 1109.98C1639.85 1139.09 1694.51 1189.93 1726.44 1227.45C1761.04 1268.1 1777.18 1302.39 1777.34 1302.73C1777.38 1302.82 1777.41 1302.91 1777.44 1303H1773.02C1769.65 1296.21 1753.66 1265.58 1723.3 1229.93C1691.69 1192.82 1637.6 1142.53 1559.38 1113.73C1500.27 1091.97 1467.8 1084.76 1448.57 1081.31C1446.97 1085.62 1442.83 1088.7 1437.96 1088.7C1431.71 1088.7 1426.46 1084.72 1426.46 1078.46C1426.46 1072.21 1430.41 1065.95 1436.66 1065.95Z" fill="#141414"/>
<path d="M810 81C810 36.2649 846.265 0 891 0H1395C1439.74 0 1476 36.2649 1476 81V1222C1476 1266.74 1439.74 1303 1395 1303H891C846.265 1303 810 1266.74 810 1222V81Z" fill="white"/>
<path fill-rule="evenodd" clip-rule="evenodd" d="M1395 24H891C859.52 24 834 49.5198 834 81V1222C834 1253.48 859.52 1279 891 1279H1395C1426.48 1279 1452 1253.48 1452 1222V81C1452 49.5198 1426.48 24 1395 24ZM891 0C846.265 0 810 36.2649 810 81V1222C810 1266.74 846.265 1303 891 1303H1395C1439.74 1303 1476 1266.74 1476 1222V81C1476 36.2649 1439.74 0 1395 0H891Z" fill="#141414"/>
<path fill-rule="evenodd" clip-rule="evenodd" d="M1279.39 582.129L1281.36 582.478C1302.66 586.249 1321.96 597.441 1335.86 614.075C1349.76 630.707 1357.38 651.737 1357.38 673.447V675.447H1263L1279.39 582.129ZM1282.63 586.789L1267.76 671.447H1353.36C1352.91 651.385 1345.66 632.039 1332.79 616.639C1319.93 601.242 1302.22 590.72 1282.63 586.789Z" fill="#D3E2F2"/>
<path fill-rule="evenodd" clip-rule="evenodd" d="M1247.5 599.129C1198.96 599.129 1159 639.087 1159 687.629C1159 736.171 1198.96 776.129 1247.5 776.129C1295.37 776.129 1334.9 737.264 1335.98 689.629H1245.12L1260.89 600.148C1256.46 599.47 1251.99 599.129 1247.5 599.129ZM1155 687.629C1155 636.878 1196.75 595.129 1247.5 595.129C1252.89 595.129 1258.26 595.599 1263.56 596.534L1265.53 596.881L1249.88 685.629H1340V687.629C1340 738.38 1298.25 780.129 1247.5 780.129C1196.75 780.129 1155 738.38 1155 687.629Z" fill="#D3E2F2"/>
<path fill-rule="evenodd" clip-rule="evenodd" d="M1096 586.129C1075.01 586.129 1058 603.142 1058 624.129C1058 645.116 1075.01 662.129 1096 662.129C1116.99 662.129 1134 645.116 1134 624.129C1134 603.142 1116.99 586.129 1096 586.129ZM1054 624.129C1054 600.933 1072.8 582.129 1096 582.129C1119.2 582.129 1138 600.933 1138 624.129C1138 647.325 1119.2 666.129 1096 666.129C1072.8 666.129 1054 647.325 1054 624.129Z" fill="#D3E2F2"/>
<path d="M1263 671.129L1278.63 582.129C1299.46 585.817 1318.35 596.766 1331.94 613.038C1345.54 629.31 1353 649.887 1353 671.129H1263Z" fill="#EDF3F9"/>
<path d="M1245.5 685.629H1336C1336 735.275 1295.15 776.129 1245.5 776.129C1195.85 776.129 1155 735.275 1155 685.629C1155 635.982 1195.85 595.129 1245.5 595.129C1250.77 595.129 1256.03 595.589 1261.21 596.504L1245.5 685.629Z" fill="#EDF3F9"/>
<path d="M1134 622.129C1134 644.22 1116.09 662.129 1094 662.129C1071.91 662.129 1054 644.22 1054 622.129C1054 600.038 1071.91 582.129 1094 582.129C1116.09 582.129 1134 600.038 1134 622.129Z" fill="#EDF3F9"/>
<path fill-rule="evenodd" clip-rule="evenodd" d="M959 1182.13V836.129H914V1182.13H959ZM1123 1182.13V1007.13H1078V1182.13H1123ZM1045 932.129V1182.13H1000V932.129H1045ZM1211 1182.13V1059.13H1166V1182.13H1211ZM1298 1088.13V1182.13H1253V1088.13H1298ZM1372 1182.13V1066.13H1327V1182.13H1372Z" fill="#D3E2F2"/>
<path d="M1267.48 891.528L1124.69 967.937L954.896 709.016L972.19 699.065L916.656 663L920.227 728.968L934.78 720.593L1116.91 998.334L1259.73 921.91L1351.26 1061L1370.66 1048.31L1267.48 891.528Z" fill="#02BAD3"/>
<path fill-rule="evenodd" clip-rule="evenodd" d="M1351 139V104H909V139H1351ZM1298 193V228H908V193H1298ZM1177 304V269H909V304H1177ZM1217 350V385H909V350H1217ZM1103 427V462H908V427H1103Z" fill="#D3E2F2"/>
<path d="M1337.4 487.716V471.893C1348.05 469.992 1356.25 466.072 1362 460.132C1367.75 454.193 1370.63 447.231 1370.63 439.248C1370.63 432.026 1368.7 426.323 1364.85 422.142C1361 417.96 1356.46 414.943 1351.23 413.09C1346 411.237 1339.58 409.597 1331.98 408.172C1326.08 407.031 1321.85 405.962 1319.28 404.964C1316.71 403.966 1315.43 402.469 1315.43 400.474C1315.43 396.292 1319.76 394.201 1328.41 394.201C1337.16 394.201 1346.43 396.672 1356.22 401.614L1366.35 377.238C1358.46 372.771 1348.81 370.015 1337.4 368.97V353.716H1317.28V369.255C1305.97 370.87 1297.29 374.672 1291.25 380.659C1285.22 386.646 1282.2 393.821 1282.2 402.184C1282.2 409.407 1284.1 415.133 1287.9 419.362C1291.71 423.591 1296.18 426.632 1301.31 428.485C1306.44 430.339 1312.86 432.073 1320.57 433.689C1326.56 434.924 1330.86 436.065 1333.47 437.11C1336.09 438.155 1337.4 439.723 1337.4 441.814C1337.4 443.62 1336.4 444.974 1334.4 445.877C1332.4 446.78 1329.08 447.231 1324.42 447.231C1319 447.231 1313.34 446.4 1307.44 444.737C1301.55 443.073 1296.22 440.864 1291.47 438.108L1280.63 462.627C1284.91 465.288 1290.3 467.521 1296.82 469.327C1303.33 471.133 1310.15 472.226 1317.28 472.606V487.716H1337.4Z" fill="#FFC81A"/>
<path fill-rule="evenodd" clip-rule="evenodd" d="M2209 1305H0V1301H2209V1305Z" fill="#141414"/>
<path fill-rule="evenodd" clip-rule="evenodd" d="M895.779 1243L885.507 1338.79L835.173 1335.73L825.797 1244.39L895.779 1243Z" fill="white"/>
<path fill-rule="evenodd" clip-rule="evenodd" d="M828.637 1251.21L837.092 1333.58L883.622 1336.41L892.76 1251.2C892.883 1250.06 893.792 1249.19 894.873 1249.19C896.143 1249.19 897.13 1250.37 896.986 1251.71L887.62 1339.05C887.497 1340.2 886.582 1341.05 885.509 1341.05C885.468 1341.05 885.427 1341.05 885.386 1341.05L835.053 1337.99C834.015 1337.93 833.173 1337.07 833.059 1335.98L824.408 1251.7C824.271 1250.36 825.257 1249.19 826.523 1249.19C827.608 1249.19 828.519 1250.06 828.637 1251.21Z" fill="#141414"/>
<path fill-rule="evenodd" clip-rule="evenodd" d="M783.128 1206L779.202 1330.49L722.068 1335.42L696.754 1241.74L783.128 1206Z" fill="white"/>
<path fill-rule="evenodd" clip-rule="evenodd" d="M700.414 1247.1L723.635 1333.03L777.14 1328.41L780.747 1220.12C780.794 1218.71 782.055 1217.69 783.36 1218.01C784.349 1218.26 785.035 1219.21 784.999 1220.28L781.328 1330.56C781.291 1331.7 780.452 1332.63 779.375 1332.73L722.242 1337.66C722.184 1337.66 722.125 1337.67 722.067 1337.67C721.126 1337.67 720.286 1337.01 720.024 1336.04L696.324 1248.34C695.948 1246.94 696.899 1245.54 698.269 1245.48C699.255 1245.43 700.143 1246.1 700.414 1247.1Z" fill="#141414"/>
<path fill-rule="evenodd" clip-rule="evenodd" d="M786.17 1322.48C785.912 1321.41 784.912 1320.73 783.879 1320.93C782.895 1321.11 781.651 1321.36 780.185 1321.66C771.204 1323.48 752.515 1327.27 734.804 1327.29H734.758C724.325 1327.29 721.238 1322.95 715.009 1317.49C714.515 1317.05 713.852 1316.9 713.226 1317.07C682.829 1325.4 654.777 1332.76 638.501 1344.2C635.64 1346.21 625.324 1354.98 627.108 1361.19C627.934 1364.06 630.872 1365.51 635.841 1365.51C653.986 1365.51 693.077 1365.62 727.566 1365.71C755.472 1365.79 779.573 1365.86 788.647 1365.86C789.605 1365.86 790.471 1365.4 791.084 1364.57C794.657 1359.73 788.838 1333.52 786.17 1322.48Z" fill="#F45648"/>
<path fill-rule="evenodd" clip-rule="evenodd" d="M788.281 1375.14H631.445C628.838 1375.14 626.725 1372.91 626.725 1370.16V1368.52C626.725 1365.77 628.838 1363.55 631.445 1363.55H788.281C790.887 1363.55 793 1365.77 793 1368.52V1370.16C793 1372.91 790.887 1375.14 788.281 1375.14Z" fill="#141414"/>
<path fill-rule="evenodd" clip-rule="evenodd" d="M675.985 1338.25C675.19 1338.25 674.428 1337.78 674.064 1336.97C670.727 1329.59 664.316 1331.4 663.595 1331.63C662.477 1331.99 661.287 1331.33 660.94 1330.15C660.593 1328.97 661.207 1327.72 662.322 1327.35C665.958 1326.14 673.896 1326.18 677.903 1335.05C678.408 1336.17 677.958 1337.5 676.898 1338.03C676.603 1338.18 676.292 1338.25 675.985 1338.25Z" fill="#141414"/>
<path fill-rule="evenodd" clip-rule="evenodd" d="M694.766 1332.85C693.971 1332.85 693.209 1332.38 692.845 1331.58C689.507 1324.19 683.096 1326 682.377 1326.23C681.258 1326.59 680.068 1325.93 679.721 1324.76C679.374 1323.58 679.989 1322.33 681.103 1321.96C684.743 1320.74 692.679 1320.79 696.684 1329.65C697.189 1330.77 696.739 1332.1 695.679 1332.64C695.384 1332.79 695.073 1332.85 694.766 1332.85Z" fill="#141414"/>
<path fill-rule="evenodd" clip-rule="evenodd" d="M889.765 1315.52C889.765 1315.52 919.241 1342.2 905.215 1362.6C886.634 1368.09 842.225 1373.19 822.507 1363.32C808.685 1356.39 830.543 1315 830.543 1315C852.795 1317.34 869.042 1316.23 889.765 1315.52Z" fill="#F45648"/>
<path fill-rule="evenodd" clip-rule="evenodd" d="M816.739 1367.3C816.947 1371.3 820.983 1373.79 825.266 1373.79H901.594C906.101 1373.79 909.133 1369.53 908.336 1364.96C907.54 1360.4 906.216 1360.79 903.216 1360.79L825.266 1361.22C822.064 1361.22 816.509 1362.86 816.739 1367.3Z" fill="#141414"/>
<path fill-rule="evenodd" clip-rule="evenodd" d="M885.175 1345.59C885.935 1345.59 886.661 1345.13 886.997 1344.36C887.454 1343.3 887.012 1342.05 886.008 1341.57C885.208 1341.18 866.189 1332.23 844.97 1338.73C843.909 1339.06 843.3 1340.23 843.608 1341.35C843.917 1342.46 845.027 1343.11 846.087 1342.78C865.841 1336.73 884.166 1345.31 884.349 1345.4C884.617 1345.53 884.898 1345.59 885.175 1345.59Z" fill="#141414"/>
<path fill-rule="evenodd" clip-rule="evenodd" d="M879.063 1331.62C879.842 1331.62 880.583 1331.14 880.906 1330.34C881.336 1329.27 880.864 1328.03 879.848 1327.57C879.211 1327.29 864.115 1320.68 850.862 1327.37C849.866 1327.87 849.446 1329.13 849.924 1330.18C850.401 1331.23 851.596 1331.67 852.592 1331.17C864.191 1325.31 878.146 1331.39 878.285 1331.45C878.539 1331.57 878.803 1331.62 879.063 1331.62Z" fill="#141414"/>
<path fill-rule="evenodd" clip-rule="evenodd" d="M974.438 887.043C950.557 1108.89 957.258 1270.37 957.258 1270.37C909.044 1278.36 861.73 1278.39 816.025 1264.19L805 797.184L748 941.171C748 941.171 813.909 1188.51 802.473 1209.27C791.038 1230.02 691.134 1272.84 664.288 1256.77C653.181 1250.13 593.233 1045.25 596 926.348C597.447 864.152 701.94 692.405 709 646.845C742.611 642.694 925.702 646.845 925.702 646.845C925.702 646.845 994.139 704.037 974.438 887.043Z" fill="#141414"/>
<path fill-rule="evenodd" clip-rule="evenodd" d="M809.389 675.858C805.098 679.024 795.537 685.198 779.587 691.072C773.882 693.173 770.838 692.852 769.963 691.938C769.372 691.321 769.651 690.052 769.871 689.35C771.597 683.835 780.919 675.174 793.933 673.258C798.576 672.577 803.881 673.695 809.389 675.858ZM824.993 671.495C827.979 671.495 831.46 673.282 834.362 674.774C846.366 680.939 856.216 694.373 857.12 700.839C854.699 699.862 849.256 695.905 844.378 692.359C836.42 686.572 826.888 679.639 817.328 674.804C819.032 673.504 820.926 672.511 823.056 671.792C823.668 671.586 824.318 671.495 824.993 671.495ZM828.769 722.613C829.01 722.613 829.255 722.566 829.493 722.468C830.522 722.044 831.032 720.818 830.632 719.728C825.841 706.669 819.066 687.649 816.463 679.108C825.654 683.879 834.873 690.584 842.115 695.849C852.986 703.756 856.885 706.412 859.569 704.915C860.174 704.578 861.188 703.719 861.188 701.747C861.188 692.88 848.531 677.344 836.108 670.963C831.911 668.808 826.682 666.124 821.842 667.758C818.485 668.889 815.651 670.603 813.222 672.863C806.31 669.841 799.497 668.16 793.383 669.064C779.354 671.13 768.482 680.324 766.075 688.018C764.883 691.829 766.24 694.001 767.155 694.955C769.59 697.495 774.214 697.534 780.901 695.071C792.395 690.839 800.648 686.483 806.124 683.094C802.006 691.929 799.617 703.961 797.102 718.584C796.905 719.735 797.624 720.837 798.711 721.048C799.789 721.254 800.839 720.495 801.037 719.343C804.34 700.13 807.354 687.552 812.539 679.952C815.889 691.17 825.617 717.755 826.903 721.262C827.211 722.099 827.968 722.612 828.769 722.613Z" fill="white"/>
<path fill-rule="evenodd" clip-rule="evenodd" d="M626.315 793.488C627.458 789.352 630.539 780.072 632.097 770.043C641.996 706.277 656.863 545.143 658.123 538.126L732.871 554.095C732.871 554.095 680.879 764.742 681.336 787.123C681.994 819.331 671.073 839.03 668.769 845.787C666.225 853.246 659.531 857.949 655.513 854.949C655.366 859.709 649.04 863.4 646.23 859.218C645.853 862.093 642 862.589 640.8 862.529C635.637 862.269 632.782 858.961 629.673 851.04C624.09 836.817 621.599 810.562 626.315 793.488Z" fill="white"/>
<path fill-rule="evenodd" clip-rule="evenodd" d="M624.266 792.922C638.934 736.762 644.245 639.189 652.041 575.709C654.217 554.105 655.657 539.833 656.031 537.751C656.239 536.595 657.345 535.826 658.5 536.033C659.656 536.241 660.425 537.346 660.217 538.503C659.872 540.423 658.361 555.403 656.27 576.135C648.753 638.434 642.879 736.051 629.212 791.151C627.516 796.694 626.483 801.802 626.229 808.044C625.212 812.287 633.3 842.017 638.359 828.795C639.543 825.078 639.952 820.9 640.308 816.945C640.388 815.984 641.119 815.166 642.115 815.018C649.557 813.999 655.291 806.816 656.481 799.554C656.738 797.814 659.469 798.222 659.228 799.953C658.329 808.315 652.603 816.298 644.397 818.856C643.603 824.372 643.681 830.955 639.295 835.129C633.834 839.312 628.525 832.828 626.708 828.13C628.056 838.525 631.46 860.205 640.907 860.406C641.645 860.445 643.974 860.07 644.122 858.943C644.313 857.032 646.98 856.43 647.995 858.032C648.339 858.544 648.947 859.18 650.251 858.804C651.715 858.382 653.33 856.764 653.389 854.884C653.39 853.205 655.478 852.214 656.787 853.246C657.503 853.781 658.421 853.881 659.512 853.544C663.784 852.417 666.575 846.17 668.5 840.713C672.153 831.963 679.754 813.754 679.211 787.167C680.708 763.951 726.023 557.89 733.378 552.029C734.522 552.312 735.219 553.464 734.937 554.605C734.418 556.709 683.017 765.234 683.463 787.08C684.024 814.564 676.19 833.332 672.425 842.352C669.8 849.993 665.284 858.877 656.991 857.866C655.502 861.617 650.607 864.51 646.827 862.541C622.153 877.151 618.3 808.875 624.266 792.922Z" fill="#141414"/>
<path fill-rule="evenodd" clip-rule="evenodd" d="M1010.15 483.661C1007.06 486.672 996.278 496.22 996.278 496.22L924.529 545.966L936.704 666.216H697.808L718.338 552.549C718.338 552.549 689.169 550.387 647.263 536.44C658.352 471.492 670.684 397.432 749.135 370.975C780.899 369.918 862.588 365.323 894.997 367.186C910.049 370.655 923.95 376.791 937.733 386.014C974.678 410.736 997.273 455.199 1010.15 483.661Z" fill="#F45648"/>
<path fill-rule="evenodd" clip-rule="evenodd" d="M728.54 477.365C728.717 476.274 729.743 475.534 730.834 475.709C731.925 475.886 732.665 476.913 732.49 478.003L720.376 552.824C720.356 552.956 720.32 553.082 720.274 553.202L700.06 664.215H935.341L922.556 546.296C922.428 545.532 922.753 544.763 923.389 544.322L995.041 494.643C995.978 493.813 1004.07 486.636 1007.74 483.194C994.092 453.211 971.989 411.342 936.621 387.676C923.103 378.63 909.394 372.577 894.713 369.173C870.119 367.782 817.688 370.068 779.381 371.737C767.443 372.257 757.111 372.707 749.496 372.963C673.108 398.892 660.447 471.102 649.523 535.08C684.138 546.435 709.948 549.682 716.719 550.386L728.54 477.365ZM645.43 535.286C656.591 469.908 669.24 395.807 748.496 369.079C748.681 369.017 748.873 368.982 749.069 368.975C756.689 368.722 767.124 368.267 779.207 367.741C817.688 366.064 870.387 363.768 895.112 365.189C895.225 365.196 895.337 365.212 895.447 365.237C910.671 368.745 924.866 374.997 938.845 384.351C975.574 408.928 998.17 452.329 1011.97 482.836C1012.32 483.603 1012.15 484.504 1011.55 485.092C1008.46 488.102 998.046 497.325 997.604 497.716C997.545 497.769 997.483 497.818 997.418 497.863L926.712 546.886L939.677 665.884C939.774 666.464 939.611 667.058 939.231 667.507C938.851 667.956 938.293 668.215 937.704 668.215H697.808C697.237 668.215 696.692 667.971 696.313 667.543C695.933 667.115 695.754 666.546 695.822 665.979L716.11 554.344C708.676 553.557 681.998 550.108 646.63 538.337C645.694 538.026 645.124 537.076 645.29 536.103L645.43 535.286Z" fill="#141414"/>
<path fill-rule="evenodd" clip-rule="evenodd" d="M796.491 560.227L847.889 575.852C853.378 577.52 859.18 574.423 860.849 568.935L892.845 463.681C894.513 458.193 891.417 452.391 885.928 450.722L834.529 435.098C829.04 433.429 823.239 436.526 821.57 442.015L789.574 547.268C787.905 552.756 791.002 558.558 796.491 560.227Z" fill="#141414"/>
<path fill-rule="evenodd" clip-rule="evenodd" d="M842.847 453.003C842.312 454.868 843.39 456.813 845.256 457.348C847.12 457.883 849.066 456.804 849.601 454.94C850.136 453.074 849.057 451.129 847.192 450.594C845.327 450.06 843.382 451.138 842.847 453.003Z" fill="white"/>
<path fill-rule="evenodd" clip-rule="evenodd" d="M830.11 449.35C829.575 451.215 830.653 453.161 832.519 453.695C834.383 454.23 836.329 453.152 836.863 451.287C837.399 449.422 836.32 447.476 834.455 446.942C832.59 446.407 830.645 447.485 830.11 449.35Z" fill="white"/>
<path fill-rule="evenodd" clip-rule="evenodd" d="M800.071 450.069L800.141 450.029L808.934 444.975L802.383 434.645C802.278 434.477 802.19 434.283 802.137 434.082C801.856 433.013 802.494 431.921 803.563 431.639L813.166 429.11L812.634 413.692C812.619 413.252 812.749 412.802 813.033 412.423C813.696 411.539 814.95 411.361 815.834 412.024L825.833 419.522L834.652 405.516C834.938 405.065 835.408 404.723 835.975 404.616C837.061 404.413 838.106 405.128 838.31 406.214L841.401 422.699L855.636 417.701L855.736 417.666C856.105 417.536 856.517 417.515 856.921 417.632C857.952 417.931 858.546 419.008 858.247 420.039L854.675 432.373C854.489 433.006 853.852 433.418 853.188 433.3C852.474 433.175 851.998 432.494 852.123 431.781L853.739 422.606L840.528 427.246C840.436 427.277 840.331 427.306 840.234 427.324C839.148 427.528 838.103 426.813 837.899 425.727L835.319 411.964L828.061 423.49C828.033 423.535 828.001 423.582 827.969 423.625C827.306 424.508 826.052 424.687 825.169 424.024L816.776 417.731L817.219 430.571C817.251 431.484 816.65 432.332 815.729 432.574L807.225 434.811L813.43 444.597C813.444 444.619 813.462 444.648 813.475 444.671C814.026 445.629 813.696 446.85 812.738 447.401L804.432 452.177L812.05 459.574C812.585 460.097 812.644 460.955 812.159 461.543C811.648 462.164 810.731 462.253 810.11 461.742L799.804 453.255C799.631 453.111 799.474 452.929 799.355 452.722C798.82 451.792 799.141 450.604 800.071 450.069Z" fill="white"/>
<path fill-rule="evenodd" clip-rule="evenodd" d="M818.857 514.486C820.39 511.791 824.121 510.875 826.253 513.126C826.253 513.126 823.317 510.233 821.701 507.362C820.171 504.645 820.265 501.452 821.934 499.654C824.508 496.882 827.777 497.668 830.26 500.187L827.798 497.207C825.278 494.45 824.724 490.656 827.399 487.504C829.39 485.157 834.478 485.532 837.448 488.149C838.518 489.091 841.691 491.983 841.691 491.983C839.584 489.555 840.304 485.128 842.753 483.045C844.996 481.138 848.351 481.192 850.46 483.247C860.184 492.722 872.23 502.643 879.868 508.659C879.868 508.659 882.567 497.512 884.024 494.114C885.38 490.948 891.872 487.596 893.489 492.96C895.683 500.232 896.932 512.148 898.106 521.182C910.605 530.904 917.288 536.011 930.127 542.166C942.706 533.769 1004.47 488.865 1004.47 488.865C1009.92 498.228 1069.7 612.167 1018.47 629.91C971.205 646.28 915.973 617.496 869.387 576.482C841.429 551.869 828.055 533.245 822.481 526.36C820.47 523.876 816.709 518.264 818.857 514.486Z" fill="white"/>
<path fill-rule="evenodd" clip-rule="evenodd" d="M820.397 520.021C821.098 521.774 822.176 523.481 823.391 525.047C826.015 528.318 828.566 531.672 831.229 534.89C836.534 541.362 842.11 547.602 847.915 553.627C853.715 559.657 859.767 565.445 865.982 571.05C872.201 576.655 878.564 582.097 885.128 587.282C898.248 597.646 912.121 607.098 926.881 614.868C941.619 622.601 957.33 628.714 973.692 631.354C981.855 632.678 990.161 633.063 998.358 632.305C1002.46 631.919 1006.52 631.253 1010.51 630.27C1012.51 629.787 1014.49 629.223 1016.44 628.581C1018.43 627.96 1020.21 627.25 1021.98 626.332C1025.46 624.503 1028.48 621.911 1030.76 618.721C1033.05 615.542 1034.61 611.819 1035.59 607.928C1037.55 600.102 1037.42 591.737 1036.5 583.549C1035.55 575.333 1033.74 567.185 1031.52 559.158C1029.28 551.128 1026.6 543.208 1023.64 535.393C1020.67 527.579 1017.41 519.865 1013.93 512.254C1012.19 508.451 1010.4 504.671 1008.54 500.925C1007.01 497.866 1005.44 494.785 1003.82 491.811L968.589 517.305L950.002 530.646C944.705 534.416 939.432 538.184 934.055 541.893C936.782 543.155 939.631 544.331 942.448 545.49C946.422 547.1 950.429 548.655 954.444 550.191C962.48 553.248 970.563 556.222 978.661 559.118C979.402 559.383 979.804 560.196 979.554 560.946C979.3 561.706 978.478 562.117 977.718 561.863C969.531 559.13 961.381 556.326 953.249 553.429C949.185 551.972 945.127 550.497 941.083 548.957C937.032 547.383 933.027 545.86 928.972 543.864C928.962 543.859 928.943 543.85 928.934 543.845C928.843 543.797 928.763 543.739 928.683 543.68C923.052 540.963 917.53 537.874 912.355 534.316C906.989 530.653 901.936 526.681 896.879 522.762C896.48 522.451 896.193 521.983 896.124 521.441C895.526 516.781 894.945 512.151 894.271 507.556C893.58 502.977 892.838 498.377 891.611 494.082C891.444 493.471 891.34 493.197 891.182 492.917C891.029 492.655 890.877 492.517 890.737 492.414C890.587 492.325 890.397 492.256 890.109 492.237C889.821 492.224 889.456 492.278 889.076 492.394C888.31 492.625 887.489 493.107 886.849 493.693C886.529 493.984 886.249 494.303 886.056 494.602C886.019 494.674 885.96 494.75 885.935 494.815L885.882 494.917L885.81 495.093C885.714 495.33 885.615 495.559 885.522 495.825C884.77 497.893 884.163 500.164 883.551 502.387C882.949 504.624 882.371 506.885 881.823 509.132C881.756 509.401 881.63 509.674 881.447 509.905C880.76 510.777 879.497 510.926 878.626 510.239C871.104 504.307 863.747 498.184 856.607 491.774C854.828 490.165 853.058 488.544 851.314 486.89L850.01 485.644L849.359 485.019L849.035 484.708L848.821 484.521C848.238 484.046 847.508 483.746 846.734 483.714C845.965 483.669 845.177 483.868 844.528 484.285C844.194 484.492 843.91 484.733 843.664 485.039C843.406 485.333 843.183 485.692 843.008 486.083C842.259 487.631 842.353 489.7 843.236 490.644C843.34 490.755 843.424 490.877 843.499 491.005C844.376 491.999 845.314 492.992 846.262 493.973C847.313 495.059 848.382 496.137 849.461 497.209C851.616 499.352 853.808 501.478 856.008 503.576L856.016 503.584C856.575 504.119 856.626 505.003 856.119 505.601C855.592 506.221 854.662 506.296 854.042 505.77C851.7 503.781 849.385 501.78 847.084 499.742C845.934 498.723 844.79 497.695 843.653 496.648C842.616 495.69 841.588 494.722 840.565 493.69C840.502 493.644 840.436 493.604 840.377 493.55L840.316 493.496L837.434 490.886L836.018 489.611C835.653 489.299 835.235 489.024 834.784 488.795C833.884 488.333 832.848 488.051 831.848 487.993C830.855 487.926 829.875 488.125 829.321 488.5C829.179 488.59 829.067 488.688 828.979 488.79C828.866 488.928 828.676 489.163 828.548 489.35C828.272 489.751 828.068 490.172 827.908 490.6C827.618 491.461 827.59 492.366 827.829 493.269C828.088 494.186 828.549 495.013 829.301 495.851L831.819 498.901C831.856 498.947 831.883 498.998 831.916 499.045C834.543 501.849 837.334 504.616 840.102 507.366L848.744 515.815L848.761 515.832C849.355 516.415 849.388 517.369 848.822 517.991C848.244 518.627 847.259 518.674 846.622 518.096L837.646 509.94C834.707 507.224 831.781 504.535 828.897 501.667C828.876 501.648 828.851 501.633 828.83 501.612L828.823 501.606C828.229 501.008 827.567 500.523 826.912 500.226C826.251 499.946 825.636 499.858 825.087 499.983C824.535 500.09 823.986 500.442 823.46 500.977C823.056 501.396 822.787 501.963 822.682 502.679C822.569 503.379 822.634 504.174 822.853 504.934C823.064 505.712 823.421 506.383 823.952 507.201C824.951 508.727 826.255 510.258 827.562 511.599C827.597 511.633 827.637 511.66 827.67 511.697L827.684 511.712L838.243 523.307L838.251 523.316C838.809 523.93 838.795 524.88 838.206 525.478C837.596 526.097 836.599 526.105 835.98 525.495L824.97 514.65C824.931 514.616 824.888 514.588 824.851 514.551C824.834 514.535 824.819 514.517 824.803 514.5L824.802 514.501C824.537 514.216 824.246 514.022 823.893 513.874C823.541 513.732 823.107 513.648 822.64 513.696C822.175 513.74 821.684 513.89 821.246 514.153C820.81 514.419 820.446 514.8 820.184 515.24C819.462 516.446 819.696 518.28 820.397 520.021ZM817.533 513.733C817.993 512.912 818.616 512.188 819.347 511.591C819.93 511.109 820.598 510.713 821.329 510.435C821.081 510.092 820.832 509.75 820.592 509.389C819.978 508.461 819.323 507.274 818.989 506.027C818.635 504.782 818.5 503.443 818.707 502.077C818.895 500.727 819.498 499.286 820.551 498.196C821.468 497.24 822.727 496.357 824.236 496.044C824.345 496.019 824.455 496.005 824.564 495.987C824.303 495.454 824.071 494.901 823.916 494.322C823.705 493.51 823.598 492.661 823.612 491.803C823.644 490.946 823.803 490.096 824.067 489.288C824.354 488.49 824.731 487.736 825.193 487.061C825.435 486.713 825.651 486.435 825.956 486.075C826.299 485.689 826.69 485.363 827.097 485.1C828.751 484.047 830.488 483.855 832.077 483.929C833.68 484.025 835.212 484.443 836.636 485.164C837.327 485.515 837.989 485.946 838.603 486.459C838.749 485.739 838.975 485.036 839.289 484.362C839.9 482.993 840.98 481.656 842.357 480.814C843.722 479.952 845.355 479.539 846.964 479.633C848.576 479.709 850.17 480.339 851.426 481.377L851.882 481.783L852.202 482.091L852.839 482.707L854.119 483.932C855.831 485.562 857.575 487.164 859.33 488.755C865.601 494.405 872.085 499.848 878.686 505.133C879.588 501.588 880.53 498.074 881.738 494.461C881.832 494.173 881.955 493.861 882.074 493.554L882.163 493.324L882.299 493.029C882.39 492.826 882.497 492.658 882.599 492.473C883.025 491.778 883.52 491.208 884.051 490.699C885.121 489.694 886.338 488.917 887.799 488.424C888.531 488.185 889.331 488.02 890.214 488.033C891.094 488.049 892.071 488.274 892.93 488.783C894.687 489.804 895.407 491.789 895.674 492.912C896.973 497.63 897.671 502.303 898.335 506.975C898.949 511.37 899.433 515.758 899.99 520.113C904.821 523.861 909.627 527.612 914.605 531.009C919.483 534.362 924.627 537.25 929.965 539.851C935.892 535.801 941.792 531.58 947.678 527.39L966.251 514.06L1003.3 487.249L1003.32 487.231C1003.38 487.189 1003.44 487.15 1003.51 487.114C1004.46 486.575 1005.67 486.91 1006.21 487.861C1008.34 491.625 1010.22 495.359 1012.11 499.156C1013.98 502.944 1015.79 506.762 1017.55 510.605C1021.05 518.293 1024.33 526.087 1027.32 533.999C1030.31 541.91 1033.02 549.938 1035.28 558.114C1037.54 566.289 1039.38 574.614 1040.35 583.112C1040.82 587.36 1041.08 591.65 1040.98 595.965C1040.87 600.275 1040.4 604.621 1039.31 608.877C1038.23 613.123 1036.5 617.305 1033.86 620.956C1031.25 624.614 1027.72 627.634 1023.75 629.704C1021.78 630.733 1019.64 631.57 1017.62 632.196C1015.57 632.866 1013.5 633.453 1011.41 633.956C1007.24 634.979 1002.98 635.669 998.708 636.067C990.153 636.847 981.526 636.429 973.097 635.052C956.197 632.3 940.15 626.008 925.166 618.125C910.161 610.201 896.13 600.609 882.883 590.118C869.636 579.612 857.152 568.182 845.51 555.926C839.7 549.79 834.122 543.426 828.827 536.841L820.981 526.926C819.628 525.172 818.424 523.297 817.559 521.142C817.137 520.062 816.8 518.903 816.711 517.632C816.617 516.375 816.831 514.954 817.533 513.733Z" fill="#141414"/>
<path fill-rule="evenodd" clip-rule="evenodd" d="M851.938 298C851.938 298 852.025 333.356 852.025 351.263C852.025 364.44 877.179 361.81 897 367.187C885.518 387.075 862.383 405.046 823.995 405.049H823.977C785.589 405.046 762.612 390.865 751.131 370.977C771.267 363.262 795.947 364.44 795.947 351.263C795.947 333.356 796.034 298 796.034 298H851.938Z" fill="white"/>
<path fill-rule="evenodd" clip-rule="evenodd" d="M796.038 296C794.983 295.997 794.118 296.811 794.039 297.846L794.016 305.307L793.946 350.188V351.263C793.946 356.778 789.011 359.427 774.654 362.663L767.358 364.278L766.038 364.578C763.896 365.071 762.034 365.526 760.231 366.002C756.613 366.959 753.401 367.965 750.414 369.109C749.266 369.549 748.783 370.912 749.398 371.977C762.193 394.141 787.002 406.792 822.885 407.045L823.994 407.049C859.193 407.046 884.923 392.104 898.731 368.187C899.387 367.05 898.789 365.6 897.522 365.257C894.487 364.433 891.212 363.756 887.408 363.131L886.585 362.998C885.214 362.779 883.788 362.569 882.16 362.341L875.1 361.383C859.199 359.156 854.024 356.925 854.024 351.263L853.977 316.3L853.937 297.995C853.934 296.891 853.036 295.997 851.932 296C850.827 296.003 849.934 296.9 849.937 298.005L850.023 347.9L850.024 351.263C850.024 356.193 852.879 359.563 858.136 361.747L858.482 361.888C862.219 363.376 866.355 364.213 874.453 365.333L880.992 366.217L882.772 366.468C883.907 366.631 884.948 366.787 885.956 366.948C888.641 367.375 891.045 367.824 893.267 368.324L893.893 368.467L893.641 368.868C880.344 389.761 856.904 402.773 825.004 403.045L823.976 403.049C790.261 403.046 766.949 391.986 754.377 372.462L754.101 372.024L754.772 371.795C756.533 371.203 758.394 370.643 760.39 370.101L761.254 369.869L762.318 369.592C763.931 369.179 765.633 368.772 767.579 368.329L775.032 366.678C782.838 364.937 787.131 363.677 790.677 361.818C795.408 359.338 797.946 355.93 797.946 351.263L797.996 314.703L798.033 298.005C798.036 296.9 797.142 296.003 796.038 296Z" fill="#141414"/>
<path fill-rule="evenodd" clip-rule="evenodd" d="M776.118 271.093C782.115 221.353 814.847 218.487 838.464 222.78C857.287 226.203 881.366 241.764 879.234 273.072C888.659 270.012 895.54 275.741 896.764 283.188C898.151 291.639 893.715 305.934 879.763 303.472C876.708 327.698 859.95 355.606 814.421 350.937C779.95 347.401 770.66 316.367 776.118 271.093Z" fill="white"/>
<path fill-rule="evenodd" clip-rule="evenodd" d="M877.778 303.223C875.996 316.852 869.835 330.361 858.736 338.967C845.769 351.118 802.797 356.006 787.781 335.456C775.002 322.433 773.094 277.249 782.883 251.154C789.659 251.9 800.06 252.764 809.542 252.394C811.716 249.325 814.061 243.437 815.749 239.2C816.562 237.159 817.222 235.501 817.637 234.726C818.851 236.388 817.203 245.156 816.212 250.432C816.018 251.462 815.85 252.359 815.732 253.043C828.924 259.493 857.117 262.73 872.98 259.809C873.152 262.856 872.609 266.159 872.134 269.049C871.065 275.546 870.34 279.959 878.851 274.69C892.285 266.373 899.193 288.976 889.927 297.937C884.824 302.873 881.026 303.217 877.778 303.223ZM857.97 189.079C862.82 191.152 875.635 196.846 875.816 202.246C854.938 184.741 785.786 176.608 764.686 239.659C757.94 261.51 753.797 339.211 755.126 346.185C766.052 348.461 782.434 350.963 797.047 350.631C797.302 349.908 797.464 349.137 797.59 348.347C815.496 356.697 841.537 355.383 857 345C856.594 348.508 856.642 350.906 856.677 352.671C856.705 354.064 856.725 355.062 856.508 355.9C871.749 358.358 894.399 352.212 894.399 352.212C894.399 352.212 933.279 272.685 896.415 226.19C905.05 224.198 923.139 211.674 910.851 185.77C901.344 165.729 867.224 165.37 857.97 189.079ZM882.167 287.933C882.381 288.964 882.577 289.91 883.622 289.698C886.812 289.05 887.219 284.497 884.309 283.023C881.921 281.814 881.187 284.511 881.95 287.022C882.039 287.314 882.104 287.627 882.167 287.933Z" fill="#141414"/>
<path fill-rule="evenodd" clip-rule="evenodd" d="M787.332 268.312C788.472 266.897 789.951 265.638 791.685 264.748C793.411 263.838 795.35 263.373 797.222 263.155C799.103 262.943 800.946 262.962 802.724 263.134C804.502 263.308 806.228 263.589 807.932 263.891C808.106 263.923 808.298 263.974 808.471 264.037C810.096 264.636 810.927 266.439 810.328 268.064C809.728 269.689 807.925 270.52 806.3 269.921C804.832 269.379 803.353 268.919 801.888 268.588C800.424 268.259 798.971 268.018 797.575 268.044C794.765 268.097 792.369 269.178 790.005 270.998L789.978 271.019C789.297 271.543 788.321 271.555 787.621 270.991C786.802 270.331 786.672 269.131 787.332 268.312ZM839.465 265.745C838.186 265.709 836.951 265.674 835.75 265.564C834.099 265.414 832.638 266.631 832.488 268.283C832.338 269.934 833.555 271.395 835.207 271.544C835.275 271.551 835.344 271.555 835.412 271.556L835.459 271.557C837.396 271.595 839.264 271.475 841.045 271.36C842.509 271.266 843.914 271.176 845.253 271.18C846.738 271.182 848.148 271.324 849.502 271.689C850.855 272.059 852.157 272.604 853.567 273.204L853.639 273.234C854.501 273.602 855.498 273.2 855.865 272.338C856.134 271.706 855.988 271.001 855.552 270.525C854.322 269.188 852.72 268.14 850.976 267.44C849.235 266.723 847.386 266.311 845.606 266.087C844.081 265.895 842.604 265.846 841.183 265.799H841.183C840.943 265.791 840.704 265.784 840.467 265.775C840.13 265.764 839.796 265.755 839.465 265.745H839.465ZM799.918 285.393C800.326 282.571 798.59 279.983 796.038 279.614C793.487 279.245 791.089 281.234 790.681 284.056C790.272 286.879 792.009 289.466 794.559 289.835C797.111 290.204 799.51 288.215 799.918 285.393ZM817.335 311.916C817.785 311.814 818.119 311.72 818.694 311.474C819.404 311.171 819.734 310.35 819.43 309.64C819.252 309.222 818.893 308.936 818.484 308.833L817.941 308.7C817.72 308.646 817.24 308.663 816.88 308.682L816.776 308.689C816.426 308.713 816.176 308.73 815.813 308.73C815.081 308.737 814.361 308.682 813.68 308.563C812.316 308.323 811.145 307.76 810.594 307.011C810.31 306.636 810.138 306.199 810.07 305.659C809.997 305.134 810.037 304.46 810.175 303.995C810.424 303.063 811.182 302.28 812.344 301.503C812.912 301.122 813.55 300.768 814.233 300.455L814.486 300.334L814.643 300.26C814.798 300.185 814.995 300.056 815.084 299.978C815.18 299.896 815.277 299.804 815.359 299.713L815.524 299.503C815.818 299.066 815.904 298.811 815.985 298.569C816.002 298.518 816.018 298.469 816.036 298.418C816.201 297.872 816.283 297.418 816.357 296.967C816.629 295.191 816.717 293.543 816.802 291.871C816.964 288.542 816.969 285.257 816.893 281.945C816.875 281.166 816.23 280.549 815.451 280.567C814.714 280.584 814.121 281.163 814.075 281.886L814.074 281.905C813.877 285.145 813.65 288.41 813.347 291.619C813.183 293.212 812.998 294.834 812.693 296.286C812.637 296.545 812.573 296.787 812.508 296.999C811.744 297.312 810.979 297.674 810.22 298.125C809.41 298.624 808.585 299.221 807.874 300.05C807.151 300.857 806.586 301.94 806.338 303.049C806.093 304.175 806.089 305.173 806.262 306.264C806.436 307.342 806.905 308.476 807.658 309.373C808.403 310.277 809.361 310.917 810.316 311.326C811.28 311.735 812.245 311.937 813.187 312.049C814.129 312.154 815.053 312.161 815.957 312.094C816.378 312.066 816.932 312.013 817.335 311.916ZM804.889 324.531L804.905 324.539C808.757 326.451 813.242 326.882 817.463 326.339C819.549 326.101 821.575 325.562 823.41 324.664C824.331 324.228 825.21 323.711 826.014 323.116C826.417 322.82 826.802 322.506 827.165 322.181C827.214 322.135 827.263 322.088 827.313 322.042C827.439 321.924 827.565 321.806 827.678 321.685C827.831 321.536 828.02 321.315 828.063 321.258C828.111 321.193 828.164 321.127 828.219 321.067C829.146 320.041 830.73 319.961 831.756 320.888C832.782 321.815 832.861 323.398 831.934 324.424L831.912 324.448C831.573 324.824 831.362 325.02 831.092 325.263C830.885 325.455 830.674 325.628 830.464 325.8C830.414 325.841 830.365 325.882 830.315 325.923C829.789 326.336 829.252 326.719 828.7 327.072C827.597 327.781 826.434 328.367 825.236 328.845C822.846 329.827 820.303 330.326 817.789 330.451C815.287 330.576 812.826 330.287 810.408 329.723C808 329.141 805.668 328.198 803.573 326.864C803.004 326.499 802.785 325.754 803.091 325.136C803.421 324.472 804.226 324.201 804.889 324.531ZM849.249 285.783C848.841 282.961 846.442 280.972 843.891 281.341C841.34 281.71 839.603 284.297 840.011 287.119C840.419 289.942 842.818 291.93 845.37 291.562C847.92 291.193 849.657 288.605 849.249 285.783Z" fill="#141414"/>
<path fill-rule="evenodd" clip-rule="evenodd" d="M1716.15 930.347C1709.96 950.644 1682.75 1021.86 1663.93 1028.61L1601.08 1078.65C1610.81 1099.74 1645.92 1125.7 1664.27 1125.7C1682.63 1125.7 1741.68 1111.97 1766.15 952.14C1771.59 928.148 1762.27 897.048 1756.15 903.507C1742.91 917.482 1716.15 930.347 1716.15 930.347Z" fill="white"/>
<path fill-rule="evenodd" clip-rule="evenodd" d="M1603.74 1079.25C1613.98 1099.13 1647.08 1123.57 1664.27 1123.57C1686.48 1123.57 1704.56 1105.32 1711.3 1097.47C1735.88 1068.86 1753.63 1019.86 1764.05 951.819C1764.05 951.769 1764.06 951.719 1764.07 951.67C1768.01 934.341 1763.97 913.31 1759.46 906.445C1758.59 905.113 1758.02 904.83 1757.89 904.779C1757.88 904.8 1757.8 904.854 1757.69 904.97C1745.5 917.837 1722.65 929.51 1717.91 931.855C1712.85 947.909 1685.72 1022.33 1665 1030.49L1603.74 1079.25ZM1664.27 1127.83C1645.06 1127.83 1609.15 1101.2 1599.15 1079.54C1598.74 1078.65 1598.99 1077.59 1599.76 1076.98L1662.61 1026.95C1662.79 1026.81 1663 1026.69 1663.22 1026.61C1680.04 1020.57 1706.45 954.855 1714.12 929.726C1714.29 929.159 1714.7 928.689 1715.23 928.431C1715.5 928.304 1741.79 915.57 1754.6 902.045C1756.12 900.443 1758.13 900.079 1759.98 901.067C1767.32 904.987 1772.82 932.246 1768.24 952.537C1743.32 1115.2 1682.36 1127.83 1664.27 1127.83Z" fill="#141414"/>
<path fill-rule="evenodd" clip-rule="evenodd" d="M1773.33 958.704L1739.38 969.624C1735.07 971.009 1730.46 968.641 1729.07 964.333L1703.11 883.622C1701.73 879.315 1704.1 874.7 1708.4 873.315L1742.36 862.395C1746.67 861.009 1751.28 863.378 1752.67 867.685L1778.62 948.396C1780.01 952.704 1777.64 957.318 1773.33 958.704Z" fill="#141414"/>
<path d="M1743.92 879.499C1745.99 879.499 1747.67 877.82 1747.67 875.749C1747.67 873.678 1745.99 871.999 1743.92 871.999C1741.85 871.999 1740.17 873.678 1740.17 875.749C1740.17 877.82 1741.85 879.499 1743.92 879.499Z" fill="#13D6C3"/>
<path fill-rule="evenodd" clip-rule="evenodd" d="M1773.03 933.403C1768.7 932.496 1762.7 935.551 1762.96 940.154C1763.16 943.68 1767.59 946.552 1773.84 943.278C1778.42 940.875 1776.96 934.226 1773.03 933.403Z" fill="white"/>
<path fill-rule="evenodd" clip-rule="evenodd" d="M1765.69 903.801C1767.2 897.603 1762.19 893.393 1755.18 896.684C1753.2 897.613 1750.19 899.799 1750.06 903.269C1749.72 912.115 1764.61 908.202 1765.69 903.801Z" fill="white"/>
<path fill-rule="evenodd" clip-rule="evenodd" d="M1772.26 931.647C1776.71 928.774 1774.82 920.498 1769.51 919.715C1768.28 919.534 1767.02 919.609 1765.78 919.883C1767.85 918.875 1769.35 917.562 1769.93 916.283C1772.41 910.872 1767.25 903.224 1755.76 909.99C1749.49 913.681 1751.93 921.43 1757.08 921.626C1759.07 921.701 1760.96 921.468 1762.65 921.03C1758.56 923.156 1755.7 927.333 1757.5 931.13C1759.51 935.381 1765.68 935.893 1772.26 931.647Z" fill="white"/>
<path fill-rule="evenodd" clip-rule="evenodd" d="M1772.86 941.394C1770.35 942.708 1768.02 942.954 1766.45 942.068C1765.63 941.603 1765.13 940.861 1765.08 940.033C1765.01 938.737 1765.82 937.753 1766.52 937.156C1767.81 936.044 1769.73 935.371 1771.45 935.371C1771.85 935.371 1772.24 935.408 1772.6 935.485C1773.55 935.684 1774.34 936.73 1774.53 938.029C1774.62 938.727 1774.65 940.452 1772.86 941.394ZM1759.42 930.221C1758.61 928.5 1759.4 926.843 1760.2 925.756C1761.03 924.632 1762.19 923.694 1763.48 923.001C1764.51 922.715 1765.48 922.358 1766.37 921.946C1766.96 921.824 1767.56 921.743 1768.14 921.743C1768.5 921.743 1768.85 921.768 1769.2 921.819C1771.11 922.1 1772.16 923.949 1772.49 925.446C1772.79 926.872 1772.62 928.883 1771.11 929.86C1767.74 932.033 1764.29 932.917 1761.89 932.232C1760.72 931.9 1759.89 931.224 1759.42 930.221ZM1754.27 916.929C1754.09 916.194 1753.72 913.654 1756.84 911.822C1759.49 910.257 1761.94 909.458 1763.91 909.458C1765.24 909.458 1766.35 909.819 1767.16 910.551C1768.43 911.703 1768.78 913.695 1768 915.397C1767.67 916.129 1766.59 917.098 1764.95 917.913C1763.94 918.168 1762.93 918.534 1761.98 919.002C1760.55 919.36 1758.93 919.566 1757.16 919.5C1755.49 919.437 1754.56 918.076 1754.27 916.929ZM1756.08 898.608C1758.69 897.384 1761.1 897.349 1762.52 898.514C1763.73 899.498 1764.13 901.24 1763.62 903.295C1763.38 904.286 1759.05 906.963 1754.9 906.383C1752.42 906.037 1752.13 904.655 1752.18 903.349C1752.29 900.531 1755.45 898.906 1756.08 898.608ZM1778.74 937.443C1778.4 934.995 1776.99 932.96 1775.07 931.929C1776.63 930.021 1777.25 927.327 1776.64 924.545C1775.97 921.424 1773.96 919.025 1771.37 918.036C1771.56 917.748 1771.73 917.459 1771.87 917.169C1773.44 913.742 1772.69 909.813 1770.01 907.394C1769.44 906.878 1768.48 906.199 1767.13 905.733C1767.42 905.278 1767.63 904.803 1767.76 904.306C1768.65 900.651 1767.7 897.255 1765.22 895.223C1762.5 892.994 1758.4 892.821 1754.28 894.758V894.759C1752.84 895.435 1748.13 898.04 1747.93 903.188C1747.81 906.525 1749.4 908.987 1752.27 910.081C1750.25 912.261 1749.43 915.136 1750.15 917.97C1750.94 921.122 1753.46 923.346 1756.48 923.686C1754.67 926.389 1754.33 929.403 1755.57 932.039C1756.58 934.168 1758.36 935.649 1760.72 936.322C1761.03 936.409 1761.35 936.46 1761.67 936.518C1761.06 937.691 1760.76 938.964 1760.84 940.276C1760.97 942.541 1762.28 944.595 1764.36 945.769C1765.61 946.482 1767.06 946.837 1768.62 946.837C1770.58 946.837 1772.71 946.275 1774.83 945.161C1777.69 943.66 1779.19 940.703 1778.74 937.443Z" fill="#141414"/>
<path fill-rule="evenodd" clip-rule="evenodd" d="M1737.62 963.327C1736.11 955.611 1728.84 952.77 1724.52 952.082C1726.12 939.889 1720.56 929.451 1718.6 926.685C1715.63 922.47 1704.73 920.203 1706.74 931.379C1708.3 940.042 1710.53 944.969 1708.75 952.345L1717.61 958.11C1717.22 959.226 1716.9 960.37 1716.67 961.426C1713.64 975.86 1731.7 980.619 1737.07 977.081C1739.94 975.187 1739.18 971.334 1737.62 963.327Z" fill="white"/>
<path fill-rule="evenodd" clip-rule="evenodd" d="M1740.66 969.051C1740.66 970.421 1740.6 971.721 1740.37 973.161C1740.25 973.921 1739.54 974.431 1738.78 974.311C1738.06 974.191 1737.56 973.531 1737.63 972.811L1737.64 972.721C1737.86 970.421 1737.74 967.871 1737.23 965.551C1736.76 963.201 1735.86 960.971 1734.55 959.091C1733.9 958.141 1733.14 957.281 1732.32 956.631C1731.48 955.951 1730.51 955.391 1729.45 954.961C1728.42 954.541 1727.31 954.211 1726.19 953.971C1725.95 955.041 1725.65 956.101 1725.3 957.151C1725.01 958.001 1724.08 958.471 1723.22 958.181C1722.38 957.891 1721.92 956.971 1722.19 956.121C1722.46 955.271 1722.69 954.421 1722.89 953.551C1723.2 952.171 1723.42 950.771 1723.55 949.351C1723.86 945.951 1723.64 942.491 1722.95 939.131C1722.38 936.321 1721.49 933.531 1720.22 931.071C1719.91 930.471 1719.56 929.881 1719.21 929.431C1718.9 929.031 1718.42 928.591 1717.92 928.201C1716.89 927.421 1715.68 926.761 1714.45 926.291C1713.23 925.821 1711.93 925.541 1710.86 925.631C1710.34 925.671 1709.91 925.811 1709.61 926.001C1709.32 926.191 1709.11 926.441 1708.94 926.841C1708.6 927.631 1708.59 928.941 1708.79 930.231C1708.84 930.561 1708.91 930.891 1708.98 931.221L1709.22 932.301L1709.74 934.461C1710.43 937.351 1711.31 940.341 1711.57 943.651C1711.69 945.291 1711.64 946.981 1711.39 948.621C1711.13 950.251 1710.71 951.821 1710.22 953.351C1709.86 954.471 1708.67 955.081 1707.55 954.721C1706.43 954.371 1705.81 953.171 1706.17 952.051L1706.18 952.041L1706.19 951.981C1706.64 950.651 1707.01 949.311 1707.24 947.971C1707.47 946.621 1707.53 945.291 1707.45 943.931C1707.28 941.211 1706.52 938.361 1705.83 935.401L1705.33 933.161L1705.09 932.031C1705.01 931.631 1704.94 931.221 1704.88 930.801C1704.68 929.141 1704.54 927.301 1705.37 925.301C1705.79 924.311 1706.57 923.331 1707.56 922.731C1708.55 922.121 1709.62 921.871 1710.59 921.811C1712.55 921.701 1714.24 922.171 1715.82 922.781C1717.39 923.411 1718.84 924.221 1720.2 925.281C1720.88 925.821 1721.52 926.401 1722.13 927.201C1722.69 927.951 1723.09 928.671 1723.46 929.411C1724.91 932.331 1725.81 935.351 1726.4 938.451C1727.11 942.221 1727.3 946.121 1726.87 949.951C1726.93 949.971 1727 949.981 1727.06 950.001C1728.41 950.351 1729.75 950.811 1731.05 951.421C1732.34 952.031 1733.59 952.811 1734.71 953.801C1735.85 954.821 1736.74 955.961 1737.48 957.161C1739 959.581 1739.91 962.281 1740.32 964.981C1740.55 966.331 1740.66 967.691 1740.66 969.051Z" fill="#141414"/>
<path fill-rule="evenodd" clip-rule="evenodd" d="M1420.61 1223C1418.53 1188.76 1397.96 1002.52 1420.61 966.194C1455.82 909.704 1547.38 914.397 1547.38 914.397C1547.38 914.397 1593.83 909.583 1627.2 947.297C1637.11 958.488 1660.58 1011.53 1665.16 1028.12C1662.45 1036.9 1641.56 1056.54 1631.1 1063.24C1648.81 1138.94 1649.61 1222.35 1649.61 1222.35C1649.61 1222.35 1456.08 1226.25 1420.61 1223Z" fill="#6366F1"/>
<path fill-rule="evenodd" clip-rule="evenodd" d="M1620.75 1012.49C1620.11 1010.77 1617.36 1011.98 1618.16 1013.7C1621.15 1022.93 1627.93 1059.05 1628.99 1063.06C1641.62 1128.78 1647.63 1207.53 1647.5 1220.31C1627.62 1220.48 1463.34 1224.13 1422.9 1221.54C1422.63 1181 1396.63 1012 1422.45 967.255C1439.22 938.191 1472.12 925.918 1496.78 920.766C1523.74 915.134 1547.01 916.506 1547.25 916.521C1548.44 916.337 1592.86 912.25 1625.61 948.706C1634.9 959.198 1657.93 1010.7 1662.93 1028.06C1659.96 1035.8 1642.77 1052.4 1632.21 1059.91C1631.23 1056.56 1623.15 1021.93 1620.75 1012.49ZM1628.8 945.887C1596.16 909.009 1550.64 911.996 1547.35 912.267C1508.02 909.898 1441.18 922.983 1418.76 965.134C1392.64 1019.27 1416.21 1150.08 1418.17 1199.37C1418.87 1208.39 1418.1 1225.1 1420.03 1225.15C1472.41 1225.81 1630.7 1224.5 1649.71 1224.48C1650.83 1224.43 1651.72 1223.51 1651.74 1222.38C1651.75 1221.58 1645.69 1135.66 1632.74 1064.25C1643.15 1056.68 1665.63 1037.96 1667.21 1027.56C1662.88 1011.86 1639.31 957.77 1628.8 945.887Z" fill="#141414"/>
<path fill-rule="evenodd" clip-rule="evenodd" d="M1508.76 884.826C1508.76 884.826 1507.41 919.265 1493.18 924.182C1489.31 943.538 1515.54 956.755 1535.48 955.819C1574.08 954.007 1562.07 922.456 1559.41 922.37C1559.49 918.415 1561.62 888.833 1561.62 888.833L1508.76 884.826Z" fill="white"/>
<path fill-rule="evenodd" clip-rule="evenodd" d="M1495.08 925.705C1494.38 930.767 1495.95 935.564 1499.75 939.98C1507.12 948.551 1522.1 954.328 1535.38 953.695C1548.65 953.072 1557.17 948.656 1560.04 940.925C1562.74 933.664 1559.77 925.79 1558.57 924.325C1557.8 923.993 1557.27 923.219 1557.28 922.329C1557.35 918.943 1558.85 897.684 1559.35 890.793L1510.76 887.11C1510.19 894.81 1507.42 919.958 1495.08 925.705ZM1533.45 957.993C1519.52 957.993 1504.28 951.773 1496.53 942.753C1491.63 937.055 1489.75 930.488 1491.09 923.766C1491.24 923.025 1491.77 922.419 1492.48 922.173C1503.02 918.532 1506.27 893.918 1506.64 884.742C1506.66 884.165 1506.92 883.622 1507.35 883.238C1507.78 882.854 1508.35 882.667 1508.92 882.705L1561.78 886.712C1562.95 886.801 1563.83 887.817 1563.74 888.986C1563.72 889.262 1561.87 914.92 1561.58 921.37C1563.89 923.865 1565.36 929.98 1565.39 934.311C1565.44 940.379 1563.35 945.674 1559.37 949.623C1554.31 954.641 1546.31 957.44 1535.58 957.944C1534.87 957.976 1534.16 957.993 1533.45 957.993Z" fill="#141414"/>
<path fill-rule="evenodd" clip-rule="evenodd" d="M1497.38 1017.5C1496.29 1026.01 1495.31 1034.55 1494.43 1043.08C1493.57 1051.61 1492.81 1060.16 1492.34 1068.69V1068.7C1492.28 1069.8 1491.34 1070.65 1490.24 1070.59C1489.13 1070.53 1488.29 1069.58 1488.35 1068.48C1488.35 1068.48 1488.35 1068.46 1488.35 1068.45C1488.95 1059.82 1489.84 1051.24 1490.83 1042.68C1491.83 1034.13 1492.94 1025.59 1494.16 1017.06C1494.29 1016.17 1495.11 1015.55 1496 1015.68C1496.88 1015.81 1497.49 1016.62 1497.38 1017.49L1497.38 1017.5Z" fill="#141414"/>
<path fill-rule="evenodd" clip-rule="evenodd" d="M1717.56 1163.89C1716.31 1158.32 1703.12 1154.25 1692.74 1150.35C1692.65 1150.11 1692.58 1149.85 1692.5 1149.6C1685.15 1128.86 1508.4 1124.94 1498.27 1117.75C1490.2 1112.02 1490.49 1077.58 1490.35 1068.57C1474.79 1069.64 1408.25 1075.27 1408.25 1075.27C1411.1 1170.47 1441.01 1181.65 1462.19 1188.49C1498.4 1200.19 1609.97 1184.05 1634.64 1190.5C1655.74 1196.02 1666.63 1175.83 1680.56 1190.35C1685.18 1195.17 1691.38 1189.94 1693.25 1184.05C1694.38 1180.51 1695.32 1174.61 1695.33 1168.01C1709.08 1170.59 1718.96 1170.06 1717.56 1163.89Z" fill="white"/>
<path fill-rule="evenodd" clip-rule="evenodd" d="M1656.15 1178.66C1658.17 1180.44 1660.15 1184.19 1660.15 1190.56C1660.15 1196.32 1661.61 1198.49 1664.61 1198.82C1668.68 1199.26 1670.5 1195.68 1671.45 1189.23C1671.84 1186.62 1671.85 1181.83 1671.1 1178.66" fill="white"/>
<path fill-rule="evenodd" clip-rule="evenodd" d="M1682.57 1165.42C1684.31 1177.37 1682.92 1190.44 1679.36 1194.15C1675.51 1198.16 1670.49 1196.68 1671.2 1190.88C1671.91 1185.12 1671.27 1176.72 1669.53 1171.5" fill="white"/>
<path fill-rule="evenodd" clip-rule="evenodd" d="M1715.22 1165.89C1713.73 1167.38 1708.29 1168.1 1697.45 1166.22C1697.36 1162.19 1696.9 1157.94 1695.92 1153.8C1703.63 1156.87 1717.3 1160.86 1715.22 1165.89ZM1691.23 1183.41C1689.86 1187.15 1687.05 1190.77 1683.63 1189.94C1685.59 1181.82 1685.14 1173.36 1683.7 1165.25C1683.47 1163.93 1681.4 1164.12 1681.43 1165.47C1682.09 1172.72 1681.98 1180.14 1680.31 1187.18C1679.64 1189.5 1679.01 1191.96 1677 1193.38C1675.81 1194.18 1674.36 1194.76 1673.61 1193.46C1672.95 1190.25 1673.86 1184.31 1672.88 1178.85C1672.51 1176.81 1671.96 1169.92 1669.24 1170.22C1668.49 1170.4 1668.03 1171.15 1668.21 1171.89C1669.77 1178.3 1669.58 1185.16 1668.98 1191.72C1668.06 1194.19 1666.61 1197.93 1663.58 1196.16C1660.99 1192.66 1662.77 1187.12 1660.88 1183.08C1660.09 1181.2 1657.79 1175.45 1654.95 1177.52C1654.32 1178.19 1654.35 1179.24 1655.01 1179.87C1656.5 1181.24 1657.43 1183.56 1657.83 1185.69C1651.05 1188.17 1644.24 1190.81 1635.18 1188.44C1600.79 1182.26 1492.94 1197.83 1462.85 1186.47C1443.23 1180.13 1413.65 1170.57 1410.44 1077.22C1421.16 1076.31 1471.52 1072.07 1488.25 1070.85C1488.45 1091.86 1489.66 1114.27 1497.05 1119.48C1500.97 1122.27 1520.62 1124.07 1557.92 1127.28C1595.48 1130.88 1649.36 1134.06 1680.99 1144.29C1687.87 1146.77 1689.99 1148.89 1690.49 1150.31C1694.04 1160.03 1693.93 1174.42 1691.23 1183.41ZM1719.64 1163.42C1718.58 1157.04 1704.9 1152.54 1694.89 1148.88C1694.73 1148.82 1694.83 1148.87 1694.43 1148.71C1693.76 1145.92 1691.19 1143.08 1684.28 1140.68C1648.9 1128.38 1531.87 1122.8 1499.5 1116.01C1495.13 1112.91 1492.78 1097.74 1492.5 1070.92C1492.53 1068.93 1492.74 1066.41 1490.2 1066.45C1474.81 1067.51 1408.74 1073.09 1408.08 1073.15C1406.95 1073.25 1406.1 1074.2 1406.13 1075.33C1409.03 1159.33 1428.01 1198.26 1507.29 1195C1540.9 1195.89 1609.59 1187.88 1634.11 1192.56C1643.92 1195.13 1651.52 1192.54 1658.21 1190.07C1658.2 1193.33 1658.04 1196.83 1660.67 1199.45C1663.98 1202.43 1669.42 1201.28 1671.39 1197.46C1675.16 1200.25 1680.22 1197.44 1682.11 1193.9C1694.26 1196.39 1697.04 1181.39 1697.42 1170.54C1705.34 1171.61 1721.02 1174.26 1719.64 1163.42Z" fill="#141414"/>
<path fill-rule="evenodd" clip-rule="evenodd" d="M1606.83 1322C1606.83 1322 1554.16 1352.81 1556.72 1382.26C1559.28 1411.71 1582.17 1411.07 1592.73 1410.59C1618.98 1409.4 1647.63 1386.46 1647.63 1386.46L1606.83 1322Z" fill="#6366F1"/>
<path fill-rule="evenodd" clip-rule="evenodd" d="M1607.82 1387.19C1607.37 1387.19 1606.91 1387.04 1606.54 1386.72C1593.18 1375.57 1589.1 1361.67 1588.93 1361.08C1588.63 1360.02 1589.25 1358.91 1590.31 1358.61C1591.37 1358.31 1592.48 1358.92 1592.78 1359.98C1592.82 1360.11 1596.73 1373.32 1609.1 1383.65C1609.95 1384.36 1610.06 1385.62 1609.36 1386.47C1608.96 1386.94 1608.39 1387.19 1607.82 1387.19Z" fill="#141414"/>
<path fill-rule="evenodd" clip-rule="evenodd" d="M1558.63 1193.39C1558.63 1193.39 1644.25 1153.48 1750.16 1138.91C1852.59 1124.83 1868.26 1191.48 1843.62 1241.34C1789.85 1350.18 1650.22 1398.86 1650.22 1398.86C1574.56 1360.63 1599.92 1269.77 1558.63 1193.39Z" fill="#141414"/>
<path fill-rule="evenodd" clip-rule="evenodd" d="M1645.75 1278.39C1645.13 1278.39 1644.52 1278.11 1644.13 1277.57C1643.48 1276.68 1643.67 1275.43 1644.56 1274.78C1645.26 1274.27 1714.11 1223.63 1734.72 1183.86C1735.23 1182.88 1736.43 1182.49 1737.41 1183C1738.39 1183.51 1738.78 1184.72 1738.27 1185.7C1729.42 1202.78 1711.34 1223.51 1684.55 1247.33C1664.65 1265.01 1647.1 1277.88 1646.92 1278.01C1646.57 1278.27 1646.15 1278.39 1645.75 1278.39Z" fill="white"/>
<path fill-rule="evenodd" clip-rule="evenodd" d="M1761.41 1346.37C1761.41 1346.37 1746.93 1356.21 1761.71 1372.25C1768.86 1380.01 1855.06 1414.3 1882.75 1396.79C1895.53 1388.71 1898.44 1379.63 1899.78 1375.75C1885.26 1371.33 1761.41 1346.37 1761.41 1346.37Z" fill="#141414"/>
<path fill-rule="evenodd" clip-rule="evenodd" d="M1791.07 1293.06C1808.36 1291.95 1840.87 1306.85 1881.02 1327.11C1921.29 1347.44 1905.46 1390.54 1868.74 1393.03C1847.02 1394.5 1792.68 1381.97 1767.82 1366.91C1748.54 1355.22 1754.87 1332.43 1759.15 1323.44C1765.48 1310.17 1779.16 1293.82 1791.07 1293.06Z" fill="#6366F1"/>
<path fill-rule="evenodd" clip-rule="evenodd" d="M1833.41 1361.27C1833.39 1361.27 1833.36 1361.27 1833.34 1361.26C1832.29 1361.18 1831.51 1360.26 1831.6 1359.22C1833.14 1339.85 1843.16 1327.17 1843.59 1326.64C1844.25 1325.83 1845.44 1325.7 1846.26 1326.35C1847.08 1327.01 1847.21 1328.21 1846.56 1329.03C1846.46 1329.15 1836.83 1341.37 1835.39 1359.52C1835.31 1360.54 1834.43 1361.31 1833.41 1361.27Z" fill="#141414"/>
<path fill-rule="evenodd" clip-rule="evenodd" d="M1852.95 1364.88C1852.93 1364.88 1852.9 1364.88 1852.88 1364.87C1851.83 1364.79 1851.05 1363.87 1851.13 1362.83C1852.28 1348.46 1859.73 1339.04 1860.05 1338.65C1860.7 1337.83 1861.9 1337.7 1862.72 1338.36C1863.54 1339.01 1863.67 1340.21 1863.01 1341.03C1862.94 1341.12 1855.97 1349.98 1854.93 1363.13C1854.85 1364.15 1853.97 1364.92 1852.95 1364.88Z" fill="#141414"/>
<path fill-rule="evenodd" clip-rule="evenodd" d="M1770.2 1276.31C1770.2 1276.31 1817.6 1308.98 1820.45 1317.37C1826.42 1334.96 1816.98 1349.5 1805.27 1354.29C1783.54 1363.17 1734.57 1332.69 1734.57 1332.69" fill="white"/>
<path fill-rule="evenodd" clip-rule="evenodd" d="M1798.78 1357.78C1774.65 1359.78 1735.35 1335.53 1733.52 1334.39C1732.58 1333.8 1732.29 1332.57 1732.88 1331.63C1733.46 1330.69 1734.69 1330.41 1735.63 1330.99C1735.75 1331.07 1747.96 1338.63 1762.61 1345C1781.66 1353.29 1796.14 1355.86 1804.51 1352.44C1815.47 1347.96 1824.11 1334.38 1818.55 1318.02C1816.63 1312.36 1787.18 1290.44 1769.06 1277.96C1768.15 1277.33 1767.92 1276.08 1768.55 1275.17C1769.18 1274.26 1770.42 1274.04 1771.33 1274.66C1771.45 1274.75 1783.36 1282.96 1795.46 1292.1C1817.78 1308.95 1821.49 1314.23 1822.34 1316.73C1828.69 1335.41 1818.67 1350.97 1806.02 1356.14C1803.83 1357.04 1801.39 1357.56 1798.78 1357.78Z" fill="#141414"/>
<path fill-rule="evenodd" clip-rule="evenodd" d="M1415.06 1238.62C1423.11 1069.5 1580.59 1148.26 1611.55 1164.17C1712.22 1215.92 1814.5 1279.14 1814.5 1279.14C1817.39 1331.8 1758.47 1379.03 1722.56 1384.28L1597.93 1321.68C1597.93 1321.68 1566.27 1367.21 1509.47 1364.8C1435.01 1361.64 1411.01 1323.58 1415.06 1238.62Z" fill="#0B379B"/>
<path fill-rule="evenodd" clip-rule="evenodd" d="M1598.03 1321.76C1591.79 1318.46 1549.71 1296.04 1528.68 1279.46C1527.82 1278.77 1526.56 1278.92 1525.88 1279.79C1525.19 1280.65 1525.34 1281.91 1526.21 1282.6C1546.84 1298.87 1587.26 1320.58 1595.48 1324.94C1596.41 1323.88 1597.36 1322.73 1598.03 1321.76Z" fill="white"/>
<path fill-rule="evenodd" clip-rule="evenodd" d="M1579.8 829.613C1568.35 779.454 1535.75 775.833 1512.13 780.127C1493.31 783.549 1475.03 799.732 1477.16 831.039C1470.52 824.644 1461.07 828.54 1459.31 835.878C1457.25 844.445 1462.68 863.902 1476.63 861.439C1477.98 884.434 1496.98 918.121 1534.69 917.812C1575.76 917.476 1589.94 874.072 1579.8 829.613Z" fill="white"/>
<path fill-rule="evenodd" clip-rule="evenodd" d="M1474.59 859.437C1476.61 859.458 1478.19 859.475 1478.63 861.321C1485.75 931.435 1582.35 937.722 1580.96 857.61C1581.1 840.366 1576.82 819.387 1568.5 805.141C1559.29 806.786 1547.99 805.237 1536.98 800.873C1534.49 799.884 1531.73 801.097 1528.2 802.648C1523.19 804.853 1516.62 807.741 1507.05 805.956C1487.47 802.306 1486.91 813.055 1489.31 825.218C1493 843.919 1480.25 838.113 1476.29 832.836C1473.67 830.467 1470.48 829.115 1467.22 830.15C1456.84 833.849 1460.58 848.829 1466.68 856.166C1469.11 859.38 1472.16 859.412 1474.59 859.437ZM1580.34 772.305C1592.79 775.097 1591.08 791.291 1580.8 799.954C1585.87 808.457 1589.03 833.671 1584.13 842.936C1586.96 866.903 1582.45 888.567 1571.34 902.612C1545.43 935.344 1493.52 917.043 1481.07 885.163C1469.04 881.155 1444.28 853.936 1457.64 806.283C1456.82 805.524 1454.39 805.808 1452.01 806.085C1448.82 806.457 1445.74 806.816 1446.87 804.605C1447.3 803.741 1452.63 802.305 1456.2 801.342C1457.2 801.073 1458.06 800.84 1458.64 800.668C1458.68 800.56 1458.57 799.471 1458.41 797.908C1457.73 791.173 1456.15 775.631 1462.24 791.833C1473.19 775.586 1482.38 774.508 1490.3 773.581C1496.1 772.901 1501.21 772.301 1505.83 765.873C1519.29 747.143 1535.34 745.051 1542.59 754.47C1548.44 762.077 1550.11 762.998 1555.98 758.518C1571.12 746.977 1579.39 757.582 1580.34 772.305ZM1468.67 842.805C1468.25 840.228 1468.94 838.957 1470.01 838.782C1471.09 838.607 1472.54 839.295 1472.96 841.872C1473.38 844.449 1472.45 846.98 1471.37 847.155C1470.3 847.329 1469.09 845.382 1468.67 842.805Z" fill="#141414"/>
<path fill-rule="evenodd" clip-rule="evenodd" d="M1519.86 838.115C1519.56 838.091 1519.03 838.053 1518.58 838.046C1518.23 838.031 1517.87 838.04 1517.51 838.049C1517.4 838.052 1517.28 838.055 1517.17 838.057C1516.22 838.104 1515.26 838.171 1514.31 838.32C1512.42 838.631 1510.52 839.046 1508.73 839.794C1506.95 840.532 1505.15 841.353 1503.55 842.512C1501.98 843.488 1500.59 844.724 1499.16 845.986L1498.83 846.279L1498.74 846.362C1498.21 846.826 1497.41 846.777 1496.95 846.253C1496.55 845.804 1496.53 845.151 1496.86 844.681C1496.99 844.502 1497.11 844.322 1497.24 844.141C1497.75 843.408 1498.27 842.668 1498.86 841.982C1499.04 841.784 1499.22 841.583 1499.4 841.382L1499.4 841.382C1499.98 840.745 1500.56 840.105 1501.22 839.548C1502.9 838.01 1504.84 836.722 1506.91 835.69C1508.98 834.666 1511.19 833.887 1513.48 833.466C1514.62 833.248 1515.78 833.095 1516.95 833.027C1517.03 833.024 1517.12 833.022 1517.21 833.019C1517.71 833.005 1518.21 832.99 1518.72 833.009C1519.33 833.018 1519.87 833.056 1520.62 833.159C1521.99 833.347 1522.94 834.61 1522.75 835.978C1522.57 837.297 1521.4 838.234 1520.09 838.133L1519.86 838.115ZM1566.78 853.233L1566.78 853.233C1566.94 853.353 1567.09 853.466 1567.22 853.558L1567.54 853.778C1567.97 854.076 1568.55 854.143 1569.06 853.904C1569.83 853.544 1570.16 852.631 1569.8 851.864C1569.43 851.071 1569.05 850.526 1568.57 849.923C1568.1 849.346 1567.55 848.827 1566.95 848.355C1565.73 847.421 1564.28 846.76 1562.7 846.461C1561.13 846.161 1559.41 846.265 1557.89 846.811C1556.35 847.33 1555.05 848.265 1554.02 849.323C1553.4 849.966 1553.26 850.978 1553.76 851.775C1554.34 852.713 1555.58 852.999 1556.51 852.415L1556.62 852.347C1557.52 851.791 1558.39 851.349 1559.27 851.126C1560.14 850.88 1561.02 850.852 1561.92 850.968C1562.82 851.124 1563.75 851.416 1564.64 851.876C1565.09 852.099 1565.53 852.365 1565.97 852.658C1566.24 852.824 1566.52 853.038 1566.78 853.233ZM1506.99 852.149C1506.41 852.869 1505.93 853.544 1505.47 854.451C1505.19 855.013 1505.32 855.715 1505.82 856.134C1506.41 856.623 1507.28 856.544 1507.77 855.957L1507.87 855.832C1508.25 855.377 1508.78 854.803 1509.31 854.366C1509.84 853.912 1510.39 853.497 1510.97 853.172C1512.14 852.516 1513.36 852.137 1514.59 852.122C1514.9 852.122 1515.19 852.134 1515.52 852.172C1515.64 852.19 1515.76 852.201 1515.88 852.213C1516.09 852.233 1516.3 852.252 1516.5 852.302C1517.15 852.399 1517.73 852.606 1518.28 852.832C1518.84 853.05 1519.32 853.355 1519.74 853.698L1519.81 853.76C1519.99 853.917 1520.16 854.071 1520.3 854.242C1520.38 854.328 1520.45 854.417 1520.51 854.502L1520.53 854.523L1520.62 854.648C1520.63 854.655 1520.64 854.672 1520.64 854.686C1520.66 854.71 1520.67 854.724 1520.64 854.661C1521.15 855.806 1522.49 856.32 1523.64 855.809C1524.78 855.298 1525.3 853.956 1524.79 852.811C1524.68 852.569 1524.62 852.476 1524.55 852.358L1524.52 852.3C1524.46 852.186 1524.4 852.093 1524.33 851.996V851.996L1524.31 851.963L1524.28 851.922C1524.12 851.689 1523.95 851.465 1523.77 851.26C1523.42 850.842 1523.03 850.472 1522.62 850.14C1521.79 849.49 1520.88 848.978 1519.94 848.632C1518.99 848.307 1518.03 848.075 1517.09 847.993C1516.77 847.944 1516.45 847.935 1516.14 847.925C1515.99 847.921 1515.84 847.917 1515.69 847.908C1515.21 847.901 1514.71 847.942 1514.22 848.001C1512.26 848.264 1510.41 849.067 1508.95 850.236C1508.22 850.81 1507.56 851.453 1506.99 852.149ZM1553.97 833.722C1553.39 833.852 1552.89 833.993 1552.2 834.228C1551.03 834.638 1550.35 835.9 1550.69 837.115C1551.05 838.378 1552.36 839.116 1553.62 838.761L1553.8 838.71C1554.1 838.626 1554.6 838.5 1555.03 838.41C1555.47 838.309 1555.92 838.235 1556.38 838.165L1557.76 837.991L1559.15 837.902C1561 837.848 1562.86 837.997 1564.66 838.416C1566.45 838.836 1568.21 839.469 1569.85 840.371C1571.41 841.121 1572.81 842.173 1574.25 843.256L1574.25 843.257C1574.38 843.357 1574.52 843.457 1574.65 843.557L1574.75 843.635C1575.23 843.997 1575.91 844.007 1576.41 843.62C1577.01 843.156 1577.12 842.296 1576.65 841.699C1576.32 841.268 1575.97 840.846 1575.61 840.424C1575.51 840.311 1575.42 840.194 1575.32 840.077L1575.32 840.076C1575.06 839.765 1574.81 839.453 1574.49 839.197C1574.32 839.045 1574.16 838.89 1573.99 838.735C1573.33 838.133 1572.68 837.525 1571.91 837.043C1570.1 835.697 1567.98 834.748 1565.8 834.101C1563.62 833.443 1561.33 833.094 1559.06 833.135C1557.92 833.159 1556.78 833.211 1555.66 833.399C1555.1 833.491 1554.53 833.589 1553.97 833.722ZM1541.48 852.566C1541.62 854.744 1541.86 856.917 1542.42 858.787C1542.58 859.241 1542.74 859.685 1542.93 860.04C1543.12 860.396 1543.35 860.674 1543.47 860.741C1543.72 860.921 1544.2 861.243 1544.66 861.529C1545.14 861.829 1545.64 862.152 1546.16 862.521C1547.16 863.275 1548.28 864.224 1549.01 865.769C1549.33 866.555 1549.56 867.379 1549.48 868.402C1549.4 869.407 1548.92 870.365 1548.37 870.999C1547.24 872.293 1546.01 872.832 1544.87 873.328C1543.72 873.784 1542.6 874.114 1541.48 874.367C1540.64 874.559 1539.8 874.03 1539.61 873.186C1539.45 872.466 1539.81 871.751 1540.44 871.437L1540.45 871.433C1540.77 871.272 1541.1 871.117 1541.42 870.964H1541.42C1542.08 870.646 1542.72 870.338 1543.31 870.004C1544.19 869.538 1544.98 868.964 1545.3 868.519C1545.45 868.292 1545.46 868.182 1545.47 868.066L1545.47 868.065C1545.49 867.966 1545.42 867.671 1545.31 867.431C1545.1 866.918 1544.51 866.293 1543.75 865.695C1543.37 865.387 1542.94 865.081 1542.49 864.754C1542.37 864.667 1542.25 864.584 1542.13 864.499C1541.78 864.248 1541.41 863.984 1540.96 863.567C1540.25 862.878 1539.9 862.167 1539.63 861.505C1539.35 860.837 1539.22 860.195 1539.1 859.562C1538.68 857.046 1538.93 854.677 1539.41 852.394C1539.53 851.829 1540.09 851.469 1540.65 851.589C1541.12 851.689 1541.45 852.089 1541.48 852.545L1541.48 852.566ZM1526 887.377C1531.16 890.307 1552.4 889.756 1559.14 885.491C1559.74 883.458 1558.99 882.522 1558.99 882.522C1558.99 882.522 1539.07 885.432 1526.01 883.892C1526.01 883.892 1525.58 886.538 1526 887.377ZM1559.66 879.298C1561.08 879.015 1562.38 879.515 1563.14 880.63C1566.22 887.689 1556.46 899.189 1542.44 899.124C1533.13 899.611 1521.83 893.949 1521.35 887.527C1520.91 884.753 1523.4 880.004 1527.25 880.701C1529.98 881.197 1536.53 881.38 1542.92 881.152C1551.28 880.858 1559.25 879.373 1559.64 879.3C1559.65 879.299 1559.65 879.298 1559.66 879.298Z" fill="#141414"/>
<path fill-rule="evenodd" clip-rule="evenodd" d="M1574.92 983L1533.74 984.798L1532 1050.4L1556.9 1050.28L1557.6 1103.94L1593 1022.64L1566.47 1023.39L1574.92 983Z" fill="#FFC81A"/>
</svg>
