<svg width="2209" height="1411" fill="none" xmlns="http://www.w3.org/2000/svg">
  <path fill-rule="evenodd" clip-rule="evenodd" d="M654 325c-7 17-8 39 4 69a276 276 0 0 0 87 106c15 13 30 26 41 39 12 14 20 29 22 47 0 11-2 24-6 38l-9 28-6 18c-10 33-19 69-14 107a128 128 0 0 0 50 90l1 1c10 9 21 19 29 31 8 13 12 29 12 50-2 35-22 58-44 81l-4 4c-22 22-44 45-56 80-17 46-8 90 5 123a243 243 0 0 0 28 52h381l2-3a317 317 0 0 0 39-65c19-43 36-100 25-159-10-55-39-88-68-113l-20-17-2-2-20-17a91 91 0 0 1-27-37c-12-36-5-72 3-109l1-6c7-35 15-70 10-107-9-62-44-96-83-121a636 636 0 0 0-57-33c-18-10-35-21-45-35-10-12-17-26-24-40a1099 1099 0 0 1-20-46c-15-30-36-61-75-86-31-19-82-22-119-6-19 8-33 20-41 38Zm524 969 4 3h1v-1a310 310 0 0 0 43-70c20-44 37-103 26-166-11-58-42-93-72-120l-20-17-2-1c-7-6-14-11-19-17a81 81 0 0 1-24-32c-11-33-5-67 3-103l1-7c7-35 15-71 9-110-9-67-47-103-87-129l-40-23-18-10c-18-11-32-21-42-33-8-11-15-24-22-38l-6-16-14-29c-16-32-37-65-79-91-35-21-89-25-130-7-20 9-37 23-46 43-9 21-9 47 3 78 19 48 57 81 89 109l1 1c16 14 30 26 41 39s17 25 19 39c0 10-2 21-6 35a711 711 0 0 1-14 46c-11 33-20 71-15 112a138 138 0 0 0 54 96c11 10 20 19 27 30s11 25 11 44c-2 30-19 50-41 73l-4 5c-21 21-45 46-59 83-17 49-8 96 6 131a254 254 0 0 0 31 56l5-3-5 3 2 3h392l1-3-4-3Z" fill="#fff"/>
  <path fill-rule="evenodd" clip-rule="evenodd" d="M353 690c-77-16-220-4-242 20-24 26 37 171 67 183 44 0 118-9 106 15s-50 53-50 68c0 14 26 109 59 114 32 6 112-20 114 0 3 21-41 48-44 71-3 24 42 88 230 144h162s29-203-41-288c-56 21-80 23-80 23s6-114-15-164c-20-50-48-94-84-94-28 0-86 52-98 32-12-21 15-105-84-124Z" fill="#fff"/>
  <path fill-rule="evenodd" clip-rule="evenodd" d="M289 228c-34 4-65 257 48 286 41 11 110 32 73 73-19 22-96 45-115 88-15 32 23 131 79 157 64 29 124 16 130 56 5 39-88 64-94 118-4 38 59 176 266 293 122 0 224-2 224-2s98-155 123-338-13-247-82-256c-36-5-106 48-141 38-30-9 8-107 8-177s-18-133-48-148c-23-12-94 41-117 51-24 11-69 22-78-1-11-30 28-106-1-149-36-55-198-98-275-89Z" fill="#D3E2F2"/>
  <path d="M338 303v5l2 1 2 3 1 1 13 15 1 1c15 16 31 36 49 58l1 1c52 65 103 138 152 218 60 101 111 205 148 313 45 126 70 253 72 378a3 3 0 1 0 7 0c-2-126-27-253-72-381-38-108-89-213-149-314-48-79-99-152-151-216l-1-2-49-58-2-2-11-13-3-2-2-3-3-3h-5Z" fill="#fff"/>
  <path fill-rule="evenodd" clip-rule="evenodd" d="M1873 1303s103-62 82-174c-12-67-55-63-80-114-15-32 9-119-40-176-46-53-121-49-145-60-33-16-45-48-54-75-35-100-114-97-127-47-16 59-1 96 72 154 56 44-25 94 23 174 27 45 99 68 64 126-49 79-39 157-15 192h220Z" fill="#FF4B33"/>
  <path fill-rule="evenodd" clip-rule="evenodd" d="M1572 708h2a950 950 0 0 1 171 267c32 74 66 178 56 328h-4c10-149-24-253-55-327a928 928 0 0 0-170-268Z" fill="#fff"/>
  <path fill-rule="evenodd" clip-rule="evenodd" d="M1503 937c7 0 13 5 13 11l-1 3a520 520 0 0 1 278 352h-4c-1-4-3-18-9-37a518 518 0 0 0-266-311c-2 3-6 5-9 5-7 0-12-4-12-10 0-7 4-13 10-13Z" fill="#141414"/>
  <path fill-rule="evenodd" clip-rule="evenodd" d="M1437 1066c6 0 12 5 12 11 20 4 52 11 112 33a403 403 0 0 1 216 193h-4a399 399 0 0 0-214-189c-59-22-91-29-110-33-2 5-6 8-11 8-6 0-12-4-12-11 0-6 4-12 11-12Z" fill="#141414"/>
  <path d="M810 81c0-45 36-81 81-81h504c45 0 81 36 81 81v1141c0 45-36 81-81 81H891c-45 0-81-36-81-81V81Z" fill="#fff"/>
  <path fill-rule="evenodd" clip-rule="evenodd" d="M1395 24H891c-31 0-57 26-57 57v1141c0 31 26 57 57 57h504c31 0 57-26 57-57V81c0-31-26-57-57-57ZM891 0c-45 0-81 36-81 81v1141c0 45 36 81 81 81h504c45 0 81-36 81-81V81c0-45-36-81-81-81H891Z" fill="#141414"/>
  <path fill-rule="evenodd" clip-rule="evenodd" d="M1279 582h2a92 92 0 0 1 76 91v2h-94l16-93Zm4 5-15 84h85a89 89 0 0 0-70-84Z" fill="#D3E2F2"/>
  <path fill-rule="evenodd" clip-rule="evenodd" d="M1248 599a89 89 0 0 0 0 177c47 0 87-39 88-86h-91l16-90-13-1Zm-93 89a93 93 0 0 1 109-91h2l-16 89h90v2c0 50-42 92-92 92-51 0-93-42-93-92ZM1096 586a38 38 0 1 0 0 76 38 38 0 0 0 0-76Zm-42 38a42 42 0 1 1 84 0 42 42 0 0 1-84 0Z" fill="#D3E2F2"/>
  <path d="m1263 671 16-89a90 90 0 0 1 74 89h-90Z" fill="#EDF3F9"/>
  <path d="M1246 686h90c0 49-41 90-90 90-50 0-91-41-91-90a91 91 0 0 1 106-89l-15 89ZM1134 622a40 40 0 1 1-80 0 40 40 0 0 1 80 0Z" fill="#EDF3F9"/>
  <path fill-rule="evenodd" clip-rule="evenodd" d="M959 1182V836h-45v346h45Zm164 0v-175h-45v175h45Zm-78-250v250h-45V932h45Zm166 250v-123h-45v123h45Zm87-94v94h-45v-94h45Zm74 94v-116h-45v116h45Z" fill="#D3E2F2"/>
  <path d="m1267 892-142 76-170-259 17-10-55-36 3 66 15-8 182 277 143-76 91 139 20-13-104-156Z" fill="#02BAD3"/>
  <path fill-rule="evenodd" clip-rule="evenodd" d="M1351 139v-35H909v35h442Zm-53 54v35H908v-35h390Zm-121 111v-35H909v35h268Zm40 46v35H909v-35h308Zm-114 77v35H908v-35h195Z" fill="#D3E2F2"/>
  <path d="M1337 488v-16c11-2 19-6 25-12s9-13 9-21c0-7-2-13-6-17s-9-7-14-9l-19-5-13-3c-2-1-4-3-4-5 0-4 5-6 13-6 9 0 18 3 28 8l10-25c-8-4-17-7-29-8v-15h-20v15c-11 2-20 6-26 12s-9 13-9 21c0 7 2 13 6 17 4 5 8 8 13 9l20 6 12 3c3 1 4 3 4 5s-1 3-3 4l-10 1-17-2-16-7-10 25c4 2 9 5 16 6l20 4v15h20Z" fill="#FFC81A"/>
  <path fill-rule="evenodd" clip-rule="evenodd" d="M2209 1305H0v-4h2209v4Z" fill="#141414"/>
  <path fill-rule="evenodd" clip-rule="evenodd" d="m896 1243-10 96-51-3-9-92 70-1Z" fill="#fff"/>
  <path fill-rule="evenodd" clip-rule="evenodd" d="m829 1251 8 83 47 2 9-85 2-2c1 0 2 1 2 3l-9 87-2 2h-1l-50-3-2-2-9-84c0-2 1-3 3-3l2 2Z" fill="#141414"/>
  <path fill-rule="evenodd" clip-rule="evenodd" d="m783 1206-4 124-57 5-25-93 86-36Z" fill="#fff"/>
  <path fill-rule="evenodd" clip-rule="evenodd" d="m700 1247 24 86 53-5 4-108 2-2 2 2-4 111-2 2-57 5-2-2-24-88 2-3 2 2Z" fill="#141414"/>
  <path fill-rule="evenodd" clip-rule="evenodd" d="m786 1322-2-1-4 1c-9 1-27 5-45 5-11 0-14-4-20-10h-2c-30 8-58 16-74 27-3 2-14 11-12 17 1 3 4 5 9 5h153l2-1c4-5-2-31-5-43Z" fill="#F45648"/>
  <path fill-rule="evenodd" clip-rule="evenodd" d="M788 1375H631c-2 0-4-2-4-5v-1c0-3 2-5 4-5h157c3 0 5 2 5 5v1c0 3-2 5-5 5ZM676 1338l-2-1c-3-7-10-6-10-5-2 0-3-1-3-2l1-3c4-1 12-1 16 8l-1 3h-1ZM695 1333l-2-1c-3-8-10-6-11-6-1 1-2 0-2-1-1-1 0-3 1-3 4-1 12-1 16 8l-1 3h-1Z" fill="#141414"/>
  <path fill-rule="evenodd" clip-rule="evenodd" d="M890 1316s29 26 15 47c-18 5-63 10-82 0-14-7 8-48 8-48 22 2 38 1 59 1Z" fill="#F45648"/>
  <path fill-rule="evenodd" clip-rule="evenodd" d="M817 1367c0 4 4 7 8 7h77c4 0 7-4 6-9 0-5-2-4-5-4h-78c-3 0-8 2-8 6ZM885 1346l2-2-1-2c-1-1-20-10-41-3-1 0-2 1-1 2l2 2a58 58 0 0 1 39 3ZM879 1332l2-2-1-2c-1-1-16-7-29-1-1 1-2 2-1 3 0 1 2 2 3 1 11-6 25 0 25 0l1 1ZM974 887c-23 222-17 383-17 383-48 8-95 8-141-6l-11-467-57 144s66 248 54 268c-11 21-111 64-138 48-11-7-71-212-68-331 1-62 106-234 113-279 34-4 217 0 217 0s68 57 48 240Z" fill="#141414"/>
  <path fill-rule="evenodd" clip-rule="evenodd" d="M809 676c-4 3-13 9-29 15-6 2-9 2-10 1v-3c2-5 11-14 24-16l15 3Zm16-5c3 0 6 2 9 4 12 6 22 19 23 26l-13-9c-8-5-17-12-27-17l6-3 2-1Zm4 52v-1c2 0 2-1 2-2l-15-41c10 5 19 12 26 17 11 8 15 10 18 9l1-3c0-9-12-25-25-31-4-2-9-5-14-3-4 1-6 3-9 5-7-3-14-5-20-4-14 2-25 11-27 19-1 4 0 6 1 7 3 2 7 3 14 0 11-4 20-9 25-12-4 9-6 21-9 36l2 2 2-2c3-19 6-31 12-39a1073 1073 0 0 0 16 43ZM626 793c1-4 5-13 6-23 10-64 25-225 26-232l75 16s-52 211-52 233c1 32-10 52-12 59-3 7-9 12-13 9-1 5-7 8-10 4 0 3-4 4-5 4-5-1-8-4-11-12-6-14-8-40-4-58Z" fill="#fff"/>
  <path fill-rule="evenodd" clip-rule="evenodd" d="M624 793c15-56 20-154 28-217a1663 1663 0 0 1 7-40l1 3-4 37c-7 62-13 160-27 215-1 6-3 11-3 17-1 4 7 34 12 21 2-4 2-8 2-12l2-2c8-1 13-8 14-15 1-2 3-2 3 0-1 8-6 16-15 19 0 5 0 12-5 16s-10-2-12-7c1 11 4 32 14 32l3-1c0-2 3-3 4-1l2 1c2-1 3-2 3-4s2-3 4-2l3 1c4-2 7-8 9-13 3-9 11-27 10-54a2018 2018 0 0 1 56-232c-1 2-52 210-52 232 1 28-7 46-11 55-2 8-7 17-15 16-1 4-6 7-10 5-25 14-29-54-23-70Z" fill="#141414"/>
  <path fill-rule="evenodd" clip-rule="evenodd" d="m1010 484-14 12-71 50 12 120H698l20-113s-29-3-71-17c11-65 24-139 102-165 32-1 114-6 146-4 15 4 29 10 43 19 37 25 59 69 72 98Z" fill="#F45648"/>
  <path fill-rule="evenodd" clip-rule="evenodd" d="M729 477a2 2 0 0 1 3 1l-12 75-20 111h235l-12-118v-2l72-49 13-12c-14-30-36-72-71-95-14-9-28-15-42-19-25-1-77 1-116 3l-30 1c-76 26-89 98-99 162 34 11 60 15 67 15l12-73Zm-84 58c12-65 24-139 103-166h1l30-1a1591 1591 0 0 1 116-3c16 4 30 10 44 19 37 25 59 68 73 99v2a701 701 0 0 1-15 13l-70 49 13 119a2 2 0 0 1-2 2H698a2 2 0 0 1-2-2l20-112a346 346 0 0 1-71-18v-1Z" fill="#141414"/>
  <path fill-rule="evenodd" clip-rule="evenodd" d="m796 560 52 16c5 2 11-2 13-7l32-105c2-6-2-12-7-13l-51-16c-6-2-12 2-13 7l-32 105c-2 6 1 12 6 13Z" fill="#141414"/>
  <path fill-rule="evenodd" clip-rule="evenodd" d="M843 453a4 4 0 1 0 7 2 4 4 0 0 0-7-2ZM830 449a4 4 0 1 0 7 2 4 4 0 0 0-7-2Z" fill="#fff"/>
  <path fill-rule="evenodd" clip-rule="evenodd" d="m800 450 9-5-7-10v-1c0-1 0-2 2-2l9-3v-15a2 2 0 0 1 3-2l10 8 9-14 1-1c1-1 2 0 2 1l3 17 15-5a2 2 0 0 1 2 2l-3 12-2 1-1-1 2-9-13 4h-1c-1 1-2 0-2-1l-3-14-7 11v1h-3l-8-6v13l-1 2-9 2 6 10v2l-9 5 8 8v2h-2l-10-9h-1l1-3ZM819 514c1-2 5-3 7-1l-4-6c-2-2-2-6 0-7 3-3 6-2 8 0l-2-3c-3-3-3-6-1-9s7-2 10 0l5 4c-2-2-2-7 1-9 2-2 5-2 7 0 10 10 22 20 30 26l4-15c1-3 8-6 9-1 3 7 4 19 5 28 13 10 19 15 32 21 13-8 74-53 74-53 6 9 66 123 14 141-47 16-102-13-149-54-28-24-41-43-47-50-2-2-5-8-3-12Z" fill="#fff"/>
  <path fill-rule="evenodd" clip-rule="evenodd" d="m820 520 3 5 8 10a313 313 0 0 0 54 52c13 11 27 20 42 28s30 14 47 16a98 98 0 0 0 42-2l6-3c3-1 6-4 9-7l5-11c2-8 1-16 1-24l-5-25a278 278 0 0 0-28-67l-35 25-19 14-16 11a214 214 0 0 0 20 8 1287 1287 0 0 0 26 11l-2 1a1291 1291 0 0 1-37-13l-12-5-17-10-15-11-1-2-2-13a108 108 0 0 0-3-16h-2a6 6 0 0 0-3 3v1l-2 6a295 295 0 0 0-3 8h-2a450 450 0 0 1-28-23l-1-1-1-1-2-1a4 4 0 0 0-3 1l-1 1v5a90 90 0 0 0 6 6l7 7a1 1 0 0 1-2 2 442 442 0 0 1-13-12h-1v-1l-3-2-1-1-1-1-3-1-3 1-1 2v2l1 3 3 3 8 8 9 9a2 2 0 0 1-2 2l-9-8-9-8-2-2h-2a3 3 0 0 0-2 3v2l1 2 4 5 10 11a2 2 0 0 1-2 2l-11-10-1-1h-3l-1 1v5Zm-2-6a8 8 0 0 1 3-4v-1l-2-3v-4c0-1 0-3 2-4l3-2h1a9 9 0 0 1-1-4 9 9 0 0 1 2-6l1-1 5-1a12 12 0 0 1 7 2v-2l3-3a8 8 0 0 1 9 0l1 1 1 1 1 1a291 291 0 0 0 25 21l3-11v-1l1-1 1-1 4-3h2l3 1 3 4 2 14 2 13 15 11 15 9 18-13 18-13 37-27h1l2 1a237 237 0 0 1 12 23 385 385 0 0 1 22 72l1 13-2 13c-1 4-2 8-5 12a29 29 0 0 1-16 11 81 81 0 0 1-19 4c-9 1-17 0-26-1-17-3-33-9-48-17s-29-17-42-28a361 361 0 0 1-54-53l-8-10-3-6-1-3 1-4Z" fill="#141414"/>
  <path fill-rule="evenodd" clip-rule="evenodd" d="M852 298v53c0 13 25 11 45 16-11 20-35 38-73 38s-61-14-73-34c20-8 45-7 45-20v-53h56Z" fill="#fff"/>
  <path fill-rule="evenodd" clip-rule="evenodd" d="m796 296-2 2v53c0 6-5 8-19 12l-8 1-1 1a185 185 0 0 0-16 4l-1 3c13 22 38 35 74 35h1c35 0 61-15 75-39l-1-3-11-2-5-1-7-1c-16-2-21-4-21-10v-53a2 2 0 0 0-4 0v53c0 5 3 9 8 11l16 3 7 1h2a204 204 0 0 1 10 2h1v1c-14 21-37 34-69 34h-1c-34 0-57-11-70-31h1l5-2h2l6-2 7-1 16-5c4-3 7-6 7-11v-53l-2-2Z" fill="#141414"/>
  <path fill-rule="evenodd" clip-rule="evenodd" d="M776 271c6-50 39-53 62-48 19 3 43 19 41 50 10-3 17 3 18 10 1 9-3 23-17 20-3 25-20 53-66 48-34-4-43-35-38-80Z" fill="#fff"/>
  <path fill-rule="evenodd" clip-rule="evenodd" d="M878 303c-2 14-8 27-19 36-13 12-56 17-71-4-13-13-15-58-5-84 7 1 17 2 27 1l6-13 2-4c1 1-1 10-2 15v3c13 6 41 10 57 7l-1 9c-1 7-2 11 7 6 13-9 20 14 11 23-5 5-9 5-12 5Zm-20-114c5 2 18 8 18 13-21-17-90-25-111 38-7 22-11 99-10 106 11 2 27 5 42 5l1-3c17 9 44 7 59-3v11c15 2 37-4 37-4s39-79 2-126c9-2 27-14 15-40-10-20-44-21-53 3Zm24 99 2 2c3-1 3-6 0-7-2-1-3 2-2 4v1Z" fill="#141414"/>
  <path fill-rule="evenodd" clip-rule="evenodd" d="m787 268 5-3 5-2h6a67 67 0 0 1 5 1 3 3 0 1 1-2 6l-4-1-4-1c-3 0-6 1-8 3a2 2 0 0 1-3-3Zm52-2h-3a3 3 0 1 0-1 6 66 66 0 0 0 10-1l5 1 4 1a2 2 0 0 0 2-2l-5-4-5-1h-7Zm-39 19c0-2-1-5-4-5-3-1-5 1-5 4-1 3 1 5 4 6 2 0 5-2 5-5Zm17 27 2-1a1 1 0 0 0-1-2h-1a13 13 0 0 1-3 0l-3-2-1-1v-2l2-2 2-2h2v-3l1-5v-10a1 1 0 0 0-3 0 293 293 0 0 1-1 15l-3 1-2 2-2 3v3a7 7 0 0 0 4 5l3 1a15 15 0 0 0 4 0Zm-12 13a22 22 0 0 0 21-2l1-1h1a5 5 0 0 0 0-1 3 3 0 0 1 4 3 10 10 0 0 1-2 2 20 20 0 0 1-5 3l-7 1a27 27 0 0 1-14-3l-1-2h2Zm44-39c0-3-3-5-5-5-3 1-4 3-4 6s3 5 5 5c3-1 5-3 4-6Z" fill="#141414"/>
  <path fill-rule="evenodd" clip-rule="evenodd" d="M1716 930c-6 21-33 92-52 99l-63 50c10 21 45 47 63 47 19 0 78-14 102-174 6-24-4-55-10-48-13 13-40 26-40 26Z" fill="#fff"/>
  <path fill-rule="evenodd" clip-rule="evenodd" d="M1604 1079c10 20 43 45 60 45 22 0 41-19 47-27a297 297 0 0 0 53-145c4-18 0-39-5-46l-1-1c-12 13-35 25-40 27-5 16-32 90-53 98l-61 49Zm60 49c-19 0-55-27-65-48l1-3 63-50c17-6 43-72 51-97l1-2c1 0 27-12 40-26 1-2 3-2 5-1 7 4 13 31 8 52-25 162-86 175-104 175Z" fill="#141414"/>
  <path fill-rule="evenodd" clip-rule="evenodd" d="m1773 959-34 11c-4 1-9-1-10-6l-26-80c-1-5 1-9 5-11l34-11c5-1 9 1 11 6l26 80c1 5-1 9-6 11Z" fill="#141414"/>
  <path d="M1744 879a4 4 0 1 0 0-7 4 4 0 0 0 0 7Z" fill="#13D6C3"/>
  <path fill-rule="evenodd" clip-rule="evenodd" d="M1773 933c-4-1-10 3-10 7s5 7 11 3c4-2 3-9-1-10ZM1766 904c1-6-4-11-11-7-2 1-5 3-5 6 0 9 15 5 16 1Z" fill="#fff"/>
  <path fill-rule="evenodd" clip-rule="evenodd" d="M1772 932c5-3 3-12-2-12h-4l4-4c2-5-3-13-14-6-7 4-4 11 1 12l6-1c-4 2-7 6-5 10s8 5 14 1Z" fill="#fff"/>
  <path fill-rule="evenodd" clip-rule="evenodd" d="M1773 941c-3 2-5 2-7 1l-1-2 2-3 4-2h2l2 3c0 1 0 2-2 3Zm-14-11 1-4 3-3 3-1a9 9 0 0 1 3 0c2 0 3 2 3 3 1 2 1 4-1 5-3 2-7 3-9 2l-3-2Zm-5-13c0-1 0-3 3-5 2-2 5-3 7-3l3 2c1 1 2 3 1 4l-3 3-3 1-5 1-3-3Zm2-18c3-2 5-2 7 0l1 4c-1 1-5 4-9 3-3 0-3-1-3-3s3-4 4-4Zm23 38-4-5c2-2 2-5 2-7-1-4-3-6-6-7l1-1c1-3 1-7-2-10l-3-1 1-2c1-3 0-7-3-9-2-2-7-2-11 0-1 0-6 3-6 8 0 4 1 6 4 7-2 2-3 5-2 8s3 5 6 6c-1 2-2 5 0 8 1 2 2 4 5 4l1 1-1 3c0 3 1 5 3 6l5 1 6-2c3-1 4-4 4-8Z" fill="#141414"/>
  <path fill-rule="evenodd" clip-rule="evenodd" d="M1738 963c-2-7-9-10-13-11 1-12-4-23-6-25-3-5-14-7-12 4 1 9 4 14 2 21l9 6-1 3c-3 15 15 20 20 16 3-2 2-6 1-14Z" fill="#fff"/>
  <path fill-rule="evenodd" clip-rule="evenodd" d="m1741 969-1 4a1 1 0 0 1-2 0l-1-7-2-7a11 11 0 0 0-6-4l-3-1-1 3-2 1-1-2a33 33 0 0 0 1-17 31 31 0 0 0-4-10l-1-1-4-2h-4l-1 1v5l1 2 2 10a22 22 0 0 1-2 9l-2 2c-2-1-2-2-2-3l1-4v-4l-1-9-1-2v-8l3-2 3-1 5 1 4 2a11 11 0 0 1 3 4l3 9 1 12 4 1 4 3 2 3c2 3 3 5 3 8l1 4Z" fill="#141414"/>
  <path fill-rule="evenodd" clip-rule="evenodd" d="M1421 1223c-2-34-23-220 0-257 35-56 126-52 126-52s47-4 80 33c10 11 34 65 38 81-3 9-23 29-34 35 18 76 19 159 19 159s-194 4-229 1Z" fill="#6366F1"/>
  <path fill-rule="evenodd" clip-rule="evenodd" d="M1621 1012c-1-1-4 0-3 2l11 49c13 66 19 145 19 157-20 0-185 4-225 2 0-41-26-210-1-255 17-29 50-41 75-46 27-6 50-4 50-4 1-1 46-5 79 32 9 10 32 62 37 79-3 8-20 24-31 32l-11-48Zm8-66c-33-37-78-34-82-34-39-2-106 11-128 53-26 54-3 185-1 234 1 9 0 26 2 26 52 1 211 0 230-1 1 0 2 0 2-2 0 0-6-86-19-158 10-7 33-26 34-36-4-16-28-70-38-82Z" fill="#141414"/>
  <path fill-rule="evenodd" clip-rule="evenodd" d="M1509 885s-2 34-16 39c-4 20 23 33 42 32 39-2 27-34 24-34l3-33-53-4Z" fill="#fff"/>
  <path fill-rule="evenodd" clip-rule="evenodd" d="M1495 926c-1 5 1 10 5 14 7 9 22 14 35 14 14-1 22-5 25-13 3-7 0-15-1-17l-2-2 2-31-48-4c-1 8-4 33-16 39Zm38 32c-13 0-29-6-36-15-5-6-7-13-6-19l1-2c11-3 14-28 15-37a2 2 0 0 1 2-2l53 4 2 2-2 32c2 3 3 9 3 13 0 6-2 12-6 16-5 5-13 7-23 8h-3ZM1497 1018a1048 1048 0 0 0-5 51 2 2 0 1 1-4-1 566 566 0 0 1 8-52l1 1v1Z" fill="#141414"/>
  <path fill-rule="evenodd" clip-rule="evenodd" d="M1718 1164c-2-6-15-10-25-14-8-21-185-25-195-32-8-6-8-40-8-49l-82 6c3 95 33 107 54 113 36 12 148-4 173 3 21 5 32-15 46-1 4 5 10 0 12-6l2-16c14 3 24 2 23-4Z" fill="#fff"/>
  <path fill-rule="evenodd" clip-rule="evenodd" d="M1656 1179c2 1 4 5 4 12 0 5 2 7 5 8 4 0 6-3 6-10v-10" fill="#fff"/>
  <path fill-rule="evenodd" clip-rule="evenodd" d="M1683 1165c1 12 0 25-4 29-3 4-9 3-8-3s0-14-1-19" fill="#fff"/>
  <path fill-rule="evenodd" clip-rule="evenodd" d="M1715 1166c-1 1-7 2-18 0l-1-12c8 3 21 7 19 12Zm-24 17c-1 4-4 8-7 7 2-8 1-17 0-25h-3c1 8 1 15-1 22 0 3-1 5-3 6-1 1-3 2-3 0l-1-14c0-2-1-9-4-9l-1 2c2 6 2 13 1 20-1 2-2 6-5 4-3-3-1-9-3-13-1-2-3-8-6-5v2c2 1 2 4 3 6-7 2-14 5-23 2-34-6-142 10-172-2-20-6-49-15-53-109l78-6c0 21 2 43 9 48 4 3 24 5 61 8 37 4 91 7 123 17 7 3 9 5 9 6 4 10 4 24 1 33Zm29-20c-1-6-15-10-25-14h-1c0-3-3-6-10-8-35-13-152-18-184-25-5-3-7-18-7-45 0-2 0-5-3-5a11048 11048 0 0 0-84 9c3 84 22 123 101 120 34 1 103-7 127-2 10 2 18 0 24-3 0 3 0 7 3 9 3 3 8 2 10-2 4 3 9 0 11-3 12 2 15-13 15-23 8 1 24 3 23-8Z" fill="#141414"/>
  <path fill-rule="evenodd" clip-rule="evenodd" d="M1607 1322s-53 31-50 60c2 30 25 29 36 29 26-2 55-25 55-25l-41-64Z" fill="#6366F1"/>
  <path fill-rule="evenodd" clip-rule="evenodd" d="M1608 1387h-1a57 57 0 0 1-18-26 2 2 0 0 1 4-1s4 13 16 24v2l-1 1ZM1559 1193s85-40 191-54c103-14 118 52 94 102-54 109-194 158-194 158-75-38-50-129-91-206Z" fill="#141414"/>
  <path fill-rule="evenodd" clip-rule="evenodd" d="M1646 1278h-2a383 383 0 0 0 93-95c1 1 2 2 1 3-9 17-27 38-53 61a575 575 0 0 1-39 31Z" fill="#fff"/>
  <path fill-rule="evenodd" clip-rule="evenodd" d="M1761 1346s-14 10 1 26c7 8 93 42 121 25 13-8 15-17 17-21-15-5-139-30-139-30Z" fill="#141414"/>
  <path fill-rule="evenodd" clip-rule="evenodd" d="M1791 1293c17-1 50 14 90 34s24 64-12 66c-22 2-76-11-101-26-19-12-13-35-9-44 6-13 20-29 32-30Z" fill="#6366F1"/>
  <path fill-rule="evenodd" clip-rule="evenodd" d="m1833 1361-1-2c1-19 11-32 12-32l2-1 1 3c-1 0-10 12-12 31l-2 1ZM1853 1365l-2-2c1-15 9-24 9-24l3-1v3s-7 9-8 22l-2 2Z" fill="#141414"/>
  <path fill-rule="evenodd" clip-rule="evenodd" d="M1770 1276s48 33 50 41c6 18-3 33-15 37-21 9-70-21-70-21" fill="#fff"/>
  <path fill-rule="evenodd" clip-rule="evenodd" d="M1799 1358c-24 2-64-22-65-24a2 2 0 1 1 2-3s12 8 27 14c19 8 33 11 42 7 10-4 19-18 14-34-2-6-32-28-50-40a2 2 0 0 1 2-3l24 17c23 17 26 22 27 25 7 18-3 34-16 39l-7 2Z" fill="#141414"/>
  <path fill-rule="evenodd" clip-rule="evenodd" d="M1415 1239c8-169 166-91 197-75 100 52 203 115 203 115 2 53-57 100-92 105l-125-62s-32 45-89 43c-74-3-98-41-94-126Z" fill="#0B379B"/>
  <path fill-rule="evenodd" clip-rule="evenodd" d="M1598 1322a586 586 0 0 1-72-42v3c21 16 61 38 69 42l3-3ZM1580 830c-12-51-44-54-68-50-19 4-37 20-35 51-6-6-16-2-18 5-2 8 4 28 18 25 1 23 20 57 58 57 41-1 55-44 45-88Z" fill="#fff"/>
  <path fill-rule="evenodd" clip-rule="evenodd" d="M1475 859c2 0 3 0 4 2 7 70 103 77 102-3 0-18-4-39-12-53-10 2-21 0-32-4-3-1-5 0-9 2-5 2-11 5-21 3-20-4-20 7-18 19 4 19-9 13-13 8-2-3-6-4-9-3-10 4-6 19 0 26 2 3 5 3 8 3Zm105-87c13 3 11 19 1 28 5 8 8 34 3 43 3 24-2 46-13 60-26 32-77 14-90-18-12-4-37-31-23-79h-6c-3 0-6 1-5-1l9-4h3l-1-3c0-7-2-22 4-6 11-16 20-17 28-18 6-1 11-2 16-8 13-19 29-21 37-12 5 8 7 9 13 5 15-12 23-1 24 13Zm-111 71c-1-3 0-4 1-4s3 0 3 3l-2 5-2-4Z" fill="#141414"/>
  <path fill-rule="evenodd" clip-rule="evenodd" d="M1520 838a22 22 0 0 0-6 0 25 25 0 0 0-10 5c-2 0-3 2-5 3a1 1 0 0 1-2-1v-1l2-2v-1l2-1a25 25 0 0 1 12-7h8l2 3-3 2Zm47 15v1h1a2 2 0 0 0 2-2 9 9 0 0 0-3-4l-4-2a9 9 0 0 0-9 3 2 2 0 0 0 3 3l2-1h3a9 9 0 0 1 4 2h1Zm-60-1-2 2 1 2h2a12 12 0 0 1 3-3 8 8 0 0 1 5-1h1a8 8 0 0 1 3 2 4 4 0 0 1 1 1 2 2 0 0 0 4-2v-1h-1v-1l-1-1a10 10 0 0 0-6-2h-3l-5 2-2 2Zm47-18h-2c-1 1-2 2-1 3 0 1 1 2 3 2a21 21 0 0 1 2-1h3a22 22 0 0 1 15 5l1 1a1 1 0 0 0 2-2l-1-2h-1l-1-1-2-2-6-3a22 22 0 0 0-12 0Zm-13 19a29 29 0 0 0 2 7v1a24 24 0 0 0 3 2l3 3v2l-1 3-3 2-4 1a2 2 0 0 1-1-3h1l2-1 2-1v-2l-1-1-2-1v-1h-1l-1-2-1-2v-8a1 1 0 0 1 2 1Zm-15 34c5 3 26 3 33-2v-2s-20 2-33 1v3Zm34-8 3 2c3 7-7 18-21 18-9 1-20-5-21-11 0-3 2-8 6-7h16l17-2Z" fill="#141414"/>
  <path fill-rule="evenodd" clip-rule="evenodd" d="m1575 983-41 2-2 65h25l1 54 35-81h-27l9-40Z" fill="#FFC81A"/>
</svg>
