<svg width="86" height="24" viewBox="0 0 86 24" fill="none" xmlns="http://www.w3.org/2000/svg">
<path d="M9.51346 0.669569C8.84389 0.22319 7.86743 0 6.97467 0C4.68698 0 2.34349 1.42283 2.34349 4.79858V5.35655H0V7.03047H2.34349V20.7566C2.34349 21.5657 2.25979 22.1237 1.70182 22.1237C1.47863 22.1237 1.33914 22.04 1.22754 21.9284L1.08805 21.9842L0.697467 23.3233L0.781164 23.4628C0.976454 23.6302 1.39493 23.8255 2.0924 23.8255C3.57103 23.8255 4.2964 22.7095 4.2964 21.3425V7.03047H8.6765V5.35655H4.2964V4.79858C4.2964 2.62248 5.55184 1.72972 6.97467 1.72972C7.58845 1.72972 8.17432 1.86921 8.73229 2.204L8.87179 2.1482L9.56925 0.809062L9.51346 0.669569Z" fill="#3D5BF1"/>
<path d="M25.0312 17.7994L24.8917 17.7436C24.8359 17.7994 24.6964 17.9389 24.4175 17.9389C23.9153 17.9389 23.7758 17.4367 23.7758 16.5718V5.35655H21.8229V7.22576C20.5953 5.88663 18.8656 5.02177 16.6895 5.02177C12.5047 5.02177 9.63115 8.25801 9.63115 12.3312C9.63115 16.3765 12.5047 19.6407 16.6895 19.6407C18.9214 19.6407 20.679 18.72 21.9066 17.3251C21.9624 18.6084 22.6598 19.6407 24.0548 19.6407C24.6686 19.6407 25.1428 19.4454 25.3381 19.278L25.4218 19.1385L25.0312 17.7994ZM16.8569 17.8552C13.6765 17.8552 11.6399 15.3722 11.6399 12.3312C11.6399 9.34606 13.6486 6.80728 16.8848 6.80728C19.6747 6.80728 22.0461 8.70439 22.0461 12.3312C22.0461 15.9302 19.6747 17.8552 16.8569 17.8552Z" fill="#3D5BF1"/>
<path d="M42.0994 17.7994L41.9599 17.7436C41.8483 17.8552 41.7088 17.9389 41.4856 17.9389C40.9276 17.9389 40.8439 17.3809 40.8439 16.5718V10.7968C40.8439 7.42105 38.6678 5.02177 35.1247 5.02177C33.0881 5.02177 31.4699 5.80293 30.4377 7.11417C30.354 5.91452 29.6565 5.02177 28.2895 5.02177C27.6478 5.02177 27.2014 5.21706 27.0062 5.38445L26.9225 5.52394L27.313 6.86308L27.4525 6.91888C27.5641 6.80728 27.7036 6.72359 27.9268 6.72359C28.4848 6.72359 28.5685 7.28156 28.5685 8.09062V19.3059H30.5493V10.9921C30.5493 8.42541 32.3348 6.77938 34.8178 6.77938C37.3008 6.77938 38.8631 8.42541 38.8631 10.9921V17.1577C38.8631 18.4968 39.5606 19.6407 41.1229 19.6407C41.7646 19.6407 42.2109 19.4454 42.4062 19.278L42.4899 19.1385L42.0994 17.7994Z" fill="#3D5BF1"/>
<path d="M68.8374 17.7994L68.6979 17.7436C68.5863 17.8552 68.4468 17.9389 68.2236 17.9389C67.6657 17.9389 67.582 17.3809 67.582 16.5718V10.7968C67.582 7.42105 65.5733 5.02177 62.1138 5.02177C59.7424 5.02177 57.9011 6.13771 56.9805 7.92323C56.1435 6.13771 54.4417 5.02177 52.0703 5.02177C50.0337 5.02177 48.4156 5.83083 47.4112 7.16997C47.3275 5.91452 46.6301 5.02177 45.263 5.02177C44.6213 5.02177 44.175 5.21706 43.9797 5.38445L43.896 5.52394L44.2866 6.86308L44.4261 6.91888C44.5377 6.80728 44.6771 6.72359 44.9003 6.72359C45.4583 6.72359 45.542 7.28156 45.542 8.09062V19.3059H47.5228V10.9921C47.5228 8.42541 49.3083 6.77938 51.7355 6.77938C54.1348 6.77938 55.5855 8.42541 55.5855 10.9921V19.3059H57.5663V10.9921C57.5663 8.42541 59.3519 6.77938 61.779 6.77938C64.1783 6.77938 65.6012 8.42541 65.6012 10.9921V17.1577C65.6012 18.4968 66.2986 19.6407 67.861 19.6407C68.5026 19.6407 68.949 19.4454 69.1443 19.278L69.228 19.1385L68.8374 17.7994Z" fill="#3D5BF1"/>
<path d="M78.4069 19.6407C82.6475 19.6407 85.8 16.4602 85.8 12.3312C85.8 8.20222 82.6475 5.02177 78.4069 5.02177C74.1663 5.02177 71.0137 8.20222 71.0137 12.3312C71.0137 16.4602 74.1663 19.6407 78.4069 19.6407ZM78.4069 17.8552C75.2543 17.8552 73.0224 15.5117 73.0224 12.3312C73.0224 9.15077 75.2822 6.80728 78.4069 6.80728C81.5594 6.80728 83.7913 9.15077 83.7913 12.3312C83.7913 15.5117 81.5594 17.8552 78.4069 17.8552Z" fill="#3D5BF1"/>
</svg>
