<svg width="1753" height="1044" fill="none" xmlns="http://www.w3.org/2000/svg">
  <path d="M389 788H206c-8 0-15 7-15 15v20c0 8 7 15 15 15h183c8 0 15-7 15-15v-20c0-8-7-15-15-15Z" fill="#13D6C3"/>
  <path d="M329 826a13 13 0 1 0 0-26 13 13 0 0 0 0 26Z" fill="#FF4B33"/>
  <path fill-rule="evenodd" clip-rule="evenodd" d="M17 635h561L395 788H199L17 635Z" fill="url(#a)"/>
  <path d="M368 826a13 13 0 1 0 0-26 13 13 0 0 0 0 26Z" fill="#FFC81A"/>
  <path fill-rule="evenodd" clip-rule="evenodd" d="M25 622c-14 0-25-11-25-25V25C0 11 11 0 25 0h558c13 0 25 11 25 25v572c0 14-12 25-25 25H25Z" fill="#fff"/>
  <mask id="b" style="mask-type:alpha" maskUnits="userSpaceOnUse" x="0" y="0" width="608" height="623">
    <path fill-rule="evenodd" clip-rule="evenodd" d="M25 622c-14 0-25-11-25-25V25C0 11 11 0 25 0h558c13 0 25 11 25 25v572c0 14-12 25-25 25H25Z" fill="#fff"/>
  </mask>
  <g mask="url(#b)" fill-rule="evenodd" clip-rule="evenodd">
    <path d="m127 528-52 659c52 4 106 3 163 0 0 0 9-551 14-552 9-1 55 552 55 552 51 8 102 6 152 0 0 0-38-488-104-662-103 5-228 3-228 3Z" fill="#0B379B"/>
    <path d="M184 549c-1-1-2 0-3 1-17 32-52 29-54 29a2 2 0 1 0 0 5h3c10 0 40-3 55-32 1-1 1-2-1-3Zm184 25c-2 0-36 3-52-29l-4-1-1 4c15 29 44 31 54 31h3c2 0 3-1 2-3l-2-2Zm187-263s15-5 14-12c-1-6-11-3-20-2 0 0 14-9 8-15-7-6-32 6-43 11 9-9 11-23 4-21-5 1-28 16-59 33-6 3-34 16-54 16-41 1-47-16-50-17-6 7-20 23-26 70a129 129 0 0 0 109 12c44-12 90-38 109-45 17-7 13-14 7-15 0 0 15-3 14-10 0-4-3-6-13-5Z" fill="#fff"/>
    <path d="m554 324-15 3c-2 1-1 4 1 3l14-2c7 2 2 7-8 11-5 0-26 10-47 20a464 464 0 0 1-84 30 123 123 0 0 1-84-16l1-8 1-5 1-2v-2l1-5 1-5 1-4 2-5a100 100 0 0 1 16-30l1 1a42 42 0 0 0 9 7c4 3 8 5 13 6l14 2h15l14-2 14-4 26-10 58-33c4 0 0 12-6 18l-4 5v7c-1 11-8 16-9 16l1 2c8-3 12-13 11-22l4-5c8-4 34-16 39-12 4 4-3 10-7 12l-18 7a2 2 0 0 0 1 3l19-6c5 0 15-4 17 1-1 8-26 12-32 16-2 0-1 3 1 3l19-6c11-1 11 1 11 3 0 4-8 7-12 8Zm10-15c13-7 7-19-7-15 3-4 6-10 1-14-5-5-20 0-37 8 4-8 6-19-3-18l-59 33a213 213 0 0 1-39 14 83 83 0 0 1-41 0l-12-5a31 31 0 0 1-8-7l-1-1-1-1-1-1-2 1-6 7a90 90 0 0 0-13 26l-1 5-2 4-1 5-1 5v2l-1 3v4l-2 10 1 2a128 128 0 0 0 88 17 467 467 0 0 0 85-30c14-8 30-14 46-20 15-6 17-11 13-16 5-2 11-6 10-11 0-4-2-6-6-7Z" fill="#141414"/>
    <path d="M369 304c-31-20-54-46-54-46v-1c-35-40-128-37-173 1-77 65-14 276-14 276h236l-14-129-4-43c8-16 17-37 23-58Z" fill="#6366F1"/>
    <path d="M328 274c10 9 23 20 39 30-6 19-13 36-20 51-4-36-8-61-19-81ZM129 532c-2-8-15-64-21-117-3-33-3-63 1-87 6-31 17-54 34-68 21-18 55-29 89-30 35 0 65 10 81 29 23 26 27 62 33 128l2 18 14 127H129Zm189-273-2-3c-17-19-47-30-84-30-35 1-70 12-91 31-18 15-30 39-36 70-4 25-4 55 0 89a1040 1040 0 0 0 23 120h236a2 2 0 0 0 2-2 33514 33514 0 0 0-16-147l-2-25a377 377 0 0 0 22-60c-25-16-45-37-52-43Z" fill="#141414"/>
    <path d="M264 206s4 29 3 45c0 19-41 14-53 1-6-6-7-12-3-19l-1-30" fill="#fff"/>
    <path d="M246 266c-12 0-27-5-33-12-7-7-8-14-4-21a412 412 0 0 0 1-32c1-1 2 0 2 1l1 31-1 1c-3 6-2 11 4 17 7 9 30 13 42 9 5-2 7-5 7-9a468 468 0 0 0-1-47 461 461 0 0 1 5 47c0 6-3 10-10 13l-13 2Z" fill="#141414"/>
    <path d="M421 439c-2-6-15-8-26-11l-1-1c-5-11-69-10-122-9-34 0-71-6-76-13-4-7-6-16-6-23-40 6-68 6-86 6 2 16 7 42 31 69 22 25 85 31 143 25 28-5 53-9 64-7 13 2 16-4 24-7 1 10 8 15 12 6 4 3 8 3 10-5 5 2 10-1 11-7v-17c14 1 24 0 22-6Z" fill="#fff"/>
    <path d="M419 441c-1 2-7 3-18 2l-3-12c8 2 22 5 21 10Zm-22 20c-1 4-3 8-7 8 1-9 0-17-2-25h-3c2 8 3 15 2 22-1 3-1 5-3 7h-3l-3-14c0-2-2-9-4-8l-1 1c2 7 3 13 3 20-1 3-2 6-5 5-3-3-2-9-4-13-1-1-4-7-7-5l1 3c1 1 3 3 3 5-6 4-13 7-22 6-12-1-34 2-57 6-29 4-59 4-85 1-31-4-53-12-64-24-23-26-28-52-29-67h12c20 0 50-2 69-6 1 7 2 16 6 23 7 10 61 15 94 14h1c32-1 69-1 93 3 8 2 10 4 11 5 4 10 6 24 4 33Zm26-23c-2-6-16-9-26-12h-1c-1-2-4-5-11-6-21-5-68-5-110-4-35 0-73-6-77-12a51 51 0 0 1-6-24 342 342 0 0 1-89 5l-1 2c2 16 6 44 31 72 18 19 59 27 103 27 19 0 40-2 59-5h1c18-3 35-5 45-4s18-2 24-5c0 3 1 6 4 9 3 2 9 0 10-4 4 3 9-1 10-4 13 1 14-15 13-25 8 0 24 1 21-10Z" fill="#141414"/>
    <path d="m200 378-5-26a165 165 0 0 1 0-27 1 1 0 0 0-3-1l-1 14 1 14 3 25-2 1-3 1a2 2 0 0 0 0 3h4l2-1h2l2-3Z" fill="#141414"/>
    <path d="M242 307h32l-8 32h21l-30 62 1-42h-20l4-52Z" fill="#FFC81A"/>
    <path d="M287 144c-11-50-44-53-67-49-19 3-38 19-35 51-7-7-17-3-18 5-2 8 3 28 17 25 1 23 20 57 58 56 41 0 55-43 45-88Z" fill="#fff"/>
    <path d="M182 174c2 0 4 0 4 2 7 70 104 76 102-4 0-17-4-38-12-52-9 1-21 0-32-4-2-1-5 0-8 1-5 3-12 5-22 4-19-4-20 7-17 19 3 19-9 13-13 8-3-3-6-4-9-3-11 4-7 18-1 26 2 3 6 3 8 3Zm106-87c12 3 10 19 0 28 5 8 8 33 4 43 2 24-2 45-13 59-26 33-78 15-91-17-12-4-36-31-23-79h-6c-3 0-6 0-5-2l10-3 2-1v-2c-1-7-2-23 4-6 11-17 20-18 28-19 5 0 11-1 15-7 14-19 30-21 37-12 6 8 7 9 13 4 15-11 24-1 25 14Zm-112 70 1-4c1 0 3 1 3 4 1 2 0 5-1 5s-3-2-3-5Z" fill="#141414"/>
    <path d="M227 153h-2a27 27 0 0 0-18 8h-1a1 1 0 0 1-2-2h1a28 28 0 0 1 2-3l2-2a25 25 0 0 1 15-6h4a3 3 0 0 1-1 5Zm47 15h1a2 2 0 0 0 2-1 9 9 0 0 0-3-4l-4-2a9 9 0 0 0-9 3 2 2 0 0 0 3 3l3-1h2a9 9 0 0 1 4 1l1 1Zm-60-1-1 2a1 1 0 0 0 2 2 12 12 0 0 1 3-3 8 8 0 0 1 5-1h1a8 8 0 0 1 3 1 4 4 0 0 1 1 1 2 2 0 0 0 4-2 8 8 0 0 0-2-2 10 10 0 0 0-6-2h-1a11 11 0 0 0-9 4Zm47-19-1 1c-2 0-2 2-2 3s2 2 3 1a21 21 0 0 1 3 0h3a22 22 0 0 1 15 5 1 1 0 0 0 2-2l-1-1-1-1a54 54 0 0 1-3-2l-6-3a22 22 0 0 0-12-1Zm-12 19a28 28 0 0 0 1 8h1l1 1 2 1 2 3 1 3-1 3-4 2-3 1a2 2 0 0 1-1-3h1l2-1 2-2v-1l-2-2a28 28 0 0 0-1-1l-2-1-1-2-1-2 1-7a1 1 0 0 1 2 0Zm-16 35c6 3 27 2 34-2l-1-3s-20 3-33 2v3Zm34-8 4 1c3 7-7 19-21 19-10 0-21-5-21-12-1-3 2-7 6-7l15 1c9 0 17-2 17-2Z" fill="#141414"/>
  </g>
  <path fill-rule="evenodd" clip-rule="evenodd" d="M25 4C13 4 4 13 4 25v572c0 12 9 21 21 21h558c11 0 21-9 21-21V25c0-12-10-21-21-21H25Zm0 618c-14 0-25-11-25-25V25C0 11 11 0 25 0h558c13 0 25 11 25 25v572c0 14-12 25-25 25H25Z" fill="#141414"/>
  <path fill-rule="evenodd" clip-rule="evenodd" d="M605 82H2a2 2 0 0 1 0-4h603a2 2 0 0 1 0 4ZM81 31a9 9 0 1 0 0 19 9 9 0 0 0 0-19Zm0 23a13 13 0 1 1 0-27 13 13 0 0 1 0 27Zm38-23a9 9 0 1 0 0 19 9 9 0 0 0 0-19Zm0 23a13 13 0 1 1 0-27 13 13 0 0 1 0 27Z" fill="#141414"/>
  <path fill-rule="evenodd" clip-rule="evenodd" d="M54 40a11 11 0 1 1-22 0 11 11 0 0 1 22 0Z" fill="#FF4B33"/>
  <path fill-rule="evenodd" clip-rule="evenodd" d="M43 31a9 9 0 1 0 0 19 9 9 0 0 0 0-19Zm0 23a13 13 0 1 1 0-27 13 13 0 0 1 0 27Z" fill="#141414"/>
  <path fill-rule="evenodd" clip-rule="evenodd" d="m425 1043-35-138h-32l52 138h15Zm-237 0 57-138h-32l-35 138h10Z" fill="#FF4B33"/>
  <path d="M200 836h202c9 0 16 8 16 18v38c0 10-7 18-16 18H200c-9 0-16-8-16-18v-38c0-10 7-18 16-18Z" fill="#FFC81A"/>
  <path fill-rule="evenodd" clip-rule="evenodd" d="m651 865-30 137c-4 16 4 32 18 36 6 2 12 1 18-2 6-4 11-11 13-19l30-138-49-14Zm-6 178-7-1c-16-4-26-23-22-41l31-140 1-1h2l54 15 1 3-31 140c-2 9-7 17-15 21-4 3-9 4-14 4Zm129-178-30 137c-4 16 5 32 18 36 6 2 13 1 18-2 7-4 11-11 13-19l31-138-50-14Zm-6 178-7-1c-16-4-26-23-22-41l31-140 1-1h2l54 15c1 0 2 2 1 3l-31 140c-2 9-7 17-15 21-4 3-9 4-14 4Zm849-164 31 138c1 8 6 15 13 19 5 3 11 4 17 2 14-4 22-20 19-36l-31-137-49 14Zm55 164c-5 0-9-1-14-4-7-4-13-12-15-21l-31-140 2-3 53-15h2l1 1 31 140c4 18-5 37-21 41l-8 1Zm-188-164 31 138c2 8 6 15 13 19 5 3 12 4 18 2 13-4 22-20 18-36l-30-137-50 14Zm56 164c-5 0-10-1-14-4-8-4-13-12-15-21l-31-140c-1-1 0-3 1-3l54-15h2l1 1 31 140c4 18-6 37-22 41l-7 1Z" fill="#141414"/>
  <path fill-rule="evenodd" clip-rule="evenodd" d="M1630 888H591l-43-503c-2-28 17-53 42-53h1041c25 0 45 25 43 53l-44 503Z" fill="#FFC81A"/>
  <path fill-rule="evenodd" clip-rule="evenodd" d="M1675 888h-169V604h134c66 0 118 57 112 123l-5 95c-4 38-35 66-72 66Zm-827-38H613V599h134c66 0 118 57 112 122l-11 129Z" fill="#FFC81A"/>
  <path fill-rule="evenodd" clip-rule="evenodd" d="M848 885c-1 0-2-1-2-3l11-161a111 111 0 0 0-110-120H613a2 2 0 0 1 0-4h134a115 115 0 0 1 114 125l-11 161-2 2Zm687-162c-64-16-125-36-183-61-12-6-19-20-16-34 15-57 33-110 54-161 6-13 20-20 34-16 66 17 127 36 183 61 13 5 20 20 16 34-15 49-33 102-54 159-5 14-20 22-34 18Z" fill="#fff"/>
  <path fill-rule="evenodd" clip-rule="evenodd" d="M1596 724H904a2 2 0 0 1 0-5h692a2 2 0 1 1 0 5Zm-302-371c5 17 28 75 43 81l52 41c-8 18-37 39-52 39s-64-11-84-143c-4-20 3-46 8-40 11 11 33 22 33 22Z" fill="#fff"/>
  <path fill-rule="evenodd" clip-rule="evenodd" d="M1387 476c-8 16-36 36-50 36-18 0-33-15-39-21-20-24-35-64-43-120v-1c-3-14 0-31 4-37l1-1c10 11 29 20 33 22 4 13 26 75 44 81l50 41Zm-50 40c16 0 46-22 54-40l-1-2-52-42c-14-5-36-59-42-80l-1-1s-22-10-32-22h-5c-6 3-10 25-7 42 21 134 71 145 86 145Z" fill="#141414"/>
  <path fill-rule="evenodd" clip-rule="evenodd" d="m1247 376 28 9c4 1 8-1 9-4l21-67c1-3-1-7-4-8l-28-9c-4-1-8 1-9 4l-21 67c-1 3 1 7 4 8Z" fill="#141414"/>
  <path d="M1271 311a3 3 0 1 1 0-6 3 3 0 0 1 0 6Z" fill="#13D6C3"/>
  <path fill-rule="evenodd" clip-rule="evenodd" d="M1247 355c4 0 9 2 9 6 0 3-4 5-9 2-4-1-3-7 0-8Zm6-24c-1-5 3-9 9-6 2 1 4 3 4 5 1 8-12 5-13 1Z" fill="#fff"/>
  <path fill-rule="evenodd" clip-rule="evenodd" d="M1248 354c-4-2-2-9 2-10h3l-3-3c-2-4 2-11 12-5 5 3 3 9-1 10l-5-1c3 2 6 5 4 8-1 4-7 4-12 1Z" fill="#fff"/>
  <path fill-rule="evenodd" clip-rule="evenodd" d="M1248 362h5l1-1-1-3-4-1h-1l-2 2c0 1 0 2 2 3Zm11-9-1-4-3-2-2-1a7 7 0 0 0-2 0c-2 0-3 2-3 3l1 3c3 2 6 3 8 2l2-1Zm4-11c0-1 0-3-2-4-2-2-4-2-6-2l-3 1v4l2 2h3l3 1c2 0 3-1 3-2Zm-2-15h-5l-1 4s4 3 7 2c2 0 3-1 3-2 0-3-3-4-4-4Zm-18 32c0-2 1-4 3-5-2-1-2-4-2-6 1-3 3-5 5-5l-1-1c-1-3 0-6 2-8l2-1v-2c-1-3 0-5 2-7s5-2 9-1c1 1 5 3 5 7 0 3-1 5-3 6 1 2 2 4 1 7 0 2-2 4-5 4 2 3 2 5 1 7l-4 4h-1v3l-2 5h-4l-5-1c-2-1-4-4-3-6Z" fill="#141414"/>
  <path fill-rule="evenodd" clip-rule="evenodd" d="M1277 380c1-6 7-9 10-9-1-10 4-19 5-21 3-4 12-6 10 4-1 7-3 11-2 17l-7 5 1 2c2 12-13 16-17 13-2-1-2-4 0-11Z" fill="#fff"/>
  <path fill-rule="evenodd" clip-rule="evenodd" d="M1274 385v3a1 1 0 0 0 3 0v-6l2-5a9 9 0 0 1 4-4l3-1 1 3 1 1c1 0 2-1 1-2a26 26 0 0 1-1-5 29 29 0 0 1 4-17l1-1 3-2h4v7l-2 8a18 18 0 0 0 1 8l2 1 2-2-1-4-1-3 2-7v-3l1-1-1-4-2-2-2-1-4 1-4 2a9 9 0 0 0-3 3l-2 8-1 9-3 1a13 13 0 0 0-5 5l-3 6v4Z" fill="#141414"/>
  <path fill-rule="evenodd" clip-rule="evenodd" d="M1538 594c2-28 19-182 0-212-29-46-104-42-104-42s-39-4-66 27c-8 9-28 53-32 66 3 8 20 24 28 29-14 63-15 132-15 132s160 3 189 0Z" fill="#F45648"/>
  <path fill-rule="evenodd" clip-rule="evenodd" d="M1373 421c1-2 3-1 2 1l-9 40c-10 54-15 119-15 130 16 0 152 3 185 1 0-33 22-173 1-210-14-24-41-34-62-38-22-5-41-4-41-4-1 0-38-3-65 27-8 9-27 51-31 65 3 7 17 20 26 27l9-39Zm-7-55c27-31 65-28 68-28 32-2 87 9 106 44 21 44 2 152 0 193l-1 21c-44 1-174-1-190-1l-2-1c0-1 5-72 16-131-8-6-27-21-28-30 3-13 23-58 31-67Z" fill="#141414"/>
  <path fill-rule="evenodd" clip-rule="evenodd" d="M1465 315s1 29 13 33c3 16-18 27-35 26-32-2-22-28-19-28l-2-27 43-4Z" fill="#fff"/>
  <path fill-rule="evenodd" clip-rule="evenodd" d="M1477 349c0 4-1 8-4 12-6 7-19 12-30 11-11 0-18-4-20-10s0-13 1-14l1-2-1-26 40-3c0 7 2 27 13 32Zm-32 27c11 0 24-5 30-13 4-5 6-10 5-16l-1-1c-9-3-12-23-12-31v-1h-2l-43 3-2 2 2 26c-2 2-3 8-3 11 0 5 1 9 5 13s10 6 19 7h2Zm30 49a828 828 0 0 1 4 42c0 1 1 2 2 1l1-1a455 455 0 0 0-6-44l-1 2Z" fill="#141414"/>
  <path fill-rule="evenodd" clip-rule="evenodd" d="M1293 545c1-4 12-8 21-11 6-17 152-21 160-27 7-4 6-33 7-40l67 5c-2 79-27 88-44 94-30 9-122-4-142 1-18 5-27-12-38 0-4 4-9 0-11-5l-2-13c-11 2-19 2-18-4Z" fill="#fff"/>
  <path fill-rule="evenodd" clip-rule="evenodd" d="M1344 558c-2 1-3 4-3 9s-2 7-4 7c-4 1-5-2-6-8v-8" fill="#fff"/>
  <path fill-rule="evenodd" clip-rule="evenodd" d="M1322 547c-1 10 0 20 3 23 3 4 7 2 6-2 0-5 0-12 2-16" fill="#fff"/>
  <path fill-rule="evenodd" clip-rule="evenodd" d="M1295 547c1 1 6 2 15 0l1-10c-6 3-18 6-16 10Zm20 15c1 3 3 6 6 5v-20c0-2 2-1 2 0-1 6 0 12 1 18 0 2 1 4 3 5h2l1-12c0-2 1-8 3-7l1 1-1 16c1 2 2 6 5 4 2-3 0-7 2-11 1-1 2-6 5-4v2l-3 4c6 2 12 5 19 3 28-5 117 7 142-2 16-5 41-13 43-90l-64-5c0 17-1 36-7 40-3 2-19 4-50 6-31 3-76 6-102 14l-8 5c-2 8-2 20 0 28Zm-24-17c1-5 13-9 21-12 1-2 3-5 9-7 29-10 125-14 152-20 4-3 6-15 6-37 0-2 0-4 2-4a9118 9118 0 0 1 69 7c-2 70-18 102-83 99-28 1-85-6-105-2-8 2-14 0-20-2 0 3 0 6-2 8-3 2-7 1-9-2-3 2-7 0-9-3-10 2-12-10-12-19-7 1-20 3-19-6Z" fill="#141414"/>
  <path fill-rule="evenodd" clip-rule="evenodd" d="M1384 676s44 25 42 50c-2 24-21 23-30 23-22-1-45-20-45-20l33-53Z" fill="#F45648"/>
  <path fill-rule="evenodd" clip-rule="evenodd" d="m1384 730 1-1c11-9 14-20 14-21l-1-2-2 1s-3 11-13 20a2 2 0 0 0 1 3Zm40-160s-70-33-158-45c-84-12-97 43-77 84 45 90 160 130 160 130 62-31 41-106 75-169Z" fill="#141414"/>
  <path fill-rule="evenodd" clip-rule="evenodd" d="m1352 640 2-1-1-2a316 316 0 0 1-76-76l-1 2c7 15 22 32 44 51l31 26h1Z" fill="#fff"/>
  <path fill-rule="evenodd" clip-rule="evenodd" d="M1257 696s12 8 0 21c-6 7-77 35-100 21-11-7-13-15-14-18l114-24Z" fill="#141414"/>
  <path fill-rule="evenodd" clip-rule="evenodd" d="M1233 652c-15-1-42 11-75 28s-20 52 10 54c18 2 63-9 84-21 16-10 10-29 7-36-5-11-17-24-26-25Z" fill="#F45648"/>
  <path fill-rule="evenodd" clip-rule="evenodd" d="m1198 708 1-1c-1-16-9-27-10-27l-2-1v3s8 10 9 25l2 1Zm-17 3h1l1-1c-1-12-7-20-7-20l-3-1v3s6 7 7 18l1 1Z" fill="#141414"/>
  <path fill-rule="evenodd" clip-rule="evenodd" d="M1250 638s-39 27-42 34c-5 15 3 27 13 30 18 8 58-17 58-17" fill="#fff"/>
  <path fill-rule="evenodd" clip-rule="evenodd" d="M1226 705c20 2 52-18 54-19l1-2-3-1s-10 7-22 12c-16 7-28 9-35 6-9-4-16-15-11-28 1-5 26-23 41-33a2 2 0 1 0-2-3 645 645 0 0 0-42 34c-5 16 3 29 13 33l6 1Z" fill="#141414"/>
  <path fill-rule="evenodd" clip-rule="evenodd" d="M1543 607c-7-139-137-74-162-61-83 42-168 94-168 94-2 44 46 83 76 87l103-51s26 37 73 35c61-2 81-34 78-104Z" fill="#0B379B"/>
  <path fill-rule="evenodd" clip-rule="evenodd" d="M1392 676a482 482 0 0 0 59-35v2c-17 14-50 32-57 35l-2-2Zm13-402c5-41 32-43 52-40 15 3 35 16 33 42 8-3 14 2 15 8 1 7-3 19-14 17-3 20-17 43-54 39-28-3-36-28-32-66Z" fill="#fff"/>
  <path fill-rule="evenodd" clip-rule="evenodd" d="M1489 301c-1 11-6 22-16 29-10 10-46 14-58-3-11-10-12-48-4-69l22 1 5-11 2-4c1 2-1 9-2 13v2c11 6 34 8 47 6v8c-1 5-2 9 5 4 11-7 17 12 9 19-4 4-7 5-10 5Zm-16-94c4 1 14 6 15 10-18-14-75-21-92 31-6 18-9 82-8 88 9 2 23 4 35 4v-2c15 7 36 6 49-3v9c12 2 31-3 31-3s32-65 2-104c7-1 22-12 11-33-7-17-36-17-43 3Zm20 81 1 2c3-1 3-5 1-6s-3 1-2 3v1Z" fill="#141414"/>
  <path fill-rule="evenodd" clip-rule="evenodd" d="m1421 273 7-1c1 1 2 0 2-1l-5-2c-2-1-10 0-8 4h4Zm-7 11c-2-1 2-5 3-5 5-3 11-1 14 4v2h-2l-3-3c-3-1-8-1-10 2h-2Zm22 11c-9 4-6 14 3 13 2 0 2-3 0-3s-4 0-5-2 1-4 3-5l2-2v-13h-2v3l-1 9Zm18-7 3-1c3-1 6 2 7 5l2 1c2-1 0-3-1-5v-1c-2-2-5-4-9-4l-4 3c-2 1 1 4 2 2Zm6-12-2-1c-1-3 5-2 7-2s6 1 6 3l-1 2-4-1a24 24 0 0 0-6-1Zm-29 36c-3 0-8-1-9 1-2 5 3 12 8 14 8 4 24 0 22-11v-1h-3l-15-2-3-1Z" fill="#141414"/>
  <path fill-rule="evenodd" clip-rule="evenodd" d="M1421 291v2-2Zm33 5c2 1 1 3-1 3-2-1-1-4 1-3Zm6 2c1 1 0 3-1 2s0-2 1-2Zm-3 6c2 1 0 4-2 3s0-4 2-3Zm6 1c1-3 5 1 1 2-1 0-2-1-1-2Zm-42-8c2 0 2 3 0 3s-2-3 0-3Zm-5-2c0 1-1 2-2 1-3-1 2-3 2-1Zm11-4v3c-2 0-2-3 0-3Z" fill="#FF4B33"/>
  <path fill-rule="evenodd" clip-rule="evenodd" d="M397 268h91v-86h-91v86Z" fill="#fff"/>
  <path fill-rule="evenodd" clip-rule="evenodd" d="M454 225a17 17 0 1 0-33 0 17 17 0 0 0 33 0Zm-31 0a15 15 0 1 1 30 0 15 15 0 0 1-30 0Z" fill="#141414"/>
  <path d="M452 250a13 13 0 1 0 0-25 13 13 0 0 0 0 25Z" fill="#FF4B33"/>
  <path fill-rule="evenodd" clip-rule="evenodd" d="M342 222h35v-39h-35v39Zm55-55h62V98h-62v69Z" fill="#fff"/>
  <path fill-rule="evenodd" clip-rule="evenodd" d="m443 147-15-25-14 25h29Zm-26-1 11-21 12 21h-23ZM921 6H803c-7 0-13 6-13 13v267c0 8 6 14 13 14h118c7 0 13-6 13-14V19c0-7-6-13-13-13ZM803 0c-11 0-19 8-19 19v267c0 11 8 19 19 19h118c11 0 19-8 19-19V19c0-11-8-19-19-19H803Z" fill="#141414"/>
  <path fill-rule="evenodd" clip-rule="evenodd" d="M894 136a22 22 0 0 1 18 22h-22l4-22Zm1 1-4 20h20a21 21 0 0 0-16-20Z" fill="#D3E2F2"/>
  <path fill-rule="evenodd" clip-rule="evenodd" d="M886 140c-11 0-20 10-20 21s9 21 20 21c12 0 21-9 21-20h-21l4-21-4-1Zm-21 21a22 22 0 0 1 25-21h1l-4 21h21c0 12-10 22-22 22-11 0-21-10-21-22Zm-14-24a9 9 0 1 0 0 18 9 9 0 0 0 0-18Zm-10 9a10 10 0 1 1 20 0 10 10 0 0 1-20 0Z" fill="#D3E2F2"/>
  <path d="m890 157 4-21a21 21 0 0 1 17 21h-21Z" fill="#EDF3F9"/>
  <path d="M886 161h21c0 11-9 21-21 21s-21-10-21-21a21 21 0 0 1 25-21l-4 21Zm-26-15a9 9 0 1 1-19 0 9 9 0 0 1 19 0Z" fill="#EDF3F9"/>
  <path fill-rule="evenodd" clip-rule="evenodd" d="M819 277v-81h-11v81h11Zm38 0v-41h-10v41h10Zm-18-59v59h-10v-59h10Zm39 59v-29h-11v29h11Zm20-22v22h-10v-22h10Zm18 22v-27h-11v27h11Z" fill="#D3E2F2"/>
  <path d="m891 209-33 18-40-61 4-2-13-9 1 16 3-2 43 65 33-18 22 33 4-3-24-37Z" fill="#02BAD3"/>
  <path fill-rule="evenodd" clip-rule="evenodd" d="M911 33v-9H807v9h104Zm-13 12v8h-91v-8h91Zm-28 26v-8h-63v8h63Zm9 11v8h-72v-8h72Zm-26 18v8h-46v-8h46Z" fill="#D3E2F2"/>
  <path d="M908 114v-3l5-3c2-2 2-3 2-5l-1-4-3-2-5-1-3-1-1-1c0-1 1-2 3-2l7 2 2-6-6-2v-3h-5v3l-6 3c-2 2-2 3-2 5l1 4 3 2 5 2h3l1 1-1 1-3 1-3-1-4-1-3 5 4 2 5 1v3h5Z" fill="#FFC81A"/>
  <path fill-rule="evenodd" clip-rule="evenodd" d="M1199 172h-71c-8 0-14 6-14 14v49c0 8 6 14 14 14h36l32 23-1-23h4c8 0 14-6 14-14v-49c0-8-6-14-14-14Z" fill="#FF4B33"/>
  <path fill-rule="evenodd" clip-rule="evenodd" d="M1162 228h-1c-4-2-13-8-17-17 0-1-2-8 3-12 2-3 4-3 6-3 3 0 7 2 9 5 2-3 5-5 9-5 2 0 4 0 6 3 4 4 3 11 3 12-4 9-13 15-17 17h-1Z" fill="#fff"/>
  <defs>
    <linearGradient id="a" x1="24.2" y1="637.9" x2="24.2" y2="787" gradientUnits="userSpaceOnUse">
      <stop stop-color="#FFC81A" stop-opacity="0"/>
      <stop offset="1" stop-color="#FFC81A"/>
    </linearGradient>
  </defs>
</svg>
