<svg width="1753" height="1044" viewBox="0 0 1753 1044" fill="none" xmlns="http://www.w3.org/2000/svg">
<path d="M389 788H206C197.716 788 191 794.716 191 803V823C191 831.284 197.716 838 206 838H389C397.284 838 404 831.284 404 823V803C404 794.716 397.284 788 389 788Z" fill="#13D6C3"/>
<path d="M328.75 825.5C335.792 825.5 341.5 819.792 341.5 812.75C341.5 805.708 335.792 800 328.75 800C321.708 800 316 805.708 316 812.75C316 819.792 321.708 825.5 328.75 825.5Z" fill="#FF4B33"/>
<path fill-rule="evenodd" clip-rule="evenodd" d="M17 635H578L394.97 788H199.03L17 635Z" fill="url(#paint0_linear_481_1736)"/>
<path d="M367.75 825.5C374.792 825.5 380.5 819.792 380.5 812.75C380.5 805.708 374.792 800 367.75 800C360.708 800 355 805.708 355 812.75C355 819.792 360.708 825.5 367.75 825.5Z" fill="#FFC81A"/>
<path fill-rule="evenodd" clip-rule="evenodd" d="M24.885 622.01C11.163 622.01 0 610.84 0 597.12V24.886C0 11.164 11.163 0 24.885 0H582.75C596.47 0 607.63 11.164 607.63 24.886V597.12C607.63 610.84 596.47 622.01 582.75 622.01H24.885Z" fill="white"/>
<mask id="mask0_481_1736" style="mask-type:alpha" maskUnits="userSpaceOnUse" x="0" y="0" width="608" height="623">
<path fill-rule="evenodd" clip-rule="evenodd" d="M24.885 622.01C11.163 622.01 0 610.84 0 597.12V24.886C0 11.164 11.163 0 24.885 0H582.75C596.47 0 607.63 11.164 607.63 24.886V597.12C607.63 610.84 596.47 622.01 582.75 622.01H24.885Z" fill="white"/>
</mask>
<g mask="url(#mask0_481_1736)">
<path fill-rule="evenodd" clip-rule="evenodd" d="M127.273 527.619L75 1186.76C126.539 1190.98 181.337 1190.37 238.159 1186.76C238.159 1186.76 247.164 635.834 252.11 635.275C261.369 634.231 306.852 1186.76 306.852 1186.76C358.259 1195.09 408.68 1192.55 458.805 1186.76C458.805 1186.76 420.659 698.653 355.364 525.156C252.164 529.742 127.273 527.619 127.273 527.619Z" fill="#0B379B"/>
<path fill-rule="evenodd" clip-rule="evenodd" d="M184.299 549.103C183.072 548.468 181.563 548.946 180.929 550.172C164.357 582.135 128.583 579.112 127.025 578.961C125.641 578.827 124.427 579.832 124.292 581.206C124.157 582.58 125.162 583.803 126.536 583.938C126.606 583.945 127.845 584.054 129.944 584.054C140.092 584.054 170.319 581.499 185.367 552.473C186.003 551.248 185.525 549.739 184.299 549.103Z" fill="white"/>
<path fill-rule="evenodd" clip-rule="evenodd" d="M367.829 574.251C366.357 574.397 331.643 577.445 315.567 545.462C314.949 544.235 313.486 543.758 312.3 544.393C311.111 545.028 310.647 546.537 311.263 547.763C325.854 576.792 355.159 579.344 364.997 579.344C367.03 579.344 368.232 579.234 368.3 579.228C369.631 579.093 370.603 577.871 370.475 576.498C370.345 575.125 369.157 574.12 367.829 574.251Z" fill="white"/>
<path fill-rule="evenodd" clip-rule="evenodd" d="M554.771 311.051C554.771 311.051 569.653 306.379 568.811 299.383C568.03 292.89 557.705 295.64 549.229 297.297C549.229 297.297 563.263 287.9 556.803 281.879C550.411 275.919 524.726 288.227 514.057 293.245C523.437 284.266 524.987 270.112 518.223 271.876C513.163 273.196 489.919 288.159 458.933 305.376C452.595 308.44 425.278 321.062 404.655 321.473C364.07 322.283 358.292 305.346 355.311 303.834C349.443 311.417 334.551 326.799 329.223 374.015C363.901 394.872 398.323 396.549 436.625 386.08C437.177 386.097 437.653 386.051 438.042 385.942C481.57 373.645 527.574 347.523 546.692 340.649C564.026 334.416 560.467 326.821 554.181 326.051C554.181 326.051 568.664 322.843 568.142 316.072C567.816 311.843 565.174 310.306 554.771 311.051Z" fill="white"/>
<path fill-rule="evenodd" clip-rule="evenodd" d="M553.718 323.976C553.702 323.984 539.318 327.352 539.3 327.357C537.446 327.765 537.997 330.653 539.873 330.348L554.155 328.204C560.711 329.93 556.402 334.771 545.97 338.649C540.977 339.394 519.53 348.872 498.863 359.333C498.843 359.342 498.822 359.346 498.802 359.355L498.796 359.358C485.391 365.853 471.805 371.976 457.878 377.137C443.954 382.27 429.664 386.464 415.063 388.701C400.486 390.971 385.568 391.04 371.133 388.27C357.114 385.624 343.683 380.25 331.375 372.965C331.728 370.274 332.053 367.578 332.463 364.896L333.241 360.253L333.637 357.934L334.115 355.632L335.073 351.029L336.212 346.476C336.566 344.95 337.024 343.456 337.468 341.959C337.919 340.464 338.323 338.953 338.861 337.489C340.816 331.566 343.218 325.801 346.22 320.384C347.703 317.665 349.37 315.059 351.136 312.519C352.514 310.58 353.978 308.728 355.491 306.823L356.212 307.675C356.994 308.599 357.833 309.525 358.72 310.401C360.49 312.163 362.475 313.713 364.566 315.054C368.759 317.746 373.397 319.526 378.086 320.782C382.787 322.036 387.576 322.744 392.362 323.125C397.168 323.504 401.894 323.577 406.748 323.395C411.61 323.126 416.371 322.332 421.045 321.281C425.718 320.217 430.309 318.896 434.83 317.401C443.769 314.422 452.424 310.896 460.935 306.772C460.949 306.777 460.963 306.785 460.977 306.789C483.572 294.294 503.81 282.184 518.759 273.934C522.634 274.022 519.029 285.777 512.585 291.709C510.974 293.423 509.637 295.213 508.714 297.407C507.662 299.346 508.738 301.808 508.685 303.994C508.414 315.425 500.689 319.619 500.227 319.839C498.959 320.417 499.814 322.385 501.088 321.908C509.29 318.679 512.62 308.654 512.343 300.488C512.717 298.515 514.217 296.161 515.733 294.806C524.247 290.797 550.161 278.597 555.352 283.434C558.891 287.458 551.616 292.715 548.244 295.391L529.541 302.084C528.697 302.387 528.257 303.316 528.56 304.161C528.852 304.978 529.737 305.415 530.559 305.168C530.559 305.168 549.741 299.362 549.742 299.362C555.197 298.676 565.364 294.911 566.698 299.638C565.747 308.179 541.49 312.37 534.593 315.634C532.589 316.278 533.568 319.415 535.586 318.802L555.138 313.158C565.723 312.427 565.875 314.362 566.02 316.235C566.306 319.948 557.856 323.053 553.718 323.976ZM564.089 309.153C576.618 301.749 570.799 290.057 556.639 293.702C560.214 289.991 562.613 284.247 558.252 280.323C552.64 275.088 537.619 280.229 521.06 287.668C525.384 279.911 527.149 268.746 517.684 269.817C502.437 277.903 481.916 290.218 459.085 302.914C450.856 306.955 442.241 310.52 433.521 313.468C429.109 314.952 424.644 316.257 420.137 317.306C415.631 318.343 411.073 319.119 406.528 319.392C401.974 319.58 397.265 319.5 392.684 319.139C388.084 318.773 383.52 318.093 379.116 316.917C374.724 315.742 370.463 314.091 366.718 311.683C364.848 310.481 363.1 309.117 361.531 307.556C360.743 306.777 359.999 305.957 359.26 305.085L358.108 303.722C357.893 303.478 357.68 303.233 357.406 302.96C357.14 302.698 356.793 302.372 356.214 302.051C355.409 301.602 354.374 301.79 353.784 302.538L353.728 302.61C351.814 305.036 349.746 307.566 347.874 310.204C346.022 312.866 344.271 315.606 342.718 318.452C339.574 324.125 337.083 330.115 335.067 336.223C334.513 337.737 334.095 339.288 333.632 340.827C333.174 342.367 332.704 343.905 332.342 345.467L331.174 350.136L330.195 354.84L329.706 357.192L329.302 359.558L328.509 364.29C328.027 367.45 327.663 370.624 327.235 373.79V373.791C327.14 374.534 327.478 375.299 328.159 375.71L328.192 375.73C341.142 383.552 355.441 389.362 370.388 392.172C385.324 395.031 400.731 394.936 415.657 392.601C430.615 390.3 445.145 386.016 459.238 380.811C473.334 375.578 487.022 369.396 500.499 362.856C500.518 362.847 500.531 362.834 500.549 362.825C515.026 355.413 530.674 348.668 547.411 342.65C561.636 337.117 563.574 331.843 559.867 326.546C564.602 324.755 570.682 321.374 570.26 315.908C569.948 311.869 567.8 309.917 564.089 309.153Z" fill="#141414"/>
<path fill-rule="evenodd" clip-rule="evenodd" d="M369.321 303.627C338.278 283.802 315.018 257.698 315.018 257.698C314.884 257.548 314.76 257.39 314.627 257.236C279.921 217.292 187.01 220.107 141.809 258.376C65.2524 323.192 127.646 534.322 127.646 534.322H363.802C363.802 534.322 356.705 464.601 350.395 405.193C348.699 389.217 347.254 374.83 345.816 361.766C353.627 346.064 362.869 325.256 369.321 303.627Z" fill="#6366F1"/>
<path fill-rule="evenodd" clip-rule="evenodd" d="M328.199 273.765C337.793 282.747 351.405 294.397 366.97 304.493C361.428 322.685 353.909 340.304 347.03 354.667C342.938 319.003 338.516 293.686 328.199 273.765ZM129.124 532.321C126.553 523.796 114.104 467.556 108.499 415.38C104.879 381.678 105.192 352.14 109.429 327.585C114.683 297.142 126.011 274.37 143.1 259.902C164.255 241.992 197.557 230.992 232.183 230.476C267.141 229.973 297.392 240.45 313.116 258.547C335.843 284.705 339.62 321.031 346.475 386.977C347.09 392.878 347.727 399.016 348.405 405.404C353.97 457.8 360.644 521.054 361.622 532.321H129.124ZM318.411 258.655C317.673 257.734 316.917 256.823 316.135 255.924C299.401 236.664 268.8 225.941 232.123 226.477C196.601 227.005 162.355 238.36 140.515 256.85C122.685 271.946 110.898 295.525 105.483 326.934C101.184 351.864 100.863 381.786 104.529 415.869C110.757 473.781 125.578 534.418 125.738 534.922C126 535.755 126.772 536.321 127.645 536.321H363.801C364.361 536.321 364.896 536.086 365.274 535.674C365.653 535.262 365.842 534.709 365.795 534.151C365.743 533.554 358.623 463.73 352.384 404.981C351.705 398.597 351.067 392.462 350.454 386.563C349.554 377.911 348.708 369.773 347.863 362.084C355.678 346.317 364.851 325.604 371.237 304.199C371.492 303.343 371.149 302.422 370.396 301.941C345.29 285.907 324.843 265.459 318.411 258.655Z" fill="#141414"/>
<path fill-rule="evenodd" clip-rule="evenodd" d="M264.134 205.595C264.134 205.595 267.507 235.486 267.156 250.66C266.709 270.036 225.932 265.326 214.04 252.444C208.103 246.012 206.938 239.869 210.658 233.256C211.074 219.119 210.082 202.521 210.082 202.521" fill="white"/>
<path fill-rule="evenodd" clip-rule="evenodd" d="M246.393 265.678C233.787 265.678 219.238 261.023 212.57 253.8C206.112 246.803 204.834 239.902 208.672 232.718C209.045 218.938 208.095 202.804 208.085 202.641C208.019 201.538 208.86 200.591 209.963 200.525C211.066 200.45 212.013 201.3 212.079 202.403C212.088 202.569 213.071 219.252 212.657 233.316C212.647 233.639 212.56 233.955 212.401 234.237C209.142 240.031 210.101 245.227 215.51 251.087C223.428 259.665 245.867 264.381 257.634 259.934C262.525 258.086 265.056 254.95 265.156 250.613C265.499 235.751 262.18 206.117 262.146 205.82C262.022 204.722 262.812 203.732 263.91 203.608C265.013 203.483 265.997 204.274 266.121 205.371C266.259 206.597 269.505 235.571 269.155 250.706C269.016 256.746 265.52 261.231 259.047 263.676C255.422 265.045 251.039 265.678 246.393 265.678Z" fill="#141414"/>
<path fill-rule="evenodd" clip-rule="evenodd" d="M421.022 438.711C419.129 433.328 405.554 430.807 394.793 428.141C394.682 427.904 394.583 427.66 394.467 427.425C388.759 415.796 325.398 416.753 272.027 418.288C238.427 417.833 201.083 412.269 196.1 404.722C191.969 398.467 190.44 388.822 189.878 382.102C150.154 387.723 121.997 388.12 104.477 388.275C106.236 403.528 110.829 430.451 134.945 457.392C156.562 481.54 219.536 488.217 278.116 481.603L278.209 482.177C306.392 477.384 331.262 473.269 341.737 474.743C354.807 476.583 358.455 471.416 366.387 468.379C367.355 478.386 373.974 483.494 377.545 474.446C381.84 477.112 385.705 476.863 387.89 469.275C392.767 470.82 398.028 467.617 399.205 461.554C399.913 457.905 400.165 451.935 399.411 445.376C413.37 446.348 423.119 444.676 421.022 438.711Z" fill="white"/>
<path fill-rule="evenodd" clip-rule="evenodd" d="M418.919 440.972C417.611 442.624 412.291 443.969 401.307 443.356C400.751 439.364 399.802 435.196 398.35 431.197C406.368 433.351 420.403 435.737 418.919 440.972ZM397.117 461.151C396.197 465.019 393.824 468.939 390.324 468.516C391.334 460.225 389.907 451.869 387.537 443.984C387.159 442.695 385.124 443.131 385.308 444.465C386.809 451.591 387.557 458.967 386.707 466.159C386.315 468.537 385.969 471.053 384.137 472.701C383.048 473.635 381.675 474.374 380.779 473.172C379.757 470.057 379.969 464.051 378.363 458.745C377.763 456.761 376.415 449.979 373.749 450.594C373.024 450.86 372.654 451.658 372.919 452.372C375.212 458.555 375.819 465.397 375.979 471.98C375.358 474.541 374.346 478.417 371.129 477.014C368.151 473.841 369.281 468.123 366.933 464.335C365.936 462.552 362.987 457.117 360.399 459.498C359.852 460.237 360.003 461.277 360.731 461.826C362.375 463.016 363.569 465.214 364.206 467.281C357.757 470.526 351.3 473.94 342.026 472.633C329.619 471.864 308.289 474.908 284.554 478.796C255.545 482.614 225.942 483.075 200.239 480.03C169.251 476.36 147.187 468.07 136.434 456.057C112.98 429.856 108.288 403.556 106.517 388.508C109.553 388.927 113.976 389.121 119.292 389.121C138.562 389.121 169.47 386.576 187.942 383.007C188.569 389.897 190.199 399.417 194.429 405.824C201.441 416.442 255.483 421.438 288.157 420.083C288.313 420.077 288.462 420.049 288.606 420.009C321.293 419.117 357.879 418.584 382.419 423.478C389.54 425.145 391.891 427.006 392.552 428.359C397.201 437.602 398.759 451.904 397.117 461.151ZM423.023 438.007C421.236 431.795 407.13 428.905 396.76 426.428C396.599 426.39 396.696 426.424 396.28 426.313C395.293 423.618 392.413 421.097 385.273 419.511C364.383 414.872 317.278 415.493 274.586 416.32C239.654 416.151 202.162 410.275 197.767 403.619C193.725 397.497 192.312 387.714 191.819 381.189C191.925 380.866 191.958 380.514 191.883 380.156C191.654 379.076 190.592 378.385 189.513 378.612C164.142 383.971 113.798 386.737 104.953 384.138C103.892 383.825 102.781 384.433 102.471 385.493C102.369 385.84 102.374 386.19 102.452 386.518C102.362 386.784 102.327 387.074 102.36 387.374C104.044 402.538 108.317 430.644 133.453 458.725C150.583 477.862 191.748 486.001 235.808 486C255.484 486 275.743 484.376 294.689 481.383C294.758 481.372 294.82 481.348 294.886 481.331C295.1 481.302 295.314 481.279 295.526 481.246C314.397 478.384 331.38 476.115 341.44 476.848C351.482 478.267 358.731 474.815 365.09 471.587C365.465 474.821 365.711 478.316 368.619 480.619C372.257 483.199 377.53 481.422 379.037 477.402C383.11 479.74 387.813 476.359 389.273 472.625C401.633 473.695 402.66 458.466 401.776 447.651C409.768 447.8 425.648 448.612 423.023 438.007Z" fill="#141414"/>
<path fill-rule="evenodd" clip-rule="evenodd" d="M199.51 378.481C197.903 369.512 196.287 360.577 195.171 351.597C194.616 347.109 194.182 342.611 193.999 338.119C193.824 333.63 193.884 329.132 194.506 324.748L194.509 324.727C194.611 324.005 194.119 323.331 193.396 323.211C192.663 323.089 191.969 323.585 191.847 324.318C191.077 328.944 190.912 333.592 190.981 338.203C191.058 342.816 191.391 347.404 191.845 351.969C192.698 360.483 193.986 368.919 195.284 377.318C195.26 377.324 195.237 377.33 195.213 377.335L193.364 377.76L189.634 378.571L189.61 378.576C188.531 378.811 187.846 379.876 188.081 380.955C188.316 382.035 189.381 382.719 190.46 382.485L194.239 381.663L196.135 381.228C196.774 381.075 197.4 380.925 198.089 380.732L198.121 380.723C199.078 380.445 199.69 379.483 199.51 378.481Z" fill="#141414"/>
<path fill-rule="evenodd" clip-rule="evenodd" d="M241.975 307.324H274.185L266.258 338.679L286.992 339L256.687 401.483L257.906 359.42L238.461 358.662L241.975 307.324Z" fill="#FFC81A"/>
<path fill-rule="evenodd" clip-rule="evenodd" d="M287.168 144.283C275.722 94.1237 243.121 90.5027 219.503 94.7967C200.68 98.2187 182.401 114.402 184.533 145.709C177.889 139.314 168.44 143.21 166.676 150.548C164.618 159.115 170.052 178.572 184.004 176.109C185.348 199.104 204.354 232.791 242.058 232.482C283.128 232.146 297.313 188.742 287.168 144.283Z" fill="white"/>
<path fill-rule="evenodd" clip-rule="evenodd" d="M181.957 174.107C183.977 174.128 185.563 174.145 185.999 175.991C193.123 246.105 289.725 252.392 288.331 172.28C288.471 155.036 284.192 134.057 275.872 119.811C266.664 121.456 255.36 119.907 244.354 115.543C241.858 114.554 239.1 115.767 235.573 117.318C230.559 119.523 223.992 122.412 214.417 120.626C194.843 116.976 194.279 127.725 196.681 139.888C200.374 158.589 187.622 152.783 183.663 147.506C181.037 145.137 177.851 143.785 174.589 144.82C164.214 148.519 167.953 163.499 174.047 170.836C176.481 174.05 179.531 174.082 181.957 174.107ZM287.715 86.9754C300.157 89.7674 298.453 105.961 288.167 114.624C293.239 123.127 296.399 148.341 291.503 157.606C294.331 181.573 289.816 203.237 278.708 217.282C252.803 250.014 200.887 231.713 188.437 199.833C176.406 195.825 151.653 168.606 165.007 120.953C164.19 120.194 161.755 120.478 159.383 120.755C156.192 121.127 153.114 121.487 154.235 119.275C154.673 118.411 159.999 116.975 163.57 116.013C164.569 115.743 165.431 115.511 166.009 115.338C166.054 115.23 165.943 114.141 165.784 112.579C165.098 105.843 163.516 90.3011 169.609 106.503C180.562 90.2564 189.755 89.1788 197.67 88.251C203.471 87.5711 208.585 86.9717 213.202 80.5434C226.657 61.8134 242.715 59.7214 249.96 69.1404C255.812 76.7474 257.476 77.6684 263.352 73.1884C278.49 61.6474 286.759 72.2524 287.715 86.9754ZM176.036 157.475C175.617 154.898 176.305 153.627 177.38 153.452C178.455 153.277 179.91 153.965 180.329 156.542C180.749 159.119 179.817 161.65 178.742 161.825C177.667 161.999 176.455 160.052 176.036 157.475Z" fill="#141414"/>
<path fill-rule="evenodd" clip-rule="evenodd" d="M227.231 152.785C226.928 152.761 226.401 152.723 225.955 152.716C225.6 152.7 225.239 152.71 224.878 152.719C224.766 152.722 224.654 152.725 224.542 152.727C223.591 152.774 222.633 152.841 221.684 152.99C219.792 153.301 217.891 153.716 216.1 154.464C214.316 155.202 212.522 156.023 210.916 157.182C209.35 158.158 207.956 159.393 206.531 160.656L206.201 160.949L206.107 161.032C205.584 161.496 204.782 161.447 204.318 160.923C203.921 160.474 203.9 159.821 204.232 159.351C204.358 159.172 204.484 158.992 204.611 158.811C205.123 158.078 205.64 157.338 206.226 156.652C206.41 156.454 206.592 156.253 206.774 156.052L206.774 156.051C207.35 155.415 207.93 154.775 208.593 154.218C210.274 152.68 212.211 151.392 214.276 150.36C216.347 149.336 218.56 148.557 220.847 148.136C221.989 147.918 223.147 147.765 224.316 147.697C224.403 147.694 224.49 147.692 224.577 147.689C225.078 147.675 225.577 147.66 226.087 147.679C226.702 147.688 227.236 147.726 227.987 147.829C229.356 148.017 230.313 149.28 230.125 150.648C229.944 151.967 228.767 152.904 227.457 152.803L227.231 152.785ZM274.152 167.903L274.152 167.903C274.311 168.023 274.461 168.136 274.594 168.228L274.911 168.448C275.345 168.746 275.921 168.813 276.432 168.574C277.199 168.214 277.53 167.301 277.17 166.534C276.799 165.741 276.416 165.196 275.942 164.593C275.471 164.016 274.923 163.497 274.322 163.025C273.105 162.091 271.652 161.43 270.074 161.131C268.499 160.831 266.785 160.935 265.263 161.481C263.724 162 262.425 162.935 261.394 163.993C260.767 164.636 260.633 165.648 261.129 166.445C261.713 167.383 262.946 167.669 263.884 167.085L263.994 167.017C264.887 166.461 265.761 166.019 266.637 165.796C267.511 165.55 268.386 165.522 269.292 165.638C270.191 165.794 271.125 166.086 272.007 166.546C272.456 166.769 272.901 167.035 273.34 167.328C273.609 167.494 273.892 167.708 274.152 167.903ZM214.356 166.819C213.778 167.539 213.299 168.214 212.843 169.121C212.561 169.683 212.69 170.385 213.194 170.804C213.78 171.293 214.653 171.214 215.141 170.627L215.245 170.502C215.625 170.047 216.155 169.473 216.676 169.036C217.207 168.582 217.759 168.167 218.343 167.842C219.51 167.186 220.729 166.807 221.957 166.792C222.268 166.792 222.563 166.804 222.886 166.842C223.007 166.86 223.131 166.871 223.254 166.883C223.464 166.902 223.672 166.922 223.869 166.972C224.517 167.069 225.104 167.276 225.655 167.502C226.209 167.72 226.691 168.025 227.109 168.368L227.179 168.43C227.357 168.586 227.533 168.741 227.675 168.912C227.754 168.998 227.821 169.087 227.884 169.172L227.9 169.193L227.989 169.318C227.996 169.325 228.006 169.342 228.015 169.356C228.029 169.38 228.038 169.394 228.011 169.331C228.522 170.476 229.864 170.99 231.01 170.479C232.155 169.968 232.668 168.626 232.157 167.481C232.045 167.239 231.992 167.146 231.924 167.028L231.891 166.97C231.828 166.856 231.767 166.763 231.703 166.666V166.666L231.681 166.633L231.654 166.592C231.49 166.359 231.322 166.135 231.143 165.93C230.788 165.512 230.403 165.142 229.99 164.81C229.16 164.16 228.247 163.648 227.306 163.302C226.362 162.977 225.401 162.745 224.46 162.663C224.138 162.614 223.824 162.605 223.509 162.595C223.359 162.591 223.209 162.586 223.059 162.578C222.584 162.571 222.08 162.612 221.594 162.671C219.635 162.934 217.777 163.737 216.323 164.906C215.588 165.48 214.932 166.123 214.356 166.819ZM261.341 148.392C260.759 148.522 260.258 148.663 259.575 148.898C258.399 149.308 257.723 150.57 258.064 151.785C258.418 153.048 259.729 153.786 260.993 153.431L261.175 153.38C261.473 153.296 261.971 153.17 262.397 153.08C262.84 152.979 263.295 152.905 263.752 152.835L265.13 152.661L266.518 152.572C268.372 152.518 270.229 152.667 272.027 153.086C273.823 153.506 275.578 154.139 277.225 155.041C278.783 155.791 280.181 156.843 281.618 157.926L281.62 157.927C281.753 158.027 281.886 158.127 282.019 158.227L282.122 158.305C282.604 158.667 283.285 158.677 283.783 158.29C284.381 157.826 284.489 156.966 284.024 156.369C283.689 155.938 283.337 155.516 282.982 155.094C282.883 154.98 282.787 154.864 282.69 154.747L282.69 154.746C282.433 154.435 282.176 154.123 281.862 153.867C281.693 153.715 281.525 153.56 281.357 153.405C280.705 152.803 280.046 152.195 279.285 151.713C277.468 150.367 275.352 149.418 273.17 148.771C270.986 148.113 268.7 147.764 266.427 147.805C265.291 147.829 264.154 147.881 263.028 148.069C262.466 148.161 261.903 148.259 261.341 148.392ZM248.851 167.236C248.986 169.414 249.231 171.587 249.795 173.457C249.946 173.911 250.113 174.355 250.302 174.71C250.486 175.066 250.718 175.344 250.839 175.411C251.086 175.591 251.573 175.913 252.032 176.199C252.506 176.499 253.013 176.822 253.527 177.191C254.528 177.945 255.652 178.894 256.377 180.439C256.7 181.225 256.928 182.049 256.847 183.072C256.771 184.077 256.295 185.035 255.737 185.669C254.607 186.963 253.38 187.502 252.245 187.998C251.091 188.454 249.971 188.784 248.854 189.037C248.01 189.229 247.171 188.7 246.98 187.856C246.817 187.136 247.177 186.421 247.81 186.107L247.818 186.103C248.142 185.942 248.466 185.787 248.785 185.634H248.786C249.448 185.316 250.091 185.008 250.684 184.674C251.556 184.208 252.354 183.634 252.666 183.189C252.821 182.962 252.833 182.852 252.845 182.736L252.845 182.735C252.857 182.636 252.789 182.341 252.681 182.101C252.468 181.588 251.883 180.963 251.117 180.365C250.736 180.057 250.315 179.751 249.859 179.424C249.741 179.337 249.624 179.253 249.505 179.169C249.151 178.918 248.78 178.654 248.333 178.237C247.62 177.548 247.273 176.837 246.998 176.175C246.722 175.507 246.588 174.865 246.472 174.232C246.053 171.716 246.299 169.347 246.785 167.064C246.905 166.499 247.46 166.139 248.024 166.259C248.494 166.359 248.822 166.759 248.85 167.215L248.851 167.236ZM233.366 202.047C238.527 204.977 259.77 204.426 266.513 200.161C267.108 198.128 266.356 197.192 266.356 197.192C266.356 197.192 246.437 200.102 233.38 198.562C233.38 198.562 232.946 201.208 233.366 202.047ZM267.026 193.968C268.448 193.685 269.75 194.185 270.509 195.3C273.589 202.359 263.829 213.859 249.812 213.794C240.498 214.281 229.203 208.619 228.722 202.197C228.285 199.423 230.774 194.674 234.616 195.371C237.353 195.867 243.896 196.05 250.29 195.822C258.654 195.528 266.624 194.043 267.012 193.97C267.02 193.969 267.025 193.968 267.026 193.968Z" fill="#141414"/>
</g>
<path fill-rule="evenodd" clip-rule="evenodd" d="M24.885 4C13.369 4 4 13.369 4 24.886V597.12C4 608.64 13.369 618.01 24.885 618.01H582.75C594.26 618.01 603.63 608.64 603.63 597.12V24.886C603.63 13.369 594.26 4 582.75 4H24.885ZM24.885 622.01C11.163 622.01 0 610.84 0 597.12V24.886C0 11.164 11.163 0 24.885 0H582.75C596.47 0 607.63 11.164 607.63 24.886V597.12C607.63 610.84 596.47 622.01 582.75 622.01H24.885Z" fill="#141414"/>
<path fill-rule="evenodd" clip-rule="evenodd" d="M604.7 81.6191H2.00598C0.901981 81.6191 0.00598145 80.7231 0.00598145 79.6191C0.00598145 78.5151 0.901981 77.6191 2.00598 77.6191H604.7C605.8 77.6191 606.7 78.5151 606.7 79.6191C606.7 80.7231 605.8 81.6191 604.7 81.6191Z" fill="#141414"/>
<path fill-rule="evenodd" clip-rule="evenodd" d="M81.2069 31.355C76.1799 31.355 72.09 35.445 72.09 40.472C72.09 45.5 76.1799 49.589 81.2069 49.589C86.2339 49.589 90.3239 45.5 90.3239 40.472C90.3239 35.445 86.2339 31.355 81.2069 31.355ZM81.2069 53.589C73.9739 53.589 68.09 47.705 68.09 40.472C68.09 33.239 73.9739 27.355 81.2069 27.355C88.4399 27.355 94.3239 33.239 94.3239 40.472C94.3239 47.705 88.4399 53.589 81.2069 53.589Z" fill="#141414"/>
<path fill-rule="evenodd" clip-rule="evenodd" d="M119.05 31.355C114.03 31.355 109.94 35.445 109.94 40.472C109.94 45.5 114.03 49.589 119.05 49.589C124.08 49.589 128.17 45.5 128.17 40.472C128.17 35.445 124.08 31.355 119.05 31.355ZM119.05 53.589C111.82 53.589 105.94 47.705 105.94 40.472C105.94 33.239 111.82 27.355 119.05 27.355C126.29 27.355 132.17 33.239 132.17 40.472C132.17 47.705 126.29 53.589 119.05 53.589Z" fill="#141414"/>
<path fill-rule="evenodd" clip-rule="evenodd" d="M54.476 40.472C54.476 46.612 49.4979 51.589 43.3589 51.589C37.2189 51.589 32.2419 46.612 32.2419 40.472C32.2419 34.332 37.2189 29.355 43.3589 29.355C49.4979 29.355 54.476 34.332 54.476 40.472Z" fill="#FF4B33"/>
<path fill-rule="evenodd" clip-rule="evenodd" d="M43.3589 31.355C38.3319 31.355 34.2419 35.445 34.2419 40.472C34.2419 45.5 38.3319 49.589 43.3589 49.589C48.3859 49.589 52.476 45.5 52.476 40.472C52.476 35.445 48.3859 31.355 43.3589 31.355ZM43.3589 53.589C36.1259 53.589 30.2419 47.705 30.2419 40.472C30.2419 33.239 36.1259 27.355 43.3589 27.355C50.5919 27.355 56.476 33.239 56.476 40.472C56.476 47.705 50.5919 53.589 43.3589 53.589Z" fill="#141414"/>
<path fill-rule="evenodd" clip-rule="evenodd" d="M425.217 1042.76L389.904 904.802H358.443L410.099 1042.76H425.217ZM187.668 1043L244.872 904.802H212.644L178 1043H187.668Z" fill="#FF4B33"/>
<path d="M200.46 836H401.816C410.833 836 418.143 843.967 418.143 853.794V891.754C418.143 901.581 410.833 909.547 401.816 909.547H200.46C191.443 909.547 184.133 901.581 184.133 891.754V853.794C184.133 843.967 191.443 836 200.46 836Z" fill="#FFC81A"/>
<path fill-rule="evenodd" clip-rule="evenodd" d="M651.056 864.586L620.542 1002.28C617.057 1018 625.359 1034.01 639.049 1037.95C645.05 1039.67 651.381 1038.83 656.875 1035.56C663.343 1031.71 668.083 1024.85 669.881 1016.74L700.452 878.789L651.056 864.586ZM645.227 1043.21C642.756 1043.21 640.276 1042.86 637.837 1042.16C621.963 1037.6 612.285 1019.28 616.264 1001.32L647.282 861.353C647.412 860.761 647.782 860.257 648.3 859.95C648.821 859.633 649.444 859.556 650.027 859.72L703.643 875.14C704.757 875.469 705.428 876.597 705.179 877.726L674.159 1017.7C672.102 1026.98 666.618 1034.87 659.115 1039.33C654.793 1041.9 650.029 1043.21 645.227 1043.21Z" fill="#141414"/>
<path fill-rule="evenodd" clip-rule="evenodd" d="M774.251 864.586L743.737 1002.28C740.253 1018 748.555 1034.02 762.245 1037.95C768.248 1039.67 774.576 1038.83 780.071 1035.56C786.539 1031.71 791.278 1024.85 793.075 1016.74L823.647 878.789L774.251 864.586ZM768.423 1043.21C765.952 1043.21 763.472 1042.86 761.033 1042.16C745.16 1037.6 735.481 1019.28 739.458 1001.32L770.477 861.353C770.607 860.761 770.976 860.257 771.495 859.95C772.015 859.633 772.639 859.556 773.222 859.72L826.838 875.14C827.951 875.469 828.623 876.597 828.373 877.726L797.354 1017.7C795.297 1026.98 789.814 1034.87 782.31 1039.33C777.989 1041.9 773.225 1043.21 768.423 1043.21Z" fill="#141414"/>
<path fill-rule="evenodd" clip-rule="evenodd" d="M1617.06 878.789L1647.63 1016.76C1649.42 1024.85 1654.17 1031.71 1660.64 1035.56C1666.13 1038.83 1672.46 1039.67 1678.46 1037.95C1692.15 1034.02 1700.45 1018.02 1696.97 1002.28L1666.46 864.586L1617.06 878.789ZM1672.29 1043.21C1667.49 1043.21 1662.72 1041.9 1658.4 1039.33C1650.89 1034.87 1645.4 1026.98 1643.35 1017.7L1612.33 877.726C1612.09 876.597 1612.76 875.469 1613.86 875.14L1667.49 859.72C1668.07 859.556 1668.69 859.633 1669.21 859.95C1669.73 860.257 1670.09 860.772 1670.23 861.353L1701.25 1001.34C1705.23 1019.28 1695.54 1037.6 1679.67 1042.16C1677.24 1042.86 1674.75 1043.21 1672.29 1043.21Z" fill="#141414"/>
<path fill-rule="evenodd" clip-rule="evenodd" d="M1484.37 878.789L1514.93 1016.76C1516.73 1024.85 1521.48 1031.71 1527.94 1035.56C1533.43 1038.83 1539.77 1039.67 1545.77 1037.95C1559.46 1034.02 1567.76 1018.02 1564.27 1002.28L1533.76 864.586L1484.37 878.789ZM1539.59 1043.21C1534.79 1043.21 1530.02 1041.9 1525.71 1039.33C1518.2 1034.87 1512.72 1026.98 1510.66 1017.7L1479.64 877.726C1479.39 876.597 1480.06 875.469 1481.18 875.14L1534.79 859.72C1535.37 859.556 1536 859.633 1536.52 859.95C1537.04 860.257 1537.41 860.772 1537.54 861.353L1568.56 1001.34C1572.54 1019.28 1562.86 1037.6 1546.98 1042.16C1544.55 1042.86 1542.06 1043.21 1539.59 1043.21Z" fill="#141414"/>
<path fill-rule="evenodd" clip-rule="evenodd" d="M1630.47 887.984H591.261L548.231 385.087C545.633 356.699 565.272 332 590.442 332H1631.29C1656.46 332 1676.1 356.699 1673.5 385.087L1630.47 887.984Z" fill="#FFC81A"/>
<path fill-rule="evenodd" clip-rule="evenodd" d="M1674.73 888.29H1506.34V604.468H1639.59C1705.83 604.468 1757.83 661.215 1752.07 727.19L1746.62 822.404C1743.37 859.687 1712.16 888.29 1674.73 888.29Z" fill="#FFC81A"/>
<path fill-rule="evenodd" clip-rule="evenodd" d="M848.013 849.703H613.486V598.759H746.744C812.971 598.759 864.976 655.506 859.214 721.48L848.013 849.703Z" fill="#FFC81A"/>
<path fill-rule="evenodd" clip-rule="evenodd" d="M848.015 884.773C847.964 884.773 847.912 884.773 847.861 884.762C846.654 884.686 845.742 883.633 845.827 882.428L857.027 721.327C859.723 690.455 849.272 659.682 828.358 636.854C807.444 614.036 777.697 600.951 746.743 600.951H613.486C612.276 600.951 611.294 599.965 611.294 598.759C611.294 597.554 612.276 596.567 613.486 596.567H746.743C778.923 596.567 809.849 610.179 831.591 633.894C853.333 657.621 864.197 689.611 861.397 721.667L850.2 882.735C850.12 883.886 849.156 884.773 848.015 884.773Z" fill="white"/>
<path fill-rule="evenodd" clip-rule="evenodd" d="M1535.13 723.135C1470.96 707.364 1409.85 687.166 1352.31 661.829C1339.5 656.185 1332.71 642.025 1336.25 628.48C1351.2 571.382 1369.16 517.66 1390.22 467.379C1395.66 454.338 1409.89 447.291 1423.59 450.776C1489.62 467.609 1551.27 487.434 1606.57 511.654C1619.71 517.408 1626.56 532.028 1622.53 545.792C1608.03 595.306 1590.17 648.437 1568.72 705.446C1563.63 718.992 1549.19 726.598 1535.13 723.135Z" fill="white"/>
<path fill-rule="evenodd" clip-rule="evenodd" d="M1596.38 723.673H904.251C903.042 723.673 902.06 722.686 902.06 721.481C902.06 720.275 903.042 719.289 904.251 719.289H1596.38C1597.6 719.289 1598.57 720.275 1598.57 721.481C1598.57 722.686 1597.6 723.673 1596.38 723.673Z" fill="white"/>
<path fill-rule="evenodd" clip-rule="evenodd" d="M1294.32 352.83C1299.43 369.569 1321.87 428.301 1337.38 433.871L1389.22 475.134C1381.19 492.527 1352.24 513.94 1337.1 513.94C1321.97 513.94 1273.27 502.615 1253.08 370.803C1248.59 351.016 1256.29 325.368 1261.33 330.694C1272.25 342.22 1294.32 352.83 1294.32 352.83Z" fill="white"/>
<path fill-rule="evenodd" clip-rule="evenodd" d="M1387.02 475.63C1378.58 492.025 1351.28 512.186 1337.1 512.186C1318.79 512.186 1303.88 497.131 1298.31 490.659C1278.04 467.066 1263.41 426.652 1254.82 370.538C1254.81 370.497 1254.8 370.456 1254.79 370.415C1251.55 356.124 1254.88 338.779 1258.6 333.117C1259.32 332.019 1259.78 331.785 1259.89 331.743C1259.91 331.76 1259.97 331.805 1260.06 331.901C1270.11 342.512 1288.96 352.139 1292.87 354.073C1297.04 367.313 1319.42 428.69 1336.5 435.415L1387.02 475.63ZM1337.1 515.694C1352.95 515.694 1382.57 493.734 1390.81 475.87C1391.15 475.136 1390.94 474.266 1390.31 473.762L1338.47 432.499C1338.32 432.38 1338.15 432.285 1337.97 432.22C1324.09 427.238 1302.32 373.042 1295.99 352.318C1295.85 351.85 1295.52 351.462 1295.08 351.25C1294.86 351.145 1273.17 340.643 1262.61 329.488C1261.35 328.167 1259.69 327.867 1258.17 328.682C1252.12 331.915 1247.58 354.396 1251.36 371.13C1271.91 505.279 1322.18 515.694 1337.1 515.694Z" fill="#141414"/>
<path fill-rule="evenodd" clip-rule="evenodd" d="M1247.16 376.216L1275.16 385.222C1278.71 386.365 1282.52 384.412 1283.66 380.859L1305.07 314.295C1306.21 310.743 1304.26 306.937 1300.71 305.794L1272.7 296.788C1269.15 295.645 1265.35 297.599 1264.2 301.151L1242.79 367.715C1241.65 371.268 1243.6 375.073 1247.16 376.216Z" fill="#141414"/>
<path d="M1271.42 310.895C1269.71 310.895 1268.32 309.51 1268.32 307.802C1268.32 306.094 1269.71 304.709 1271.42 304.709C1273.12 304.709 1274.51 306.094 1274.51 307.802C1274.51 309.51 1273.12 310.895 1271.42 310.895Z" fill="#13D6C3"/>
<path fill-rule="evenodd" clip-rule="evenodd" d="M1247.4 355.351C1250.98 354.603 1255.93 357.122 1255.71 360.918C1255.55 363.826 1251.89 366.195 1246.74 363.495C1242.96 361.513 1244.16 356.03 1247.4 355.351Z" fill="white"/>
<path fill-rule="evenodd" clip-rule="evenodd" d="M1253.46 330.937C1252.21 325.825 1256.35 322.353 1262.13 325.067C1263.76 325.833 1266.25 327.636 1266.35 330.498C1266.63 337.793 1254.35 334.566 1253.46 330.937Z" fill="white"/>
<path fill-rule="evenodd" clip-rule="evenodd" d="M1248.04 353.903C1244.37 351.533 1245.94 344.708 1250.31 344.062C1251.32 343.912 1252.37 343.974 1253.39 344.2C1251.68 343.369 1250.44 342.286 1249.96 341.231C1247.92 336.769 1252.18 330.461 1261.65 336.041C1266.82 339.085 1264.81 345.476 1260.56 345.638C1258.92 345.7 1257.36 345.507 1255.97 345.146C1259.34 346.9 1261.7 350.344 1260.22 353.476C1258.56 356.982 1253.47 357.404 1248.04 353.903Z" fill="white"/>
<path fill-rule="evenodd" clip-rule="evenodd" d="M1247.55 361.941C1249.62 363.025 1251.54 363.228 1252.83 362.497C1253.51 362.113 1253.92 361.501 1253.96 360.819C1254.02 359.75 1253.35 358.938 1252.78 358.446C1251.71 357.529 1250.13 356.974 1248.71 356.974C1248.38 356.974 1248.06 357.004 1247.76 357.068C1246.98 357.232 1246.32 358.094 1246.17 359.166C1246.09 359.741 1246.07 361.164 1247.55 361.941ZM1258.63 352.726C1259.3 351.307 1258.65 349.94 1257.99 349.044C1257.3 348.117 1256.34 347.343 1255.28 346.772C1254.43 346.536 1253.63 346.241 1252.9 345.902C1252.41 345.801 1251.92 345.734 1251.44 345.734C1251.14 345.734 1250.85 345.755 1250.57 345.797C1249 346.029 1248.12 347.554 1247.86 348.788C1247.6 349.964 1247.75 351.623 1249 352.429C1251.77 354.221 1254.61 354.95 1256.6 354.385C1257.56 354.111 1258.24 353.554 1258.63 352.726ZM1262.88 341.764C1263.03 341.158 1263.33 339.063 1260.76 337.552C1258.57 336.262 1256.55 335.603 1254.93 335.603C1253.83 335.603 1252.92 335.9 1252.25 336.504C1251.2 337.454 1250.91 339.097 1251.56 340.501C1251.83 341.104 1252.72 341.903 1254.07 342.576C1254.91 342.786 1255.74 343.088 1256.52 343.474C1257.7 343.769 1259.03 343.939 1260.49 343.884C1261.87 343.832 1262.64 342.71 1262.88 341.764ZM1261.38 326.654C1259.23 325.645 1257.25 325.616 1256.07 326.577C1255.08 327.388 1254.75 328.825 1255.16 330.52C1255.37 331.337 1258.94 333.545 1262.36 333.067C1264.41 332.781 1264.64 331.641 1264.6 330.564C1264.51 328.24 1261.91 326.9 1261.38 326.654ZM1242.7 358.683C1242.98 356.664 1244.14 354.985 1245.72 354.135C1244.44 352.561 1243.93 350.339 1244.43 348.045C1244.99 345.471 1246.64 343.493 1248.78 342.677C1248.62 342.439 1248.48 342.201 1248.37 341.962C1247.07 339.136 1247.69 335.895 1249.9 333.9C1250.37 333.475 1251.16 332.915 1252.27 332.53C1252.04 332.155 1251.86 331.764 1251.76 331.354C1251.02 328.339 1251.8 325.539 1253.85 323.863C1256.1 322.024 1259.47 321.882 1262.87 323.479V323.48C1264.06 324.038 1267.95 326.186 1268.11 330.432C1268.21 333.184 1266.9 335.214 1264.53 336.116C1266.19 337.914 1266.87 340.285 1266.28 342.623C1265.62 345.222 1263.55 347.056 1261.06 347.337C1262.55 349.566 1262.83 352.052 1261.8 354.226C1260.97 355.982 1259.51 357.203 1257.56 357.758C1257.31 357.83 1257.04 357.872 1256.78 357.92C1257.28 358.887 1257.52 359.937 1257.46 361.019C1257.36 362.887 1256.27 364.581 1254.56 365.549C1253.52 366.137 1252.33 366.43 1251.04 366.43C1249.43 366.43 1247.67 365.966 1245.92 365.048C1243.56 363.81 1242.33 361.371 1242.7 358.683Z" fill="#141414"/>
<path fill-rule="evenodd" clip-rule="evenodd" d="M1276.61 380.029C1277.85 373.666 1283.85 371.323 1287.42 370.756C1286.1 360.7 1290.68 352.091 1292.29 349.81C1294.75 346.334 1303.74 344.464 1302.08 353.681C1300.79 360.826 1298.95 364.889 1300.43 370.972L1293.11 375.727C1293.43 376.647 1293.7 377.591 1293.89 378.462C1296.39 390.366 1281.49 394.29 1277.07 391.373C1274.7 389.811 1275.32 386.633 1276.61 380.029Z" fill="white"/>
<path fill-rule="evenodd" clip-rule="evenodd" d="M1274.1 384.751C1274.1 385.881 1274.15 386.953 1274.34 388.14C1274.44 388.767 1275.02 389.188 1275.65 389.089C1276.24 388.99 1276.66 388.446 1276.6 387.852L1276.59 387.777C1276.41 385.881 1276.51 383.778 1276.93 381.864C1277.32 379.926 1278.06 378.087 1279.14 376.537C1279.68 375.753 1280.3 375.044 1280.98 374.508C1281.67 373.947 1282.47 373.485 1283.35 373.131C1284.2 372.784 1285.11 372.512 1286.03 372.314C1286.23 373.196 1286.48 374.071 1286.77 374.937C1287.01 375.638 1287.77 376.025 1288.48 375.786C1289.18 375.547 1289.56 374.788 1289.33 374.087C1289.11 373.386 1288.92 372.685 1288.76 371.968C1288.5 370.83 1288.32 369.675 1288.21 368.504C1287.96 365.7 1288.14 362.846 1288.71 360.075C1289.18 357.758 1289.91 355.457 1290.96 353.428C1291.21 352.933 1291.5 352.447 1291.79 352.075C1292.05 351.746 1292.44 351.383 1292.85 351.061C1293.7 350.418 1294.7 349.873 1295.72 349.486C1296.72 349.098 1297.79 348.867 1298.68 348.941C1299.11 348.974 1299.46 349.09 1299.71 349.247C1299.95 349.403 1300.12 349.61 1300.26 349.939C1300.54 350.591 1300.55 351.671 1300.38 352.735C1300.34 353.007 1300.29 353.28 1300.23 353.552L1300.03 354.442L1299.6 356.224C1299.03 358.607 1298.31 361.073 1298.09 363.803C1297.99 365.156 1298.03 366.549 1298.24 367.902C1298.45 369.246 1298.8 370.541 1299.2 371.803C1299.5 372.726 1300.48 373.229 1301.41 372.933C1302.33 372.644 1302.84 371.654 1302.55 370.731L1302.54 370.722L1302.53 370.673C1302.16 369.576 1301.85 368.471 1301.66 367.366C1301.47 366.252 1301.42 365.156 1301.49 364.034C1301.63 361.791 1302.26 359.44 1302.83 356.999L1303.24 355.152L1303.44 354.22C1303.5 353.89 1303.56 353.552 1303.61 353.205C1303.77 351.836 1303.89 350.319 1303.2 348.669C1302.86 347.853 1302.22 347.045 1301.4 346.55C1300.58 346.047 1299.7 345.841 1298.9 345.791C1297.28 345.7 1295.89 346.088 1294.59 346.591C1293.29 347.111 1292.1 347.779 1290.97 348.653C1290.41 349.098 1289.89 349.577 1289.38 350.236C1288.92 350.855 1288.59 351.449 1288.29 352.059C1287.09 354.467 1286.35 356.958 1285.86 359.514C1285.28 362.624 1285.12 365.84 1285.47 368.999C1285.42 369.015 1285.37 369.023 1285.32 369.04C1284.2 369.329 1283.1 369.708 1282.03 370.211C1280.96 370.714 1279.93 371.357 1279.01 372.174C1278.07 373.015 1277.33 373.955 1276.72 374.945C1275.47 376.941 1274.72 379.167 1274.38 381.394C1274.19 382.508 1274.1 383.629 1274.1 384.751Z" fill="#141414"/>
<path fill-rule="evenodd" clip-rule="evenodd" d="M1538.06 594.186C1539.77 565.945 1556.73 412.351 1538.06 382.393C1509.01 335.806 1433.51 339.676 1433.51 339.676C1433.51 339.676 1395.2 335.706 1367.67 366.809C1359.5 376.038 1340.14 419.783 1336.37 433.469C1338.61 440.708 1355.84 456.905 1364.46 462.425C1349.86 524.864 1349.2 593.651 1349.2 593.651C1349.2 593.651 1508.8 596.869 1538.06 594.186Z" fill="#F45648"/>
<path fill-rule="evenodd" clip-rule="evenodd" d="M1372.99 420.573C1373.53 419.155 1375.79 420.152 1375.13 421.572C1372.67 429.183 1367.07 458.971 1366.2 462.282C1355.78 516.481 1350.83 581.429 1350.94 591.972C1367.33 592.107 1502.81 595.117 1536.16 592.983C1536.39 559.548 1557.83 420.171 1536.54 383.269C1522.7 359.299 1495.58 349.177 1475.23 344.928C1453 340.283 1433.81 341.415 1433.61 341.427C1432.63 341.276 1396 337.905 1368.99 367.971C1361.33 376.624 1342.33 419.103 1338.21 433.416C1340.66 439.801 1354.84 453.493 1363.54 459.685C1364.35 456.921 1371.02 428.358 1372.99 420.573ZM1366.36 365.646C1393.28 335.232 1430.81 337.696 1433.53 337.919C1465.97 335.965 1521.09 346.757 1539.58 381.52C1561.12 426.165 1541.68 534.048 1540.07 574.699C1539.49 582.134 1540.12 595.915 1538.54 595.957C1495.33 596.507 1364.79 595.427 1349.12 595.404C1348.19 595.362 1347.45 594.605 1347.44 593.677C1347.43 593.017 1352.43 522.158 1363.1 463.261C1354.52 457.022 1335.98 441.581 1334.68 433.004C1338.25 420.057 1357.68 375.446 1366.36 365.646Z" fill="#141414"/>
<path fill-rule="evenodd" clip-rule="evenodd" d="M1465.35 315.289C1465.35 315.289 1466.47 343.691 1478.21 347.746C1481.4 363.709 1459.77 374.61 1443.32 373.838C1411.49 372.343 1421.39 346.323 1423.58 346.252C1423.52 342.99 1421.76 318.593 1421.76 318.593L1465.35 315.289Z" fill="white"/>
<path fill-rule="evenodd" clip-rule="evenodd" d="M1476.64 349.002C1477.21 353.177 1475.92 357.133 1472.79 360.775C1466.71 367.844 1454.36 372.608 1443.4 372.086C1432.46 371.572 1425.43 367.93 1423.06 361.554C1420.84 355.566 1423.29 349.072 1424.28 347.864C1424.91 347.59 1425.35 346.952 1425.34 346.218C1425.28 343.425 1424.04 325.893 1423.64 320.209L1463.71 317.172C1464.17 323.522 1466.46 344.262 1476.64 349.002ZM1444.99 375.631C1456.48 375.631 1469.05 370.501 1475.45 363.062C1479.49 358.363 1481.04 352.947 1479.93 347.403C1479.81 346.792 1479.37 346.292 1478.78 346.089C1470.09 343.086 1467.41 322.787 1467.11 315.219C1467.09 314.743 1466.88 314.295 1466.52 313.979C1466.16 313.662 1465.69 313.508 1465.22 313.539L1421.63 316.844C1420.67 316.917 1419.94 317.755 1420.01 318.719C1420.03 318.947 1421.55 340.107 1421.8 345.427C1419.89 347.484 1418.68 352.528 1418.65 356.1C1418.61 361.104 1420.33 365.471 1423.62 368.728C1427.79 372.866 1434.39 375.175 1443.24 375.59C1443.82 375.617 1444.41 375.631 1444.99 375.631Z" fill="#141414"/>
<path fill-rule="evenodd" clip-rule="evenodd" d="M1474.74 424.71C1475.64 431.723 1476.45 438.764 1477.17 445.8C1477.89 452.839 1478.51 459.888 1478.9 466.924V466.93C1478.94 467.84 1479.72 468.538 1480.63 468.488C1481.54 468.438 1482.24 467.661 1482.19 466.752C1482.19 466.747 1482.19 466.733 1482.19 466.727C1481.7 459.607 1480.96 452.535 1480.14 445.476C1479.31 438.418 1478.4 431.381 1477.39 424.341C1477.29 423.61 1476.61 423.102 1475.88 423.207C1475.15 423.311 1474.65 423.978 1474.74 424.701L1474.74 424.71Z" fill="#141414"/>
<path fill-rule="evenodd" clip-rule="evenodd" d="M1293.15 545.435C1294.19 540.845 1305.07 537.484 1313.63 534.273C1313.7 534.069 1313.75 533.859 1313.83 533.655C1319.88 516.551 1465.65 513.311 1474 507.384C1480.66 502.658 1480.43 474.258 1480.54 466.825C1493.37 467.707 1548.25 472.351 1548.25 472.351C1545.9 550.861 1521.23 560.082 1503.76 565.726C1473.9 575.374 1381.89 562.062 1361.54 567.385C1344.14 571.935 1335.15 555.284 1323.67 567.259C1319.86 571.232 1314.75 566.92 1313.2 562.065C1312.27 559.144 1311.5 554.277 1311.49 548.832C1300.15 550.961 1292 550.522 1293.15 545.435Z" fill="white"/>
<path fill-rule="evenodd" clip-rule="evenodd" d="M1343.8 557.616C1342.14 559.083 1340.5 562.177 1340.5 567.429C1340.5 572.183 1339.3 573.969 1336.82 574.242C1333.47 574.61 1331.97 571.658 1331.18 566.337C1330.86 564.18 1330.85 560.236 1331.47 557.62" fill="white"/>
<path fill-rule="evenodd" clip-rule="evenodd" d="M1322.01 546.699C1320.58 556.554 1321.72 567.332 1324.66 570.392C1327.84 573.702 1331.97 572.476 1331.39 567.692C1330.81 562.947 1331.33 556.017 1332.76 551.716" fill="white"/>
<path fill-rule="evenodd" clip-rule="evenodd" d="M1295.09 547.087C1296.32 548.316 1300.8 548.91 1309.74 547.36C1309.82 544.036 1310.2 540.531 1311 537.117C1304.64 539.647 1293.37 542.941 1295.09 547.087ZM1314.87 561.536C1316 564.618 1318.31 567.601 1321.14 566.922C1319.52 560.227 1319.89 553.246 1321.08 546.559C1321.27 545.467 1322.98 545.63 1322.95 546.741C1322.4 552.721 1322.5 558.835 1323.88 564.646C1324.43 566.556 1324.95 568.584 1326.61 569.759C1327.59 570.42 1328.78 570.894 1329.4 569.825C1329.95 567.175 1329.2 562.275 1330.01 557.776C1330.31 556.093 1330.77 550.409 1333.01 550.658C1333.63 550.807 1334.01 551.425 1333.86 552.036C1332.57 557.319 1332.73 562.982 1333.22 568.39C1333.97 570.429 1335.17 573.506 1337.68 572.052C1339.81 569.167 1338.34 564.591 1339.9 561.264C1340.55 559.709 1342.45 554.974 1344.79 556.679C1345.31 557.231 1345.29 558.097 1344.74 558.616C1343.51 559.748 1342.74 561.663 1342.42 563.417C1348.01 565.459 1353.63 567.64 1361.1 565.685C1389.46 560.585 1478.4 573.43 1503.22 564.058C1519.4 558.831 1543.8 550.947 1546.44 473.96C1537.6 473.209 1496.07 469.712 1482.27 468.706C1482.11 486.032 1481.1 504.511 1475.02 508.812C1471.78 511.113 1455.58 512.598 1424.82 515.245C1393.83 518.214 1349.4 520.835 1323.32 529.273C1317.64 531.319 1315.9 533.067 1315.48 534.238C1312.56 542.254 1312.65 554.118 1314.87 561.536ZM1291.44 545.05C1292.31 539.791 1303.59 536.077 1311.85 533.058C1311.98 533.012 1311.9 533.049 1312.23 532.919C1312.78 530.616 1314.9 528.276 1320.6 526.295C1349.78 516.154 1446.3 511.546 1472.99 505.953C1476.6 503.394 1478.54 490.883 1478.77 468.764C1478.74 467.12 1478.57 465.045 1480.67 465.078C1493.36 465.952 1547.85 470.554 1548.39 470.603C1549.32 470.685 1550.02 471.469 1550 472.4C1547.6 541.674 1531.95 573.782 1466.57 571.093C1438.85 571.826 1382.2 565.218 1361.98 569.082C1353.89 571.202 1347.62 569.065 1342.1 567.029C1342.11 569.714 1342.24 572.6 1340.08 574.765C1337.34 577.225 1332.85 576.273 1331.23 573.124C1328.12 575.427 1323.95 573.107 1322.39 570.188C1312.37 572.243 1310.08 559.866 1309.77 550.921C1303.24 551.807 1290.31 553.988 1291.44 545.05Z" fill="#141414"/>
<path fill-rule="evenodd" clip-rule="evenodd" d="M1384.48 675.834C1384.48 675.834 1427.91 701.244 1425.8 725.531C1423.69 749.818 1404.82 749.29 1396.1 748.894C1374.46 747.91 1350.83 728.996 1350.83 728.996L1384.48 675.834Z" fill="#F45648"/>
<path fill-rule="evenodd" clip-rule="evenodd" d="M1383.66 729.596C1384.03 729.596 1384.41 729.471 1384.72 729.213C1395.73 720.014 1399.1 708.548 1399.23 708.064C1399.48 707.188 1398.98 706.276 1398.1 706.026C1397.23 705.777 1396.31 706.282 1396.06 707.158C1396.03 707.267 1392.81 718.16 1382.6 726.681C1381.9 727.265 1381.81 728.305 1382.39 729.004C1382.72 729.395 1383.19 729.596 1383.66 729.596Z" fill="#141414"/>
<path fill-rule="evenodd" clip-rule="evenodd" d="M1424.23 569.767C1424.23 569.767 1353.61 536.849 1266.27 524.839C1181.8 513.224 1168.87 568.193 1189.19 609.316C1233.54 699.072 1348.69 739.224 1348.69 739.224C1411.09 707.697 1390.18 632.759 1424.23 569.767Z" fill="#141414"/>
<path fill-rule="evenodd" clip-rule="evenodd" d="M1352.38 639.87C1352.89 639.87 1353.39 639.635 1353.71 639.194C1354.25 638.459 1354.09 637.427 1353.36 636.889C1352.79 636.471 1296 594.702 1279 561.903C1278.59 561.095 1277.59 560.778 1276.78 561.198C1275.97 561.617 1275.66 562.613 1276.08 563.422C1283.38 577.507 1298.28 594.608 1320.38 614.248C1336.79 628.83 1351.27 639.446 1351.41 639.551C1351.7 639.767 1352.04 639.87 1352.38 639.87Z" fill="white"/>
<path fill-rule="evenodd" clip-rule="evenodd" d="M1256.99 695.928C1256.99 695.928 1268.93 704.05 1256.74 717.278C1250.85 723.677 1179.75 751.95 1156.92 737.517C1146.38 730.85 1143.98 723.358 1142.87 720.163C1154.85 716.513 1256.99 695.928 1256.99 695.928Z" fill="#141414"/>
<path fill-rule="evenodd" clip-rule="evenodd" d="M1232.53 651.965C1218.27 651.052 1191.46 663.34 1158.35 680.052C1125.13 696.813 1138.19 732.357 1168.48 734.41C1186.39 735.624 1231.2 725.293 1251.7 712.871C1267.6 703.235 1262.38 684.435 1258.85 677.024C1253.64 666.081 1242.35 652.593 1232.53 651.965Z" fill="#F45648"/>
<path fill-rule="evenodd" clip-rule="evenodd" d="M1197.61 708.219C1197.63 708.218 1197.65 708.217 1197.67 708.215C1198.53 708.147 1199.18 707.39 1199.11 706.526C1197.84 690.555 1189.57 680.101 1189.22 679.664C1188.68 678.99 1187.69 678.881 1187.01 679.424C1186.34 679.967 1186.23 680.953 1186.77 681.629C1186.85 681.728 1194.79 691.807 1195.98 706.776C1196.05 707.619 1196.77 708.253 1197.61 708.219Z" fill="#141414"/>
<path fill-rule="evenodd" clip-rule="evenodd" d="M1181.49 711.197C1181.51 711.197 1181.53 711.196 1181.55 711.193C1182.42 711.125 1183.06 710.369 1182.99 709.504C1182.05 697.657 1175.91 689.888 1175.64 689.563C1175.1 688.888 1174.12 688.78 1173.44 689.323C1172.76 689.866 1172.66 690.852 1173.2 691.526C1173.26 691.6 1179 698.91 1179.87 709.754C1179.93 710.597 1180.66 711.231 1181.49 711.197Z" fill="#141414"/>
<path fill-rule="evenodd" clip-rule="evenodd" d="M1249.74 638.153C1249.74 638.153 1210.65 665.096 1208.3 672.019C1203.37 686.526 1211.16 698.517 1220.82 702.465C1238.74 709.787 1279.12 684.649 1279.12 684.649" fill="white"/>
<path fill-rule="evenodd" clip-rule="evenodd" d="M1226.18 705.341C1246.08 706.988 1278.48 686.991 1280 686.048C1280.77 685.567 1281.01 684.549 1280.52 683.776C1280.04 683.004 1279.02 682.768 1278.25 683.248C1278.15 683.31 1268.09 689.547 1256 694.805C1240.29 701.636 1228.35 703.755 1221.44 700.937C1212.41 697.246 1205.28 686.042 1209.86 672.549C1211.45 667.882 1235.74 649.808 1250.68 639.51C1251.43 638.993 1251.62 637.967 1251.1 637.216C1250.59 636.466 1249.56 636.277 1248.81 636.795C1248.71 636.862 1238.89 643.638 1228.91 651.173C1210.5 665.073 1207.44 669.424 1206.74 671.487C1201.51 686.89 1209.77 699.73 1220.2 703.99C1222 704.73 1224.02 705.163 1226.18 705.341Z" fill="#141414"/>
<path fill-rule="evenodd" clip-rule="evenodd" d="M1542.63 607.067C1535.99 467.595 1406.12 532.548 1380.58 545.672C1297.56 588.345 1213.2 640.486 1213.2 640.486C1210.83 683.919 1259.42 722.868 1289.03 727.195L1391.82 675.57C1391.82 675.57 1417.92 713.121 1464.77 711.133C1526.18 708.527 1545.97 677.142 1542.63 607.067Z" fill="#0B379B"/>
<path fill-rule="evenodd" clip-rule="evenodd" d="M1391.73 675.635C1396.88 672.917 1431.58 654.424 1448.92 640.747C1449.64 640.183 1450.68 640.305 1451.24 641.02C1451.8 641.735 1451.68 642.773 1450.97 643.337C1433.95 656.758 1400.62 674.659 1393.84 678.255C1393.07 677.385 1392.28 676.439 1391.73 675.635Z" fill="white"/>
<path fill-rule="evenodd" clip-rule="evenodd" d="M1405.36 274.274C1410.3 233.252 1437.3 230.889 1456.77 234.429C1472.3 237.252 1492.16 250.086 1490.4 275.906C1498.17 273.382 1503.85 278.107 1504.85 284.249C1506 291.219 1502.34 303.008 1490.83 300.977C1488.31 320.957 1474.49 343.973 1436.95 340.123C1408.52 337.206 1400.86 311.612 1405.36 274.274Z" fill="white"/>
<path fill-rule="evenodd" clip-rule="evenodd" d="M1489.2 300.772C1487.73 312.012 1482.65 323.153 1473.49 330.25C1462.8 340.271 1427.36 344.303 1414.98 327.355C1404.44 316.614 1402.86 279.35 1410.94 257.83C1416.52 258.445 1425.1 259.158 1432.92 258.852C1434.71 256.321 1436.65 251.465 1438.04 247.971C1438.71 246.287 1439.26 244.92 1439.6 244.281C1440.6 245.652 1439.24 252.883 1438.42 257.234C1438.26 258.083 1438.12 258.823 1438.03 259.388C1448.91 264.707 1472.16 267.377 1485.24 264.968C1485.38 267.48 1484.93 270.204 1484.54 272.588C1483.66 277.946 1483.06 281.585 1490.08 277.24C1501.16 270.381 1506.86 289.022 1499.22 296.412C1495.01 300.483 1491.88 300.767 1489.2 300.772ZM1472.86 206.636C1476.86 208.345 1487.43 213.041 1487.58 217.495C1470.36 203.058 1413.33 196.35 1395.93 248.35C1390.36 266.371 1386.95 330.451 1388.04 336.203C1397.05 338.08 1410.57 340.143 1422.62 339.87C1422.83 339.273 1422.96 338.638 1423.06 337.986C1437.83 344.872 1459.31 343.789 1472.06 335.226C1471.73 338.119 1471.77 340.096 1471.8 341.552C1471.82 342.701 1471.83 343.524 1471.66 344.215C1484.23 346.242 1502.9 341.174 1502.9 341.174C1502.9 341.174 1534.97 275.586 1504.57 237.242C1511.69 235.599 1526.61 225.27 1516.47 203.907C1508.63 187.378 1480.49 187.082 1472.86 206.636ZM1492.82 288.162C1492.99 289.012 1493.16 289.792 1494.02 289.617C1496.65 289.083 1496.98 285.328 1494.58 284.112C1492.61 283.115 1492.01 285.339 1492.64 287.41C1492.71 287.651 1492.77 287.909 1492.82 288.162Z" fill="#141414"/>
<path fill-rule="evenodd" clip-rule="evenodd" d="M1420.94 272.546C1423.36 271.866 1425.81 271.768 1428.27 272.392C1428.9 272.515 1429.51 272.102 1429.64 271.468C1429.77 269.618 1426.15 268.801 1424.71 268.53C1422.59 268.036 1414.95 269.232 1416.94 272.553C1417.73 273.359 1418.83 273.066 1419.87 272.787C1420.24 272.689 1420.6 272.592 1420.94 272.546ZM1414.26 284.431C1411.56 282.762 1415.91 279.276 1417.41 278.711C1422.22 276.387 1428.38 278.354 1431.08 282.878C1431.46 283.458 1431.39 284.248 1430.87 284.743C1430.25 285.328 1429.27 285.258 1428.73 284.612C1427.83 283.657 1426.87 282.838 1425.8 282.264C1422.83 280.659 1418.31 281.224 1416.13 283.761C1415.74 284.38 1414.99 284.744 1414.26 284.431ZM1435.6 295.427C1426.59 299.196 1429.72 308.896 1439.13 308.157C1441.27 308.14 1441.28 304.89 1439.15 304.858C1437.36 304.814 1434.69 304.582 1433.91 303.029C1432.96 300.636 1435.36 299.047 1437.46 298.212C1438.37 297.789 1438.68 296.613 1438.81 295.917C1439.49 291.747 1439.38 287.587 1439.28 283.407L1439.27 283.057C1439.25 281.619 1437.02 281.602 1436.95 283.014C1436.84 284.141 1436.76 285.277 1436.68 286.416C1436.46 289.448 1436.23 292.497 1435.6 295.427ZM1454.44 288.19C1455.01 287.534 1455.81 287.092 1456.75 286.952C1460.01 286.498 1462.66 289.387 1463.71 292.28C1463.99 293.063 1464.86 293.466 1465.64 293.155C1467.51 292.188 1465.98 289.781 1464.97 288.183C1464.79 287.904 1464.63 287.651 1464.51 287.433C1462.69 284.933 1459.62 283.152 1456.38 283.458C1454.72 283.599 1453.02 284.329 1451.79 285.596C1450.1 287.34 1452.74 289.919 1454.44 288.19ZM1459.92 275.719C1458.95 275.738 1457.95 275.758 1457.53 274.862C1456.88 272.329 1463.1 272.547 1464.66 272.712C1466.64 273.016 1471.16 273.798 1471.24 276.333C1471.13 277.169 1470.36 277.757 1469.53 277.649C1468.29 277.471 1467.06 277.129 1465.84 276.787C1464.38 276.377 1462.91 275.966 1461.4 275.834C1460.98 275.698 1460.45 275.708 1459.92 275.719ZM1431.32 312.205C1428.06 311.753 1423.31 311.093 1422.44 312.579C1419.69 318.348 1424.84 324.866 1430.01 327.204C1438.16 330.95 1454.15 327.365 1452.43 316.014C1452.46 315.651 1451.95 315.053 1451.53 315.059C1450.83 314.954 1450.13 314.848 1449.42 314.741C1444.28 313.966 1438.95 313.163 1433.85 312.501C1433.29 312.479 1432.39 312.353 1431.32 312.205Z" fill="#141414"/>
<path fill-rule="evenodd" clip-rule="evenodd" d="M1420.85 290.831C1422.08 290.842 1422.07 292.758 1420.83 292.747C1419.6 292.737 1419.62 290.82 1420.85 290.831ZM1454.04 296.061C1455.7 296.837 1454.5 299.421 1452.83 298.644C1451.17 297.869 1452.37 295.285 1454.04 296.061ZM1460.1 298.153C1461.32 298.721 1460.43 300.616 1459.21 300.047C1457.99 299.478 1458.88 297.584 1460.1 298.153ZM1456.63 304.029C1458.64 304.968 1457.19 308.099 1455.17 307.158C1453.16 306.219 1454.61 303.089 1456.63 304.029ZM1462.98 304.966C1464.09 302.32 1467.63 306.467 1464.42 307.011C1463.1 307.495 1462.29 306.014 1462.98 304.966ZM1421.4 297.062C1423.44 297.08 1423.41 300.243 1421.37 300.227C1419.33 300.21 1419.36 297.045 1421.4 297.062ZM1415.77 295.331C1415.93 296.471 1414.68 297.377 1413.78 296.455C1411.33 294.739 1415.9 292.704 1415.77 295.331ZM1426.69 291.491C1428.37 291.506 1428.35 294.118 1426.67 294.103C1424.98 294.089 1425 291.476 1426.69 291.491Z" fill="#FF4B33"/>
<path fill-rule="evenodd" clip-rule="evenodd" d="M397.371 268H488V182.178H397.371V268Z" fill="white"/>
<path fill-rule="evenodd" clip-rule="evenodd" d="M454.487 225.195C454.487 215.98 447.018 208.51 437.805 208.51C428.592 208.51 421.123 215.98 421.123 225.195C421.123 234.411 428.592 241.881 437.805 241.881C447.018 241.881 454.487 234.411 454.487 225.195ZM422.512 225.195C422.512 216.748 429.356 209.9 437.805 209.9C446.25 209.9 453.097 216.748 453.097 225.195C453.097 233.643 446.25 240.491 437.805 240.491C429.356 240.491 422.512 233.643 422.512 225.195Z" fill="#141414"/>
<path d="M452.395 250.22C459.302 250.22 464.902 244.62 464.902 237.711C464.902 230.803 459.302 225.203 452.395 225.203C445.488 225.203 439.889 230.803 439.889 237.711C439.889 244.62 445.488 250.22 452.395 250.22Z" fill="#FF4B33"/>
<path fill-rule="evenodd" clip-rule="evenodd" d="M342 221.851H376.649V182.952H342V221.851Z" fill="white"/>
<path fill-rule="evenodd" clip-rule="evenodd" d="M397.371 166.798H458.652V98H397.371V166.798Z" fill="white"/>
<path fill-rule="evenodd" clip-rule="evenodd" d="M442.654 147.01L428.422 121.992L414.185 147.01H442.654ZM416.576 145.62L428.422 124.802L440.264 145.62H416.576Z" fill="#141414"/>
<path fill-rule="evenodd" clip-rule="evenodd" d="M921.027 5.62162H802.973C795.599 5.62162 789.622 11.5993 789.622 18.973V286.234C789.622 293.608 795.599 299.586 802.973 299.586H921.027C928.401 299.586 934.378 293.608 934.378 286.234V18.973C934.378 11.5993 928.401 5.62162 921.027 5.62162ZM802.973 0C792.495 0 784 8.4945 784 18.973V286.234C784 296.714 792.495 305.207 802.973 305.207H921.027C931.507 305.207 940 296.714 940 286.234V18.973C940 8.4945 931.507 0 921.027 0H802.973Z" fill="#141414"/>
<path fill-rule="evenodd" clip-rule="evenodd" d="M893.948 136.354L894.409 136.436C899.398 137.319 903.919 139.941 907.175 143.837C910.431 147.733 912.215 152.659 912.215 157.744V158.212H890.108L893.948 136.354ZM894.706 137.446L891.223 157.275H911.274C911.168 152.576 909.47 148.045 906.456 144.437C903.441 140.831 899.295 138.366 894.706 137.446Z" fill="#D3E2F2"/>
<path fill-rule="evenodd" clip-rule="evenodd" d="M886.477 140.336C875.108 140.336 865.748 149.695 865.748 161.066C865.748 172.436 875.108 181.796 886.477 181.796C897.69 181.796 906.95 172.691 907.202 161.534H885.92L889.614 140.575C888.576 140.416 887.529 140.336 886.477 140.336ZM864.811 161.066C864.811 149.178 874.59 139.399 886.477 139.399C887.738 139.399 888.998 139.509 890.239 139.728L890.701 139.809L887.035 160.597H908.144V161.066C908.144 172.953 898.365 182.732 886.477 182.732C874.59 182.732 864.811 172.953 864.811 161.066Z" fill="#D3E2F2"/>
<path fill-rule="evenodd" clip-rule="evenodd" d="M850.991 137.291C846.075 137.291 842.09 141.276 842.09 146.192C842.09 151.108 846.075 155.093 850.991 155.093C855.908 155.093 859.892 151.108 859.892 146.192C859.892 141.276 855.908 137.291 850.991 137.291ZM841.153 146.192C841.153 140.759 845.557 136.354 850.991 136.354C856.425 136.354 860.829 140.759 860.829 146.192C860.829 151.625 856.425 156.03 850.991 156.03C845.557 156.03 841.153 151.625 841.153 146.192Z" fill="#D3E2F2"/>
<path d="M890.108 157.201L893.769 136.354C898.649 137.218 903.073 139.782 906.256 143.594C909.442 147.405 911.189 152.225 911.189 157.201H890.108Z" fill="#EDF3F9"/>
<path d="M886.009 160.597H907.207C907.207 172.227 897.639 181.796 886.009 181.796C874.379 181.796 864.811 172.227 864.811 160.597C864.811 148.968 874.379 139.399 886.009 139.399C887.243 139.399 888.475 139.507 889.691 139.721L886.009 160.597Z" fill="#EDF3F9"/>
<path d="M859.892 145.723C859.892 150.898 855.697 155.093 850.523 155.093C845.348 155.093 841.153 150.898 841.153 145.723C841.153 140.549 845.348 136.354 850.523 136.354C855.697 136.354 859.892 140.549 859.892 145.723Z" fill="#EDF3F9"/>
<path fill-rule="evenodd" clip-rule="evenodd" d="M818.901 276.895V195.85H808.36V276.895H818.901ZM857.315 276.895V235.904H846.775V276.895H857.315ZM839.045 218.337V276.895H828.504V218.337H839.045ZM877.928 276.895V248.084H867.387V276.895H877.928ZM898.306 254.877V276.895H887.766V254.877H898.306ZM915.64 276.895V249.724H905.099V276.895H915.64Z" fill="#D3E2F2"/>
<path d="M891.157 208.827L857.711 226.725L817.94 166.077L821.99 163.745L808.982 155.297L809.819 170.75L813.228 168.787L855.889 233.843L889.342 215.943L910.784 248.523L915.326 245.55L891.157 208.827Z" fill="#02BAD3"/>
<path fill-rule="evenodd" clip-rule="evenodd" d="M910.721 32.5585V24.3604H807.189V32.5585H910.721ZM898.306 45.2072V53.4054H806.955V45.2072H898.306ZM869.964 71.2072V63.009H807.189V71.2072H869.964ZM879.333 81.982V90.1802H807.189V81.982H879.333ZM852.631 100.018V108.216H806.955V100.018H852.631Z" fill="#D3E2F2"/>
<path d="M907.535 114.24V110.533C910.03 110.088 911.95 109.17 913.297 107.779C914.644 106.387 915.319 104.757 915.319 102.887C915.319 101.195 914.867 99.8596 913.965 98.88C913.063 97.9007 912 97.1938 910.774 96.7597C909.549 96.3257 908.046 95.9418 906.265 95.6078C904.883 95.3407 903.893 95.0904 903.291 94.8566C902.689 94.6228 902.389 94.2722 902.389 93.8046C902.389 92.8253 903.403 92.3355 905.429 92.3355C907.479 92.3355 909.65 92.9143 911.943 94.0719L914.316 88.362C912.468 87.3156 910.208 86.6701 907.535 86.4253V82.8525H902.825V86.4921C900.173 86.8706 898.14 87.7609 896.725 89.1633C895.313 90.5659 894.605 92.2465 894.605 94.2054C894.605 95.8973 895.05 97.2383 895.94 98.2291C896.833 99.2197 897.88 99.932 899.082 100.366C900.285 100.8 901.787 101.206 903.593 101.585C904.996 101.874 906.003 102.141 906.614 102.386C907.228 102.631 907.535 102.998 907.535 103.488C907.535 103.911 907.301 104.228 906.832 104.44C906.364 104.651 905.586 104.757 904.495 104.757C903.225 104.757 901.899 104.562 900.517 104.173C899.138 103.783 897.889 103.265 896.777 102.62L894.238 108.363C895.24 108.986 896.503 109.51 898.03 109.932C899.555 110.355 901.152 110.611 902.825 110.7V114.24H907.535Z" fill="#FFC81A"/>
<path fill-rule="evenodd" clip-rule="evenodd" d="M1199.05 172H1128.32C1120.41 172 1114 178.41 1114 186.317V234.828C1114 242.735 1120.41 249.145 1128.32 249.145H1163.72L1195.63 272L1194.79 249.145H1199.05C1206.95 249.145 1213.36 242.735 1213.36 234.828V186.317C1213.36 178.41 1206.95 172 1199.05 172Z" fill="#FF4B33"/>
<path fill-rule="evenodd" clip-rule="evenodd" d="M1161.89 228.211C1161.69 228.211 1161.49 228.175 1161.33 228.093L1161.2 228.032C1157.23 226.048 1147.64 220.455 1144.37 211.376C1143.79 209.781 1142.48 202.964 1146.5 198.748C1148.97 196.166 1151.18 195.867 1152.64 195.867C1156.15 195.867 1159.7 197.819 1161.92 200.812C1164.13 197.677 1167.48 195.867 1171.25 195.867C1172.71 195.867 1174.92 196.166 1177.39 198.748C1181.41 202.964 1180.09 209.781 1179.52 211.376C1176.25 220.455 1166.66 226.048 1162.68 228.032C1162.46 228.143 1162.17 228.211 1161.89 228.211Z" fill="white"/>
<defs>
<linearGradient id="paint0_linear_481_1736" x1="24.159" y1="637.93" x2="24.159" y2="787.03" gradientUnits="userSpaceOnUse">
<stop stop-color="#FFC81A" stop-opacity="0.01"/>
<stop offset="1" stop-color="#FFC81A"/>
</linearGradient>
</defs>
</svg>
