<svg width="2119" height="1343" viewBox="0 0 2119 1343" fill="none" xmlns="http://www.w3.org/2000/svg">
<path fill-rule="evenodd" clip-rule="evenodd" d="M1490.5 5H548.5C521.438 5 499.5 26.9381 499.5 54V778C499.5 805.062 521.438 827 548.5 827H1490.5C1517.56 827 1539.5 805.062 1539.5 778V54C1539.5 26.938 1517.56 5 1490.5 5ZM548.5 0C518.677 0 494.5 24.1766 494.5 54V778C494.5 807.823 518.677 832 548.5 832H1490.5C1520.32 832 1544.5 807.823 1544.5 778V54C1544.5 24.1766 1520.32 0 1490.5 0H548.5Z" fill="#141414"/>
<path fill-rule="evenodd" clip-rule="evenodd" d="M1490.5 5H548.5C521.438 5 499.5 26.938 499.5 54V121H1539.5V54C1539.5 26.938 1517.56 5 1490.5 5ZM548.5 0C518.677 0 494.5 24.1766 494.5 54V126H1544.5V54C1544.5 24.1766 1520.32 0 1490.5 0H548.5Z" fill="#141414"/>
<path d="M579.5 85C590.546 85 599.5 76.0457 599.5 65C599.5 53.9543 590.546 45 579.5 45C568.454 45 559.5 53.9543 559.5 65C559.5 76.0457 568.454 85 579.5 85Z" fill="#FF4B33"/>
<path fill-rule="evenodd" clip-rule="evenodd" d="M599.5 65C599.5 53.9543 590.546 45 579.5 45C568.454 45 559.5 53.9543 559.5 65C559.5 76.0457 568.454 85 579.5 85C590.546 85 599.5 76.0457 599.5 65ZM563.5 65C563.5 56.1634 570.663 49 579.5 49C588.337 49 595.5 56.1634 595.5 65C595.5 73.8366 588.337 81 579.5 81C570.663 81 563.5 73.8366 563.5 65Z" fill="#141414"/>
<path fill-rule="evenodd" clip-rule="evenodd" d="M663.5 65C663.5 53.9543 654.546 45 643.5 45C632.454 45 623.5 53.9543 623.5 65C623.5 76.0457 632.454 85 643.5 85C654.546 85 663.5 76.0457 663.5 65ZM627.5 65C627.5 56.1634 634.663 49 643.5 49C652.337 49 659.5 56.1634 659.5 65C659.5 73.8366 652.337 81 643.5 81C634.663 81 627.5 73.8366 627.5 65Z" fill="#141414"/>
<path fill-rule="evenodd" clip-rule="evenodd" d="M727.5 65C727.5 53.9543 718.546 45 707.5 45C696.454 45 687.5 53.9543 687.5 65C687.5 76.0457 696.454 85 707.5 85C718.546 85 727.5 76.0457 727.5 65ZM691.5 65C691.5 56.1634 698.663 49 707.5 49C716.337 49 723.5 56.1634 723.5 65C723.5 73.8366 716.337 81 707.5 81C698.663 81 691.5 73.8366 691.5 65Z" fill="#141414"/>
<path fill-rule="evenodd" clip-rule="evenodd" d="M978 459.193C978 412.606 1022.42 375.061 1076.98 375.061C1131.54 375.061 1175.96 412.606 1175.96 459.193C1175.96 487.426 1159.49 513.202 1132.69 528.731L1132.6 528.778L1132.63 529.809C1133.06 544.474 1135.79 554.417 1140.66 556.843L1141 557.008C1143.64 558.382 1142.85 562.441 1139.81 562.653C1127.01 563.542 1116.62 560.693 1108.49 554.934C1103.26 551.23 1099.37 546.646 1096.61 541.75L1096.56 541.653L1096.22 541.713C1090.3 542.708 1084.31 543.249 1078.27 543.316L1076.98 543.324C1022.42 543.324 978 505.78 978 459.193ZM1169.96 459.193C1169.96 416.164 1128.43 381.061 1076.98 381.061C1025.53 381.061 984 416.164 984 459.193C984 502.222 1025.53 537.324 1076.98 537.324C1083.94 537.324 1090.84 536.66 1097.63 535.365C1098.95 535.112 1100.29 535.777 1100.88 536.99C1103.26 541.835 1106.88 546.437 1111.96 550.037C1117.37 553.868 1123.99 556.215 1132 556.713L1132.2 556.725L1131.98 556.352C1128.32 550.199 1126.75 540.349 1126.59 527.672L1126.58 527.074C1126.57 525.974 1127.16 524.956 1128.12 524.423C1154.08 510.017 1169.96 485.707 1169.96 459.193Z" fill="#141414"/>
<path fill-rule="evenodd" clip-rule="evenodd" d="M1047.18 461.304C1047.18 466.982 1042.58 471.584 1036.91 471.584C1031.23 471.584 1026.62 466.982 1026.62 461.304C1026.62 455.627 1031.23 451.025 1036.91 451.025C1042.58 451.025 1047.18 455.627 1047.18 461.304Z" fill="#141414"/>
<path fill-rule="evenodd" clip-rule="evenodd" d="M1087.52 461.304C1087.52 466.982 1082.92 471.584 1077.24 471.584C1071.57 471.584 1066.96 466.982 1066.96 461.304C1066.96 455.627 1071.57 451.025 1077.24 451.025C1082.92 451.025 1087.52 455.627 1087.52 461.304Z" fill="#141414"/>
<path fill-rule="evenodd" clip-rule="evenodd" d="M1127.86 461.304C1127.86 466.982 1123.26 471.584 1117.58 471.584C1111.9 471.584 1107.3 466.982 1107.3 461.304C1107.3 455.627 1111.9 451.025 1117.58 451.025C1123.26 451.025 1127.86 455.627 1127.86 461.304Z" fill="#141414"/>
<path fill-rule="evenodd" clip-rule="evenodd" d="M834.5 428.415C834.5 383.607 877.47 347.283 930.479 347.283C983.487 347.283 1026.46 383.607 1026.46 428.415C1026.46 473.223 983.487 509.545 930.479 509.545C923.187 509.545 916.095 508.836 909.269 507.534C905.601 515.004 894.641 530.742 867.859 528.882C875.69 525.319 877.75 510.259 877.88 496.267C851.761 481.768 834.5 456.802 834.5 428.415Z" fill="#FF4B33"/>
<path fill-rule="evenodd" clip-rule="evenodd" d="M899.551 432.178C899.551 437.856 894.949 442.458 889.272 442.458C883.594 442.458 878.992 437.856 878.992 432.178C878.992 426.501 883.594 421.899 889.272 421.899C894.949 421.899 899.551 426.501 899.551 432.178Z" fill="white"/>
<path fill-rule="evenodd" clip-rule="evenodd" d="M939.887 432.178C939.887 437.856 935.285 442.458 929.608 442.458C923.93 442.458 919.328 437.856 919.328 432.178C919.328 426.501 923.93 421.899 929.608 421.899C935.285 421.899 939.887 426.501 939.887 432.178Z" fill="white"/>
<path fill-rule="evenodd" clip-rule="evenodd" d="M980.227 432.178C980.227 437.856 975.625 442.458 969.947 442.458C964.27 442.458 959.668 437.856 959.668 432.178C959.668 426.501 964.27 421.899 969.947 421.899C975.625 421.899 980.227 426.501 980.227 432.178Z" fill="white"/>
<path d="M1158.39 341.695C1158.97 340.144 1160.7 339.359 1162.25 339.942C1163.75 340.504 1164.53 342.132 1164.06 343.639L1164.01 343.806L1154.19 369.937C1153.6 371.488 1151.87 372.273 1150.32 371.69C1148.83 371.128 1148.05 369.5 1148.51 367.993L1148.57 367.827L1158.39 341.695Z" fill="#141414"/>
<path d="M1189.86 364.904C1191.14 363.853 1193.03 364.04 1194.08 365.321C1195.09 366.552 1194.96 368.348 1193.81 369.418L1193.66 369.543L1172.61 386.815C1171.33 387.866 1169.43 387.679 1168.38 386.398C1167.37 385.166 1167.51 383.371 1168.66 382.301L1168.8 382.176L1189.86 364.904Z" fill="#141414"/>
<path d="M1205.78 400.056C1207.42 399.822 1208.94 400.962 1209.18 402.602C1209.4 404.183 1208.35 405.653 1206.8 405.966L1206.63 405.996L1182.43 409.45C1180.79 409.684 1179.27 408.544 1179.04 406.904C1178.81 405.323 1179.86 403.853 1181.41 403.54L1181.58 403.51L1205.78 400.056Z" fill="#141414"/>
<path fill-rule="evenodd" clip-rule="evenodd" d="M1690.25 888.007H1132.39C1118.66 888.007 1107.5 876.843 1107.5 863.121V480.886C1107.5 467.164 1118.66 456 1132.39 456H1690.25C1703.97 456 1715.13 467.164 1715.13 480.886V863.121C1715.13 876.843 1703.97 888.007 1690.25 888.007Z" fill="white"/>
<path fill-rule="evenodd" clip-rule="evenodd" d="M1132.39 460C1120.87 460 1111.5 469.369 1111.5 480.886V863.121C1111.5 874.638 1120.87 884.007 1132.39 884.007H1690.25C1701.76 884.007 1711.13 874.638 1711.13 863.121V480.886C1711.13 469.369 1701.76 460 1690.25 460H1132.39ZM1690.25 888.007H1132.39C1118.66 888.007 1107.5 876.843 1107.5 863.121V480.886C1107.5 467.164 1118.66 456 1132.39 456H1690.25C1703.97 456 1715.13 467.164 1715.13 480.886V863.121C1715.13 876.843 1703.97 888.007 1690.25 888.007Z" fill="#141414"/>
<path fill-rule="evenodd" clip-rule="evenodd" d="M1712.2 537.62H1109.5C1108.4 537.62 1107.5 536.724 1107.5 535.62C1107.5 534.516 1108.4 533.62 1109.5 533.62H1712.2C1713.3 533.62 1714.2 534.516 1714.2 535.62C1714.2 536.724 1713.3 537.62 1712.2 537.62Z" fill="#141414"/>
<path fill-rule="evenodd" clip-rule="evenodd" d="M1188.71 487.355C1183.68 487.355 1179.59 491.445 1179.59 496.472C1179.59 501.5 1183.68 505.589 1188.71 505.589C1193.73 505.589 1197.82 501.5 1197.82 496.472C1197.82 491.445 1193.73 487.355 1188.71 487.355ZM1188.71 509.589C1181.47 509.589 1175.59 503.705 1175.59 496.472C1175.59 489.239 1181.47 483.355 1188.71 483.355C1195.94 483.355 1201.82 489.239 1201.82 496.472C1201.82 503.705 1195.94 509.589 1188.71 509.589Z" fill="#141414"/>
<path fill-rule="evenodd" clip-rule="evenodd" d="M1226.55 487.355C1221.53 487.355 1217.43 491.445 1217.43 496.472C1217.43 501.5 1221.53 505.589 1226.55 505.589C1231.58 505.589 1235.67 501.5 1235.67 496.472C1235.67 491.445 1231.58 487.355 1226.55 487.355ZM1226.55 509.589C1219.32 509.589 1213.43 503.705 1213.43 496.472C1213.43 489.239 1219.32 483.355 1226.55 483.355C1233.79 483.355 1239.67 489.239 1239.67 496.472C1239.67 503.705 1233.79 509.589 1226.55 509.589Z" fill="#141414"/>
<path fill-rule="evenodd" clip-rule="evenodd" d="M1161.98 496.472C1161.98 502.612 1157 507.589 1150.86 507.589C1144.72 507.589 1139.74 502.612 1139.74 496.472C1139.74 490.332 1144.72 485.355 1150.86 485.355C1157 485.355 1161.98 490.332 1161.98 496.472Z" fill="#FF4B33"/>
<path fill-rule="evenodd" clip-rule="evenodd" d="M1150.86 487.355C1145.83 487.355 1141.74 491.445 1141.74 496.472C1141.74 501.5 1145.83 505.589 1150.86 505.589C1155.89 505.589 1159.98 501.5 1159.98 496.472C1159.98 491.445 1155.89 487.355 1150.86 487.355ZM1150.86 509.589C1143.63 509.589 1137.74 503.705 1137.74 496.472C1137.74 489.239 1143.63 483.355 1150.86 483.355C1158.09 483.355 1163.98 489.239 1163.98 496.472C1163.98 503.705 1158.09 509.589 1150.86 509.589Z" fill="#141414"/>
<path fill-rule="evenodd" clip-rule="evenodd" d="M1476.7 682.349C1476.7 718.439 1447.44 747.697 1411.35 747.697C1375.26 747.697 1346 718.439 1346 682.349C1346 646.258 1375.26 617 1411.35 617C1447.44 617 1476.7 646.258 1476.7 682.349Z" fill="#13D6C3"/>
<path fill-rule="evenodd" clip-rule="evenodd" d="M1388.85 682.349V652.908L1414.35 667.628L1439.85 682.349L1414.35 697.069L1388.85 711.789V682.349Z" fill="white"/>
<path fill-rule="evenodd" clip-rule="evenodd" d="M151.073 1214.46C151.073 1214.46 136.605 1186.43 165.609 1142.23C227.021 1048.65 127.705 1093.79 105.735 1029.88C87.8209 977.77 117.646 925.122 87.6969 911.173C38.6729 888.341 -12.4312 854.682 20.3939 816.599C43.4259 789.877 122.766 792.287 153.876 874.52C173.343 925.979 250.053 891.651 318.113 973.173C338.383 997.451 382.896 1100.2 359.538 1214.46H151.073Z" fill="#141414"/>
<path fill-rule="evenodd" clip-rule="evenodd" d="M232.4 1214.46C232.4 1214.46 199.267 1173.4 215.337 1128.37C228.299 1092.04 263.08 1082.1 264.246 1051.51C265.715 1012.92 227.005 1018.23 220.88 970.592C216.121 933.573 238.764 899.527 237.274 879.838C235.019 850.051 184.108 834.593 166.627 789.798C144.463 733.004 213.465 720.031 244.2 739.237C282.779 763.346 284.083 799.317 300.995 820.966C320.202 845.554 380.325 851.075 388.957 911.698C394.431 950.147 371.978 983.555 382.56 1016.11C390.421 1040.29 437.35 1050.96 447.227 1104.39C457.858 1161.91 414.981 1214.46 414.981 1214.46H232.4Z" fill="#FFB500"/>
<path fill-rule="evenodd" clip-rule="evenodd" d="M328.477 1214.46H332.526C333.979 1205.07 346.717 1116.36 327.897 1010.71C311.689 919.713 262.569 834.649 222.005 785.383C221.303 784.53 220.044 784.408 219.19 785.11C218.337 785.812 218.215 787.073 218.917 787.926C241.131 814.905 263.129 849.415 280.859 885.099C301.869 927.382 316.772 971.059 323.959 1011.41C343.272 1119.83 329.159 1210.24 328.477 1214.46Z" fill="#070707"/>
<path fill-rule="evenodd" clip-rule="evenodd" d="M1672.07 1248C1672.07 1248 1568.79 1186.11 1589.83 1074.11C1602.38 1007.26 1644.96 1010.54 1669.61 959.925C1685.34 927.623 1661.44 840.932 1710.5 783.904C1756.32 730.629 1831.26 735.458 1855.39 723.885C1887.74 708.375 1900.06 675.791 1909.3 649.03C1943.78 549.257 2023.44 551.951 2036.41 601.589C2052.04 661.434 2037.08 697.502 1963.52 756.151C1908.26 800.22 1989.17 849.663 1941.04 929.903C1914.15 974.739 1841.82 998.043 1877.15 1056.02C1925.53 1135.41 1916.44 1213.45 1891.78 1248H1672.07Z" fill="#FF4B33"/>
<path fill-rule="evenodd" clip-rule="evenodd" d="M1973.41 652.575C1972.62 651.801 1971.36 651.808 1970.59 652.595C1970.33 652.858 1944.24 679.467 1910.28 725.474C1878.95 767.923 1834.28 836.077 1799.41 919.699C1768.43 993.984 1734.12 1098.41 1743.61 1248H1747.6C1738.11 1099.1 1772.26 995.165 1803.09 921.238C1869.51 761.957 1972.39 656.447 1973.43 655.399C1974.2 654.615 1974.19 653.349 1973.41 652.575Z" fill="white"/>
<path fill-rule="evenodd" clip-rule="evenodd" d="M2041.73 882C2035.49 882 2029.13 887.164 2029.13 893.42C2029.13 894.461 2029.28 895.463 2029.55 896.421C1976.7 922.402 1929.57 956.051 1889.32 996.561C1855.08 1031.03 1825.72 1070.51 1802.06 1113.9C1781.01 1152.5 1768.46 1187.13 1761.64 1209.38C1755.26 1230.18 1752.55 1244.38 1751.91 1248H1755.97C1756.77 1243.6 1759.47 1230.05 1765.45 1210.55C1772.22 1188.48 1784.67 1154.13 1805.56 1115.82C1829.04 1072.76 1858.18 1033.58 1892.15 999.384C1932.07 959.197 1978.83 925.812 2031.27 900.029C2033.32 902.883 2036.66 904.748 2040.43 904.748C2046.68 904.748 2051.91 900.764 2051.91 894.508C2051.91 888.253 2047.97 882 2041.73 882Z" fill="#141414"/>
<path fill-rule="evenodd" clip-rule="evenodd" d="M2108.34 1010.95C2102.08 1010.95 2095.71 1016.12 2095.71 1022.37V1022.38C2076.34 1025.85 2043.65 1033.1 1984.23 1054.98C1905.15 1084.09 1850.49 1134.93 1818.56 1172.45C1783.96 1213.1 1767.82 1247.39 1767.66 1247.73C1767.62 1247.82 1767.59 1247.91 1767.56 1248H1771.98C1775.35 1241.21 1791.34 1210.58 1821.7 1174.93C1853.31 1137.82 1907.4 1087.53 1985.62 1058.73C2044.73 1036.97 2077.2 1029.76 2096.43 1026.31C2098.03 1030.62 2102.17 1033.7 2107.04 1033.7C2113.29 1033.7 2118.54 1029.72 2118.54 1023.46C2118.54 1017.21 2114.59 1010.95 2108.34 1010.95Z" fill="#141414"/>
<path fill-rule="evenodd" clip-rule="evenodd" d="M0 1216.43C0 1215.33 0.8954 1214.43 2 1214.43H2042C2043.1 1214.43 2044 1215.33 2044 1216.43C2044 1217.53 2043.1 1218.43 2042 1218.43H2C0.8954 1218.43 0 1217.53 0 1216.43Z" fill="#141414"/>
<path fill-rule="evenodd" clip-rule="evenodd" d="M1502.93 1243.54L1494.85 1298.72L1415.49 1306.92L1427.79 1250.07L1502.93 1243.54Z" fill="white"/>
<path fill-rule="evenodd" clip-rule="evenodd" d="M1415.23 1308.92L1495.25 1301.06C1496.22 1300.97 1497 1300.22 1497.14 1299.25L1505.31 1243.43C1505.48 1242.27 1504.68 1241.19 1503.52 1241.02C1502.35 1240.86 1501.27 1241.66 1501.1 1242.82L1493.18 1296.99L1417.74 1304.4L1429.77 1250.62C1430.03 1249.48 1429.31 1248.34 1428.16 1248.08C1427.01 1247.82 1425.88 1248.55 1425.62 1249.69L1412.95 1306.34C1412.8 1307 1412.98 1307.7 1413.43 1308.21C1413.83 1308.67 1414.41 1308.93 1415.02 1308.93C1415.09 1308.93 1415.16 1308.93 1415.23 1308.92Z" fill="#141414"/>
<path fill-rule="evenodd" clip-rule="evenodd" d="M1498.45 1292.25C1498.19 1291.23 1497.19 1290.59 1496.15 1290.77C1495.17 1290.95 1493.93 1291.19 1492.46 1291.47C1483.48 1293.2 1464.79 1296.8 1447.08 1296.81H1447.03C1436.6 1296.81 1427.42 1293.96 1421.2 1288.77C1420.7 1288.36 1420.04 1288.22 1419.41 1288.38C1389.02 1296.29 1367.05 1302.01 1350.78 1312.86C1347.92 1314.77 1337.6 1323.1 1339.38 1328.99C1340.21 1331.71 1343.15 1333.09 1348.12 1333.09C1366.26 1333.09 1405.35 1333.19 1439.84 1333.28C1467.75 1333.36 1491.85 1333.42 1500.92 1333.42C1501.88 1333.42 1502.75 1332.99 1503.36 1332.2C1506.93 1327.6 1501.11 1302.73 1498.45 1292.25Z" fill="#6366F1"/>
<path fill-rule="evenodd" clip-rule="evenodd" d="M1500.56 1342.23H1343.72C1341.11 1342.23 1339 1340.12 1339 1337.51V1335.95C1339 1333.34 1341.11 1331.23 1343.72 1331.23H1500.56C1503.16 1331.23 1505.28 1333.34 1505.28 1335.95V1337.51C1505.28 1340.12 1503.16 1342.23 1500.56 1342.23Z" fill="#141414"/>
<path fill-rule="evenodd" clip-rule="evenodd" d="M1388.26 1307.22C1387.47 1307.22 1386.7 1306.77 1386.34 1306C1383 1299 1376.59 1300.71 1375.87 1300.93C1374.75 1301.27 1373.56 1300.65 1373.22 1299.53C1372.87 1298.41 1373.48 1297.23 1374.6 1296.87C1378.23 1295.72 1386.17 1295.76 1390.18 1304.18C1390.69 1305.24 1390.24 1306.5 1389.17 1307.01C1388.88 1307.15 1388.57 1307.22 1388.26 1307.22Z" fill="#141414"/>
<path fill-rule="evenodd" clip-rule="evenodd" d="M1407.04 1302.09C1406.25 1302.09 1405.48 1301.65 1405.12 1300.88C1401.78 1293.87 1395.37 1295.59 1394.65 1295.81C1393.53 1296.15 1392.34 1295.52 1392 1294.41C1391.65 1293.29 1392.27 1292.1 1393.38 1291.75C1397.02 1290.6 1404.96 1290.64 1408.96 1299.05C1409.47 1300.11 1409.02 1301.38 1407.95 1301.89C1407.66 1302.03 1407.35 1302.09 1407.04 1302.09Z" fill="#141414"/>
<path fill-rule="evenodd" clip-rule="evenodd" d="M1645.36 1243.4L1647.74 1299.15L1717.64 1305.14L1716.57 1249.16L1645.36 1243.4Z" fill="white"/>
<path fill-rule="evenodd" clip-rule="evenodd" d="M1717.8 1307.26C1718.34 1307.26 1718.86 1307.06 1719.25 1306.68C1719.69 1306.27 1719.94 1305.7 1719.93 1305.09L1718.91 1249.09C1718.88 1247.92 1717.88 1246.98 1716.74 1247.01C1715.57 1247.03 1714.63 1248 1714.65 1249.17L1715.63 1302.82L1649.79 1297.31L1647.44 1243.04C1647.39 1241.86 1646.4 1240.95 1645.22 1241C1644.05 1241.05 1643.14 1242.05 1643.19 1243.22L1645.62 1299.36C1645.66 1300.43 1646.5 1301.3 1647.57 1301.39L1717.62 1307.25C1717.68 1307.26 1717.74 1307.26 1717.8 1307.26Z" fill="#141414"/>
<path fill-rule="evenodd" clip-rule="evenodd" d="M1642.89 1292.57C1643.15 1291.56 1644.15 1290.91 1645.18 1291.1C1646.17 1291.27 1647.41 1291.51 1648.88 1291.8C1657.86 1293.52 1676.55 1297.12 1694.26 1297.14H1694.3C1704.74 1297.14 1713.91 1294.28 1720.14 1289.1C1720.63 1288.68 1721.3 1288.54 1721.92 1288.7C1752.32 1296.61 1774.28 1302.33 1790.56 1313.19C1793.42 1315.09 1803.74 1323.42 1801.95 1329.31C1801.13 1332.04 1798.19 1333.42 1793.22 1333.42C1775.07 1333.42 1735.98 1333.52 1701.49 1333.61C1673.59 1333.68 1649.49 1333.74 1640.41 1333.74C1639.46 1333.74 1638.59 1333.31 1637.98 1332.52C1634.4 1327.92 1640.22 1303.05 1642.89 1292.57Z" fill="#6366F1"/>
<path fill-rule="evenodd" clip-rule="evenodd" d="M1640.78 1342.55H1797.62C1800.22 1342.55 1802.34 1340.44 1802.34 1337.83V1336.27C1802.34 1333.67 1800.22 1331.55 1797.62 1331.55H1640.78C1638.17 1331.55 1636.06 1333.67 1636.06 1336.27V1337.83C1636.06 1340.44 1638.17 1342.55 1640.78 1342.55Z" fill="#141414"/>
<path fill-rule="evenodd" clip-rule="evenodd" d="M1753.07 1307.54C1753.87 1307.54 1754.63 1307.09 1755 1306.33C1758.33 1299.32 1764.74 1301.03 1765.46 1301.26C1766.58 1301.59 1767.77 1300.97 1768.12 1299.85C1768.47 1298.74 1767.85 1297.55 1766.74 1297.2C1763.1 1296.04 1755.16 1296.08 1751.16 1304.5C1750.65 1305.56 1751.1 1306.83 1752.16 1307.33C1752.46 1307.47 1752.77 1307.54 1753.07 1307.54Z" fill="#141414"/>
<path fill-rule="evenodd" clip-rule="evenodd" d="M1734.29 1302.42C1735.09 1302.42 1735.85 1301.97 1736.21 1301.21C1739.55 1294.2 1745.96 1295.91 1746.68 1296.13C1747.8 1296.47 1748.99 1295.85 1749.34 1294.73C1749.69 1293.61 1749.07 1292.43 1747.96 1292.07C1744.32 1290.92 1736.38 1290.96 1732.38 1299.38C1731.87 1300.44 1732.32 1301.71 1733.38 1302.21C1733.68 1302.35 1733.99 1302.42 1734.29 1302.42Z" fill="#141414"/>
<path fill-rule="evenodd" clip-rule="evenodd" d="M1738.06 614.949L1790.34 1274.09C1738.8 1278.31 1684 1277.7 1627.18 1274.09C1627.18 1274.09 1618.17 723.164 1613.23 722.605C1603.97 721.561 1558.48 1274.09 1558.48 1274.09C1507.08 1282.42 1456.66 1279.88 1406.53 1274.09C1406.53 1274.09 1444.68 785.983 1509.97 612.486C1613.17 617.072 1738.06 614.949 1738.06 614.949Z" fill="#0B379B"/>
<path fill-rule="evenodd" clip-rule="evenodd" d="M1681.04 636.432C1682.26 635.797 1683.77 636.275 1684.41 637.501C1700.98 669.464 1736.75 666.441 1738.31 666.29C1739.69 666.156 1740.91 667.161 1741.04 668.535C1741.18 669.909 1740.17 671.132 1738.8 671.267C1738.73 671.274 1737.49 671.383 1735.39 671.383C1725.24 671.383 1695.02 668.828 1679.97 639.802C1679.33 638.577 1679.81 637.068 1681.04 636.432Z" fill="white"/>
<path fill-rule="evenodd" clip-rule="evenodd" d="M1497.51 661.581C1498.98 661.727 1533.69 664.775 1549.77 632.792C1550.39 631.565 1551.85 631.088 1553.04 631.723C1554.22 632.358 1554.69 633.867 1554.07 635.093C1539.48 664.122 1510.18 666.674 1500.34 666.674C1498.31 666.674 1497.1 666.564 1497.04 666.558C1495.7 666.423 1494.73 665.201 1494.86 663.828C1494.99 662.455 1496.18 661.45 1497.51 661.581Z" fill="white"/>
<path fill-rule="evenodd" clip-rule="evenodd" d="M1739 615.826C1740.39 604.53 1750.62 530.109 1753 488.017C1769.96 491.594 1772.31 414.421 1750.37 364.994C1715.43 286.254 1595.46 310.872 1595.46 310.872C1595.46 310.872 1559.62 309.194 1524.24 338.151C1508.42 351.095 1491.01 379.999 1482.34 411.736C1485.05 420.513 1513.72 459.858 1524.17 466.552C1508.02 545.029 1495.23 615.826 1495.23 615.826C1495.23 615.826 1703.52 619.079 1739 615.826Z" fill="#6366F1"/>
<path fill-rule="evenodd" clip-rule="evenodd" d="M1497.6 614.903C1499.88 601.892 1511.73 536.895 1526.13 466.955C1526.3 466.144 1525.95 465.314 1525.25 464.868C1515.15 458.4 1487.88 420.787 1484.43 411.67C1492.65 381.98 1509.11 353.115 1525.5 339.699C1559.83 311.608 1595.02 312.85 1595.37 312.87C1595.54 312.874 1595.7 312.864 1595.86 312.831C1596.16 312.771 1626.03 306.773 1659.69 310.404C1679.36 312.526 1696.46 317.47 1710.51 325.101C1727.97 334.578 1740.76 348.273 1748.54 365.806C1757.07 385.021 1762.71 410.677 1764 436.196C1765.16 458.958 1762.57 477.788 1757.4 484.167C1755.71 486.26 1754.31 486.253 1753.41 486.06C1752.84 485.941 1752.24 486.075 1751.78 486.428C1751.32 486.783 1751.03 487.321 1751 487.904C1748.94 524.254 1740.48 582.598 1737.29 607.196C1736.94 609.904 1736.66 612.102 1736.46 613.692C1699.56 616.404 1520.07 615.64 1497.6 614.903ZM1738.42 617.544C1739.36 617.458 1740.11 616.731 1740.22 615.796C1740.41 614.277 1740.77 611.494 1741.26 607.71C1744.39 583.508 1752.63 526.931 1754.88 490.096C1756.61 489.91 1758.61 489.039 1760.51 486.683C1766.35 479.472 1769.22 460.049 1768 435.994C1766.68 410.003 1760.92 383.829 1752.2 364.183C1737.6 331.298 1705.73 311.323 1660.02 306.417C1627.38 302.911 1598.26 308.291 1595.3 308.865C1591.76 308.743 1557.39 308.436 1522.97 336.603C1505.88 350.593 1488.78 380.574 1480.41 411.209C1480.31 411.576 1480.32 411.963 1480.43 412.326C1483.02 420.694 1510.14 458.536 1521.95 467.435C1506.1 544.571 1493.39 615.75 1493.26 616.484C1493.16 617.054 1493.31 617.639 1493.68 618.088C1494.04 618.536 1494.59 618.805 1495.16 618.825C1502 619.054 1632.9 618.425 1701.91 618.425C1718.56 618.425 1731.58 618.171 1738.42 617.544Z" fill="#141414"/>
<path fill-rule="evenodd" clip-rule="evenodd" d="M1644.87 280.125C1644.87 280.125 1646.23 314.563 1660.46 319.481C1664.33 338.837 1638.09 352.054 1618.15 351.118C1579.55 349.306 1591.57 317.755 1594.22 317.669C1594.14 313.714 1592.01 284.132 1592.01 284.132L1644.87 280.125Z" fill="white"/>
<path fill-rule="evenodd" clip-rule="evenodd" d="M1658.56 321.004C1659.25 326.066 1657.68 330.863 1653.88 335.279C1646.51 343.85 1631.53 349.627 1618.25 348.994C1604.99 348.371 1596.46 343.955 1593.59 336.224C1590.9 328.963 1593.86 321.089 1595.06 319.624C1595.83 319.292 1596.37 318.518 1596.35 317.628C1596.28 314.242 1594.78 292.983 1594.29 286.092L1642.88 282.409C1643.44 290.109 1646.22 315.257 1658.56 321.004ZM1620.18 353.292C1634.11 353.292 1649.35 347.072 1657.11 338.052C1662.01 332.354 1663.89 325.787 1662.54 319.065C1662.39 318.324 1661.86 317.718 1661.15 317.472C1650.62 313.831 1647.36 289.217 1646.99 280.041C1646.97 279.464 1646.72 278.921 1646.28 278.537C1645.85 278.153 1645.28 277.966 1644.71 278.004L1591.85 282.011C1590.68 282.1 1589.81 283.116 1589.89 284.285C1589.91 284.561 1591.76 310.219 1592.06 316.669C1589.74 319.164 1588.27 325.279 1588.24 329.61C1588.2 335.678 1590.28 340.973 1594.26 344.922C1599.32 349.94 1607.33 352.739 1618.06 353.243C1618.76 353.275 1619.47 353.292 1620.18 353.292Z" fill="#141414"/>
<path fill-rule="evenodd" clip-rule="evenodd" d="M1633.38 376.074L1595.92 377.71L1594.34 437.379L1616.99 437.27L1617.62 486.074L1649.82 412.127L1625.69 412.809L1633.38 376.074Z" fill="#FFC81A"/>
<path fill-rule="evenodd" clip-rule="evenodd" d="M1482.42 411.429L1537.28 419.117L1531.22 454.522C1531.22 454.522 1610.17 446.875 1637.29 437.897C1650.94 433.378 1668.58 438.409 1675.5 452.613C1679.15 460.127 1676.8 479.679 1676.8 479.679C1676.8 479.679 1651.37 479.332 1644.1 479.332C1643.36 479.332 1642.4 479.582 1641.25 480.03L1677.76 480.42L1679.59 427.724L1765.53 428.81C1765.53 428.81 1781.86 542.305 1716.54 559.974C1657.02 576.074 1585.11 521.585 1579.48 517.229C1551.56 531.766 1518.36 543.168 1487.09 535.187C1447.55 525.094 1480.8 415.905 1482.42 411.429Z" fill="white"/>
<path fill-rule="evenodd" clip-rule="evenodd" d="M1475.19 522.906C1478.15 528.491 1482.2 531.873 1487.59 533.248C1535.92 545.586 1588.46 511.12 1619.86 490.529C1630.24 483.718 1636.6 479.619 1640.79 478.061C1640.8 478.049 1640.81 478.036 1640.82 478.024L1640.89 478.025C1642.13 477.569 1643.2 477.331 1644.1 477.331C1650.16 477.331 1669.04 477.574 1675 477.654C1675.61 471.356 1676.21 458.658 1673.7 453.488C1668.44 442.678 1653.62 434.599 1637.92 439.795C1610.98 448.715 1535.09 456.156 1531.45 456.509L1518.39 458.251C1518.3 458.263 1518.21 458.268 1518.12 458.268C1517.13 458.268 1516.27 457.537 1516.14 456.533C1515.99 455.438 1516.76 454.431 1517.86 454.285L1529.5 452.733L1534.96 420.81L1483.8 413.641C1482.08 419.133 1476.88 437.224 1473.31 457.936C1468.09 488.264 1468.74 510.73 1475.19 522.906ZM1693.39 560.916C1701.03 560.916 1708.63 560.04 1716.02 558.044C1742.24 550.951 1758.23 527.243 1763.54 487.579C1766.99 461.814 1764.55 437.324 1763.77 430.787L1681.52 429.747L1679.76 480.488C1679.72 481.574 1678.82 482.408 1677.74 482.419L1641.58 482.033C1637.47 483.764 1630.21 488.522 1622.05 493.873C1611.26 500.953 1598 509.641 1583.26 517.554C1595.62 526.621 1645.53 560.919 1693.39 560.916ZM1480.54 410.749C1480.86 409.86 1481.76 409.319 1482.7 409.447L1535.69 416.874L1542.35 383.891C1542.57 382.808 1543.63 382.105 1544.71 382.325C1545.79 382.544 1546.49 383.599 1546.27 384.682L1539.25 419.485L1533.64 452.27C1547.52 450.853 1612.83 443.887 1636.67 435.998C1643.86 433.614 1652.22 433.743 1659.59 436.347C1667.18 439.033 1673.24 444.132 1676.79 450.766L1677.58 427.975C1677.57 427.889 1677.56 427.805 1677.56 427.717L1678.26 387.016C1678.28 385.912 1679.15 385.012 1680.3 385.051C1681.4 385.07 1682.28 385.981 1682.26 387.085L1681.6 425.748L1765.56 426.809C1766.55 426.822 1767.38 427.55 1767.52 428.525C1767.56 428.811 1771.59 457.527 1767.52 488.031C1762.06 528.908 1744.61 554.452 1717.06 561.904C1709.31 564 1701.36 564.904 1693.42 564.904C1667.92 564.904 1642.46 555.6 1623.72 546.548C1601.38 535.758 1584.27 523.35 1579.33 519.624C1557.81 530.755 1533.38 539.852 1508.9 539.852C1501.44 539.852 1493.98 539.009 1486.6 537.124C1480.15 535.477 1475.12 531.323 1471.65 524.778C1454.49 492.38 1480.26 411.527 1480.54 410.749Z" fill="#141414"/>
<path fill-rule="evenodd" clip-rule="evenodd" d="M1578.17 231.613C1589.61 181.454 1622.21 177.833 1645.83 182.127C1664.66 185.549 1682.94 201.732 1680.8 233.039C1687.45 226.644 1696.9 230.54 1698.66 237.878C1700.72 246.445 1695.28 265.902 1681.33 263.439C1679.99 286.434 1660.98 320.121 1623.28 319.812C1582.21 319.476 1568.02 276.072 1578.17 231.613Z" fill="white"/>
<path fill-rule="evenodd" clip-rule="evenodd" d="M1683.38 261.437C1681.36 261.458 1679.77 261.475 1679.34 263.321C1672.21 333.435 1575.61 339.722 1577 259.61C1576.86 242.366 1581.14 221.387 1589.46 207.141C1598.67 208.786 1609.98 207.237 1620.98 202.873C1623.48 201.884 1626.24 203.097 1629.76 204.648C1634.78 206.853 1641.34 209.741 1650.92 207.956C1670.49 204.306 1671.06 215.055 1668.65 227.218C1664.96 245.919 1677.71 240.113 1681.67 234.836C1684.3 232.467 1687.48 231.115 1690.75 232.15C1701.12 235.849 1697.38 250.829 1691.29 258.166C1688.85 261.38 1685.8 261.412 1683.38 261.437ZM1577.62 174.305C1565.18 177.097 1566.88 193.291 1577.17 201.954C1572.1 210.457 1568.94 235.671 1573.83 244.936C1571 268.903 1575.52 290.567 1586.63 304.612C1612.53 337.344 1664.45 319.043 1676.9 287.163C1688.93 283.155 1713.68 255.936 1700.33 208.283C1701.15 207.524 1703.58 207.808 1705.95 208.085C1709.14 208.457 1712.22 208.816 1711.1 206.605C1710.66 205.741 1705.34 204.305 1701.77 203.342C1700.77 203.073 1699.91 202.84 1699.33 202.668C1699.28 202.56 1699.39 201.471 1699.55 199.908C1700.24 193.173 1701.82 177.631 1695.73 193.833C1684.77 177.586 1675.58 176.508 1667.67 175.581C1661.87 174.901 1656.75 174.301 1652.13 167.873C1638.68 149.143 1622.62 147.051 1615.38 156.47C1609.52 164.077 1607.86 164.998 1601.98 160.518C1586.85 148.977 1578.58 159.582 1577.62 174.305ZM1689.3 244.805C1689.72 242.228 1689.03 240.957 1687.96 240.782C1686.88 240.607 1685.43 241.295 1685.01 243.872C1684.59 246.449 1685.52 248.98 1686.59 249.155C1687.67 249.329 1688.88 247.382 1689.3 244.805Z" fill="#141414"/>
<path fill-rule="evenodd" clip-rule="evenodd" d="M1595.35 234.999C1598.28 234.174 1601.26 234.055 1604.23 234.812C1605 234.961 1605.74 234.46 1605.89 233.692C1606.06 231.448 1601.67 230.458 1599.92 230.129C1597.35 229.53 1588.09 230.98 1590.5 235.007C1591.46 235.984 1592.79 235.629 1594.05 235.291C1594.5 235.172 1594.94 235.055 1595.35 234.999ZM1587.25 249.409C1583.97 247.386 1589.25 243.159 1591.07 242.473C1596.9 239.656 1604.37 242.041 1607.65 247.526C1608.11 248.229 1608.02 249.187 1607.39 249.788C1606.64 250.497 1605.45 250.412 1604.8 249.628C1603.7 248.471 1602.54 247.478 1601.24 246.782C1597.64 244.836 1592.16 245.52 1589.52 248.597C1589.04 249.347 1588.13 249.789 1587.25 249.409ZM1613.12 262.743C1602.21 267.313 1606 279.074 1617.41 278.178C1620 278.158 1620.01 274.217 1617.42 274.178C1615.26 274.125 1612.02 273.843 1611.07 271.96C1609.92 269.058 1612.84 267.132 1615.38 266.119C1616.48 265.606 1616.86 264.181 1617.02 263.337C1617.84 258.281 1617.71 253.236 1617.59 248.167L1617.58 247.744C1617.55 246 1614.85 245.979 1614.76 247.691C1614.63 249.058 1614.53 250.435 1614.43 251.816C1614.16 255.493 1613.89 259.19 1613.12 262.743ZM1635.97 253.967C1636.66 253.172 1637.63 252.636 1638.77 252.466C1642.72 251.916 1645.94 255.419 1647.21 258.927C1647.55 259.876 1648.61 260.365 1649.55 259.987C1651.81 258.815 1649.97 255.896 1648.74 253.958C1648.53 253.621 1648.33 253.313 1648.18 253.05C1645.97 250.018 1642.25 247.859 1638.32 248.23C1636.31 248.401 1634.25 249.286 1632.75 250.822C1630.7 252.937 1633.91 256.064 1635.97 253.967ZM1642.62 238.845C1641.43 238.869 1640.22 238.893 1639.71 237.807C1638.93 234.736 1646.48 235 1648.37 235.2C1650.76 235.569 1656.25 236.517 1656.34 239.591C1656.2 240.604 1655.28 241.318 1654.26 241.187C1652.76 240.971 1651.28 240.556 1649.79 240.14C1648.02 239.643 1646.24 239.146 1644.41 238.986C1643.9 238.82 1643.26 238.833 1642.62 238.845ZM1607.94 283.087C1603.99 282.538 1598.22 281.738 1597.17 283.54C1593.84 290.535 1600.08 298.438 1606.35 301.274C1616.23 305.816 1635.61 301.469 1633.53 287.705C1633.57 287.265 1632.95 286.54 1632.44 286.547C1631.59 286.42 1630.74 286.291 1629.89 286.162C1623.65 285.221 1617.19 284.248 1611.01 283.445C1610.33 283.419 1609.23 283.266 1607.94 283.087Z" fill="#141414"/>
<path fill-rule="evenodd" clip-rule="evenodd" d="M1595.24 257.17C1596.74 257.183 1596.72 259.506 1595.22 259.493C1593.72 259.481 1593.74 257.157 1595.24 257.17ZM1635.48 263.512C1637.5 264.452 1636.04 267.586 1634.02 266.644C1632.01 265.704 1633.46 262.571 1635.48 263.512ZM1642.83 266.048C1644.31 266.737 1643.24 269.035 1641.76 268.345C1640.28 267.655 1641.35 265.358 1642.83 266.048ZM1638.62 273.173C1641.06 274.312 1639.3 278.108 1636.85 276.967C1634.41 275.828 1636.18 272.033 1638.62 273.173ZM1646.33 274.31C1647.67 271.101 1651.97 276.13 1648.07 276.789C1646.47 277.376 1645.49 275.58 1646.33 274.31ZM1595.91 264.726C1598.38 264.747 1598.35 268.583 1595.88 268.563C1593.4 268.542 1593.44 264.705 1595.91 264.726ZM1589.08 262.626C1589.28 264.008 1587.76 265.107 1586.66 263.989C1583.7 261.908 1589.24 259.441 1589.08 262.626ZM1602.32 257.97C1604.36 257.988 1604.33 261.156 1602.29 261.138C1600.25 261.12 1600.28 257.952 1602.32 257.97Z" fill="#FF4B33"/>
<path fill-rule="evenodd" clip-rule="evenodd" d="M353.706 1021.76L284.685 1269.15H314.234L415.198 1021.76H353.706Z" fill="#FF4B33"/>
<path fill-rule="evenodd" clip-rule="evenodd" d="M637.163 1021.76L748.972 1269.59H767.869L700.153 1021.76H637.163Z" fill="#FF4B33"/>
<path fill-rule="evenodd" clip-rule="evenodd" d="M702.159 1024.93H346.885C345.988 1024.93 345.187 1024.36 344.883 1023.52C343.954 1020.94 251.447 764.052 206.119 637.133C201.304 623.651 205.271 612.118 216.226 607.75C236.104 599.829 280.741 616.935 315.889 696.578L403.865 923.608H702.159C703.334 923.608 704.287 924.561 704.287 925.735V1022.8C704.287 1023.97 703.334 1024.93 702.159 1024.93Z" fill="#141414"/>
<path fill-rule="evenodd" clip-rule="evenodd" d="M348.381 1020.67H700.033V927.863H402.409C401.531 927.863 400.744 927.323 400.426 926.505L311.96 698.206C279.863 625.48 237.574 603.819 217.803 611.703C209.031 615.2 206.09 624.397 210.128 635.702C253.708 757.729 340.904 999.906 348.381 1020.67Z" fill="white"/>
<path fill-rule="evenodd" clip-rule="evenodd" d="M811.646 1163.84L848.667 1228.41L919.263 1220.66L887.409 1140.6" fill="white"/>
<path fill-rule="evenodd" clip-rule="evenodd" d="M848.665 1230.41C847.955 1230.41 847.29 1230.03 846.931 1229.41L809.91 1164.84C809.361 1163.88 809.692 1162.66 810.65 1162.11C811.609 1161.56 812.831 1161.89 813.381 1162.85L849.75 1226.28L916.434 1218.96L885.55 1141.34C885.142 1140.31 885.643 1139.15 886.669 1138.74C887.694 1138.33 888.859 1138.83 889.267 1139.86L921.121 1219.93C921.352 1220.51 921.299 1221.16 920.977 1221.69C920.655 1222.23 920.102 1222.58 919.48 1222.65L848.884 1230.4C848.811 1230.41 848.738 1230.41 848.665 1230.41Z" fill="#141414"/>
<path fill-rule="evenodd" clip-rule="evenodd" d="M837.419 1221.06C837.582 1220.02 838.518 1219.29 839.564 1219.38C840.56 1219.46 841.82 1219.59 843.307 1219.73C852.409 1220.62 871.351 1222.48 888.987 1220.85C889.003 1220.85 889.017 1220.85 889.032 1220.85C899.421 1219.88 908.293 1216.19 914.017 1210.46C914.471 1210 915.117 1209.79 915.755 1209.9C946.754 1214.97 969.15 1218.63 986.361 1227.93C989.386 1229.57 1000.43 1236.91 999.195 1242.94C998.625 1245.73 995.827 1247.37 990.879 1247.83C972.812 1249.51 933.898 1253.22 899.565 1256.5C871.784 1259.15 847.793 1261.44 838.758 1262.28C837.804 1262.37 836.901 1262.02 836.218 1261.29C832.235 1257.04 835.731 1231.74 837.419 1221.06Z" fill="#F45648"/>
<path fill-rule="evenodd" clip-rule="evenodd" d="M839.936 1271.02L996.101 1256.52C998.697 1256.28 1000.6 1253.98 1000.36 1251.39L1000.22 1249.83C999.979 1247.24 997.68 1245.33 995.084 1245.57L838.919 1260.07C836.325 1260.31 834.415 1262.61 834.657 1265.2L834.801 1266.75C835.041 1269.35 837.341 1271.26 839.936 1271.02Z" fill="#141414"/>
<path fill-rule="evenodd" clip-rule="evenodd" d="M948.514 1225.78C949.305 1225.71 950.023 1225.19 950.315 1224.39C952.99 1217.11 959.532 1218.22 960.269 1218.38C961.414 1218.61 962.541 1217.88 962.785 1216.73C963.026 1215.59 962.305 1214.47 961.162 1214.22C957.435 1213.4 949.535 1214.18 946.323 1222.93C945.917 1224.03 946.483 1225.25 947.585 1225.66C947.892 1225.77 948.208 1225.81 948.514 1225.78Z" fill="#141414"/>
<path fill-rule="evenodd" clip-rule="evenodd" d="M929.34 1222.41C930.131 1222.34 930.848 1221.82 931.14 1221.03C933.816 1213.74 940.359 1214.86 941.095 1215.01C942.24 1215.25 943.367 1214.51 943.61 1213.37C943.852 1212.23 943.129 1211.1 941.986 1210.85C938.257 1210.04 930.359 1210.82 927.149 1219.56C926.743 1220.67 927.309 1221.89 928.412 1222.29C928.719 1222.4 929.034 1222.44 929.34 1222.41Z" fill="#141414"/>
<path fill-rule="evenodd" clip-rule="evenodd" d="M613.991 808.817C613.991 808.817 767.327 790.339 811.901 863.192C847.669 921.65 939.613 1132.52 936.721 1138.92C926.905 1160.66 834.771 1181.46 774.366 1175.19C774.366 1175.19 707.674 860.342 613.991 808.817Z" fill="#141414"/>
<g style="mix-blend-mode:overlay">
<path fill-rule="evenodd" clip-rule="evenodd" d="M771.956 991.645C772.997 991.266 774.141 991.804 774.519 992.841C775.456 995.417 776.42 998.077 777.411 1000.81L777.941 1002.27C778.317 1003.31 777.78 1004.45 776.742 1004.83C776.516 1004.91 776.287 1004.95 776.06 1004.95C775.242 1004.95 774.474 1004.45 774.179 1003.63C773.004 1000.39 771.862 997.24 770.759 994.208C770.382 993.17 770.917 992.023 771.956 991.645ZM796.869 1055.11C797.984 1058.27 799.1 1061.43 800.209 1064.58C800.575 1065.62 800.028 1066.77 798.986 1067.13C798.767 1067.21 798.543 1067.25 798.322 1067.25C797.497 1067.25 796.725 1066.73 796.436 1065.91C795.326 1062.76 794.213 1059.6 793.098 1056.45C792.73 1055.4 793.275 1054.26 794.316 1053.89C795.357 1053.52 796.501 1054.07 796.869 1055.11ZM804.187 1075.94C805.295 1079.12 806.394 1082.28 807.477 1085.41C807.838 1086.46 807.286 1087.6 806.242 1087.96C806.025 1088.03 805.804 1088.07 805.587 1088.07C804.758 1088.07 803.984 1087.55 803.698 1086.72C802.615 1083.59 801.518 1080.44 800.41 1077.26C800.046 1076.22 800.597 1075.08 801.64 1074.71C802.682 1074.35 803.823 1074.9 804.187 1075.94ZM814.621 1106.29C813.57 1103.19 812.493 1100.01 811.392 1096.8C811.034 1095.75 809.897 1095.19 808.851 1095.55C807.807 1095.91 807.249 1097.05 807.606 1098.09C808.706 1101.31 809.783 1104.47 810.832 1107.57C811.114 1108.41 811.892 1108.93 812.726 1108.93C812.938 1108.93 813.154 1108.9 813.367 1108.83C814.413 1108.47 814.975 1107.34 814.621 1106.29ZM821.577 1127.25C820.581 1124.19 819.534 1121 818.445 1117.71C818.098 1116.67 816.966 1116.1 815.918 1116.44C814.869 1116.79 814.301 1117.92 814.648 1118.97C815.735 1122.25 816.778 1125.43 817.772 1128.49C818.047 1129.34 818.831 1129.87 819.675 1129.87C819.879 1129.87 820.087 1129.84 820.293 1129.78C821.343 1129.43 821.918 1128.31 821.577 1127.25ZM831.929 1162.69C831.764 1161.9 831.57 1161.03 831.347 1160.1C831.09 1159.03 830.01 1158.37 828.937 1158.62C827.863 1158.88 827.2 1159.96 827.456 1161.03C827.669 1161.92 827.856 1162.75 828.013 1163.5C828.209 1164.45 829.041 1165.1 829.969 1165.1C830.104 1165.1 830.241 1165.08 830.378 1165.05C831.459 1164.83 832.154 1163.77 831.929 1162.69ZM828.161 1148.38C827.312 1145.49 826.328 1142.25 825.236 1138.75C824.907 1137.69 823.786 1137.11 822.732 1137.43C821.678 1137.76 821.089 1138.88 821.418 1139.94C822.503 1143.42 823.48 1146.64 824.323 1149.51C824.579 1150.38 825.377 1150.95 826.241 1150.95C826.428 1150.95 826.618 1150.92 826.806 1150.86C827.865 1150.55 828.473 1149.44 828.161 1148.38ZM789.486 1034.35C789.114 1033.31 787.965 1032.76 786.929 1033.14C785.889 1033.51 785.347 1034.65 785.718 1035.69C786.834 1038.81 787.958 1041.96 789.086 1045.13C789.377 1045.95 790.147 1046.46 790.969 1046.46C791.192 1046.46 791.419 1046.42 791.64 1046.35C792.68 1045.98 793.224 1044.83 792.853 1043.79C791.725 1040.62 790.601 1037.47 789.486 1034.35ZM779.471 1012.38C780.511 1012.01 781.657 1012.55 782.032 1013.59C783.145 1016.68 784.279 1019.82 785.428 1023.02C785.802 1024.06 785.261 1025.21 784.221 1025.58C783.999 1025.66 783.77 1025.7 783.546 1025.7C782.725 1025.7 781.957 1025.19 781.664 1024.37C780.515 1021.18 779.382 1018.03 778.268 1014.94C777.894 1013.91 778.432 1012.76 779.471 1012.38Z" fill="white"/>
</g>
<path fill-rule="evenodd" clip-rule="evenodd" d="M620.695 1178.53L614.255 1229.18L684.761 1235.05L700.87 1185.92" fill="white"/>
<path fill-rule="evenodd" clip-rule="evenodd" d="M684.761 1237.05C684.705 1237.05 684.65 1237.05 684.594 1237.04L614.087 1231.17C613.543 1231.13 613.042 1230.86 612.698 1230.44C612.356 1230.01 612.2 1229.47 612.269 1228.93L618.709 1178.28C618.849 1177.18 619.869 1176.41 620.946 1176.55C622.041 1176.69 622.817 1177.69 622.678 1178.78L616.5 1227.36L683.352 1232.93L698.968 1185.3C699.312 1184.25 700.439 1183.68 701.491 1184.02C702.541 1184.36 703.113 1185.49 702.769 1186.54L686.66 1235.67C686.39 1236.5 685.618 1237.05 684.761 1237.05Z" fill="#141414"/>
<path fill-rule="evenodd" clip-rule="evenodd" d="M611.371 1226.44C611.629 1225.42 612.629 1224.78 613.662 1224.96C614.645 1225.14 615.89 1225.38 617.355 1225.66C626.337 1227.39 645.026 1230.99 662.737 1231H662.782C673.216 1231 682.392 1228.15 688.62 1222.96C689.115 1222.55 689.777 1222.41 690.403 1222.57C720.801 1230.48 742.764 1236.2 759.04 1247.05C761.9 1248.96 772.217 1257.29 770.433 1263.18C769.607 1265.9 766.669 1267.28 761.699 1267.28C743.555 1267.28 704.464 1267.39 669.975 1267.48C642.068 1267.55 617.968 1267.61 608.894 1267.61C607.935 1267.61 607.07 1267.18 606.457 1266.39C602.884 1261.79 608.703 1236.92 611.371 1226.44Z" fill="#F45648"/>
<path fill-rule="evenodd" clip-rule="evenodd" d="M609.259 1276.42H766.095C768.701 1276.42 770.815 1274.31 770.815 1271.7V1270.14C770.815 1267.53 768.701 1265.42 766.095 1265.42H609.259C606.653 1265.42 604.539 1267.53 604.539 1270.14V1271.7C604.539 1274.31 606.653 1276.42 609.259 1276.42Z" fill="#141414"/>
<path fill-rule="evenodd" clip-rule="evenodd" d="M721.554 1241.41C722.349 1241.41 723.111 1240.96 723.475 1240.2C726.812 1233.19 733.223 1234.9 733.944 1235.12C735.062 1235.46 736.251 1234.84 736.599 1233.72C736.946 1232.6 736.331 1231.42 735.217 1231.06C731.581 1229.91 723.643 1229.95 719.635 1238.37C719.13 1239.43 719.58 1240.7 720.641 1241.2C720.936 1241.34 721.247 1241.41 721.554 1241.41Z" fill="#141414"/>
<path fill-rule="evenodd" clip-rule="evenodd" d="M702.773 1236.29C703.568 1236.29 704.331 1235.84 704.695 1235.07C708.032 1228.07 714.443 1229.78 715.163 1230C716.282 1230.34 717.471 1229.72 717.818 1228.6C718.165 1227.48 717.55 1226.3 716.436 1225.94C712.796 1224.79 704.86 1224.83 700.855 1233.25C700.35 1234.31 700.8 1235.57 701.861 1236.08C702.156 1236.22 702.466 1236.29 702.773 1236.29Z" fill="#141414"/>
<path fill-rule="evenodd" clip-rule="evenodd" d="M386.055 802.926C386.055 802.926 363.201 877.913 402.94 929.171C432.321 967.067 546.394 977.241 622.163 953.557C623.467 949.675 627.723 936.699 631.557 921.637C631.829 920.567 632.919 919.92 633.989 920.192C635.059 920.465 635.706 921.553 635.434 922.623C631.806 936.875 627.802 949.28 626.229 954.009L559.248 1164.13C607.687 1188.52 658.853 1203.16 725.552 1200C725.552 1200 746.809 1111.78 760.09 1031.79C774.472 945.171 825.8 804.926 653.888 804.926L386.055 802.926Z" fill="#0B379B"/>
<g style="mix-blend-mode:overlay">
<path fill-rule="evenodd" clip-rule="evenodd" d="M478.616 810.075C479.667 809.743 480.79 810.327 481.123 811.38C481.224 811.699 490.413 841.866 466.786 853.794C468.512 854.589 470.297 855.34 472.143 856.028C473.178 856.413 473.704 857.565 473.318 858.6C473.019 859.405 472.255 859.902 471.444 859.902C471.212 859.902 470.976 859.862 470.746 859.776C467.449 858.548 464.302 857.142 461.394 855.597C461.162 855.474 460.967 855.31 460.808 855.122C460.562 854.907 460.352 854.646 460.233 854.318C459.856 853.28 460.392 852.132 461.43 851.755C471.861 847.963 477.719 840.318 478.84 829.032C479.703 820.348 477.332 812.659 477.308 812.583C476.977 811.529 477.563 810.406 478.616 810.075ZM435.909 818.518C437.013 818.441 437.969 819.255 438.056 820.354C438.062 820.425 438.4 824.146 440.71 829.277C441.163 830.285 440.714 831.469 439.707 831.922C439.44 832.042 439.161 832.099 438.887 832.099C438.124 832.099 437.396 831.66 437.062 830.919C434.432 825.076 434.082 820.843 434.068 820.666C433.984 819.564 434.808 818.603 435.909 818.518ZM483.377 859.394C486.444 860.115 489.689 860.73 493.023 861.224C494.116 861.386 494.87 862.403 494.709 863.495C494.562 864.489 493.708 865.203 492.732 865.203C492.635 865.203 492.536 865.196 492.437 865.181C488.993 864.671 485.637 864.034 482.462 863.287C481.387 863.035 480.72 861.958 480.973 860.883C481.225 859.807 482.306 859.141 483.377 859.394ZM453.603 845.698C451.066 843.628 448.771 841.361 446.785 838.96C446.081 838.109 444.819 837.99 443.969 838.694C443.118 839.399 442.999 840.659 443.703 841.51C445.855 844.112 448.336 846.564 451.075 848.798C451.446 849.1 451.893 849.248 452.338 849.248C452.918 849.248 453.493 848.997 453.889 848.512C454.587 847.656 454.459 846.396 453.603 845.698ZM504.803 862.475C508.015 862.718 511.361 862.941 514.749 863.138C515.852 863.202 516.694 864.148 516.629 865.251C516.567 866.314 515.686 867.135 514.635 867.135C514.596 867.135 514.556 867.134 514.517 867.131C511.105 866.932 507.736 866.708 504.501 866.463C503.4 866.38 502.575 865.42 502.658 864.318C502.741 863.218 503.691 862.386 504.803 862.475ZM580.579 864.125C577.613 864.192 574.263 864.251 570.6 864.293C569.495 864.306 568.609 865.212 568.622 866.316C568.635 867.413 569.527 868.293 570.622 868.293H570.644C574.325 868.251 577.689 868.191 580.669 868.124C581.773 868.099 582.648 867.184 582.623 866.08C582.599 864.975 581.68 864.081 580.579 864.125ZM548.642 864.287C552.088 864.33 555.424 864.351 558.621 864.355C559.725 864.356 560.619 865.253 560.618 866.357C560.617 867.461 559.722 868.355 558.618 868.355H558.616C555.404 868.351 552.053 868.33 548.593 868.287C547.488 868.273 546.603 867.367 546.617 866.262C546.631 865.166 547.523 864.287 548.616 864.287H548.642ZM536.671 864.053C533.322 863.964 529.968 863.852 526.702 863.721C525.616 863.683 524.668 864.536 524.624 865.64C524.58 866.743 525.439 867.674 526.542 867.719C529.826 867.85 533.198 867.962 536.565 868.052C536.583 868.053 536.601 868.053 536.619 868.053C537.698 868.053 538.588 867.192 538.617 866.106C538.647 865.002 537.775 864.083 536.671 864.053ZM626.536 1062.85C625.465 1062.56 624.373 1063.2 624.087 1064.26C623.22 1067.5 622.351 1070.72 621.482 1073.93C621.194 1075 621.824 1076.1 622.89 1076.39C623.065 1076.43 623.241 1076.46 623.414 1076.46C624.296 1076.46 625.102 1075.87 625.344 1074.98C626.213 1071.77 627.083 1068.54 627.95 1065.3C628.236 1064.23 627.603 1063.13 626.536 1062.85ZM635.325 1021.62C635.601 1020.55 636.689 1019.91 637.763 1020.19C638.832 1020.47 639.474 1021.56 639.196 1022.63C638.365 1025.83 637.522 1029.07 636.668 1032.33C636.434 1033.23 635.623 1033.83 634.735 1033.83C634.568 1033.83 634.398 1033.8 634.228 1033.76C633.159 1033.48 632.52 1032.39 632.799 1031.32C633.651 1028.06 634.493 1024.82 635.325 1021.62ZM632.191 1041.53C631.126 1041.24 630.029 1041.88 629.748 1042.95C628.902 1046.17 628.048 1049.39 627.191 1052.62C626.907 1053.69 627.543 1054.79 628.61 1055.07C628.782 1055.11 628.955 1055.14 629.125 1055.14C630.009 1055.14 630.819 1054.55 631.056 1053.65C631.916 1050.42 632.769 1047.19 633.617 1043.97C633.897 1042.9 633.259 1041.81 632.191 1041.53ZM640.832 1000.27C641.107 999.205 642.199 998.56 643.266 998.834C644.336 999.108 644.982 1000.2 644.707 1001.27C643.894 1004.44 643.06 1007.68 642.21 1010.98C641.978 1011.88 641.165 1012.48 640.275 1012.48C640.11 1012.48 639.942 1012.46 639.775 1012.42C638.704 1012.14 638.061 1011.05 638.337 1009.98C639.187 1006.69 640.019 1003.45 640.832 1000.27ZM648.713 977.453C647.635 977.179 646.554 977.83 646.283 978.9C645.491 982.024 644.666 985.269 643.813 988.617C643.54 989.687 644.187 990.776 645.257 991.05C645.423 991.092 645.589 991.111 645.752 991.111C646.645 991.111 647.458 990.51 647.69 989.605C648.543 986.256 649.368 983.009 650.16 979.883C650.432 978.812 649.784 977.724 648.713 977.453ZM651.681 957.495C651.951 956.424 653.04 955.779 654.108 956.041C655.179 956.31 655.831 957.396 655.562 958.468C654.81 961.465 653.992 964.723 653.113 968.207C652.883 969.114 652.069 969.718 651.175 969.718C651.013 969.718 650.848 969.698 650.684 969.657C649.613 969.387 648.964 968.3 649.234 967.229C650.113 963.746 650.931 960.49 651.681 957.495ZM659.453 934.546C658.382 934.282 657.296 934.936 657.031 936.009C657.031 936.011 656.156 939.565 654.602 945.807C654.335 946.879 654.988 947.964 656.059 948.231C656.221 948.272 656.384 948.291 656.544 948.291C657.44 948.291 658.257 947.683 658.482 946.774C660.039 940.524 660.917 936.966 660.917 936.966C661.18 935.894 660.524 934.81 659.453 934.546ZM618.327 1085.53C618.618 1084.47 619.719 1083.84 620.784 1084.13C621.849 1084.43 622.476 1085.53 622.184 1086.59C621.293 1089.85 620.403 1093.07 619.519 1096.26C619.274 1097.15 618.47 1097.73 617.594 1097.73C617.417 1097.73 617.237 1097.7 617.058 1097.65C615.994 1097.36 615.37 1096.26 615.666 1095.19C616.548 1092.01 617.435 1088.79 618.327 1085.53ZM595.167 1168.58C594.151 1168.15 592.977 1168.62 592.545 1169.64C591.902 1171.15 591.313 1172.41 590.795 1173.38C590.273 1174.35 590.64 1175.56 591.613 1176.08C591.914 1176.25 592.237 1176.32 592.556 1176.32C593.27 1176.32 593.96 1175.94 594.32 1175.27C594.896 1174.19 595.538 1172.82 596.227 1171.2C596.658 1170.18 596.185 1169.01 595.167 1168.58ZM599.875 1149C600.213 1147.95 601.335 1147.37 602.39 1147.71C603.442 1148.05 604.022 1149.17 603.684 1150.22C602.563 1153.72 601.495 1156.94 600.51 1159.79C600.224 1160.62 599.449 1161.14 598.619 1161.14C598.404 1161.14 598.183 1161.11 597.967 1161.03C596.923 1160.67 596.369 1159.53 596.729 1158.49C597.704 1155.66 598.763 1152.47 599.875 1149ZM614.894 1105.39C613.832 1105.09 612.727 1105.71 612.426 1106.77C611.501 1110.05 610.586 1113.26 609.684 1116.4C609.378 1117.46 609.992 1118.57 611.054 1118.88C611.239 1118.93 611.424 1118.95 611.607 1118.95C612.476 1118.95 613.276 1118.38 613.528 1117.51C614.432 1114.36 615.349 1111.14 616.276 1107.86C616.576 1106.79 615.957 1105.69 614.894 1105.39ZM606.326 1127.94C606.638 1126.88 607.749 1126.28 608.81 1126.59C609.87 1126.9 610.475 1128.02 610.162 1129.08C609.179 1132.4 608.216 1135.62 607.279 1138.7C607.017 1139.56 606.224 1140.12 605.367 1140.12C605.173 1140.12 604.978 1140.09 604.784 1140.03C603.727 1139.71 603.131 1138.59 603.453 1137.54C604.386 1134.46 605.345 1131.26 606.326 1127.94Z" fill="white" fill-opacity="0.8"/>
</g>
<path fill-rule="evenodd" clip-rule="evenodd" d="M677.936 658.215C664.94 657.698 619.867 655.228 593.378 637.917C593.053 637.758 630.349 556.815 630.267 556.642L630.342 556.574C630.586 556.687 650.868 566.404 664.584 566.32C671.965 566.168 685.248 556.135 698.422 540.762C716.312 520.142 726.082 499.593 732.131 478.061C733.478 473.414 734.54 467.855 733.369 462.809C730.21 452.436 735.769 451.064 743.343 456.781C746.227 449.1 749.509 440.861 751.899 432.314C753.183 426.873 757.614 418.877 762.986 423.187C765.767 426.082 765.003 434.376 764.468 440.248C768.027 440.458 771.048 442.494 771.296 446.526C771.414 447.281 770.439 449.536 770.242 450.304C771.348 450.352 773.591 450.219 774.627 450.514C779.365 451.846 780.103 456.099 778.331 460.156C781.366 459.996 784.78 460.459 786.373 463.512C788.178 466.346 786.704 469.162 785.108 471.516C785.938 471.912 788.414 471.953 789.022 472.75C791.889 476.355 790.575 481.03 790.053 485.384C772.694 559.95 741.584 652.786 677.936 658.215Z" fill="white"/>
<path fill-rule="evenodd" clip-rule="evenodd" d="M784.264 468.438C781.45 471.46 776.316 475.63 772.402 473.13H772.4C769.62 469.07 776.377 463.191 780.22 462.504C783.123 461.905 786.425 465.536 784.264 468.438ZM763.162 464.184C760.038 459.155 769.337 451.494 774.076 452.674C776.165 453.162 777.728 455.484 776.8 457.507C775.188 460.438 766.289 467.016 763.162 464.184ZM757.431 451.004C756.64 448.3 759.124 445.758 759.631 445.274C763.115 441.813 768.516 441.449 769.048 446.71C769.148 447.927 765.205 452.091 760.942 452.881C758.475 453.337 757.795 452.25 757.431 451.004ZM792.257 474.562C791.926 472.895 790.322 470.501 788.22 470.177C791.355 465.292 786.653 458.042 781.024 458.211C782.489 453.258 778.041 448.103 773.006 448.327C774.232 443.873 770.843 439.205 766.618 438.592C767.224 431.574 767.439 425.08 764.455 421.834C759.418 417.418 753.016 420.639 749.969 431.779C747.882 439.281 744.872 447.085 742.358 453.721C739.273 451.409 733.215 449.849 731.088 454.319C729.067 459.609 732.917 464.846 731.73 470.267C726.653 495.009 716.189 516.77 696.901 539.462C684.134 554.359 671.029 564.391 664.329 564.324C654.828 564.286 642.273 559.541 635.721 556.758C634.482 556.231 633.078 556.975 632.806 558.294C632.602 559.289 633.124 560.287 634.058 560.686C640.953 563.626 654.23 568.629 664.582 568.575C686.183 567.789 727.087 513.127 734.275 478.717C735.736 473.555 736.755 467.751 735.503 462.384C735.146 460.538 734.144 457.74 734.833 456.107C735.125 455.573 735.397 455.594 736.074 455.57C741.665 456.353 745.389 462.135 746.748 467.266C747.957 471.859 747.66 476.887 746.785 481.768C746.589 482.854 747.31 483.895 748.397 484.092C750.953 484.459 750.882 481.398 751.163 479.636C760.79 481.757 761.427 494.741 760.503 497.511C760.211 498.754 761.229 499.982 762.501 499.94C765.534 500.615 766.467 488.666 760.363 480.891C757.917 477.818 754.304 476.323 751.532 475.586C751.933 468.955 750.25 461.862 745.767 456.732C748.547 449.357 751.744 441.239 754.068 432.916C755.69 427.324 758.308 422.821 761.324 424.713C763.381 426.952 762.698 434.688 762.326 438.863C757.779 440.403 751.782 444.801 753.35 452.198C754.281 455.381 756.622 457.157 759.772 457.216C756.219 463.266 760.54 471.111 767.936 468.48C766.917 471.416 767.46 474.299 769.442 476.186H769.441C770.832 477.535 772.744 478.218 774.946 478.163C773.736 482.554 778.545 486.511 782.613 484.849C784.456 484.317 783.893 481.382 781.956 481.605C779.4 481.966 778.22 480.028 779.499 478.147C780.919 476.081 784.395 474.3 787.02 474.469C788.493 475.56 788.281 477.729 788.217 479.441C779.05 539.986 747.589 611.759 720.493 635.687C705.856 649.76 689.924 656.751 674.389 655.904C665.724 655.431 623.765 652.481 599.509 639.049C598.427 638.45 597.069 638.904 596.553 640.028C596.084 641.051 596.494 642.253 597.48 642.796C622.658 656.665 665.33 659.669 674.159 660.151C739.842 659.559 772.762 566.307 790.852 490.895C792.161 485.458 793.473 480.242 792.257 474.562Z" fill="#141414"/>
<path fill-rule="evenodd" clip-rule="evenodd" d="M362.924 551.228C288.64 590.743 238.29 699.913 209.846 755.079C192.777 788.186 187.793 814.556 186.022 823.236C185.205 827.241 184.111 833.172 187.489 835.909C189.898 837.86 193.191 837.06 194.357 834.187C194.357 834.187 192.675 837.949 192.216 841.212C191.782 844.299 193.032 847.24 195.242 848.306C198.649 849.95 201.407 848.028 202.802 844.776L201.594 848.449C200.252 851.935 201.118 855.669 204.757 857.631C207.466 859.091 212.068 856.889 213.881 853.369C214.534 852.101 216.436 848.252 216.436 848.252C215.357 851.281 216.676 856.265 219.771 857.104C223.774 858.19 226.661 854.924 227.876 852.243C233.481 839.875 242.516 827.339 247.438 818.954C247.438 818.954 251.142 828.628 253.736 831.262C256.153 833.716 262.059 834.707 263.655 825.847C264.142 823.148 263.242 813.026 266.274 800.545C271.69 778.251 298.152 733.722 322.193 704.144C360.159 657.434 395.91 642.275 395.91 642.275L362.924 551.228Z" fill="white"/>
<path fill-rule="evenodd" clip-rule="evenodd" d="M393.689 643.53C393.222 642.357 391.851 641.843 390.731 642.426C386.763 644.49 380.276 648.176 372.067 653.953C359.473 662.815 340.311 678.484 320.544 702.801C295.253 733.919 269.455 778.449 264.209 800.042C261.98 809.22 261.824 817.125 261.731 821.848C261.699 823.47 261.672 824.872 261.564 825.468C261.034 828.413 259.944 830.282 258.496 830.729C257.34 831.087 255.99 830.516 255.253 829.769C253.593 828.083 250.797 821.773 249.426 818.192C249.134 817.429 248.43 816.901 247.615 816.834C246.792 816.766 246.02 817.172 245.606 817.876C244.126 820.397 242.227 823.365 240.216 826.508C235.62 833.689 229.9 842.626 225.941 851.364C225.726 851.839 223.737 855.976 220.33 855.051C219.629 854.861 219.138 854.093 218.908 853.653C218.171 852.245 217.975 850.273 218.441 848.964C218.47 848.882 218.485 848.798 218.503 848.714C218.97 847.417 219.506 846.09 220.053 844.773C220.634 843.378 221.234 841.984 221.847 840.592C223.069 837.811 224.332 835.03 225.612 832.274L225.617 832.263C226.015 831.402 225.554 830.34 224.541 830.101C223.86 829.94 223.158 830.312 222.825 830.927C221.373 833.616 219.951 836.306 218.554 839.026C217.852 840.392 217.159 841.766 216.479 843.155C215.837 844.472 215.207 845.792 214.609 847.182C214.584 847.226 214.553 847.263 214.531 847.309C214.531 847.309 212.641 851.134 211.992 852.394C211.207 853.918 209.622 855.237 207.955 855.753C207.07 856.028 206.272 856.029 205.768 855.758C202.15 853.808 203.179 850.255 203.581 849.212C203.593 849.179 203.605 849.146 203.616 849.112L204.824 845.439C204.847 845.37 204.855 845.3 204.871 845.229C206.286 841.678 207.868 838.098 209.433 834.543L214.393 823.523L214.403 823.5C214.8 822.615 214.345 821.549 213.36 821.259C212.588 821.03 211.768 821.456 211.409 822.177L206.047 832.966C204.298 836.56 202.552 840.123 200.909 843.841C200.892 843.875 200.864 843.901 200.849 843.937C200.262 845.306 199.4 846.288 198.486 846.63C197.796 846.888 197.038 846.808 196.168 846.389C194.817 845.738 194.024 843.639 194.324 841.508C194.677 838.998 195.874 836.055 196.211 835.259C196.252 835.169 196.292 835.078 196.329 834.985C196.357 834.916 196.371 834.845 196.391 834.775L201.887 820.368L201.892 820.355C202.235 819.449 201.728 818.406 200.725 818.16C199.939 817.967 199.135 818.428 198.804 819.167L192.617 832.968C192.541 833.077 192.473 833.193 192.417 833.318C192.408 833.339 192.373 833.417 192.318 833.545C192.012 834.19 191.512 834.629 190.896 834.787C190.207 834.967 189.473 834.776 188.829 834.255C186.355 832.251 187.495 826.662 188.107 823.66L188.296 822.731C190.232 813.175 195.373 787.793 211.738 756.052C214.15 751.376 216.718 746.311 219.446 740.934C247.313 685.988 293.326 595.263 357.241 556.89C358.134 556.353 358.511 555.258 358.126 554.29C357.643 553.079 356.187 552.573 355.069 553.244C290.091 592.258 243.73 683.649 215.652 739.01C212.93 744.378 210.365 749.434 207.958 754.103C191.322 786.369 186.095 812.173 184.128 821.886L183.94 822.81C183.147 826.697 181.671 833.93 186.152 837.56C187.424 838.59 188.931 839.108 190.459 839.106C190.317 839.707 190.197 840.317 190.112 840.916C189.548 844.927 191.279 848.754 194.32 850.22C195.856 850.962 197.418 851.196 198.895 850.916C198.683 854.48 200.432 857.713 203.751 859.502C204.626 859.973 205.637 860.211 206.718 860.211C207.521 860.211 208.362 860.08 209.213 859.816C211.527 859.099 213.677 857.496 215.074 855.497C215.095 855.54 215.117 855.582 215.139 855.624C216.092 857.447 217.54 858.701 219.216 859.155C224.051 860.468 228.024 857.07 229.815 853.12C233.648 844.661 239.041 836.235 243.798 828.8C244.942 827.012 246.051 825.28 247.072 823.646C248.456 826.815 250.478 830.981 252.223 832.753C253.864 834.419 256.829 835.697 259.751 834.793C261.903 834.128 264.691 832.101 265.75 826.223C265.917 825.293 265.944 823.956 265.984 821.931C266.073 817.383 266.223 809.77 268.342 801.046C273.465 779.959 298.882 736.197 323.845 705.484C343.252 681.608 362.038 666.226 374.379 657.526C382.42 651.859 388.832 648.22 392.693 646.209C393.665 645.702 394.095 644.548 393.689 643.53Z" fill="#141414"/>
<path fill-rule="evenodd" clip-rule="evenodd" d="M571.629 613.909C571.353 612.839 571.996 611.749 573.066 611.473C574.136 611.194 575.227 611.841 575.502 612.91L583.31 643.192C589.104 646.053 599.612 650.988 608.732 653.887C622.142 658.15 637.949 552.881 637.949 552.881C637.949 552.881 609.312 539.516 570.625 518.267C536.413 499.474 439.987 494.502 393.692 523.617C373.196 532.731 343.931 552.701 333.254 562.074C333.254 562.074 348.515 627.19 372.304 671.852C381.199 667.757 389.275 662.435 397.523 657.285L397.522 657.295C406.137 651.45 414.846 644.693 414.962 644.603C415.832 643.923 417.089 644.078 417.769 644.951C418.448 645.821 418.293 647.078 417.421 647.757C416.892 648.17 403.551 658.815 394.059 664.925L385.893 809.873L622.621 806.379L580.193 647.123L571.629 613.909Z" fill="#F45648"/>
<path fill-rule="evenodd" clip-rule="evenodd" d="M469.181 467.063C469.181 467.063 469.77 507.412 467.618 513.439C465.465 519.467 473.517 536.274 499.532 540.167C527.031 544.283 527.611 530.215 528.207 524.855C525.229 503.412 526.135 481.976 526.135 481.976" fill="white"/>
<path fill-rule="evenodd" clip-rule="evenodd" d="M508.543 542.901C505.71 542.901 502.606 542.65 499.237 542.145C478.911 539.103 470.68 528.696 468.085 524.362C465.539 520.111 464.66 515.776 465.735 512.767C467.225 508.594 467.417 483.166 467.182 467.092C467.166 465.987 468.048 465.079 469.153 465.063C470.23 465.077 471.166 465.929 471.182 467.033C471.243 471.2 471.713 507.922 469.502 514.112C468.964 515.619 469.378 518.737 471.516 522.307C473.82 526.153 481.19 535.4 499.829 538.189C509.998 539.71 517.287 538.832 521.495 535.576C525.381 532.569 525.851 528.119 526.162 525.174L526.193 524.885C523.265 503.589 524.129 482.107 524.138 481.891C524.185 480.788 525.102 479.924 526.221 479.978C527.324 480.024 528.181 480.957 528.134 482.06C528.126 482.273 527.272 503.574 530.189 524.579C530.212 524.743 530.214 524.91 530.196 525.075L530.14 525.594C529.804 528.773 529.179 534.688 523.942 538.739C520.361 541.51 515.201 542.901 508.543 542.901Z" fill="#141414"/>
<path fill-rule="evenodd" clip-rule="evenodd" d="M548.941 423.019C542.944 373.279 510.212 370.413 486.595 374.706C467.772 378.129 443.693 393.69 445.825 424.998C436.4 421.938 429.519 427.667 428.295 435.114C426.908 443.565 431.344 457.86 445.296 455.398C448.351 479.624 465.108 507.532 510.638 502.863C545.109 499.327 554.399 468.293 548.941 423.019Z" fill="white"/>
<path fill-rule="evenodd" clip-rule="evenodd" d="M447.28 455.149C449.062 468.778 455.223 482.287 466.322 490.893C479.289 503.044 522.262 507.932 537.278 487.382C550.057 474.359 551.965 429.175 542.176 403.08C535.4 403.826 524.999 404.69 515.517 404.32C513.343 401.251 510.998 395.363 509.31 391.126C508.497 389.085 507.837 387.427 507.422 386.652C506.208 388.314 507.856 397.082 508.847 402.358C509.041 403.388 509.209 404.284 509.327 404.969C496.134 411.419 467.941 414.656 452.078 411.735C451.906 414.782 452.45 418.084 452.925 420.975C453.993 427.472 454.719 431.885 446.207 426.616C432.773 418.299 425.865 440.902 435.131 449.863C440.234 454.799 444.032 455.143 447.28 455.149ZM467.088 341.005C462.238 343.078 449.423 348.772 449.242 354.172C470.12 336.667 539.273 328.534 560.373 391.585C567.119 413.436 571.262 491.137 569.933 498.111C559.007 500.387 542.625 502.889 528.012 502.557C527.757 501.834 527.595 501.063 527.469 500.273C509.563 508.623 483.522 507.309 468.059 496.926C468.465 500.434 468.417 502.832 468.381 504.597C468.354 505.99 468.334 506.988 468.55 507.826C453.309 510.284 430.659 504.138 430.659 504.138C430.659 504.138 391.779 424.611 428.643 378.116C420.008 376.124 401.919 363.6 414.207 337.696C423.714 317.655 457.834 317.296 467.088 341.005ZM442.891 439.859C442.678 440.89 442.481 441.836 441.436 441.624C438.246 440.976 437.839 436.423 440.749 434.949C443.137 433.74 443.871 436.437 443.108 438.948C443.019 439.24 442.954 439.553 442.891 439.859Z" fill="#141414"/>
<path fill-rule="evenodd" clip-rule="evenodd" d="M530.047 420.925C527.111 420.1 524.137 419.981 521.162 420.738C520.394 420.887 519.65 420.386 519.501 419.618C519.337 417.374 523.723 416.384 525.479 416.055C528.046 415.456 537.305 416.906 534.899 420.933C533.932 421.91 532.606 421.555 531.342 421.217C530.897 421.098 530.459 420.981 530.047 420.925ZM538.142 435.335C541.421 433.312 536.149 429.085 534.324 428.399C528.498 425.582 521.028 427.967 517.747 433.452C517.283 434.155 517.374 435.113 518.008 435.714C518.752 436.423 519.943 436.338 520.599 435.554C521.694 434.397 522.858 433.404 524.156 432.708C527.756 430.762 533.239 431.446 535.876 434.523C536.352 435.273 537.26 435.715 538.142 435.335ZM512.271 448.669C523.189 453.239 519.398 465 507.988 464.104C505.397 464.084 505.386 460.143 507.97 460.104C510.133 460.051 513.373 459.769 514.324 457.886C515.475 454.984 512.558 453.058 510.011 452.045C508.91 451.532 508.531 450.107 508.371 449.263C507.556 444.207 507.682 439.162 507.808 434.093L507.819 433.67C507.848 431.926 510.549 431.905 510.638 433.617C510.764 434.983 510.864 436.361 510.964 437.742C511.232 441.419 511.5 445.116 512.271 448.669ZM489.421 439.893C488.734 439.098 487.767 438.562 486.621 438.392C482.674 437.842 479.459 441.345 478.183 444.853C477.848 445.802 476.785 446.291 475.849 445.913C473.581 444.741 475.429 441.822 476.656 439.884C476.869 439.547 477.064 439.239 477.215 438.976C479.426 435.944 483.147 433.785 487.076 434.156C489.088 434.327 491.144 435.212 492.642 436.748C494.691 438.863 491.481 441.99 489.421 439.893ZM482.776 424.771C483.962 424.795 485.174 424.819 485.681 423.732C486.462 420.661 478.918 420.925 477.029 421.125C474.63 421.494 469.148 422.442 469.058 425.516C469.19 426.529 470.118 427.243 471.13 427.112C472.636 426.896 474.118 426.482 475.602 426.066C477.377 425.569 479.155 425.071 480.983 424.911C481.495 424.746 482.132 424.758 482.776 424.771ZM517.454 469.013C521.407 468.464 527.174 467.663 528.228 469.466C531.556 476.461 525.315 484.364 519.044 487.2C509.164 491.742 489.78 487.395 491.864 473.631C491.828 473.191 492.442 472.466 492.954 472.473C493.8 472.345 494.652 472.217 495.508 472.088C501.747 471.147 508.206 470.173 514.388 469.371C515.065 469.345 516.163 469.192 517.454 469.013Z" fill="#141414"/>
<path fill-rule="evenodd" clip-rule="evenodd" d="M530.155 443.096C528.658 443.109 528.679 445.432 530.175 445.419C531.672 445.407 531.65 443.083 530.155 443.096ZM489.911 449.438C487.895 450.378 489.352 453.512 491.372 452.57C493.387 451.63 491.93 448.497 489.911 449.438ZM482.565 451.974C481.087 452.663 482.156 454.961 483.637 454.271C485.115 453.581 484.045 451.284 482.565 451.974ZM486.771 459.099C484.331 460.238 486.095 464.034 488.541 462.893C490.981 461.754 489.216 457.959 486.771 459.099ZM479.066 460.235C477.724 457.026 473.429 462.055 477.321 462.714C478.921 463.301 479.907 461.505 479.066 460.235ZM529.486 450.651C527.013 450.672 527.049 454.508 529.518 454.488C531.992 454.467 531.955 450.63 529.486 450.651ZM536.31 448.552C536.116 449.934 537.639 451.033 538.732 449.915C541.692 447.834 536.154 445.367 536.31 448.552ZM523.077 443.896C521.035 443.914 521.065 447.082 523.103 447.064C525.145 447.046 525.116 443.878 523.077 443.896Z" fill="#FF4B33"/>
<path fill-rule="evenodd" clip-rule="evenodd" d="M742.851 452.455C740.481 452.455 737.991 452.929 736.041 454.116C731.791 456.694 729.011 463.175 730.831 466.284C731.601 467.606 732.751 468.43 734.231 468.731C736.441 469.18 739.261 468.428 741.401 466.816C744.541 464.452 745.181 458.896 744.591 452.54C744.031 452.485 743.441 452.455 742.851 452.455ZM732.851 562.926C732.061 562.926 731.321 562.786 730.611 562.516C725.701 560.586 724.981 553.006 724.861 547.466C724.631 536.346 733.821 526.048 743.541 515.145C754.111 503.302 765.041 491.054 764.141 477.358C763.531 468.082 757.161 456.619 748.461 453.412C749.021 461.545 747.421 467.078 743.681 469.896C740.661 472.166 736.751 473.163 733.481 472.5C730.931 471.981 728.871 470.506 727.551 468.236C724.421 462.885 728.521 454.188 734.071 450.822C737.141 448.964 740.871 448.471 744.101 448.652C743.121 442.46 741.261 435.983 739.581 431.217C736.651 422.947 733.451 417.803 730.621 413.264C727.241 407.831 724.321 403.139 723.321 395.3C722.131 385.854 724.241 375.975 729.611 365.937C730.111 365.002 731.271 364.652 732.191 365.157C733.121 365.662 733.461 366.827 732.961 367.761C727.981 377.078 726.011 386.18 727.101 394.813C727.991 401.811 730.571 405.963 733.851 411.219C736.781 415.924 740.101 421.258 743.171 429.924C743.911 432.03 746.451 439.527 747.771 447.581C747.861 448.147 747.941 448.705 748.021 449.253C748.031 449.255 748.041 449.256 748.041 449.259L748.231 449.308C759.481 452.379 767.221 466.126 767.941 477.104C768.941 492.42 757.471 505.28 746.381 517.716C737.171 528.037 728.471 537.786 728.671 547.386C728.861 556.376 730.831 558.476 731.991 558.926C732.621 559.176 733.421 559.116 734.381 558.776C735.371 558.406 736.471 558.926 736.821 559.926C737.181 560.926 736.671 562.026 735.681 562.386C734.691 562.746 733.741 562.926 732.851 562.926Z" fill="#FFC81A"/>
<path fill-rule="evenodd" clip-rule="evenodd" d="M784.951 106.975C742.951 87.6958 696.611 101.779 667.631 125.246C664.661 127.651 625.941 160.046 624.071 212.945C622.071 269.435 662.471 338.488 725.461 344.67C715.461 349.178 702.291 364.862 711.081 377.36C713.641 380.997 721.261 385.304 725.291 379.347C732.131 389.464 741.431 391.235 742.761 379.107C765.711 373.808 747.311 351.465 735.571 345.103C799.861 344.437 845.271 277.473 847.421 219.651C848.811 182.234 832.831 128.952 784.951 106.975Z" fill="#FFC81A"/>
<path d="M699.141 132.287C700.751 131.25 702.901 131.71 703.931 133.316C704.971 134.922 704.511 137.064 702.901 138.102C670.721 158.881 657.961 189.054 664.421 229.261C664.721 231.149 663.431 232.925 661.551 233.228C659.661 233.531 657.881 232.246 657.581 230.359C650.691 187.49 664.611 154.585 699.141 132.287Z" fill="white"/>
</svg>
