<svg width="2119" height="1343" fill="none" xmlns="http://www.w3.org/2000/svg">
  <path fill-rule="evenodd" clip-rule="evenodd" d="M1491 5H549c-28 0-49 22-49 49v724c0 27 21 49 49 49h942c27 0 49-22 49-49V54c0-27-22-49-49-49ZM549 0c-30 0-54 24-54 54v724c0 30 24 54 54 54h942c29 0 54-24 54-54V54c0-30-25-54-54-54H549Z" fill="#141414"/>
  <path fill-rule="evenodd" clip-rule="evenodd" d="M1491 5H549c-28 0-49 22-49 49v67h1040V54c0-27-22-49-49-49ZM549 0c-30 0-54 24-54 54v72h1050V54c0-30-25-54-54-54H549Z" fill="#141414"/>
  <path d="M580 85a20 20 0 1 0 0-40 20 20 0 0 0 0 40Z" fill="#FF4B33"/>
  <path fill-rule="evenodd" clip-rule="evenodd" d="M600 65a20 20 0 1 0-40 0 20 20 0 0 0 40 0Zm-36 0a16 16 0 1 1 31 0 16 16 0 0 1-31 0ZM664 65a20 20 0 1 0-40 0 20 20 0 0 0 40 0Zm-36 0a16 16 0 1 1 31 0 16 16 0 0 1-31 0ZM728 65a20 20 0 1 0-40 0 20 20 0 0 0 40 0Zm-36 0a16 16 0 1 1 31 0 16 16 0 0 1-31 0ZM978 459c0-46 44-84 99-84s99 38 99 84c0 28-17 54-43 70v1c0 14 3 24 8 27 3 1 2 5-1 6-13 1-23-2-32-8-5-4-9-8-11-13h-1l-18 1h-1c-55 0-99-37-99-84Zm192 0c0-43-42-78-93-78s-93 35-93 78 42 78 93 78c7 0 14 0 21-2l3 2c2 5 6 9 11 13s12 6 20 7v-1c-4-6-5-16-5-28v-1l1-3c26-14 42-38 42-65Z" fill="#141414"/>
  <path fill-rule="evenodd" clip-rule="evenodd" d="M1047 461a10 10 0 1 1-20 0 10 10 0 0 1 20 0ZM1088 461a10 10 0 1 1-21 0 10 10 0 0 1 21 0ZM1128 461a10 10 0 1 1-21 0 10 10 0 0 1 21 0Z" fill="#141414"/>
  <path fill-rule="evenodd" clip-rule="evenodd" d="M835 428c0-44 42-81 95-81s96 37 96 81c0 45-43 82-96 82l-21-2c-3 7-14 23-41 21 8-4 10-19 10-33a79 79 0 0 1-43-68Z" fill="#FF4B33"/>
  <path fill-rule="evenodd" clip-rule="evenodd" d="M900 432a10 10 0 1 1-21 0 10 10 0 0 1 21 0ZM940 432a10 10 0 1 1-21 0 10 10 0 0 1 21 0ZM980 432a10 10 0 1 1-20 0 10 10 0 0 1 20 0Z" fill="#fff"/>
  <path d="M1158 342a3 3 0 0 1 6 2l-10 26a3 3 0 0 1-5-2l9-26ZM1190 365a3 3 0 0 1 4 4v1l-21 17c-2 1-4 1-5-1-1-1 0-3 1-4l21-17ZM1206 400c1 0 3 1 3 3l-2 3-25 3a3 3 0 0 1-1-5h1l24-4Z" fill="#141414"/>
  <path fill-rule="evenodd" clip-rule="evenodd" d="M1690 888h-558c-13 0-24-11-24-25V481c0-14 11-25 24-25h558c14 0 25 11 25 25v382c0 14-11 25-25 25Z" fill="#fff"/>
  <path fill-rule="evenodd" clip-rule="evenodd" d="M1132 460c-11 0-20 9-20 21v382c0 12 9 21 20 21h558c12 0 21-9 21-21V481c0-12-9-21-21-21h-558Zm558 428h-558c-13 0-24-11-24-25V481c0-14 11-25 24-25h558c14 0 25 11 25 25v382c0 14-11 25-25 25Z" fill="#141414"/>
  <path fill-rule="evenodd" clip-rule="evenodd" d="M1712 538h-602a2 2 0 0 1 0-4h602a2 2 0 0 1 0 4ZM1189 487a9 9 0 1 0 0 19 9 9 0 0 0 0-19Zm0 23a13 13 0 1 1 0-27 13 13 0 0 1 0 27ZM1227 487a9 9 0 1 0 0 19 9 9 0 0 0 0-19Zm0 23a13 13 0 1 1 0-27 13 13 0 0 1 0 27Z" fill="#141414"/>
  <path fill-rule="evenodd" clip-rule="evenodd" d="M1162 496a11 11 0 1 1-22 0 11 11 0 0 1 22 0Z" fill="#FF4B33"/>
  <path fill-rule="evenodd" clip-rule="evenodd" d="M1151 487a9 9 0 1 0 0 19 9 9 0 0 0 0-19Zm0 23a13 13 0 1 1 0-27 13 13 0 0 1 0 27Z" fill="#141414"/>
  <path fill-rule="evenodd" clip-rule="evenodd" d="M1477 682a65 65 0 1 1-131 0 65 65 0 0 1 131 0Z" fill="#13D6C3"/>
  <path fill-rule="evenodd" clip-rule="evenodd" d="M1389 682v-29l25 15 26 14-26 15-25 15v-30Z" fill="#fff"/>
  <path fill-rule="evenodd" clip-rule="evenodd" d="M151 1214s-14-28 15-72c61-93-38-48-60-112-18-52 12-105-18-119-49-23-100-56-68-94 23-27 103-25 134 58 19 51 96 17 164 98 20 24 65 127 42 241H151Z" fill="#141414"/>
  <path fill-rule="evenodd" clip-rule="evenodd" d="M232 1214s-33-41-17-86c13-36 48-46 49-76 2-39-37-34-43-81-5-37 18-71 16-91-2-30-53-45-70-90-23-57 46-70 77-51 39 24 40 60 57 82 19 25 79 30 88 91 5 38-17 72-6 104 7 24 54 35 64 88 11 58-32 110-32 110H232Z" fill="#FFB500"/>
  <path fill-rule="evenodd" clip-rule="evenodd" d="M328 1214h5c1-9 14-98-5-203a523 523 0 0 0-109-226v3a524 524 0 0 1 105 223c19 109 5 199 4 203Z" fill="#070707"/>
  <path fill-rule="evenodd" clip-rule="evenodd" d="M1672 1248s-103-62-82-174c12-67 55-63 80-114 15-32-9-119 41-176 45-53 120-49 144-60 33-16 45-48 54-75 35-100 114-97 127-47 16 59 1 96-72 154-56 44 25 94-23 174-27 45-99 68-64 126 49 79 39 157 15 192h-220Z" fill="#FF4B33"/>
  <path fill-rule="evenodd" clip-rule="evenodd" d="M1973 653h-2a950 950 0 0 0-171 267c-32 74-66 178-56 328h4c-10-149 24-253 55-327a928 928 0 0 1 170-268Z" fill="#fff"/>
  <path fill-rule="evenodd" clip-rule="evenodd" d="M2042 882c-7 0-13 5-13 11l1 3a521 521 0 0 0-278 352h4c1-4 3-18 9-37a518 518 0 0 1 266-311c2 3 6 5 9 5 7 0 12-4 12-10 0-7-4-13-10-13Z" fill="#141414"/>
  <path fill-rule="evenodd" clip-rule="evenodd" d="M2108 1011c-6 0-12 5-12 11-20 4-52 11-112 33a403 403 0 0 0-216 193h4a399 399 0 0 1 214-189c59-22 91-29 110-33 2 5 6 8 11 8 6 0 12-4 12-11 0-6-4-12-11-12Z" fill="#141414"/>
  <path fill-rule="evenodd" clip-rule="evenodd" d="m0 1216 2-2h2040l2 2c0 2-1 2-2 2H2c-1 0-2 0-2-2Z" fill="#141414"/>
  <path fill-rule="evenodd" clip-rule="evenodd" d="m1503 1244-8 55-80 8 13-57 75-6Z" fill="#fff"/>
  <path fill-rule="evenodd" clip-rule="evenodd" d="m1415 1309 80-8 2-2 8-56a2 2 0 1 0-4 0l-8 54-75 7 12-53a2 2 0 1 0-4-1l-13 56a2 2 0 0 0 2 3Z" fill="#141414"/>
  <path fill-rule="evenodd" clip-rule="evenodd" d="m1498 1292-2-1h-4c-9 2-27 6-45 6-10 0-20-3-26-8l-2-1c-30 8-52 14-68 25-3 2-13 10-12 16 1 3 4 4 9 4a49066 49066 0 0 1 155-1c4-4-2-29-5-40Z" fill="#6366F1"/>
  <path fill-rule="evenodd" clip-rule="evenodd" d="M1501 1342h-157c-3 0-5-2-5-4v-2c0-3 2-5 5-5h157c2 0 4 2 4 5v2c0 2-2 4-4 4ZM1388 1307l-2-1c-3-7-9-5-10-5l-3-1c0-2 0-3 2-3 3-1 11-1 15 7 1 1 0 3-1 3h-1ZM1407 1302l-2-1c-3-7-10-5-10-5a2 2 0 0 1-2-4c4-1 12-1 16 7a2 2 0 0 1-2 3Z" fill="#141414"/>
  <path fill-rule="evenodd" clip-rule="evenodd" d="m1645 1243 3 56 70 6-1-56-72-6Z" fill="#fff"/>
  <path fill-rule="evenodd" clip-rule="evenodd" d="M1718 1307h1l1-2-1-56-2-2-2 2 1 54-66-6-3-54a2 2 0 1 0-4 0l3 56 2 2 70 6Z" fill="#141414"/>
  <path fill-rule="evenodd" clip-rule="evenodd" d="m1643 1293 2-2 4 1c9 2 28 5 45 5 11 0 20-3 26-8h2c30 8 52 13 69 24 2 2 13 10 11 16-1 3-4 4-9 4a49056 49056 0 0 0-155 0c-4-5 2-30 5-40Z" fill="#6366F1"/>
  <path fill-rule="evenodd" clip-rule="evenodd" d="M1641 1343h157c2 0 4-3 4-5v-2c0-2-2-4-4-4h-157c-3 0-5 2-5 4v2c0 2 2 5 5 5ZM1753 1308l2-2c3-7 10-5 10-5 2 1 3 0 3-1l-1-3c-4-1-12-1-16 8a2 2 0 0 0 2 3ZM1734 1302l2-1c4-7 10-5 11-5l2-1c1-1 0-3-1-3-4-1-12-1-16 7a2 2 0 0 0 2 3Z" fill="#141414"/>
  <path fill-rule="evenodd" clip-rule="evenodd" d="m1738 615 52 659c-51 4-106 4-163 0 0 0-9-551-14-551-9-1-55 551-55 551-51 8-101 6-151 0 0 0 38-488 103-662 103 5 228 3 228 3Z" fill="#0B379B"/>
  <path fill-rule="evenodd" clip-rule="evenodd" d="M1681 636c1 0 3 0 3 2 17 31 53 28 54 28 2 0 3 1 3 3l-2 2h-4c-10 0-40-2-55-31-1-1 0-3 1-4ZM1498 662c1 0 36 3 52-29 0-1 2-2 3-1 1 0 2 2 1 3a59 59 0 0 1-57 32l-2-3c0-2 1-3 3-2Z" fill="#fff"/>
  <path fill-rule="evenodd" clip-rule="evenodd" d="M1739 616c1-11 12-86 14-128 17 4 19-74-3-123-35-79-155-54-155-54s-35-2-71 27c-16 13-33 42-42 74 3 9 32 48 42 55l-29 149s209 3 244 0Z" fill="#6366F1"/>
  <path fill-rule="evenodd" clip-rule="evenodd" d="M1498 615a6183 6183 0 0 1 27-150c-10-7-37-44-41-53 9-30 25-59 42-72a113 113 0 0 1 70-27s30-6 64-3c19 3 36 7 51 15 17 10 30 23 38 41 8 19 14 45 15 70 1 23-1 42-7 48-1 2-3 2-4 2a2 2 0 0 0-2 2c-2 36-11 95-14 119l-1 7c-36 2-216 2-238 1Zm240 3 2-2 1-8c3-24 12-81 14-118l6-3c5-8 8-27 7-51-1-26-7-52-16-72-14-33-46-53-92-58-33-3-62 2-65 3-3 0-38-1-72 28a157 157 0 0 0-43 75c3 9 30 47 42 55a6570 6570 0 0 0-27 152l207-1h36Z" fill="#141414"/>
  <path fill-rule="evenodd" clip-rule="evenodd" d="M1645 280s1 35 15 39c4 20-22 33-42 32-38-2-26-33-24-33l-2-34 53-4Z" fill="#fff"/>
  <path fill-rule="evenodd" clip-rule="evenodd" d="M1659 321c0 5-1 10-5 14-7 9-22 15-36 14-13-1-22-5-24-13-3-7 0-15 1-16l1-2-2-32 49-4c0 8 3 33 16 39Zm-39 32c14 0 29-6 37-15 5-6 7-12 6-19l-2-2c-10-3-14-28-14-37l-1-1-1-1-53 4-2 2 2 33c-2 2-4 8-4 13 0 6 2 11 6 15 5 5 13 8 24 8h2Z" fill="#141414"/>
  <path fill-rule="evenodd" clip-rule="evenodd" d="m1633 376-37 2-2 59h23l1 49 32-74-24 1 7-37Z" fill="#FFC81A"/>
  <path fill-rule="evenodd" clip-rule="evenodd" d="m1482 411 55 8-6 36s79-8 106-17c14-5 32 0 39 15 3 7 1 27 1 27l-33-1-3 1h37l2-52 86 1s16 113-49 131c-60 16-132-38-138-43-27 15-61 26-92 18-39-10-6-119-5-124Z" fill="#fff"/>
  <path fill-rule="evenodd" clip-rule="evenodd" d="M1475 523c3 5 7 9 13 10 48 13 100-22 132-42l21-13 3-1 31 1c1-7 1-19-1-25-6-10-20-18-36-13-27 9-103 16-107 17l-13 1a2 2 0 0 1 0-4l12-1 5-32-51-7c-2 5-7 23-11 44-5 30-4 53 2 65Zm218 38c8 0 16-1 23-3 26-7 42-31 48-70 3-26 1-51 0-57l-82-1-2 50c0 2-1 2-2 2h-36l-20 12c-11 7-24 16-39 24 13 9 63 43 110 43Zm-212-150 2-2 53 8 6-33 3-2 1 3-7 34-5 33c14-1 79-8 103-16 7-2 15-2 23 0 7 3 13 8 17 15l1-23v-41l2-2 2 2v39l84 1 2 2s4 29 0 59c-6 41-23 66-51 74l-24 3c-25 0-51-9-69-18-23-11-40-24-45-27-21 11-46 20-70 20-8 0-15-1-22-3s-12-6-15-12c-18-33 8-113 9-114Z" fill="#141414"/>
  <path fill-rule="evenodd" clip-rule="evenodd" d="M1578 232c12-51 44-54 68-50 19 4 37 20 35 51 6-6 16-2 18 5 2 8-4 28-18 25-1 23-20 57-58 57-41-1-55-44-45-88Z" fill="#fff"/>
  <path fill-rule="evenodd" clip-rule="evenodd" d="M1683 261c-2 0-3 0-4 2-7 70-103 77-102-3 0-18 4-39 12-53 10 2 21 0 32-4 2-1 5 0 9 2 5 2 11 5 21 3 19-4 20 7 18 19-4 19 9 13 13 8 2-3 5-4 9-3 10 4 6 19 0 26-2 3-5 3-8 3Zm-105-87c-13 3-11 19-1 28-5 8-8 34-3 43-3 24 2 46 13 60 26 32 77 14 90-18 12-4 37-31 23-79h6c3 0 6 1 5-1l-9-4h-3l1-3c0-7 2-22-4-6-11-16-20-17-28-18-6-1-11-2-16-8-13-19-29-21-37-12-5 8-7 9-13 5-15-12-23-1-24 13Zm111 71c1-3 0-4-1-4s-3 0-3 3l2 5 2-4Z" fill="#141414"/>
  <path fill-rule="evenodd" clip-rule="evenodd" d="M1595 235h9l2-1c0-3-4-4-6-4-3 0-12 1-9 5h4Zm-8 14c-3-2 2-6 4-7 6-2 13 0 17 6l-1 2h-2c-1-2-2-3-4-3-3-2-9-1-11 2h-3Zm26 14c-11 4-7 16 4 15 3 0 3-4 0-4-2 0-5 0-6-2-1-3 2-5 4-6l2-3 1-15c0-2-3-2-3 0l-1 4-1 11Zm23-9 3-2c4 0 7 3 8 7l3 1c2-1 0-4-1-6l-1-1c-2-3-6-5-10-5-2 0-4 1-5 3-2 2 1 5 3 3Zm7-15-3-1c-1-3 6-3 8-3 3 1 8 2 8 5l-2 1-4-1-6-1h-1Zm-35 44c-4 0-10-1-11 1-3 7 3 14 9 17 10 5 30 0 28-13l-2-1-2-1-19-3h-3Z" fill="#141414"/>
  <path fill-rule="evenodd" clip-rule="evenodd" d="M1595 257c2 0 2 3 0 2v-2Zm40 7c3 0 1 4-1 3s-1-4 1-3Zm8 2c1 1 0 3-1 2-2 0-1-3 1-2Zm-4 7c2 1 0 5-2 4-3-1-1-5 2-4Zm7 1c2-3 6 2 2 3-2 0-3-1-2-3Zm-50-9c2 0 2 4 0 4-3 0-3-4 0-4Zm-7-2c0 1-1 2-2 1-3-2 2-5 2-1Zm13-5c2 0 2 3 0 3s-2-3 0-3ZM354 1022l-69 247h29l101-247h-61ZM637 1022l112 248h19l-68-248h-63Z" fill="#FF4B33"/>
  <path fill-rule="evenodd" clip-rule="evenodd" d="M702 1025H347l-2-1-139-387c-5-13-1-25 10-29 20-8 65 9 100 89l88 227h298l2 2v97l-2 2Z" fill="#141414"/>
  <path fill-rule="evenodd" clip-rule="evenodd" d="M348 1021h352v-93H402l-2-1-88-229c-32-73-74-94-94-86-9 3-12 12-8 24l138 385ZM812 1164l37 64 70-7-32-80" fill="#fff"/>
  <path fill-rule="evenodd" clip-rule="evenodd" d="m849 1230-2-1-37-64a2 2 0 0 1 3-2l37 63 66-7-30-78a2 2 0 0 1 3-1l32 80v2l-2 1-70 7Z" fill="#141414"/>
  <path fill-rule="evenodd" clip-rule="evenodd" d="m837 1221 3-2 3 1c9 1 28 2 46 1 10-1 19-5 25-11h2c31 5 53 9 70 18 3 2 14 9 13 15 0 3-3 4-8 5l-91 9-61 5-3-1c-4-4 0-29 1-40Z" fill="#F45648"/>
  <path fill-rule="evenodd" clip-rule="evenodd" d="m840 1271 156-14c3-1 5-3 4-6v-1c0-3-2-5-5-4l-156 14c-3 0-5 3-4 5v2c0 2 2 4 5 4ZM949 1226l1-2c3-7 10-6 10-6 1 1 3 0 3-1l-2-3c-4-1-11 0-15 9a2 2 0 0 0 3 3ZM929 1222l2-1c3-7 9-6 10-6a2 2 0 0 0 1-4c-4-1-12 0-15 9a2 2 0 0 0 2 2ZM614 809s153-19 198 54c36 59 128 270 125 276-10 22-102 42-163 36 0 0-66-315-160-366Z" fill="#141414"/>
  <path fill-rule="evenodd" clip-rule="evenodd" d="M772 992c1-1 2 0 3 1l2 8 1 1a2 2 0 1 1-4 2l-3-10c-1-1 0-2 1-2Zm25 63 3 10a2 2 0 1 1-4 1l-3-10a2 2 0 0 1 4-1Zm7 21a4649 4649 0 0 1 2 12l-2-1a4644 4644 0 0 0-2-12c1-1 2 0 2 1Zm11 30-4-9a2 2 0 1 0-3 1 3473 3473 0 0 1 5 11l2-3Zm7 21a2022 2022 0 0 0-6-11 1692 1692 0 0 1 4 13l2-2Zm10 36-1-3c0-1-1-2-2-1l-2 2 1 3a2 2 0 1 0 4-1Zm-4-15a610 610 0 0 0-5-11l-2 3a612 612 0 0 1 6 11l1-3Zm-39-114a2 2 0 1 0-3 2 6089 6089 0 0 1 6 10l1-2-4-10Zm-10-22c2 0 3 1 3 2l3 9a2 2 0 1 1-3 1l-4-9 1-3Z" fill="#fff" style="mix-blend-mode:overlay"/>
  <path fill-rule="evenodd" clip-rule="evenodd" d="m621 1179-7 50 71 6 16-49" fill="#fff"/>
  <path fill-rule="evenodd" clip-rule="evenodd" d="m685 1237-71-6a2 2 0 0 1-2-2l7-51c0-1 1-2 2-1l2 2-6 48 66 6 16-48a2 2 0 0 1 4 2l-16 49-2 1Z" fill="#141414"/>
  <path fill-rule="evenodd" clip-rule="evenodd" d="m611 1226 3-1 3 1c9 1 28 5 46 5 10 0 19-3 26-8h1c31 7 53 13 69 24 3 2 13 10 11 16 0 3-3 4-8 4h-92a39346 39346 0 0 1-64-1c-3-4 3-29 5-40Z" fill="#F45648"/>
  <path fill-rule="evenodd" clip-rule="evenodd" d="M609 1276h157c3 0 5-2 5-4v-2c0-2-2-5-5-5H609c-2 0-4 3-4 5v2c0 2 2 4 4 4ZM722 1241l1-1c4-7 10-5 11-5a2 2 0 0 0 1-4c-3-1-11-1-15 7a2 2 0 0 0 2 3ZM703 1236l2-1c3-7 9-5 10-5a2 2 0 0 0 1-4c-3-1-11-1-15 7a2 2 0 0 0 2 3Z" fill="#141414"/>
  <path fill-rule="evenodd" clip-rule="evenodd" d="M386 803s-23 75 17 126c29 38 143 48 219 25a473 473 0 0 0 12-34 479 479 0 0 1-8 34l-67 210c49 25 100 39 167 36 0 0 21-88 34-168 14-87 66-227-106-227l-268-2Z" fill="#0B379B"/>
  <path fill-rule="evenodd" clip-rule="evenodd" d="m479 810 2 1c0 1 9 31-14 43l5 2a2 2 0 1 1-1 4 78 78 0 0 1-10-5l-1-1 1-2c11-4 17-12 18-23 1-9-2-16-2-16l2-3Zm-43 9c1-1 2 0 2 1 0 0 0 4 3 9a2 2 0 0 1-4 2c-3-6-3-10-3-10l2-2Zm47 40 10 2a2 2 0 0 1-1 4l-10-2a2 2 0 1 1 1-4Zm-29-13-7-7a2 2 0 0 0-3 3l7 7a2 2 0 0 0 3 0v-3Zm51 16a575 575 0 0 0 12 3 2 2 0 0 1-2 2 582 582 0 0 1-12-3l2-2Zm76 2a902 902 0 0 1-12 2l2 2a908 908 0 0 0 12-2l-2-2Zm-32 0a890 890 0 0 0 12 2l-2 2a897 897 0 0 1-12-2l2-2Zm-12 0a741 741 0 0 1-12 2 767 767 0 0 0 12 2 2 2 0 0 0 0-4Zm90 199-3 1a3434 3434 0 0 1-1 12l2-1a3443 3443 0 0 0 2-12Zm8-41 3-2 1 3a4701 4701 0 0 1-5 11l-1-3 2-9Zm-3 20a4128 4128 0 0 1-4 14l1-1 2-1a3696 3696 0 0 0 1-12Zm9-42a2 2 0 0 1 4 1 9691 9691 0 0 1-5 11l-2-2 3-10Zm8-23-3 2a8512 8512 0 0 1 0 12l2-1a7964 7964 0 0 0 1-13Zm3-20 2-1 2 2a7628 7628 0 0 1-5 12l-2-3 3-10Zm7-22a3828 3828 0 0 1-3 14l2-2 3-10c0-1 0-2-2-2Zm-41 151a2 2 0 0 1 4 1 2830 2830 0 0 1-5 11c-1-1-2-2-1-3l2-9Zm-23 83c-1-1-2 0-2 1l-2 3a2 2 0 0 0 2 3l1-1 2-4c1-1 0-2-1-2Zm5-20a2 2 0 0 1 4 1 448 448 0 0 1-6 11 466 466 0 0 0 2-12Zm15-44-3 2a2060 2060 0 0 1-1 12h1l2-1a2489 2489 0 0 0 1-13Zm-9 23a2 2 0 1 1 4 1 1353 1353 0 0 1-5 11l-2-2 3-10Z" fill="#fff" fill-opacity=".8" style="mix-blend-mode:overlay"/>
  <path fill-rule="evenodd" clip-rule="evenodd" d="M678 658c-13 0-58-3-85-20l37-81c1 0 21 9 35 9 7 0 20-10 33-25 18-21 28-41 34-63 1-5 3-10 1-15-3-11 3-12 10-6 3-8 7-16 9-25 1-5 6-13 11-9 3 3 2 11 1 17 4 0 7 2 7 7l-1 3 5 1c4 1 5 5 3 9 3 0 7 0 8 4 2 2 1 5-1 8l4 1c3 3 2 8 1 12-17 75-48 168-112 173Z" fill="#fff"/>
  <path fill-rule="evenodd" clip-rule="evenodd" d="M784 468c-3 3-8 8-12 5-2-4 4-10 8-10 3-1 6 3 4 5Zm-21-4c-3-5 6-13 11-11 2 0 4 2 3 5-2 2-11 9-14 6Zm-6-13c0-3 2-5 3-6 3-3 9-4 9 2 0 1-4 5-8 6-3 0-3-1-4-2Zm35 24c0-2-2-4-4-5 3-5-1-12-7-12 1-5-3-10-8-10 1-4-2-9-6-9 0-7 0-14-3-17-5-5-11-1-14 10l-8 22c-3-3-9-4-11 0-2 6 2 11 1 16-5 25-16 47-35 69-13 15-26 25-33 25-9 0-22-4-28-7-2-1-3 0-3 1l1 3c7 3 20 8 31 8 21-1 62-56 69-90 2-5 3-11 2-17-1-1-2-4-1-6h1c6 0 9 6 11 11v15l1 2c3 0 3-3 3-4 10 2 10 15 10 18-1 1 0 2 2 2 3 1 3-11-3-19-2-3-6-5-8-5 0-7-2-14-6-19l8-24c2-6 4-10 7-8 2 2 2 10 1 14-4 1-10 6-9 13 1 3 4 5 7 5-4 6 1 14 8 11-1 3-1 6 1 8s4 2 6 2c-1 5 4 9 8 7 1-1 1-4-1-3-3 0-4-2-3-4 2-2 5-4 8-4l1 5c-9 61-40 133-68 157-14 14-30 21-46 20-8-1-50-4-74-17-2-1-3 0-3 1v3c26 14 68 17 77 17 66 0 99-94 117-169 1-6 2-11 1-16Z" fill="#141414"/>
  <path fill-rule="evenodd" clip-rule="evenodd" d="M363 551c-74 40-125 149-153 204-17 33-22 60-24 68-1 4-2 10 1 13 3 2 6 1 7-2l-2 7c0 3 1 6 3 7 4 2 6 0 8-3l-1 3c-2 4-1 8 3 10 2 1 7-1 9-5l2-5c-1 3 1 8 4 9 4 1 7-2 8-5 5-12 15-25 19-33 0 0 4 10 7 12 2 3 8 4 10-5 0-3-1-13 2-25 6-23 32-67 56-97 38-47 74-62 74-62l-33-91Z" fill="#fff"/>
  <path fill-rule="evenodd" clip-rule="evenodd" d="M394 644c-1-2-2-2-3-2l-19 12a332 332 0 0 0-108 146c-2 9-2 17-2 22v3c-1 3-2 5-4 6l-3-1-6-12a2 2 0 0 0-3 0l-6 9-14 24c0 1-2 5-6 4l-1-1-1-5h1a89 89 0 0 1 3-8l4-9-1-2-2 1a443 443 0 0 0-8 16l-3 5-4 4h-2c-4-2-3-6-2-7l1-4 4-10 5-11c1-1 0-2-1-3l-2 1-5 11-5 11-3 3-2-1-2-4a29 29 0 0 1 2-7l6-15-1-2-2 1-6 14h-1v1l-1 1-2-1c-3-2-2-7-1-10v-1c2-10 7-35 24-67l7-15c28-55 74-146 138-184a2 2 0 1 0-2-4c-65 39-111 131-139 186l-8 15c-17 32-22 58-24 68v1c-1 4-2 11 2 15l4 1v2c0 4 1 8 4 9l5 1c0 3 1 7 5 9h5c3-1 5-3 6-5v1l4 3c5 1 9-2 11-6l14-24 3-5 5 9c2 1 5 3 8 2 2-1 5-3 6-9v-4c0-5 0-12 2-21a328 328 0 0 1 106-143l19-12 1-2Z" fill="#141414"/>
  <path fill-rule="evenodd" clip-rule="evenodd" d="M572 614a2 2 0 1 1 4-1l7 30 26 11c13 4 29-101 29-101s-29-13-67-35c-35-19-131-23-177 6-21 9-50 29-61 38 0 0 16 65 39 110 9-4 17-10 26-15l17-12a2 2 0 1 1 2 3s-13 11-23 17l-8 145 237-4-43-159-8-33Z" fill="#F45648"/>
  <path fill-rule="evenodd" clip-rule="evenodd" d="M469 467s1 40-1 46c-3 6 6 23 32 27 27 4 28-10 28-15-3-22-2-43-2-43" fill="#fff"/>
  <path fill-rule="evenodd" clip-rule="evenodd" d="m509 543-10-1c-20-3-28-13-31-18-2-4-3-8-2-11l1-46 2-2 2 2c0 4 1 41-1 47-1 2-1 5 2 8 2 4 9 13 28 16 10 2 17 1 21-2s5-8 5-11c-3-21-2-43-2-43l2-2 2 2s-1 22 2 43v1c0 3-1 9-6 13-4 3-9 4-15 4Z" fill="#141414"/>
  <path fill-rule="evenodd" clip-rule="evenodd" d="M549 423c-6-50-39-53-62-48-19 3-43 19-41 50-10-3-16 3-18 10-1 9 3 23 17 20 3 25 20 53 66 48 34-4 43-35 38-80Z" fill="#fff"/>
  <path fill-rule="evenodd" clip-rule="evenodd" d="M447 455c2 14 8 27 19 36 13 12 56 17 71-4 13-13 15-58 5-84-7 1-17 2-26 1-3-3-5-9-7-13l-2-4c-1 1 1 10 2 15v3c-13 6-41 10-57 7l1 9c1 6 2 11-7 6-13-9-20 14-11 23 5 5 9 5 12 5Zm20-114c-5 2-18 8-18 13 21-17 90-25 111 38 7 21 11 99 10 106-11 2-27 5-42 5l-1-3c-17 9-43 7-59-3v8l1 3c-16 2-38-4-38-4s-39-79-2-126c-9-2-27-14-15-40 10-20 44-21 53 3Zm-24 99-2 2c-3-1-3-6 0-7 2-1 3 1 2 4v1Z" fill="#141414"/>
  <path fill-rule="evenodd" clip-rule="evenodd" d="M530 421h-9l-1-1c-1-3 4-4 5-4 3-1 12 1 10 5h-5Zm8 14c3-2-2-6-4-7-6-2-13 0-16 5a2 2 0 0 0 3 3l3-3c4-2 9-2 12 2h2Zm-26 14c11 4 7 16-4 15-3 0-3-4 0-4 2 0 5 0 6-2 1-3-1-5-4-6l-2-3v-15c0-2 3-2 3 0v4l1 11Zm-23-9-2-2c-4 0-8 3-9 7l-2 1c-2-1-1-4 1-6v-1c2-3 6-5 10-5l6 3c2 2-2 5-4 3Zm-6-15 3-1c0-3-7-3-9-3s-8 1-8 5l2 1 5-1 5-1h2Zm34 44h11c4 7-3 15-9 18-10 5-29 0-27-13l1-2h3l18-3h3Z" fill="#141414"/>
  <path fill-rule="evenodd" clip-rule="evenodd" d="M530 443v2c2 0 2-2 0-2Zm-40 6c-2 1-1 5 1 4s1-5-1-4Zm-7 3c-2 1-1 3 1 2 1 0 0-3-1-2Zm4 7c-3 1-1 5 2 4 2-1 0-5-2-4Zm-8 1c-1-3-6 2-2 3 2 0 3-1 2-3Zm50-9c-2 0-2 4 1 3 2 0 2-3-1-3Zm7-2c0 1 2 2 3 1 3-2-3-5-3-1Zm-13-5c-2 0-2 3 0 3s2-3 0-3Z" fill="#FF4B33"/>
  <path fill-rule="evenodd" clip-rule="evenodd" d="m743 452-7 2c-4 3-7 9-5 12l3 3 7-2c4-3 4-8 4-14l-2-1Zm-10 111h-2c-5-2-6-10-6-16 0-11 9-21 19-32 10-12 21-24 20-38 0-9-7-20-16-24 1 9-1 14-4 17-3 2-7 3-11 3-2-1-4-2-5-5-4-5 1-14 6-17 3-2 7-3 10-2l-4-18-9-18c-4-5-7-10-8-18-1-9 1-19 7-29l2-1 1 3c-5 9-7 18-6 27 1 7 4 11 7 16a88 88 0 0 1 14 37v1c11 3 19 17 20 28 1 15-11 28-22 41-9 10-18 20-17 29 0 9 2 11 3 12h2c1-1 2 0 3 1l-1 2-3 1Z" fill="#FFC81A"/>
  <path fill-rule="evenodd" clip-rule="evenodd" d="M785 107c-42-19-88-5-117 18-3 3-42 35-44 88-2 56 38 125 101 132-10 4-23 20-14 32 3 4 10 8 14 2 7 10 16 12 18 0 23-5 4-28-7-34 64-1 109-68 111-125 2-38-14-91-62-113Z" fill="#FFC81A"/>
  <path d="M699 132a3 3 0 0 1 4 6c-32 21-45 51-39 91a3 3 0 0 1-6 1c-7-43 7-75 41-98Z" fill="#fff"/>
</svg>
