<svg width="2119" height="1343" viewBox="0 0 2119 1343" fill="none" xmlns="http://www.w3.org/2000/svg">
<path fill-rule="evenodd" clip-rule="evenodd" d="M1490.5 5.07422H548.5C521.438 5.07422 499.5 27.0123 499.5 54.0742V778.074C499.5 805.136 521.438 827.074 548.5 827.074H1490.5C1517.56 827.074 1539.5 805.136 1539.5 778.074V54.0742C1539.5 27.0122 1517.56 5.07422 1490.5 5.07422ZM548.5 0.0742188C518.677 0.0742188 494.5 24.2508 494.5 54.0742V778.074C494.5 807.897 518.677 832.074 548.5 832.074H1490.5C1520.32 832.074 1544.5 807.897 1544.5 778.074V54.0742C1544.5 24.2508 1520.32 0.0742188 1490.5 0.0742188H548.5Z" fill="#141414"/>
<path fill-rule="evenodd" clip-rule="evenodd" d="M1490.5 5.07422H548.5C521.438 5.07422 499.5 27.0122 499.5 54.0742V121.074H1539.5V54.0742C1539.5 27.0122 1517.56 5.07422 1490.5 5.07422ZM548.5 0.0742188C518.677 0.0742188 494.5 24.2508 494.5 54.0742V126.074H1544.5V54.0742C1544.5 24.2508 1520.32 0.0742188 1490.5 0.0742188H548.5Z" fill="#141414"/>
<path d="M579.5 85.0742C590.546 85.0742 599.5 76.1199 599.5 65.0742C599.5 54.0285 590.546 45.0742 579.5 45.0742C568.454 45.0742 559.5 54.0285 559.5 65.0742C559.5 76.1199 568.454 85.0742 579.5 85.0742Z" fill="#FF4B33"/>
<path fill-rule="evenodd" clip-rule="evenodd" d="M599.5 65.0742C599.5 54.0285 590.546 45.0742 579.5 45.0742C568.454 45.0742 559.5 54.0285 559.5 65.0742C559.5 76.1199 568.454 85.0742 579.5 85.0742C590.546 85.0742 599.5 76.1199 599.5 65.0742ZM563.5 65.0742C563.5 56.2376 570.663 49.0742 579.5 49.0742C588.337 49.0742 595.5 56.2376 595.5 65.0742C595.5 73.9108 588.337 81.0742 579.5 81.0742C570.663 81.0742 563.5 73.9108 563.5 65.0742Z" fill="#141414"/>
<path fill-rule="evenodd" clip-rule="evenodd" d="M663.5 65.0742C663.5 54.0285 654.546 45.0742 643.5 45.0742C632.454 45.0742 623.5 54.0285 623.5 65.0742C623.5 76.1199 632.454 85.0742 643.5 85.0742C654.546 85.0742 663.5 76.1199 663.5 65.0742ZM627.5 65.0742C627.5 56.2376 634.663 49.0742 643.5 49.0742C652.337 49.0742 659.5 56.2376 659.5 65.0742C659.5 73.9108 652.337 81.0742 643.5 81.0742C634.663 81.0742 627.5 73.9108 627.5 65.0742Z" fill="#141414"/>
<path fill-rule="evenodd" clip-rule="evenodd" d="M727.5 65.0742C727.5 54.0285 718.546 45.0742 707.5 45.0742C696.454 45.0742 687.5 54.0285 687.5 65.0742C687.5 76.1199 696.454 85.0742 707.5 85.0742C718.546 85.0742 727.5 76.1199 727.5 65.0742ZM691.5 65.0742C691.5 56.2376 698.663 49.0742 707.5 49.0742C716.337 49.0742 723.5 56.2376 723.5 65.0742C723.5 73.9108 716.337 81.0742 707.5 81.0742C698.663 81.0742 691.5 73.9108 691.5 65.0742Z" fill="#141414"/>
<path fill-rule="evenodd" clip-rule="evenodd" d="M978 459.267C978 412.68 1022.42 375.135 1076.98 375.135C1131.54 375.135 1175.96 412.68 1175.96 459.267C1175.96 487.5 1159.49 513.276 1132.69 528.805L1132.6 528.852L1132.63 529.883C1133.06 544.548 1135.79 554.491 1140.66 556.917L1141 557.082C1143.64 558.456 1142.85 562.515 1139.81 562.727C1127.01 563.616 1116.63 560.767 1108.49 555.008C1103.26 551.304 1099.37 546.72 1096.61 541.824L1096.56 541.727L1096.22 541.787C1090.3 542.782 1084.31 543.323 1078.27 543.39L1076.98 543.398C1022.42 543.398 978 505.854 978 459.267ZM1169.96 459.267C1169.96 416.238 1128.43 381.135 1076.98 381.135C1025.53 381.135 984 416.238 984 459.267C984 502.296 1025.53 537.398 1076.98 537.398C1083.94 537.398 1090.84 536.734 1097.63 535.439C1098.95 535.186 1100.29 535.851 1100.88 537.064C1103.26 541.909 1106.88 546.511 1111.96 550.111C1117.37 553.942 1123.99 556.289 1132 556.787L1132.2 556.799L1131.98 556.426C1128.32 550.273 1126.75 540.423 1126.59 527.746L1126.58 527.148C1126.57 526.048 1127.16 525.03 1128.12 524.497C1154.08 510.091 1169.96 485.781 1169.96 459.267Z" fill="#141414"/>
<path fill-rule="evenodd" clip-rule="evenodd" d="M1047.18 461.38C1047.18 467.058 1042.58 471.66 1036.91 471.66C1031.23 471.66 1026.62 467.058 1026.62 461.38C1026.62 455.703 1031.23 451.101 1036.91 451.101C1042.58 451.101 1047.18 455.703 1047.18 461.38Z" fill="#141414"/>
<path fill-rule="evenodd" clip-rule="evenodd" d="M1087.52 461.38C1087.52 467.058 1082.92 471.66 1077.24 471.66C1071.57 471.66 1066.96 467.058 1066.96 461.38C1066.96 455.703 1071.57 451.101 1077.24 451.101C1082.92 451.101 1087.52 455.703 1087.52 461.38Z" fill="#141414"/>
<path fill-rule="evenodd" clip-rule="evenodd" d="M1127.86 461.38C1127.86 467.058 1123.26 471.66 1117.58 471.66C1111.9 471.66 1107.3 467.058 1107.3 461.38C1107.3 455.703 1111.9 451.101 1117.58 451.101C1123.26 451.101 1127.86 455.703 1127.86 461.38Z" fill="#141414"/>
<path fill-rule="evenodd" clip-rule="evenodd" d="M834.5 428.49C834.5 383.682 877.47 347.358 930.479 347.358C983.487 347.358 1026.46 383.682 1026.46 428.49C1026.46 473.298 983.487 509.62 930.479 509.62C923.187 509.62 916.095 508.911 909.269 507.609C905.601 515.079 894.641 530.817 867.859 528.957C875.69 525.394 877.75 510.334 877.88 496.342C851.761 481.843 834.5 456.877 834.5 428.49Z" fill="#FF4B33"/>
<path fill-rule="evenodd" clip-rule="evenodd" d="M899.551 432.254C899.551 437.932 894.949 442.534 889.272 442.534C883.594 442.534 878.992 437.932 878.992 432.254C878.992 426.577 883.594 421.975 889.272 421.975C894.949 421.975 899.551 426.577 899.551 432.254Z" fill="white"/>
<path fill-rule="evenodd" clip-rule="evenodd" d="M939.887 432.254C939.887 437.932 935.285 442.534 929.608 442.534C923.93 442.534 919.328 437.932 919.328 432.254C919.328 426.577 923.93 421.975 929.608 421.975C935.285 421.975 939.887 426.577 939.887 432.254Z" fill="white"/>
<path fill-rule="evenodd" clip-rule="evenodd" d="M980.227 432.254C980.227 437.932 975.625 442.534 969.947 442.534C964.27 442.534 959.668 437.932 959.668 432.254C959.668 426.577 964.27 421.975 969.947 421.975C975.625 421.975 980.227 426.577 980.227 432.254Z" fill="white"/>
<path d="M1158.39 341.769C1158.97 340.218 1160.7 339.433 1162.25 340.016C1163.75 340.578 1164.53 342.206 1164.06 343.713L1164.01 343.88L1154.19 370.011C1153.6 371.562 1151.87 372.347 1150.32 371.764C1148.83 371.202 1148.05 369.574 1148.51 368.067L1148.57 367.901L1158.39 341.769Z" fill="#141414"/>
<path d="M1189.86 364.979C1191.14 363.928 1193.03 364.115 1194.08 365.396C1195.09 366.627 1194.96 368.423 1193.81 369.493L1193.66 369.618L1172.61 386.89C1171.33 387.941 1169.43 387.754 1168.38 386.473C1167.37 385.241 1167.51 383.446 1168.66 382.376L1168.8 382.251L1189.86 364.979Z" fill="#141414"/>
<path d="M1205.78 400.131C1207.42 399.897 1208.94 401.037 1209.18 402.677C1209.4 404.258 1208.35 405.728 1206.8 406.041L1206.63 406.071L1182.43 409.525C1180.79 409.759 1179.27 408.619 1179.04 406.979C1178.81 405.398 1179.86 403.928 1181.41 403.615L1181.58 403.585L1205.78 400.131Z" fill="#141414"/>
<path fill-rule="evenodd" clip-rule="evenodd" d="M1690.25 888.081H1132.39C1118.66 888.081 1107.5 876.917 1107.5 863.195V480.96C1107.5 467.238 1118.66 456.074 1132.39 456.074H1690.25C1703.97 456.074 1715.13 467.238 1715.13 480.96V863.195C1715.13 876.917 1703.97 888.081 1690.25 888.081Z" fill="white"/>
<path fill-rule="evenodd" clip-rule="evenodd" d="M1132.39 460.074C1120.87 460.074 1111.5 469.443 1111.5 480.96V863.195C1111.5 874.712 1120.87 884.081 1132.39 884.081H1690.25C1701.76 884.081 1711.13 874.712 1711.13 863.195V480.96C1711.13 469.443 1701.76 460.074 1690.25 460.074H1132.39ZM1690.25 888.081H1132.39C1118.66 888.081 1107.5 876.917 1107.5 863.195V480.96C1107.5 467.238 1118.66 456.074 1132.39 456.074H1690.25C1703.97 456.074 1715.13 467.238 1715.13 480.96V863.195C1715.13 876.917 1703.97 888.081 1690.25 888.081Z" fill="#141414"/>
<path fill-rule="evenodd" clip-rule="evenodd" d="M1712.2 537.694H1109.5C1108.4 537.694 1107.5 536.798 1107.5 535.694C1107.5 534.59 1108.4 533.694 1109.5 533.694H1712.2C1713.3 533.694 1714.2 534.59 1714.2 535.694C1714.2 536.798 1713.3 537.694 1712.2 537.694Z" fill="#141414"/>
<path fill-rule="evenodd" clip-rule="evenodd" d="M1188.71 487.429C1183.68 487.429 1179.59 491.519 1179.59 496.546C1179.59 501.574 1183.68 505.663 1188.71 505.663C1193.73 505.663 1197.82 501.574 1197.82 496.546C1197.82 491.519 1193.73 487.429 1188.71 487.429ZM1188.71 509.663C1181.47 509.663 1175.59 503.779 1175.59 496.546C1175.59 489.313 1181.47 483.429 1188.71 483.429C1195.94 483.429 1201.82 489.313 1201.82 496.546C1201.82 503.779 1195.94 509.663 1188.71 509.663Z" fill="#141414"/>
<path fill-rule="evenodd" clip-rule="evenodd" d="M1226.55 487.429C1221.53 487.429 1217.43 491.519 1217.43 496.546C1217.43 501.574 1221.53 505.663 1226.55 505.663C1231.58 505.663 1235.67 501.574 1235.67 496.546C1235.67 491.519 1231.58 487.429 1226.55 487.429ZM1226.55 509.663C1219.32 509.663 1213.43 503.779 1213.43 496.546C1213.43 489.313 1219.32 483.429 1226.55 483.429C1233.79 483.429 1239.67 489.313 1239.67 496.546C1239.67 503.779 1233.79 509.663 1226.55 509.663Z" fill="#141414"/>
<path fill-rule="evenodd" clip-rule="evenodd" d="M1161.98 496.546C1161.98 502.686 1157 507.663 1150.86 507.663C1144.72 507.663 1139.74 502.686 1139.74 496.546C1139.74 490.406 1144.72 485.429 1150.86 485.429C1157 485.429 1161.98 490.406 1161.98 496.546Z" fill="#FF4B33"/>
<path fill-rule="evenodd" clip-rule="evenodd" d="M1150.86 487.429C1145.83 487.429 1141.74 491.519 1141.74 496.546C1141.74 501.574 1145.83 505.663 1150.86 505.663C1155.89 505.663 1159.98 501.574 1159.98 496.546C1159.98 491.519 1155.89 487.429 1150.86 487.429ZM1150.86 509.663C1143.63 509.663 1137.74 503.779 1137.74 496.546C1137.74 489.313 1143.63 483.429 1150.86 483.429C1158.09 483.429 1163.98 489.313 1163.98 496.546C1163.98 503.779 1158.09 509.663 1150.86 509.663Z" fill="#141414"/>
<path fill-rule="evenodd" clip-rule="evenodd" d="M1476.7 682.423C1476.7 718.513 1447.44 747.771 1411.35 747.771C1375.26 747.771 1346 718.513 1346 682.423C1346 646.332 1375.26 617.074 1411.35 617.074C1447.44 617.074 1476.7 646.332 1476.7 682.423Z" fill="#13D6C3"/>
<path fill-rule="evenodd" clip-rule="evenodd" d="M1388.85 682.423V652.982L1414.35 667.702L1439.85 682.423L1414.35 697.143L1388.85 711.863V682.423Z" fill="white"/>
<path fill-rule="evenodd" clip-rule="evenodd" d="M151.073 1214.53C151.073 1214.53 136.605 1186.5 165.609 1142.31C227.021 1048.73 127.705 1093.86 105.735 1029.95C87.8209 977.844 117.646 925.196 87.6969 911.247C38.6729 888.415 -12.4312 854.756 20.3939 816.673C43.4259 789.951 122.766 792.361 153.876 874.594C173.343 926.053 250.053 891.725 318.113 973.247C338.383 997.525 382.896 1100.27 359.538 1214.53H151.073Z" fill="#141414"/>
<path fill-rule="evenodd" clip-rule="evenodd" d="M232.4 1214.53C232.4 1214.53 199.267 1173.47 215.337 1128.44C228.299 1092.11 263.08 1082.18 264.246 1051.58C265.715 1013 227.005 1018.3 220.88 970.667C216.121 933.648 238.764 899.602 237.274 879.913C235.019 850.126 184.108 834.668 166.627 789.873C144.463 733.079 213.465 720.106 244.2 739.312C282.779 763.421 284.083 799.392 300.995 821.041C320.202 845.629 380.325 851.149 388.957 911.772C394.431 950.221 371.978 983.63 382.56 1016.18C390.421 1040.36 437.35 1051.04 447.227 1104.47C457.858 1161.98 414.981 1214.53 414.981 1214.53H232.4Z" fill="#FFB500"/>
<path fill-rule="evenodd" clip-rule="evenodd" d="M328.477 1214.53H332.526C333.979 1205.15 346.717 1116.44 327.897 1010.78C311.689 919.788 262.569 834.724 222.005 785.458C221.303 784.605 220.044 784.483 219.19 785.185C218.337 785.887 218.215 787.148 218.917 788.001C241.131 814.98 263.129 849.49 280.859 885.174C301.869 927.457 316.772 971.134 323.959 1011.48C343.272 1119.9 329.159 1210.31 328.477 1214.53Z" fill="#070707"/>
<path fill-rule="evenodd" clip-rule="evenodd" d="M1672.07 1248.07C1672.07 1248.07 1568.79 1186.18 1589.83 1074.19C1602.38 1007.33 1644.96 1010.61 1669.61 959.999C1685.34 927.697 1661.44 841.006 1710.5 783.978C1756.32 730.703 1831.26 735.532 1855.39 723.959C1887.74 708.449 1900.06 675.865 1909.3 649.104C1943.78 549.331 2023.44 552.025 2036.41 601.663C2052.04 661.508 2037.08 697.576 1963.52 756.225C1908.26 800.294 1989.17 849.737 1941.04 929.977C1914.15 974.813 1841.82 998.117 1877.15 1056.09C1925.53 1135.48 1916.44 1213.52 1891.78 1248.07H1672.07Z" fill="#FF4B33"/>
<path fill-rule="evenodd" clip-rule="evenodd" d="M1973.41 652.649C1972.62 651.875 1971.36 651.882 1970.59 652.669C1970.33 652.932 1944.24 679.541 1910.28 725.548C1878.95 767.997 1834.28 836.151 1799.41 919.773C1768.43 994.058 1734.12 1098.49 1743.61 1248.07H1747.6C1738.11 1099.18 1772.26 995.239 1803.09 921.312C1869.51 762.031 1972.39 656.521 1973.43 655.473C1974.2 654.689 1974.19 653.423 1973.41 652.649Z" fill="white"/>
<path fill-rule="evenodd" clip-rule="evenodd" d="M2041.73 882.074C2035.49 882.074 2029.13 887.238 2029.13 893.494C2029.13 894.535 2029.28 895.537 2029.55 896.495C1976.7 922.476 1929.57 956.125 1889.32 996.635C1855.08 1031.1 1825.72 1070.58 1802.06 1113.97C1781.01 1152.58 1768.46 1187.2 1761.64 1209.45C1755.26 1230.26 1752.55 1244.45 1751.91 1248.07H1755.97C1756.77 1243.67 1759.47 1230.12 1765.45 1210.62C1772.22 1188.55 1784.67 1154.2 1805.56 1115.89C1829.04 1072.83 1858.18 1033.66 1892.15 999.458C1932.07 959.271 1978.83 925.886 2031.27 900.103C2033.32 902.957 2036.66 904.822 2040.43 904.822C2046.68 904.822 2051.91 900.838 2051.91 894.582C2051.91 888.327 2047.97 882.074 2041.73 882.074Z" fill="#141414"/>
<path fill-rule="evenodd" clip-rule="evenodd" d="M2108.34 1011.03C2102.08 1011.03 2095.71 1016.19 2095.71 1022.45V1022.45C2076.34 1025.92 2043.65 1033.18 1984.23 1055.05C1905.15 1084.17 1850.49 1135 1818.56 1172.52C1783.96 1213.18 1767.82 1247.46 1767.66 1247.8C1767.62 1247.89 1767.59 1247.98 1767.56 1248.07H1771.98C1775.35 1241.28 1791.34 1210.65 1821.7 1175.01C1853.31 1137.89 1907.4 1087.6 1985.62 1058.8C2044.73 1037.04 2077.2 1029.84 2096.43 1026.39C2098.03 1030.7 2102.17 1033.78 2107.04 1033.78C2113.29 1033.78 2118.54 1029.79 2118.54 1023.54C2118.54 1017.28 2114.59 1011.03 2108.34 1011.03Z" fill="#141414"/>
<path fill-rule="evenodd" clip-rule="evenodd" d="M0 1216.5C0 1215.4 0.8954 1214.5 2 1214.5H2042C2043.1 1214.5 2044 1215.4 2044 1216.5C2044 1217.6 2043.1 1218.5 2042 1218.5H2C0.8954 1218.5 0 1217.6 0 1216.5Z" fill="#141414"/>
<path fill-rule="evenodd" clip-rule="evenodd" d="M1502.59 1243.54L1494.52 1298.72L1415.15 1306.92L1427.46 1250.07L1502.59 1243.54Z" fill="white"/>
<path fill-rule="evenodd" clip-rule="evenodd" d="M1414.89 1308.92L1494.91 1301.06C1495.88 1300.97 1496.67 1300.22 1496.81 1299.25L1504.98 1243.43C1505.15 1242.27 1504.34 1241.19 1503.18 1241.02C1502.02 1240.86 1500.94 1241.66 1500.77 1242.82L1492.84 1296.99L1417.4 1304.4L1429.44 1250.62C1429.7 1249.48 1428.97 1248.34 1427.83 1248.08C1426.68 1247.82 1425.54 1248.55 1425.29 1249.69L1412.61 1306.34C1412.46 1307 1412.64 1307.7 1413.09 1308.21C1413.5 1308.67 1414.08 1308.93 1414.68 1308.93C1414.75 1308.93 1414.82 1308.93 1414.89 1308.92Z" fill="#141414"/>
<path fill-rule="evenodd" clip-rule="evenodd" d="M1498.11 1292.25C1497.85 1291.23 1496.85 1290.59 1495.82 1290.77C1494.84 1290.95 1493.59 1291.19 1492.13 1291.47C1483.14 1293.2 1464.45 1296.8 1446.74 1296.81H1446.7C1436.26 1296.81 1427.09 1293.96 1420.86 1288.77C1420.37 1288.36 1419.7 1288.22 1419.08 1288.38C1388.68 1296.29 1366.72 1302.01 1350.44 1312.86C1347.58 1314.77 1337.26 1323.1 1339.05 1328.99C1339.87 1331.71 1342.81 1333.09 1347.78 1333.09C1365.93 1333.09 1405.02 1333.19 1439.51 1333.28C1467.41 1333.36 1491.51 1333.42 1500.59 1333.42C1501.55 1333.42 1502.41 1332.99 1503.02 1332.2C1506.6 1327.6 1500.78 1302.73 1498.11 1292.25Z" fill="#FF8333"/>
<path fill-rule="evenodd" clip-rule="evenodd" d="M1500.22 1342.23H1343.38C1340.78 1342.23 1338.66 1340.12 1338.66 1337.51V1335.95C1338.66 1333.34 1340.78 1331.23 1343.38 1331.23H1500.22C1502.83 1331.23 1504.94 1333.34 1504.94 1335.95V1337.51C1504.94 1340.12 1502.83 1342.23 1500.22 1342.23Z" fill="#141414"/>
<path fill-rule="evenodd" clip-rule="evenodd" d="M1387.93 1307.22C1387.13 1307.22 1386.37 1306.77 1386 1306C1382.67 1299 1376.26 1300.71 1375.54 1300.93C1374.42 1301.27 1373.23 1300.65 1372.88 1299.53C1372.53 1298.41 1373.15 1297.23 1374.26 1296.87C1377.9 1295.72 1385.84 1295.76 1389.84 1304.18C1390.35 1305.24 1389.9 1306.5 1388.84 1307.01C1388.54 1307.15 1388.23 1307.22 1387.93 1307.22Z" fill="#141414"/>
<path fill-rule="evenodd" clip-rule="evenodd" d="M1406.71 1302.09C1405.91 1302.09 1405.15 1301.65 1404.78 1300.88C1401.45 1293.87 1395.04 1295.59 1394.32 1295.81C1393.2 1296.15 1392.01 1295.52 1391.66 1294.41C1391.31 1293.29 1391.93 1292.1 1393.04 1291.75C1396.68 1290.6 1404.62 1290.64 1408.62 1299.05C1409.13 1300.11 1408.68 1301.38 1407.62 1301.89C1407.32 1302.03 1407.01 1302.09 1406.71 1302.09Z" fill="#141414"/>
<path fill-rule="evenodd" clip-rule="evenodd" d="M1645.03 1243.4L1647.4 1299.15L1717.3 1305.14L1716.23 1249.16L1645.03 1243.4Z" fill="white"/>
<path fill-rule="evenodd" clip-rule="evenodd" d="M1717.46 1307.26C1718 1307.26 1718.52 1307.06 1718.92 1306.68C1719.36 1306.27 1719.6 1305.7 1719.59 1305.09L1718.57 1249.09C1718.55 1247.92 1717.55 1246.98 1716.41 1247.01C1715.23 1247.03 1714.3 1248 1714.32 1249.17L1715.29 1302.82L1649.45 1297.31L1647.1 1243.04C1647.05 1241.86 1646.06 1240.95 1644.89 1241C1643.71 1241.05 1642.8 1242.05 1642.85 1243.22L1645.28 1299.36C1645.33 1300.43 1646.16 1301.3 1647.23 1301.39L1717.29 1307.25C1717.35 1307.26 1717.4 1307.26 1717.46 1307.26Z" fill="#141414"/>
<path fill-rule="evenodd" clip-rule="evenodd" d="M1642.55 1292.57C1642.81 1291.56 1643.81 1290.91 1644.85 1291.1C1645.83 1291.27 1647.07 1291.51 1648.54 1291.8C1657.52 1293.52 1676.21 1297.12 1693.92 1297.14H1693.97C1704.4 1297.14 1713.58 1294.28 1719.8 1289.1C1720.3 1288.68 1720.96 1288.54 1721.59 1288.7C1751.98 1296.61 1773.95 1302.33 1790.22 1313.19C1793.08 1315.09 1803.4 1323.42 1801.62 1329.31C1800.79 1332.04 1797.85 1333.42 1792.88 1333.42C1774.74 1333.42 1735.65 1333.52 1701.16 1333.61C1673.25 1333.68 1649.15 1333.74 1640.08 1333.74C1639.12 1333.74 1638.25 1333.31 1637.64 1332.52C1634.07 1327.92 1639.89 1303.05 1642.55 1292.57Z" fill="#FF8333"/>
<path fill-rule="evenodd" clip-rule="evenodd" d="M1640.44 1342.55H1797.28C1799.89 1342.55 1802 1340.44 1802 1337.83V1336.27C1802 1333.67 1799.89 1331.55 1797.28 1331.55H1640.44C1637.84 1331.55 1635.72 1333.67 1635.72 1336.27V1337.83C1635.72 1340.44 1637.84 1342.55 1640.44 1342.55Z" fill="#141414"/>
<path fill-rule="evenodd" clip-rule="evenodd" d="M1752.74 1307.54C1753.53 1307.54 1754.3 1307.09 1754.66 1306.33C1758 1299.32 1764.41 1301.03 1765.13 1301.26C1766.25 1301.59 1767.44 1300.97 1767.78 1299.85C1768.13 1298.74 1767.52 1297.55 1766.4 1297.2C1762.77 1296.04 1754.83 1296.08 1750.82 1304.5C1750.32 1305.56 1750.77 1306.83 1751.83 1307.33C1752.12 1307.47 1752.43 1307.54 1752.74 1307.54Z" fill="#141414"/>
<path fill-rule="evenodd" clip-rule="evenodd" d="M1733.96 1302.42C1734.75 1302.42 1735.51 1301.97 1735.88 1301.21C1739.22 1294.2 1745.63 1295.91 1746.35 1296.13C1747.47 1296.47 1748.66 1295.85 1749 1294.73C1749.35 1293.61 1748.73 1292.43 1747.62 1292.07C1743.98 1290.92 1736.04 1290.96 1732.04 1299.38C1731.53 1300.44 1731.98 1301.71 1733.04 1302.21C1733.34 1302.35 1733.65 1302.42 1733.96 1302.42Z" fill="#141414"/>
<path fill-rule="evenodd" clip-rule="evenodd" d="M1737.73 614.949L1790 1274.09C1738.46 1278.31 1683.66 1277.7 1626.84 1274.09C1626.84 1274.09 1617.84 723.164 1612.89 722.605C1603.63 721.561 1558.15 1274.09 1558.15 1274.09C1506.74 1282.42 1456.32 1279.88 1406.2 1274.09C1406.2 1274.09 1444.34 785.983 1509.64 612.486C1612.84 617.072 1737.73 614.949 1737.73 614.949Z" fill="#0B379B"/>
<path fill-rule="evenodd" clip-rule="evenodd" d="M1680.7 636.433C1681.93 635.798 1683.44 636.276 1684.07 637.502C1700.64 669.465 1736.42 666.442 1737.98 666.291C1739.36 666.157 1740.57 667.162 1740.71 668.536C1740.84 669.91 1739.84 671.133 1738.46 671.268C1738.39 671.275 1737.16 671.384 1735.06 671.384C1724.91 671.384 1694.68 668.829 1679.63 639.803C1679 638.578 1679.48 637.069 1680.7 636.433Z" fill="white"/>
<path fill-rule="evenodd" clip-rule="evenodd" d="M1497.17 661.581C1498.64 661.727 1533.36 664.775 1549.43 632.792C1550.05 631.565 1551.51 631.088 1552.7 631.723C1553.89 632.358 1554.35 633.867 1553.74 635.093C1539.15 664.122 1509.84 666.674 1500 666.674C1497.97 666.674 1496.77 666.564 1496.7 666.558C1495.37 666.423 1494.4 665.201 1494.52 663.828C1494.65 662.455 1495.84 661.45 1497.17 661.581Z" fill="white"/>
<path fill-rule="evenodd" clip-rule="evenodd" d="M1738.66 615.827C1740.05 604.531 1750.28 530.11 1752.66 488.018C1769.63 491.595 1771.97 414.422 1750.04 364.995C1715.09 286.255 1595.13 310.873 1595.13 310.873C1595.13 310.873 1559.28 309.195 1523.9 338.152C1508.09 351.096 1490.67 380 1482.01 411.737C1484.72 420.514 1513.39 459.859 1523.84 466.553C1507.68 545.03 1494.9 615.827 1494.9 615.827C1494.9 615.827 1703.18 619.08 1738.66 615.827Z" fill="#FF8333"/>
<path fill-rule="evenodd" clip-rule="evenodd" d="M1497.26 614.904C1499.54 601.893 1511.4 536.896 1525.8 466.956C1525.96 466.145 1525.61 465.315 1524.92 464.869C1514.82 458.401 1487.54 420.788 1484.1 411.671C1492.32 381.981 1508.78 353.116 1525.17 339.7C1559.49 311.609 1594.68 312.851 1595.03 312.871C1595.2 312.875 1595.36 312.865 1595.53 312.832C1595.82 312.772 1625.69 306.774 1659.36 310.405C1679.03 312.527 1696.12 317.471 1710.18 325.102C1727.63 334.579 1740.43 348.274 1748.21 365.807C1756.73 385.022 1762.37 410.678 1763.66 436.197C1764.82 458.959 1762.23 477.789 1757.07 484.168C1755.37 486.261 1753.98 486.254 1753.07 486.061C1752.5 485.942 1751.91 486.076 1751.45 486.429C1750.98 486.784 1750.7 487.322 1750.66 487.905C1748.61 524.255 1740.14 582.599 1736.96 607.197C1736.61 609.905 1736.32 612.103 1736.12 613.693C1699.22 616.405 1519.74 615.641 1497.26 614.904ZM1738.08 617.545C1739.02 617.459 1739.77 616.732 1739.89 615.797C1740.07 614.278 1740.43 611.495 1740.92 607.711C1744.06 583.509 1752.29 526.932 1754.54 490.097C1756.27 489.911 1758.27 489.04 1760.18 486.684C1766.01 479.473 1768.88 460.05 1767.66 435.995C1766.34 410.004 1760.58 383.83 1751.86 364.184C1737.27 331.299 1705.39 311.324 1659.69 306.418C1627.05 302.912 1597.93 308.292 1594.97 308.866C1591.43 308.744 1557.05 308.437 1522.64 336.604C1505.54 350.594 1488.44 380.575 1480.08 411.21C1479.98 411.577 1479.98 411.964 1480.1 412.327C1482.68 420.695 1509.8 458.537 1521.61 467.436C1505.76 544.572 1493.05 615.751 1492.92 616.485C1492.83 617.055 1492.98 617.64 1493.34 618.089C1493.71 618.537 1494.25 618.806 1494.83 618.826C1501.66 619.055 1632.57 618.426 1701.58 618.426C1718.22 618.426 1731.25 618.172 1738.08 617.545Z" fill="#141414"/>
<path fill-rule="evenodd" clip-rule="evenodd" d="M1644.53 280.126C1644.53 280.126 1645.89 314.564 1660.12 319.482C1663.99 338.838 1637.76 352.055 1617.82 351.119C1579.22 349.307 1591.23 317.756 1593.89 317.67C1593.81 313.715 1591.68 284.133 1591.68 284.133L1644.53 280.126Z" fill="white"/>
<path fill-rule="evenodd" clip-rule="evenodd" d="M1658.22 321.005C1658.91 326.067 1657.34 330.864 1653.55 335.28C1646.18 343.851 1631.2 349.628 1617.92 348.995C1604.65 348.372 1596.12 343.956 1593.26 336.225C1590.56 328.964 1593.53 321.09 1594.73 319.625C1595.5 319.293 1596.03 318.519 1596.01 317.629C1595.95 314.243 1594.44 292.984 1593.95 286.093L1642.54 282.41C1643.1 290.11 1645.88 315.258 1658.22 321.005ZM1619.85 353.293C1633.78 353.293 1649.02 347.073 1656.77 338.053C1661.67 332.355 1663.55 325.788 1662.21 319.066C1662.06 318.325 1661.53 317.719 1660.82 317.473C1650.28 313.832 1647.02 289.218 1646.66 280.042C1646.64 279.465 1646.38 278.922 1645.95 278.538C1645.52 278.154 1644.94 277.967 1644.37 278.005L1591.52 282.012C1590.35 282.101 1589.47 283.117 1589.56 284.286C1589.58 284.562 1591.42 310.22 1591.72 316.67C1589.41 319.165 1587.94 325.28 1587.91 329.611C1587.86 335.679 1589.94 340.974 1593.93 344.923C1598.98 349.941 1606.99 352.74 1617.72 353.244C1618.42 353.276 1619.14 353.293 1619.85 353.293Z" fill="#141414"/>
<path fill-rule="evenodd" clip-rule="evenodd" d="M1482.08 411.43L1536.94 419.118L1530.89 454.523C1530.89 454.523 1609.84 446.876 1636.96 437.898C1650.61 433.379 1668.25 438.41 1675.16 452.614C1678.82 460.128 1676.46 479.68 1676.46 479.68C1676.46 479.68 1651.03 479.333 1643.76 479.333C1643.02 479.333 1642.06 479.583 1640.92 480.031L1677.43 480.421L1679.26 427.725L1765.2 428.811C1765.2 428.811 1781.52 542.306 1716.2 559.975C1656.68 576.075 1584.77 521.586 1579.15 517.23C1551.22 531.767 1518.02 543.169 1486.75 535.188C1447.21 525.095 1480.47 415.906 1482.08 411.43Z" fill="white"/>
<path fill-rule="evenodd" clip-rule="evenodd" d="M1474.85 522.906C1477.81 528.491 1481.87 531.874 1487.25 533.249C1535.58 545.587 1588.13 511.121 1619.52 490.53C1629.91 483.719 1636.27 479.62 1640.45 478.061C1640.46 478.049 1640.47 478.037 1640.48 478.025L1640.55 478.026C1641.8 477.57 1642.86 477.332 1643.77 477.332C1649.83 477.332 1668.71 477.575 1674.67 477.655C1675.27 471.357 1675.88 458.658 1673.36 453.488C1668.1 442.678 1653.28 434.6 1637.59 439.796C1610.64 448.716 1534.75 456.157 1531.12 456.51L1518.05 458.251C1517.96 458.263 1517.87 458.269 1517.78 458.269C1516.8 458.269 1515.94 457.538 1515.8 456.533C1515.66 455.438 1516.43 454.432 1517.52 454.286L1529.16 452.734L1534.63 420.811L1483.47 413.642C1481.75 419.134 1476.55 437.224 1472.98 457.936C1467.75 488.264 1468.4 510.73 1474.85 522.906ZM1693.05 560.917C1700.7 560.917 1708.3 560.04 1715.68 558.044C1741.9 550.951 1757.89 527.244 1763.2 487.579C1766.66 461.814 1764.21 437.325 1763.44 430.788L1681.19 429.748L1679.43 480.489C1679.39 481.575 1678.49 482.409 1677.41 482.42L1641.25 482.033C1637.14 483.764 1629.88 488.523 1621.72 493.874C1610.92 500.954 1597.67 509.642 1582.92 517.555C1595.28 526.622 1645.2 560.92 1693.05 560.917ZM1480.2 410.75C1480.53 409.861 1481.42 409.32 1482.36 409.448L1535.36 416.875L1542.02 383.891C1542.24 382.808 1543.29 382.106 1544.37 382.326C1545.46 382.545 1546.16 383.599 1545.94 384.682L1538.91 419.486L1533.3 452.27C1547.18 450.853 1612.5 443.888 1636.33 435.999C1643.53 433.615 1651.88 433.743 1659.25 436.348C1666.84 439.033 1672.91 444.133 1676.46 450.767L1677.25 427.976C1677.24 427.89 1677.22 427.806 1677.23 427.718L1677.93 387.017C1677.94 385.913 1678.81 385.013 1679.96 385.052C1681.06 385.071 1681.94 385.982 1681.93 387.086L1681.26 425.749L1765.23 426.81C1766.21 426.823 1767.04 427.551 1767.18 428.526C1767.22 428.812 1771.25 457.527 1767.18 488.031C1761.72 528.908 1744.27 554.453 1716.72 561.905C1708.97 564.001 1701.03 564.905 1693.08 564.905C1667.59 564.905 1642.12 555.601 1623.38 546.548C1601.05 535.759 1583.94 523.351 1579 519.625C1557.47 530.756 1533.05 539.853 1508.56 539.853C1501.11 539.853 1493.65 539.01 1486.26 537.125C1479.81 535.478 1474.78 531.324 1471.32 524.779C1454.15 492.381 1479.92 411.528 1480.2 410.75Z" fill="#141414"/>
<path fill-rule="evenodd" clip-rule="evenodd" d="M1577.83 231.613C1589.28 181.454 1621.88 177.833 1645.5 182.127C1664.32 185.549 1682.6 201.732 1680.47 233.039C1687.11 226.644 1696.56 230.54 1698.32 237.878C1700.38 246.445 1694.95 265.902 1681 263.439C1679.65 286.434 1660.65 320.121 1622.94 319.812C1581.87 319.476 1567.69 276.072 1577.83 231.613Z" fill="white"/>
<path fill-rule="evenodd" clip-rule="evenodd" d="M1683.04 261.437C1681.02 261.458 1679.44 261.475 1679 263.321C1671.88 333.435 1575.28 339.722 1576.67 259.61C1576.53 242.366 1580.81 221.388 1589.13 207.142C1598.34 208.787 1609.64 207.238 1620.65 202.874C1623.14 201.884 1625.9 203.097 1629.43 204.648C1634.44 206.854 1641.01 209.742 1650.58 207.957C1670.16 204.307 1670.72 215.056 1668.32 227.219C1664.63 245.919 1677.38 240.113 1681.34 234.837C1683.96 232.468 1687.15 231.116 1690.41 232.151C1700.79 235.849 1697.05 250.829 1690.95 258.166C1688.52 261.38 1685.47 261.412 1683.04 261.437ZM1577.29 174.306C1564.84 177.098 1566.55 193.292 1576.83 201.955C1571.76 210.458 1568.6 235.671 1573.5 244.936C1570.67 268.903 1575.18 290.567 1586.29 304.612C1612.2 337.344 1664.11 319.043 1676.56 287.163C1688.59 283.155 1713.35 255.936 1699.99 208.284C1700.81 207.524 1703.24 207.808 1705.62 208.085C1708.81 208.457 1711.89 208.817 1710.76 206.606C1710.33 205.741 1705 204.305 1701.43 203.343C1700.43 203.073 1699.57 202.841 1698.99 202.669C1698.95 202.56 1699.06 201.471 1699.22 199.909C1699.9 193.173 1701.48 177.631 1695.39 193.834C1684.44 177.587 1675.25 176.509 1667.33 175.581C1661.53 174.901 1656.42 174.302 1651.8 167.874C1638.34 149.144 1622.29 147.052 1615.04 156.471C1609.19 164.078 1607.52 164.999 1601.65 160.519C1586.51 148.978 1578.24 159.583 1577.29 174.306ZM1688.96 244.805C1689.38 242.228 1688.69 240.957 1687.62 240.782C1686.54 240.607 1685.09 241.295 1684.67 243.872C1684.25 246.449 1685.18 248.98 1686.26 249.155C1687.33 249.329 1688.54 247.382 1688.96 244.805Z" fill="#141414"/>
<path fill-rule="evenodd" clip-rule="evenodd" d="M1595.01 234.999C1597.95 234.174 1600.92 234.055 1603.9 234.812C1604.66 234.961 1605.41 234.46 1605.56 233.692C1605.72 231.448 1601.34 230.458 1599.58 230.129C1597.01 229.53 1587.75 230.98 1590.16 235.007C1591.13 235.985 1592.45 235.63 1593.72 235.292C1594.16 235.172 1594.6 235.055 1595.01 234.999ZM1586.92 249.41C1583.64 247.387 1588.91 243.16 1590.73 242.474C1596.56 239.657 1604.03 242.042 1607.31 247.527C1607.78 248.23 1607.68 249.188 1607.05 249.789C1606.31 250.498 1605.12 250.413 1604.46 249.629C1603.36 248.472 1602.2 247.479 1600.9 246.783C1597.3 244.837 1591.82 245.521 1589.18 248.598C1588.71 249.348 1587.8 249.79 1586.92 249.41ZM1612.79 262.744C1601.87 267.314 1605.66 279.075 1617.07 278.179C1619.66 278.159 1619.67 274.218 1617.09 274.179C1614.93 274.126 1611.69 273.844 1610.73 271.961C1609.58 269.059 1612.5 267.133 1615.05 266.12C1616.15 265.607 1616.53 264.182 1616.69 263.338C1617.5 258.281 1617.38 253.236 1617.25 248.168L1617.24 247.745C1617.21 246.001 1614.51 245.98 1614.42 247.692C1614.29 249.058 1614.19 250.436 1614.09 251.817C1613.83 255.494 1613.56 259.191 1612.79 262.744ZM1635.64 253.968C1636.32 253.173 1637.29 252.637 1638.44 252.467C1642.38 251.917 1645.6 255.42 1646.88 258.928C1647.21 259.877 1648.27 260.366 1649.21 259.988C1651.48 258.816 1649.63 255.897 1648.4 253.959C1648.19 253.622 1647.99 253.314 1647.84 253.051C1645.63 250.019 1641.91 247.86 1637.98 248.231C1635.97 248.402 1633.91 249.287 1632.42 250.823C1630.37 252.938 1633.58 256.065 1635.64 253.968ZM1642.28 238.846C1641.1 238.869 1639.88 238.893 1639.38 237.807C1638.6 234.736 1646.14 235 1648.03 235.2C1650.43 235.569 1655.91 236.517 1656 239.591C1655.87 240.604 1654.94 241.318 1653.93 241.187C1652.42 240.971 1650.94 240.556 1649.46 240.141C1647.68 239.644 1645.9 239.146 1644.08 238.986C1643.56 238.821 1642.93 238.833 1642.28 238.846ZM1607.6 283.088C1603.65 282.539 1597.88 281.738 1596.83 283.54C1593.5 290.535 1599.74 298.438 1606.01 301.274C1615.89 305.816 1635.28 301.469 1633.19 287.705C1633.23 287.265 1632.62 286.54 1632.1 286.547C1631.26 286.42 1630.41 286.292 1629.55 286.163C1623.31 285.222 1616.85 284.248 1610.67 283.445C1609.99 283.419 1608.9 283.267 1607.6 283.088Z" fill="#141414"/>
<path fill-rule="evenodd" clip-rule="evenodd" d="M1594.9 257.17C1596.4 257.183 1596.38 259.506 1594.88 259.493C1593.39 259.481 1593.41 257.157 1594.9 257.17ZM1635.15 263.512C1637.16 264.452 1635.71 267.586 1633.69 266.644C1631.67 265.704 1633.13 262.571 1635.15 263.512ZM1642.49 266.048C1643.97 266.737 1642.9 269.035 1641.42 268.345C1639.94 267.655 1641.01 265.358 1642.49 266.048ZM1638.29 273.173C1640.73 274.312 1638.96 278.108 1636.52 276.967C1634.08 275.828 1635.84 272.033 1638.29 273.173ZM1645.99 274.31C1647.33 271.101 1651.63 276.13 1647.74 276.789C1646.14 277.376 1645.15 275.58 1645.99 274.31ZM1595.57 264.726C1598.05 264.747 1598.01 268.583 1595.54 268.563C1593.07 268.542 1593.1 264.705 1595.57 264.726ZM1588.75 262.626C1588.94 264.008 1587.42 265.107 1586.33 263.989C1583.37 261.908 1588.9 259.441 1588.75 262.626ZM1601.98 257.97C1604.02 257.988 1603.99 261.156 1601.96 261.138C1599.91 261.12 1599.94 257.952 1601.98 257.97Z" fill="#FF4B33"/>
<path fill-rule="evenodd" clip-rule="evenodd" d="M353.706 1021.84L284.685 1269.23H314.234L415.198 1021.84H353.706Z" fill="#FF4B33"/>
<path fill-rule="evenodd" clip-rule="evenodd" d="M637.163 1021.84L748.972 1269.67H767.869L700.153 1021.84H637.163Z" fill="#FF4B33"/>
<path fill-rule="evenodd" clip-rule="evenodd" d="M702.159 1025H346.885C345.988 1025 345.187 1024.44 344.883 1023.59C343.954 1021.01 251.447 764.126 206.119 637.208C201.304 623.725 205.271 612.192 216.226 607.824C236.104 599.903 280.741 617.009 315.889 696.652L403.865 923.682H702.159C703.334 923.682 704.287 924.635 704.287 925.81V1022.87C704.287 1024.05 703.334 1025 702.159 1025Z" fill="#141414"/>
<path fill-rule="evenodd" clip-rule="evenodd" d="M348.381 1020.75H700.033V927.937H402.409C401.531 927.937 400.744 927.397 400.426 926.579L311.96 698.281C279.863 625.555 237.574 603.893 217.803 611.777C209.031 615.274 206.09 624.471 210.128 635.776C253.708 757.803 340.904 999.98 348.381 1020.75Z" fill="white"/>
<path fill-rule="evenodd" clip-rule="evenodd" d="M811.646 1163.92L848.667 1228.49L919.263 1220.74L887.409 1140.67" fill="white"/>
<path fill-rule="evenodd" clip-rule="evenodd" d="M848.665 1230.49C847.955 1230.49 847.29 1230.11 846.931 1229.48L809.91 1164.91C809.361 1163.95 809.692 1162.73 810.65 1162.18C811.609 1161.63 812.831 1161.96 813.381 1162.92L849.75 1226.36L916.434 1219.04L885.55 1141.41C885.142 1140.38 885.643 1139.22 886.669 1138.81C887.694 1138.4 888.859 1138.9 889.267 1139.93L921.121 1220C921.352 1220.58 921.299 1221.23 920.977 1221.77C920.655 1222.3 920.102 1222.66 919.48 1222.73L848.884 1230.47C848.811 1230.48 848.738 1230.49 848.665 1230.49Z" fill="#141414"/>
<path fill-rule="evenodd" clip-rule="evenodd" d="M837.419 1221.13C837.582 1220.1 838.518 1219.36 839.564 1219.45C840.56 1219.54 841.82 1219.66 843.307 1219.8C852.409 1220.7 871.351 1222.55 888.987 1220.93C889.003 1220.93 889.017 1220.92 889.032 1220.92C899.421 1219.96 908.293 1216.27 914.017 1210.53C914.471 1210.07 915.117 1209.87 915.755 1209.97C946.754 1215.04 969.15 1218.7 986.361 1228.01C989.386 1229.64 1000.43 1236.98 999.195 1243.01C998.625 1245.8 995.827 1247.45 990.879 1247.91C972.812 1249.58 933.898 1253.3 899.565 1256.57C871.784 1259.23 847.793 1261.52 838.758 1262.36C837.804 1262.44 836.901 1262.09 836.218 1261.36C832.235 1257.12 835.731 1231.81 837.419 1221.13Z" fill="#FFC81A"/>
<path fill-rule="evenodd" clip-rule="evenodd" d="M839.936 1271.09L996.101 1256.6C998.697 1256.35 1000.6 1254.06 1000.36 1251.46L1000.22 1249.91C999.979 1247.31 997.68 1245.4 995.084 1245.64L838.919 1260.14C836.325 1260.38 834.415 1262.68 834.657 1265.28L834.801 1266.83C835.041 1269.42 837.341 1271.33 839.936 1271.09Z" fill="#141414"/>
<path fill-rule="evenodd" clip-rule="evenodd" d="M948.514 1225.85C949.305 1225.78 950.023 1225.26 950.315 1224.47C952.99 1217.18 959.532 1218.3 960.269 1218.45C961.414 1218.68 962.541 1217.95 962.785 1216.81C963.026 1215.66 962.305 1214.54 961.162 1214.29C957.435 1213.48 949.535 1214.25 946.323 1223C945.917 1224.1 946.483 1225.33 947.585 1225.73C947.892 1225.84 948.208 1225.88 948.514 1225.85Z" fill="#141414"/>
<path fill-rule="evenodd" clip-rule="evenodd" d="M929.34 1222.49C930.131 1222.41 930.848 1221.9 931.14 1221.1C933.816 1213.82 940.359 1214.93 941.095 1215.09C942.24 1215.32 943.367 1214.59 943.61 1213.44C943.852 1212.3 943.129 1211.18 941.986 1210.93C938.257 1210.11 930.359 1210.89 927.149 1219.64C926.743 1220.74 927.309 1221.96 928.412 1222.37C928.719 1222.48 929.034 1222.52 929.34 1222.49Z" fill="#141414"/>
<path fill-rule="evenodd" clip-rule="evenodd" d="M613.991 808.891C613.991 808.891 767.327 790.413 811.901 863.266C847.669 921.724 939.613 1132.59 936.721 1138.99C926.905 1160.73 834.771 1181.53 774.366 1175.26C774.366 1175.26 707.674 860.416 613.991 808.891Z" fill="#141414"/>
<g style="mix-blend-mode:overlay">
<path fill-rule="evenodd" clip-rule="evenodd" d="M771.956 991.719C772.997 991.34 774.141 991.878 774.519 992.915C775.456 995.491 776.42 998.151 777.411 1000.88L777.941 1002.34C778.317 1003.38 777.78 1004.53 776.742 1004.91C776.516 1004.99 776.287 1005.03 776.06 1005.03C775.242 1005.03 774.474 1004.52 774.179 1003.71C773.004 1000.46 771.862 997.314 770.759 994.282C770.382 993.244 770.917 992.097 771.956 991.719ZM796.869 1055.19C797.984 1058.34 799.1 1061.5 800.209 1064.66C800.575 1065.7 800.028 1066.84 798.986 1067.21C798.767 1067.29 798.543 1067.32 798.322 1067.32C797.497 1067.32 796.725 1066.81 796.436 1065.99C795.326 1062.83 794.213 1059.67 793.098 1056.52C792.73 1055.48 793.275 1054.34 794.316 1053.97C795.357 1053.6 796.501 1054.15 796.869 1055.19ZM804.187 1076.02C805.295 1079.2 806.394 1082.36 807.477 1085.49C807.838 1086.53 807.286 1087.67 806.242 1088.03C806.025 1088.11 805.804 1088.14 805.587 1088.14C804.758 1088.14 803.984 1087.62 803.698 1086.8C802.615 1083.67 801.518 1080.51 800.41 1077.33C800.046 1076.29 800.597 1075.15 801.64 1074.79C802.682 1074.42 803.823 1074.97 804.187 1076.02ZM814.621 1106.37C813.57 1103.26 812.493 1100.09 811.392 1096.87C811.034 1095.82 809.897 1095.27 808.851 1095.63C807.807 1095.98 807.249 1097.12 807.606 1098.17C808.706 1101.38 809.783 1104.55 810.832 1107.65C811.114 1108.48 811.892 1109.01 812.726 1109.01C812.938 1109.01 813.154 1108.97 813.367 1108.9C814.413 1108.55 814.975 1107.41 814.621 1106.37ZM821.577 1127.33C820.581 1124.26 819.534 1121.08 818.445 1117.79C818.098 1116.74 816.966 1116.17 815.918 1116.52C814.869 1116.87 814.301 1118 814.648 1119.05C815.735 1122.33 816.778 1125.5 817.772 1128.57C818.047 1129.41 818.831 1129.95 819.675 1129.95C819.879 1129.95 820.087 1129.92 820.293 1129.85C821.343 1129.51 821.918 1128.38 821.577 1127.33ZM831.929 1162.76C831.764 1161.97 831.57 1161.11 831.347 1160.17C831.09 1159.1 830.01 1158.44 828.937 1158.69C827.863 1158.95 827.2 1160.03 827.456 1161.1C827.669 1161.99 827.856 1162.82 828.013 1163.58C828.209 1164.52 829.041 1165.17 829.969 1165.17C830.104 1165.17 830.241 1165.16 830.378 1165.13C831.459 1164.9 832.154 1163.85 831.929 1162.76ZM828.161 1148.46C827.312 1145.57 826.328 1142.32 825.236 1138.82C824.907 1137.77 823.786 1137.18 822.732 1137.51C821.678 1137.84 821.089 1138.96 821.418 1140.01C822.503 1143.49 823.48 1146.71 824.323 1149.58C824.579 1150.46 825.377 1151.02 826.241 1151.02C826.428 1151.02 826.618 1150.99 826.806 1150.94C827.865 1150.63 828.473 1149.52 828.161 1148.46ZM789.486 1034.42C789.114 1033.38 787.965 1032.84 786.929 1033.21C785.889 1033.58 785.347 1034.73 785.718 1035.77C786.834 1038.89 787.958 1042.04 789.086 1045.21C789.377 1046.03 790.147 1046.54 790.969 1046.54C791.192 1046.54 791.419 1046.5 791.64 1046.42C792.68 1046.05 793.224 1044.91 792.853 1043.87C791.725 1040.7 790.601 1037.54 789.486 1034.42ZM779.471 1012.46C780.511 1012.09 781.657 1012.62 782.032 1013.66C783.145 1016.75 784.279 1019.9 785.428 1023.1C785.802 1024.14 785.261 1025.28 784.221 1025.66C783.999 1025.74 783.77 1025.77 783.546 1025.77C782.725 1025.77 781.957 1025.27 781.664 1024.45C780.515 1021.25 779.382 1018.11 778.268 1015.02C777.894 1013.98 778.432 1012.83 779.471 1012.46Z" fill="white"/>
</g>
<path fill-rule="evenodd" clip-rule="evenodd" d="M620.695 1178.6L614.255 1229.25L684.761 1235.12L700.87 1186" fill="white"/>
<path fill-rule="evenodd" clip-rule="evenodd" d="M684.761 1237.12C684.705 1237.12 684.65 1237.12 684.594 1237.12L614.087 1231.25C613.543 1231.2 613.042 1230.94 612.698 1230.51C612.356 1230.09 612.2 1229.54 612.269 1229L618.709 1178.35C618.849 1177.26 619.869 1176.48 620.946 1176.62C622.041 1176.76 622.817 1177.76 622.678 1178.86L616.5 1227.43L683.352 1233L698.968 1185.37C699.312 1184.32 700.439 1183.75 701.491 1184.1C702.541 1184.44 703.113 1185.57 702.769 1186.62L686.66 1235.75C686.39 1236.57 685.618 1237.12 684.761 1237.12Z" fill="#141414"/>
<path fill-rule="evenodd" clip-rule="evenodd" d="M611.371 1226.51C611.629 1225.5 612.629 1224.85 613.662 1225.04C614.645 1225.22 615.89 1225.45 617.355 1225.74C626.337 1227.47 645.026 1231.06 662.737 1231.08H662.782C673.216 1231.08 682.392 1228.22 688.62 1223.04C689.115 1222.63 689.777 1222.48 690.403 1222.64C720.801 1230.55 742.764 1236.27 759.04 1247.13C761.9 1249.04 772.217 1257.36 770.433 1263.25C769.607 1265.98 766.669 1267.36 761.699 1267.36C743.555 1267.36 704.464 1267.46 669.975 1267.55C642.068 1267.62 617.968 1267.69 608.894 1267.69C607.935 1267.69 607.07 1267.25 606.457 1266.46C602.884 1261.87 608.703 1236.99 611.371 1226.51Z" fill="#FFC81A"/>
<path fill-rule="evenodd" clip-rule="evenodd" d="M609.259 1276.49H766.095C768.701 1276.49 770.815 1274.38 770.815 1271.77V1270.22C770.815 1267.61 768.701 1265.5 766.095 1265.5H609.259C606.653 1265.5 604.539 1267.61 604.539 1270.22V1271.77C604.539 1274.38 606.653 1276.49 609.259 1276.49Z" fill="#141414"/>
<path fill-rule="evenodd" clip-rule="evenodd" d="M721.554 1241.48C722.349 1241.48 723.111 1241.04 723.475 1240.27C726.812 1233.26 733.223 1234.98 733.944 1235.2C735.062 1235.54 736.251 1234.91 736.599 1233.8C736.946 1232.68 736.331 1231.49 735.217 1231.14C731.581 1229.98 723.643 1230.03 719.635 1238.44C719.13 1239.5 719.58 1240.77 720.641 1241.28C720.936 1241.42 721.247 1241.48 721.554 1241.48Z" fill="#141414"/>
<path fill-rule="evenodd" clip-rule="evenodd" d="M702.773 1236.36C703.568 1236.36 704.331 1235.91 704.695 1235.15C708.032 1228.14 714.443 1229.85 715.163 1230.08C716.282 1230.42 717.471 1229.79 717.818 1228.67C718.165 1227.56 717.55 1226.37 716.436 1226.02C712.796 1224.86 704.86 1224.91 700.855 1233.32C700.35 1234.38 700.8 1235.65 701.861 1236.15C702.156 1236.29 702.466 1236.36 702.773 1236.36Z" fill="#141414"/>
<path fill-rule="evenodd" clip-rule="evenodd" d="M386.055 803C386.055 803 363.201 877.987 402.94 929.245C432.321 967.141 546.394 977.315 622.163 953.631C623.467 949.749 627.723 936.773 631.557 921.711C631.83 920.641 632.919 919.994 633.989 920.266C635.059 920.539 635.706 921.627 635.434 922.697C631.806 936.949 627.802 949.354 626.229 954.083L559.248 1164.2C607.687 1188.6 658.853 1203.23 725.552 1200.08C725.552 1200.08 746.809 1111.85 760.09 1031.86C774.472 945.245 825.8 805 653.888 805L386.055 803Z" fill="#0B379B"/>
<g style="mix-blend-mode:overlay">
<path fill-rule="evenodd" clip-rule="evenodd" d="M478.616 810.149C479.667 809.817 480.79 810.401 481.123 811.454C481.224 811.773 490.413 841.94 466.786 853.868C468.512 854.663 470.297 855.414 472.143 856.102C473.178 856.487 473.704 857.639 473.318 858.674C473.019 859.479 472.255 859.976 471.444 859.976C471.212 859.976 470.976 859.936 470.746 859.85C467.449 858.622 464.302 857.216 461.394 855.671C461.162 855.548 460.967 855.384 460.808 855.196C460.562 854.981 460.352 854.72 460.233 854.392C459.856 853.354 460.392 852.206 461.43 851.829C471.861 848.037 477.719 840.392 478.84 829.106C479.703 820.422 477.332 812.733 477.308 812.657C476.977 811.603 477.563 810.48 478.616 810.149ZM435.909 818.592C437.013 818.515 437.969 819.329 438.056 820.428C438.062 820.499 438.4 824.22 440.71 829.351C441.163 830.359 440.714 831.543 439.707 831.996C439.44 832.116 439.161 832.173 438.887 832.173C438.124 832.173 437.396 831.734 437.062 830.993C434.432 825.15 434.082 820.917 434.068 820.74C433.984 819.638 434.808 818.677 435.909 818.592ZM483.377 859.468C486.444 860.189 489.689 860.804 493.023 861.298C494.116 861.46 494.87 862.477 494.709 863.569C494.562 864.563 493.708 865.277 492.732 865.277C492.635 865.277 492.536 865.27 492.437 865.255C488.993 864.745 485.637 864.108 482.462 863.361C481.387 863.109 480.72 862.032 480.973 860.957C481.225 859.881 482.306 859.215 483.377 859.468ZM453.603 845.772C451.066 843.702 448.771 841.435 446.785 839.034C446.081 838.183 444.819 838.064 443.969 838.768C443.118 839.473 442.999 840.733 443.703 841.584C445.855 844.186 448.336 846.638 451.075 848.872C451.446 849.174 451.893 849.322 452.338 849.322C452.918 849.322 453.493 849.071 453.889 848.586C454.587 847.73 454.459 846.47 453.603 845.772ZM504.803 862.549C508.015 862.792 511.361 863.015 514.749 863.212C515.852 863.276 516.694 864.222 516.629 865.325C516.567 866.388 515.686 867.209 514.635 867.209C514.596 867.209 514.556 867.208 514.517 867.205C511.105 867.006 507.736 866.782 504.501 866.537C503.4 866.454 502.575 865.494 502.658 864.392C502.741 863.292 503.691 862.46 504.803 862.549ZM580.579 864.199C577.613 864.266 574.263 864.325 570.6 864.367C569.495 864.38 568.609 865.286 568.622 866.39C568.635 867.487 569.527 868.367 570.622 868.367H570.644C574.325 868.325 577.689 868.265 580.669 868.198C581.773 868.173 582.648 867.258 582.623 866.154C582.599 865.049 581.68 864.155 580.579 864.199ZM548.642 864.361C552.088 864.404 555.424 864.425 558.621 864.429C559.725 864.43 560.619 865.327 560.618 866.431C560.617 867.535 559.722 868.429 558.618 868.429H558.616C555.404 868.425 552.053 868.404 548.593 868.361C547.488 868.347 546.603 867.441 546.617 866.336C546.631 865.24 547.523 864.361 548.616 864.361H548.642ZM536.671 864.127C533.322 864.038 529.968 863.926 526.702 863.795C525.616 863.757 524.668 864.61 524.624 865.714C524.58 866.817 525.439 867.748 526.542 867.793C529.826 867.924 533.198 868.036 536.565 868.126C536.583 868.127 536.601 868.127 536.619 868.127C537.698 868.127 538.588 867.266 538.617 866.18C538.647 865.076 537.775 864.157 536.671 864.127ZM626.536 1062.92C625.465 1062.64 624.373 1063.27 624.087 1064.34C623.22 1067.57 622.351 1070.8 621.482 1074.01C621.194 1075.07 621.824 1076.17 622.89 1076.46C623.065 1076.51 623.241 1076.53 623.414 1076.53C624.296 1076.53 625.102 1075.94 625.344 1075.05C626.213 1071.84 627.083 1068.61 627.95 1065.37C628.236 1064.31 627.603 1063.21 626.536 1062.92ZM635.325 1021.7C635.601 1020.63 636.689 1019.98 637.763 1020.26C638.832 1020.54 639.474 1021.63 639.196 1022.7C638.365 1025.9 637.522 1029.14 636.668 1032.41C636.434 1033.3 635.623 1033.9 634.735 1033.9C634.568 1033.9 634.398 1033.88 634.228 1033.83C633.159 1033.56 632.52 1032.46 632.799 1031.39C633.651 1028.13 634.493 1024.9 635.325 1021.7ZM632.191 1041.6C631.126 1041.32 630.029 1041.96 629.748 1043.03C628.902 1046.24 628.048 1049.47 627.191 1052.7C626.907 1053.76 627.543 1054.86 628.61 1055.14C628.782 1055.19 628.955 1055.21 629.125 1055.21C630.009 1055.21 630.819 1054.62 631.056 1053.72C631.916 1050.49 632.769 1047.26 633.617 1044.04C633.897 1042.98 633.259 1041.88 632.191 1041.6ZM640.832 1000.35C641.107 999.279 642.199 998.634 643.266 998.908C644.336 999.182 644.982 1000.27 644.707 1001.34C643.894 1004.52 643.06 1007.76 642.21 1011.05C641.978 1011.96 641.165 1012.55 640.275 1012.55C640.11 1012.55 639.942 1012.53 639.775 1012.49C638.704 1012.22 638.061 1011.12 638.337 1010.05C639.187 1006.76 640.019 1003.52 640.832 1000.35ZM648.713 977.527C647.635 977.253 646.554 977.904 646.283 978.974C645.491 982.098 644.666 985.343 643.813 988.691C643.54 989.761 644.187 990.85 645.257 991.124C645.423 991.166 645.589 991.185 645.752 991.185C646.645 991.185 647.458 990.584 647.69 989.679C648.543 986.33 649.368 983.083 650.16 979.957C650.432 978.886 649.784 977.798 648.713 977.527ZM651.681 957.569C651.951 956.498 653.04 955.853 654.108 956.115C655.179 956.384 655.831 957.47 655.562 958.542C654.81 961.539 653.992 964.797 653.113 968.281C652.883 969.188 652.069 969.792 651.175 969.792C651.013 969.792 650.848 969.772 650.684 969.731C649.613 969.461 648.964 968.374 649.234 967.303C650.113 963.82 650.931 960.564 651.681 957.569ZM659.453 934.62C658.382 934.356 657.296 935.01 657.031 936.083C657.031 936.085 656.156 939.639 654.602 945.881C654.335 946.953 654.988 948.038 656.059 948.305C656.221 948.346 656.384 948.365 656.544 948.365C657.44 948.365 658.257 947.757 658.482 946.848C660.039 940.598 660.917 937.04 660.917 937.04C661.18 935.968 660.524 934.884 659.453 934.62ZM618.327 1085.61C618.618 1084.54 619.719 1083.91 620.784 1084.21C621.849 1084.5 622.476 1085.6 622.184 1086.67C621.293 1089.92 620.403 1093.15 619.519 1096.33C619.274 1097.22 618.47 1097.8 617.594 1097.8C617.417 1097.8 617.237 1097.78 617.058 1097.73C615.994 1097.43 615.37 1096.33 615.666 1095.27C616.548 1092.08 617.435 1088.86 618.327 1085.61ZM595.167 1168.65C594.151 1168.22 592.977 1168.7 592.545 1169.71C591.902 1171.22 591.313 1172.48 590.795 1173.45C590.273 1174.42 590.64 1175.64 591.613 1176.16C591.914 1176.32 592.237 1176.4 592.556 1176.4C593.27 1176.4 593.96 1176.01 594.32 1175.34C594.896 1174.26 595.538 1172.9 596.227 1171.27C596.658 1170.26 596.185 1169.08 595.167 1168.65ZM599.875 1149.08C600.213 1148.02 601.335 1147.44 602.39 1147.78C603.442 1148.12 604.022 1149.25 603.684 1150.3C602.563 1153.79 601.495 1157.01 600.51 1159.87C600.224 1160.7 599.449 1161.22 598.619 1161.22C598.404 1161.22 598.183 1161.18 597.967 1161.11C596.923 1160.75 596.369 1159.61 596.729 1158.56C597.704 1155.74 598.763 1152.54 599.875 1149.08ZM614.894 1105.46C613.832 1105.17 612.727 1105.78 612.426 1106.84C611.501 1110.12 610.586 1113.33 609.684 1116.48C609.378 1117.54 609.992 1118.65 611.054 1118.95C611.239 1119 611.424 1119.03 611.607 1119.03C612.476 1119.03 613.276 1118.46 613.528 1117.58C614.432 1114.43 615.349 1111.21 616.276 1107.93C616.576 1106.87 615.957 1105.76 614.894 1105.46ZM606.326 1128.02C606.638 1126.96 607.749 1126.35 608.81 1126.67C609.87 1126.98 610.475 1128.09 610.162 1129.15C609.179 1132.48 608.216 1135.69 607.279 1138.77C607.017 1139.64 606.224 1140.19 605.367 1140.19C605.173 1140.19 604.978 1140.16 604.784 1140.1C603.727 1139.78 603.131 1138.67 603.453 1137.61C604.386 1134.54 605.345 1131.33 606.326 1128.02Z" fill="white" fill-opacity="0.8"/>
</g>
<path fill-rule="evenodd" clip-rule="evenodd" d="M677.936 658.29C664.94 657.773 619.867 655.303 593.378 637.992C593.053 637.833 630.349 556.89 630.267 556.717L630.342 556.649C630.586 556.762 650.868 566.479 664.584 566.395C671.965 566.243 685.248 556.21 698.422 540.837C716.312 520.217 726.082 499.668 732.131 478.136C733.478 473.489 734.54 467.93 733.369 462.884C730.21 452.511 735.769 451.139 743.343 456.856C746.227 449.175 749.509 440.936 751.899 432.389C753.183 426.948 757.614 418.952 762.986 423.262C765.767 426.157 765.003 434.451 764.468 440.323C768.027 440.533 771.048 442.569 771.296 446.601C771.414 447.356 770.439 449.611 770.242 450.379C771.348 450.427 773.591 450.294 774.627 450.589C779.365 451.921 780.103 456.174 778.331 460.231C781.366 460.071 784.78 460.534 786.373 463.587C788.178 466.421 786.704 469.237 785.108 471.591C785.938 471.987 788.414 472.028 789.022 472.825C791.889 476.43 790.575 481.105 790.053 485.459C772.694 560.025 741.584 652.861 677.936 658.29Z" fill="white"/>
<path fill-rule="evenodd" clip-rule="evenodd" d="M784.264 468.513C781.45 471.535 776.316 475.705 772.402 473.205H772.4C769.62 469.145 776.377 463.266 780.22 462.579C783.123 461.98 786.425 465.611 784.264 468.513ZM763.162 464.259C760.038 459.23 769.337 451.569 774.076 452.749C776.165 453.237 777.728 455.559 776.8 457.582C775.188 460.513 766.289 467.091 763.162 464.259ZM757.431 451.079C756.64 448.375 759.124 445.833 759.631 445.349C763.115 441.888 768.517 441.524 769.048 446.785C769.149 448.002 765.205 452.166 760.942 452.956C758.475 453.412 757.795 452.325 757.431 451.079ZM792.257 474.637C791.926 472.97 790.322 470.576 788.22 470.252C791.355 465.367 786.653 458.117 781.024 458.286C782.489 453.333 778.041 448.178 773.006 448.402C774.232 443.948 770.843 439.28 766.618 438.667C767.224 431.649 767.439 425.155 764.455 421.909C759.418 417.493 753.015 420.714 749.969 431.854C747.882 439.356 744.872 447.16 742.358 453.796C739.273 451.484 733.215 449.924 731.088 454.394C729.067 459.684 732.917 464.921 731.73 470.342C726.653 495.084 716.189 516.844 696.901 539.536C684.134 554.433 671.029 564.465 664.329 564.398C654.828 564.36 642.273 559.615 635.721 556.832C634.482 556.305 633.078 557.049 632.806 558.368C632.602 559.363 633.124 560.361 634.058 560.76C640.953 563.7 654.23 568.703 664.582 568.649C686.183 567.863 727.086 513.202 734.275 478.792C735.736 473.63 736.754 467.826 735.503 462.459C735.146 460.613 734.144 457.815 734.833 456.182C735.125 455.648 735.397 455.669 736.074 455.645C741.665 456.428 745.389 462.21 746.748 467.341C747.957 471.934 747.66 476.962 746.785 481.843C746.589 482.929 747.31 483.97 748.397 484.167C750.953 484.534 750.882 481.473 751.163 479.711C760.79 481.832 761.427 494.816 760.503 497.586C760.211 498.829 761.229 500.057 762.501 500.015C765.534 500.69 766.467 488.741 760.363 480.966C757.917 477.893 754.304 476.398 751.532 475.661C751.933 469.03 750.25 461.937 745.767 456.807C748.547 449.432 751.744 441.314 754.068 432.991C755.69 427.399 758.308 422.896 761.324 424.788C763.381 427.027 762.698 434.763 762.326 438.938C757.779 440.478 751.782 444.876 753.35 452.273C754.281 455.456 756.622 457.232 759.772 457.291C756.219 463.341 760.54 471.186 767.936 468.555C766.917 471.491 767.46 474.374 769.442 476.261H769.441C770.832 477.61 772.744 478.293 774.946 478.238C773.736 482.629 778.545 486.586 782.613 484.924C784.456 484.392 783.892 481.457 781.956 481.68C779.4 482.041 778.22 480.103 779.499 478.222C780.919 476.156 784.395 474.375 787.02 474.544C788.493 475.635 788.281 477.804 788.217 479.516C779.05 540.06 747.589 611.833 720.493 635.761C705.856 649.834 689.924 656.825 674.389 655.978C665.724 655.505 623.765 652.555 599.509 639.123C598.427 638.524 597.069 638.978 596.553 640.102C596.084 641.125 596.494 642.327 597.48 642.87C622.658 656.739 665.331 659.743 674.159 660.225C739.842 659.633 772.762 566.381 790.852 490.97C792.161 485.533 793.473 480.317 792.257 474.637Z" fill="#141414"/>
<path fill-rule="evenodd" clip-rule="evenodd" d="M362.924 551.302C288.64 590.817 238.29 699.987 209.846 755.153C192.777 788.26 187.793 814.63 186.022 823.31C185.205 827.315 184.111 833.246 187.489 835.983C189.898 837.934 193.191 837.134 194.357 834.261C194.357 834.261 192.675 838.023 192.216 841.286C191.782 844.373 193.032 847.314 195.242 848.38C198.649 850.024 201.407 848.102 202.802 844.85L201.594 848.523C200.252 852.009 201.118 855.743 204.757 857.705C207.466 859.165 212.068 856.963 213.881 853.443C214.534 852.175 216.436 848.326 216.436 848.326C215.357 851.355 216.676 856.339 219.771 857.178C223.774 858.264 226.661 854.998 227.876 852.317C233.481 839.949 242.516 827.413 247.438 819.028C247.438 819.028 251.142 828.702 253.736 831.336C256.153 833.79 262.059 834.781 263.655 825.921C264.142 823.222 263.242 813.1 266.274 800.619C271.69 778.325 298.152 733.796 322.193 704.218C360.159 657.508 395.91 642.349 395.91 642.349L362.924 551.302Z" fill="white"/>
<path fill-rule="evenodd" clip-rule="evenodd" d="M393.689 643.605C393.222 642.432 391.851 641.918 390.731 642.501C386.763 644.565 380.276 648.251 372.067 654.028C359.473 662.89 340.311 678.559 320.544 702.876C295.253 733.994 269.455 778.524 264.209 800.117C261.98 809.295 261.824 817.2 261.731 821.923C261.699 823.545 261.672 824.947 261.564 825.543C261.034 828.488 259.944 830.357 258.496 830.804C257.34 831.162 255.99 830.591 255.253 829.844C253.593 828.158 250.797 821.848 249.426 818.267C249.134 817.504 248.43 816.976 247.615 816.909C246.792 816.841 246.02 817.247 245.606 817.951C244.126 820.472 242.227 823.44 240.216 826.583C235.62 833.764 229.9 842.701 225.941 851.439C225.726 851.914 223.737 856.051 220.33 855.126C219.629 854.936 219.138 854.168 218.908 853.728C218.171 852.32 217.975 850.348 218.441 849.039C218.47 848.957 218.485 848.873 218.503 848.789C218.97 847.492 219.506 846.165 220.053 844.848C220.634 843.453 221.234 842.059 221.847 840.667C223.069 837.886 224.332 835.105 225.612 832.349L225.617 832.338C226.015 831.477 225.554 830.415 224.541 830.176C223.86 830.015 223.158 830.387 222.825 831.002C221.373 833.691 219.951 836.381 218.554 839.101C217.852 840.467 217.159 841.841 216.479 843.23C215.837 844.547 215.207 845.867 214.609 847.257C214.584 847.301 214.553 847.338 214.531 847.384C214.531 847.384 212.641 851.209 211.992 852.469C211.207 853.993 209.622 855.312 207.955 855.828C207.07 856.103 206.272 856.104 205.768 855.833C202.15 853.883 203.179 850.33 203.581 849.287C203.593 849.254 203.605 849.221 203.616 849.187L204.824 845.514C204.847 845.445 204.855 845.375 204.871 845.304C206.286 841.753 207.868 838.173 209.433 834.618L214.393 823.598L214.403 823.575C214.8 822.69 214.345 821.624 213.36 821.334C212.588 821.105 211.768 821.531 211.409 822.252L206.047 833.041C204.298 836.635 202.552 840.198 200.909 843.916C200.892 843.95 200.864 843.976 200.849 844.012C200.262 845.381 199.4 846.363 198.486 846.705C197.796 846.963 197.038 846.883 196.168 846.464C194.817 845.813 194.024 843.714 194.324 841.583C194.677 839.073 195.874 836.13 196.211 835.334C196.252 835.244 196.292 835.153 196.329 835.06C196.357 834.991 196.371 834.92 196.391 834.85L201.887 820.443L201.892 820.43C202.235 819.524 201.728 818.481 200.725 818.235C199.939 818.042 199.135 818.503 198.804 819.242L192.617 833.043C192.541 833.152 192.473 833.268 192.417 833.393C192.408 833.414 192.373 833.492 192.318 833.62C192.012 834.265 191.512 834.704 190.896 834.862C190.207 835.042 189.473 834.851 188.829 834.33C186.355 832.326 187.495 826.737 188.107 823.735L188.296 822.806C190.232 813.25 195.373 787.868 211.738 756.127C214.15 751.451 216.718 746.386 219.446 741.009C247.313 686.063 293.326 595.338 357.241 556.965C358.134 556.428 358.511 555.333 358.126 554.365C357.643 553.154 356.187 552.648 355.069 553.319C290.091 592.333 243.73 683.724 215.652 739.085C212.93 744.453 210.365 749.509 207.958 754.178C191.322 786.444 186.095 812.248 184.128 821.961L183.94 822.885C183.147 826.772 181.671 834.005 186.152 837.635C187.424 838.665 188.931 839.183 190.459 839.181C190.317 839.782 190.197 840.392 190.112 840.991C189.548 845.002 191.279 848.829 194.32 850.295C195.856 851.037 197.418 851.271 198.895 850.991C198.683 854.555 200.432 857.788 203.751 859.577C204.626 860.048 205.637 860.286 206.718 860.286C207.521 860.286 208.362 860.155 209.213 859.891C211.527 859.174 213.677 857.571 215.074 855.572C215.095 855.615 215.117 855.657 215.139 855.699C216.092 857.522 217.54 858.776 219.216 859.23C224.051 860.543 228.024 857.145 229.815 853.195C233.648 844.736 239.041 836.31 243.798 828.875C244.942 827.087 246.051 825.355 247.072 823.721C248.456 826.89 250.478 831.056 252.223 832.828C253.864 834.494 256.829 835.772 259.751 834.868C261.903 834.203 264.691 832.176 265.75 826.298C265.917 825.368 265.944 824.031 265.984 822.006C266.073 817.458 266.223 809.845 268.342 801.121C273.465 780.034 298.882 736.272 323.845 705.559C343.252 681.683 362.038 666.301 374.379 657.601C382.42 651.934 388.832 648.295 392.693 646.284C393.665 645.777 394.095 644.623 393.689 643.605Z" fill="#141414"/>
<path fill-rule="evenodd" clip-rule="evenodd" d="M571.629 613.984C571.353 612.914 571.996 611.824 573.066 611.548C574.136 611.269 575.227 611.916 575.502 612.985L583.31 643.267C589.104 646.128 599.612 651.062 608.732 653.962C622.142 658.225 637.949 552.956 637.949 552.956C637.949 552.956 609.312 539.591 570.625 518.342C536.413 499.549 439.987 494.577 393.692 523.692C373.196 532.806 343.931 552.776 333.254 562.149C333.254 562.149 348.515 627.265 372.304 671.927C381.199 667.832 389.275 662.51 397.523 657.36L397.522 657.37C406.137 651.525 414.846 644.768 414.962 644.678C415.832 643.998 417.089 644.153 417.769 645.026C418.448 645.896 418.293 647.153 417.421 647.832C416.892 648.245 403.551 658.89 394.059 665L385.893 809.948L622.621 806.454L580.193 647.198L571.629 613.984Z" fill="#FFC81A"/>
<path fill-rule="evenodd" clip-rule="evenodd" d="M469.181 467.139C469.181 467.139 469.77 507.488 467.618 513.515C465.465 519.542 473.517 536.349 499.532 540.242C527.031 544.358 527.611 530.29 528.207 524.93C525.229 503.488 526.135 482.052 526.135 482.052" fill="white"/>
<path fill-rule="evenodd" clip-rule="evenodd" d="M508.543 542.976C505.71 542.976 502.606 542.725 499.237 542.22C478.911 539.178 470.68 528.771 468.085 524.437C465.539 520.186 464.66 515.852 465.735 512.843C467.225 508.67 467.417 483.242 467.182 467.168C467.166 466.063 468.048 465.155 469.153 465.139C470.23 465.153 471.166 466.005 471.182 467.109C471.243 471.276 471.713 507.998 469.502 514.188C468.964 515.695 469.378 518.812 471.516 522.382C473.82 526.228 481.19 535.475 499.829 538.264C509.998 539.785 517.287 538.907 521.495 535.651C525.381 532.644 525.851 528.194 526.162 525.249L526.193 524.96C523.265 503.665 524.129 482.183 524.138 481.967C524.185 480.864 525.102 480 526.221 480.054C527.324 480.1 528.181 481.033 528.134 482.136C528.126 482.349 527.272 503.65 530.189 524.654C530.212 524.818 530.214 524.985 530.196 525.15L530.14 525.669C529.804 528.848 529.179 534.763 523.942 538.814C520.361 541.585 515.201 542.976 508.543 542.976Z" fill="#141414"/>
<path fill-rule="evenodd" clip-rule="evenodd" d="M548.941 423.094C542.944 373.354 510.212 370.488 486.595 374.781C467.772 378.204 443.693 393.765 445.825 425.073C436.4 422.013 429.519 427.742 428.295 435.189C426.908 443.64 431.344 457.935 445.296 455.473C448.351 479.699 465.108 507.607 510.638 502.938C545.109 499.402 554.399 468.368 548.941 423.094Z" fill="white"/>
<path fill-rule="evenodd" clip-rule="evenodd" d="M447.28 455.223C449.062 468.852 455.223 482.361 466.322 490.967C479.289 503.118 522.262 508.006 537.278 487.456C550.057 474.433 551.965 429.249 542.176 403.155C535.4 403.901 524.999 404.765 515.517 404.395C513.343 401.326 510.998 395.438 509.31 391.201C508.497 389.159 507.837 387.501 507.422 386.727C506.208 388.389 507.856 397.156 508.847 402.433C509.041 403.462 509.209 404.359 509.327 405.044C496.134 411.494 467.941 414.731 452.078 411.81C451.906 414.856 452.45 418.159 452.925 421.049C453.993 427.546 454.719 431.959 446.207 426.69C432.773 418.374 425.865 440.976 435.131 449.937C440.234 454.873 444.032 455.217 447.28 455.223ZM467.088 341.08C462.238 343.153 449.423 348.847 449.242 354.247C470.12 336.742 539.273 328.609 560.373 391.66C567.119 413.511 571.262 491.211 569.933 498.185C559.007 500.461 542.625 502.963 528.012 502.631C527.757 501.908 527.595 501.137 527.469 500.347C509.563 508.697 483.522 507.383 468.059 497C468.465 500.508 468.417 502.906 468.381 504.671C468.354 506.064 468.334 507.062 468.55 507.9C453.309 510.358 430.659 504.212 430.659 504.212C430.659 504.212 391.779 424.685 428.643 378.191C420.008 376.199 401.919 363.675 414.207 337.771C423.714 317.73 457.834 317.371 467.088 341.08ZM442.891 439.933C442.678 440.964 442.481 441.91 441.436 441.698C438.246 441.05 437.839 436.497 440.749 435.023C443.137 433.814 443.871 436.511 443.108 439.022C443.019 439.314 442.954 439.627 442.891 439.933Z" fill="#141414"/>
<path fill-rule="evenodd" clip-rule="evenodd" d="M530.047 421C527.111 420.175 524.137 420.056 521.162 420.813C520.394 420.962 519.65 420.461 519.501 419.693C519.337 417.449 523.723 416.459 525.479 416.13C528.046 415.531 537.305 416.981 534.899 421.008C533.932 421.985 532.606 421.63 531.342 421.292C530.897 421.173 530.459 421.056 530.047 421ZM538.142 435.41C541.421 433.387 536.149 429.16 534.324 428.474C528.498 425.657 521.028 428.042 517.747 433.527C517.283 434.23 517.374 435.188 518.008 435.789C518.752 436.498 519.943 436.413 520.599 435.629C521.694 434.472 522.858 433.479 524.156 432.783C527.756 430.837 533.239 431.521 535.876 434.598C536.352 435.348 537.26 435.79 538.142 435.41ZM512.271 448.744C523.189 453.314 519.398 465.075 507.988 464.179C505.397 464.159 505.386 460.218 507.97 460.179C510.133 460.126 513.373 459.844 514.324 457.961C515.475 455.059 512.558 453.133 510.011 452.12C508.91 451.607 508.531 450.182 508.371 449.338C507.556 444.282 507.682 439.237 507.808 434.168L507.819 433.745C507.848 432.001 510.549 431.98 510.638 433.692C510.764 435.059 510.864 436.436 510.964 437.817C511.232 441.494 511.5 445.191 512.271 448.744ZM489.421 439.968C488.734 439.173 487.767 438.637 486.621 438.467C482.674 437.917 479.459 441.42 478.183 444.928C477.848 445.877 476.785 446.366 475.849 445.988C473.581 444.816 475.429 441.897 476.656 439.959C476.869 439.622 477.064 439.314 477.215 439.051C479.426 436.019 483.147 433.86 487.076 434.231C489.088 434.402 491.144 435.287 492.642 436.823C494.691 438.938 491.481 442.065 489.421 439.968ZM482.776 424.846C483.962 424.87 485.174 424.894 485.681 423.808C486.462 420.737 478.918 421.001 477.029 421.201C474.63 421.57 469.148 422.518 469.058 425.592C469.19 426.605 470.118 427.319 471.13 427.188C472.636 426.972 474.118 426.557 475.602 426.141C477.377 425.644 479.155 425.147 480.983 424.987C481.495 424.821 482.132 424.834 482.776 424.846ZM517.454 469.088C521.407 468.539 527.174 467.739 528.228 469.541C531.556 476.536 525.315 484.439 519.044 487.275C509.164 491.817 489.78 487.47 491.864 473.706C491.828 473.266 492.442 472.541 492.954 472.548C493.8 472.421 494.652 472.292 495.508 472.163C501.747 471.222 508.206 470.249 514.388 469.446C515.065 469.42 516.163 469.267 517.454 469.088Z" fill="#141414"/>
<path fill-rule="evenodd" clip-rule="evenodd" d="M530.155 443.171C528.658 443.184 528.679 445.507 530.175 445.494C531.672 445.482 531.65 443.158 530.155 443.171ZM489.911 449.513C487.895 450.453 489.352 453.587 491.372 452.645C493.387 451.705 491.93 448.572 489.911 449.513ZM482.565 452.049C481.087 452.738 482.156 455.036 483.637 454.346C485.115 453.656 484.045 451.359 482.565 452.049ZM486.771 459.174C484.331 460.313 486.095 464.109 488.541 462.968C490.981 461.829 489.216 458.034 486.771 459.174ZM479.066 460.311C477.724 457.102 473.429 462.131 477.321 462.79C478.921 463.377 479.907 461.581 479.066 460.311ZM529.486 450.727C527.013 450.748 527.049 454.584 529.518 454.564C531.992 454.543 531.955 450.706 529.486 450.727ZM536.31 448.627C536.116 450.009 537.639 451.108 538.732 449.99C541.692 447.909 536.154 445.442 536.31 448.627ZM523.077 443.971C521.035 443.989 521.065 447.157 523.103 447.139C525.145 447.121 525.116 443.953 523.077 443.971Z" fill="#FF4B33"/>
<path fill-rule="evenodd" clip-rule="evenodd" d="M742.851 452.529C740.481 452.529 737.991 453.003 736.041 454.19C731.791 456.768 729.011 463.249 730.831 466.358C731.601 467.68 732.751 468.504 734.231 468.805C736.441 469.254 739.261 468.502 741.401 466.89C744.541 464.526 745.181 458.97 744.591 452.614C744.031 452.559 743.441 452.529 742.851 452.529ZM732.851 563C732.061 563 731.321 562.86 730.611 562.59C725.701 560.66 724.981 553.08 724.861 547.54C724.631 536.42 733.821 526.122 743.541 515.219C754.111 503.376 765.041 491.128 764.141 477.432C763.531 468.156 757.161 456.693 748.461 453.486C749.021 461.619 747.421 467.152 743.681 469.97C740.661 472.24 736.751 473.237 733.481 472.574C730.931 472.055 728.871 470.58 727.551 468.31C724.421 462.959 728.521 454.262 734.071 450.896C737.141 449.038 740.871 448.545 744.101 448.726C743.121 442.534 741.261 436.057 739.581 431.291C736.651 423.021 733.451 417.877 730.621 413.338C727.241 407.905 724.321 403.213 723.321 395.374C722.131 385.928 724.241 376.049 729.611 366.011C730.111 365.076 731.271 364.726 732.191 365.231C733.121 365.736 733.461 366.901 732.961 367.835C727.981 377.152 726.011 386.254 727.101 394.887C727.991 401.885 730.571 406.037 733.851 411.293C736.781 415.998 740.101 421.332 743.171 429.998C743.911 432.104 746.451 439.601 747.771 447.655C747.861 448.221 747.941 448.779 748.021 449.327C748.031 449.329 748.041 449.33 748.041 449.333L748.231 449.382C759.481 452.453 767.221 466.2 767.941 477.178C768.941 492.494 757.471 505.354 746.381 517.79C737.171 528.111 728.471 537.86 728.671 547.46C728.861 556.45 730.831 558.55 731.991 559C732.621 559.25 733.421 559.19 734.381 558.85C735.371 558.48 736.471 559 736.821 560C737.181 561 736.671 562.1 735.681 562.46C734.691 562.82 733.741 563 732.851 563Z" fill="#FFC81A"/>
<path fill-rule="evenodd" clip-rule="evenodd" d="M784.951 107.049C742.951 87.77 696.611 101.853 667.631 125.32C664.661 127.725 625.941 160.12 624.071 213.019C622.071 269.509 662.471 338.562 725.461 344.744C715.461 349.252 702.291 364.936 711.081 377.434C713.641 381.071 721.261 385.378 725.291 379.421C732.131 389.538 741.431 391.309 742.761 379.181C765.711 373.882 747.311 351.539 735.571 345.177C799.861 344.511 845.271 277.547 847.421 219.725C848.811 182.308 832.831 129.026 784.951 107.049Z" fill="#FFC81A"/>
<path d="M699.141 132.361C700.751 131.324 702.901 131.784 703.931 133.39C704.971 134.996 704.511 137.138 702.901 138.176C670.721 158.955 657.961 189.128 664.421 229.335C664.721 231.223 663.431 232.999 661.551 233.302C659.661 233.605 657.881 232.32 657.581 230.433C650.691 187.564 664.611 154.659 699.141 132.361Z" fill="white"/>
</svg>
