<svg width="2209" height="1411" viewBox="0 0 2209 1411" fill="none" xmlns="http://www.w3.org/2000/svg">
<path fill-rule="evenodd" clip-rule="evenodd" d="M654.329 324.608C646.933 341.79 646.342 364.491 657.684 393.554C675.617 439.509 710.737 470.573 742.979 498.555C743.536 499.039 744.092 499.521 744.648 500.003C760.016 513.337 774.787 526.152 786.06 539.473C797.796 553.342 806.197 568.273 807.512 585.635C808.376 597.065 805.736 610.161 801.816 624.1C799.352 632.863 796.262 642.342 793.043 652.214C791.153 658.011 789.218 663.943 787.341 669.947C777.056 702.825 767.924 739.446 772.798 777.356C775.935 801.754 783.202 819.153 792.18 832.828C801.216 846.592 812.099 856.779 822.968 866.792C823.312 867.108 823.655 867.424 823.999 867.74C834.39 877.307 844.904 886.986 852.563 899.336C860.618 912.323 865.404 928.02 864.588 949.46C863.266 984.14 842.722 1006.96 820.671 1029.82C819.335 1031.21 817.991 1032.6 816.643 1033.99C795.494 1055.83 773.246 1078.81 760.795 1113.7C744.403 1159.64 753.038 1203.72 766.031 1236.63C772.518 1253.07 780.049 1266.6 785.953 1276.02C788.903 1280.72 791.44 1284.39 793.228 1286.86C793.678 1287.48 794.081 1288.03 794.43 1288.5H1175.33C1175.89 1287.76 1176.6 1286.83 1177.44 1285.7C1179.82 1282.5 1183.22 1277.76 1187.24 1271.69C1195.27 1259.54 1205.76 1242.09 1215.55 1220.89C1235.18 1178.4 1251.77 1121.41 1240.81 1062.13C1230.68 1007.31 1201.63 974.42 1172.57 948.65C1165.82 942.67 1159.1 937.094 1152.58 931.683C1152.04 931.24 1151.51 930.799 1150.98 930.359C1144 924.56 1137.24 918.913 1131.13 913.26C1118.97 902.015 1108.78 890.221 1104.18 876.054C1092.47 840.045 1099.13 803.777 1106.74 767.456C1107.2 765.235 1107.67 763.013 1108.14 760.79C1115.42 726.259 1122.78 691.367 1117.5 654.232C1108.67 592.262 1073.71 558.474 1035.28 533.498C1022.36 525.095 1009.28 517.831 996.585 510.783C990.178 507.225 983.87 503.721 977.731 500.155C959.767 489.718 943.372 478.79 932.507 464.882C923.154 452.909 916.058 439.088 909.446 424.613C907.006 419.271 904.652 413.892 902.277 408.463C898.117 398.954 893.891 389.295 889.019 379.425C873.925 348.847 853.418 318.026 813.766 293.247C782.909 273.965 732.078 270.676 694.839 286.817C676.384 294.817 661.745 307.379 654.329 324.608ZM1178 1294C1182.26 1297.48 1182.26 1297.48 1182.26 1297.47H1182.27L1182.29 1297.45L1182.34 1297.37C1182.39 1297.31 1182.47 1297.22 1182.56 1297.11C1182.66 1296.98 1182.79 1296.82 1182.94 1296.63C1183.06 1296.48 1183.2 1296.3 1183.35 1296.11C1184.03 1295.23 1185.02 1293.94 1186.27 1292.27C1188.76 1288.92 1192.27 1284.02 1196.41 1277.76C1204.68 1265.26 1215.46 1247.31 1225.54 1225.5C1245.65 1181.98 1263.17 1122.55 1251.63 1060.13C1240.87 1001.91 1209.83 966.99 1179.86 940.422C1172.98 934.315 1166.12 928.627 1159.62 923.234C1159.08 922.786 1158.54 922.339 1158.01 921.895C1151 916.077 1144.46 910.609 1138.6 905.185C1126.81 894.276 1118.35 884.063 1114.64 872.653C1103.95 839.791 1109.85 806.284 1117.5 769.71C1117.99 767.384 1118.49 765.047 1118.98 762.697C1126.21 728.499 1133.96 691.812 1128.39 652.681C1118.95 586.392 1081.18 550.209 1041.28 524.275C1028.05 515.676 1014.34 508.062 1001.46 500.901C995.144 497.394 989.027 493.996 983.257 490.644C965.371 480.252 950.628 470.211 941.175 458.11C932.638 447.181 925.971 434.313 919.452 420.043C917.164 415.035 914.874 409.803 912.524 404.435C908.281 394.743 903.845 384.609 898.883 374.556C883.247 342.881 861.564 310.146 819.595 283.918C785.426 262.567 730.751 259.262 690.464 276.725C670.155 285.528 653.025 299.817 644.225 320.259C635.405 340.748 635.333 366.538 647.437 397.553C666.487 446.371 703.716 479.045 735.769 506.863C736.212 507.248 736.654 507.631 737.095 508.014C752.753 521.601 766.951 533.92 777.663 546.579C788.62 559.528 795.472 572.318 796.543 586.466C797.254 595.863 795.088 607.393 791.227 621.122C788.813 629.706 785.856 638.773 782.698 648.453C780.793 654.291 778.816 660.351 776.842 666.663C766.479 699.794 756.693 738.349 761.888 778.759C765.23 804.754 773.059 823.748 782.985 838.865C792.852 853.894 804.679 864.899 815.516 874.882L816.079 875.401C826.831 885.304 836.361 894.082 843.215 905.134C850.047 916.149 854.333 929.659 853.596 949.04C852.451 979.08 834.968 999.15 812.753 1022.19C811.357 1023.64 809.943 1025.1 808.517 1026.57C787.509 1048.24 763.713 1072.8 750.435 1110.01C732.829 1159.34 742.243 1206.33 755.8 1240.67C762.588 1257.87 770.458 1272.01 776.634 1281.86C779.725 1286.79 782.398 1290.65 784.311 1293.3C785.268 1294.63 786.035 1295.65 786.57 1296.35C786.837 1296.69 787.047 1296.96 787.193 1297.15L787.293 1297.28L787.363 1297.36L787.412 1297.42L787.427 1297.44L787.432 1297.45C787.433 1297.45 787.435 1297.45 791.715 1294L787.435 1297.45L789.086 1299.5H1180.61L1182.26 1297.48L1178 1294Z" fill="white"/>
<path fill-rule="evenodd" clip-rule="evenodd" d="M353.286 689.606C276.042 674.493 133.31 686.247 111.48 709.757C87.0198 736.092 148.38 881.468 177.817 893.246C221.979 893.246 295.579 884.413 283.804 907.966C272.028 931.518 233.754 960.961 233.754 975.681C233.754 990.401 260.251 1084.61 292.636 1090.49C325.019 1096.38 404.509 1069.89 407.454 1090.49C410.397 1111.1 366.236 1137.6 363.292 1161.15C360.349 1184.71 404.509 1249.47 592.929 1305.41H754.849C754.849 1305.41 784.29 1102.27 713.634 1016.9C657.695 1037.5 634.142 1040.45 634.142 1040.45C634.142 1040.45 640.032 925.629 619.424 875.581C598.815 825.531 570.993 782.164 534.642 781.963C507.404 781.814 449.023 834.477 437.248 813.868C425.472 793.26 451.564 708.834 353.286 689.606Z" fill="white"/>
<path fill-rule="evenodd" clip-rule="evenodd" d="M289.011 228.14C255.373 231.985 223.511 484.882 336.561 514.257C378.397 525.127 447.281 545.731 409.811 587.366C390.725 608.57 314.063 632.357 294.869 675.009C280.248 707.494 317.534 806.069 373.59 831.729C437.773 861.105 498.446 848.328 503.828 887.785C509.208 927.242 415.88 951.87 410.115 1005.69C406.059 1043.52 469.032 1182.17 675.673 1299.03C797.634 1299.03 899.839 1297.23 899.839 1297.23C899.839 1297.23 998.201 1141.53 1023.31 958.59C1048.42 775.655 1009.68 711.646 941.446 703.052C905.081 698.471 834.93 750.991 799.759 740.716C770.442 732.15 808.019 633.52 808.019 563.572C808.019 493.626 789.758 430.937 760.301 416.087C736.579 404.13 666.073 456.669 642.757 467.429C619.439 478.191 573.625 489.337 564.853 465.537C554.076 436.286 592.727 359.813 563.893 316.564C527.845 262.488 365.844 219.359 289.011 228.14Z" fill="#D3E2F2"/>
<path d="M338.388 303.099C336.994 304.439 336.951 306.655 338.291 308.048L339.535 309.358C340.157 310.018 340.847 310.754 341.604 311.566L343.205 313.291C347.058 317.458 351.503 322.362 356.493 327.986L357.176 328.757C371.925 345.407 388.329 364.808 405.982 386.791L407.11 388.198C458.788 452.679 510.469 525.762 558.703 606.009C619.137 706.553 669.774 811.225 707.399 918.674C751.732 1045.28 776.64 1171.98 778.92 1297.45C778.955 1299.38 780.55 1300.92 782.483 1300.88C784.416 1300.85 785.954 1299.25 785.919 1297.32C783.624 1171.07 758.574 1043.64 714.006 916.36C676.213 808.432 625.37 703.336 564.702 602.402C516.835 522.766 465.589 450.165 414.301 385.981L412.573 383.82C395.172 362.109 378.961 342.872 364.317 326.267L362.416 324.116C358.037 319.171 354.062 314.763 350.522 310.903L348.345 308.539C347.491 307.615 346.702 306.767 345.98 305.996L343.336 303.196C341.996 301.802 339.781 301.759 338.388 303.099Z" fill="white"/>
<path fill-rule="evenodd" clip-rule="evenodd" d="M1509.88 709.152C1466.44 700.653 1386.17 707.263 1373.9 720.484C1360.14 735.294 1394.65 817.048 1411.2 823.671C1436.04 823.671 1477.43 818.704 1470.81 831.949C1464.18 845.194 1442.66 861.75 1442.66 870.028C1442.66 878.306 1457.56 931.286 1475.77 934.596C1493.98 937.908 1538.69 923.007 1540.34 934.596C1542 946.186 1517.16 961.087 1515.51 974.332C1513.85 987.577 1538.69 1024 1644.65 1055.46H1735.7C1735.7 1055.46 1752.26 941.219 1712.53 893.207C1681.07 904.796 1667.82 906.451 1667.82 906.451C1667.82 906.451 1671.13 841.882 1659.55 813.737C1647.96 785.591 1632.31 761.203 1611.87 761.09C1596.55 761.006 1563.72 790.622 1557.1 779.032C1550.47 767.443 1565.15 719.965 1509.88 709.152Z" fill="white"/>
<path fill-rule="evenodd" clip-rule="evenodd" d="M1554.79 743.753C1549.68 724.719 1536.57 712.141 1511.26 707.189C1467.1 698.549 1386.31 705.252 1373.43 719.123C1366.5 726.586 1369.75 748.105 1379.7 774.264L1380.32 775.871C1390.07 800.967 1402.86 822.087 1411.46 825.528C1411.7 825.622 1411.95 825.671 1412.2 825.671C1415.37 825.671 1418.14 825.617 1422.92 825.46L1434.26 825.056C1447.78 824.591 1455.64 824.627 1461.69 825.43L1462.31 825.516C1469.4 826.537 1471.45 828.196 1470.02 831.054C1468.39 834.3 1465.73 837.975 1461.81 842.54C1460.49 844.083 1459.07 845.677 1457.21 847.729L1453.04 852.314L1451.28 854.267C1449.45 856.325 1448.01 858.02 1446.78 859.587C1443.4 863.902 1441.66 867.173 1441.66 870.028C1441.66 875.297 1446.1 891.628 1451.54 904.931L1451.78 905.516C1459.15 923.374 1467.46 934.936 1476.42 936.564C1482.61 937.69 1490.44 937.081 1505.56 934.902L1510.12 934.242C1520.85 932.698 1525.33 932.184 1529.89 932.114L1530.74 932.107C1536.41 932.102 1539.11 933.13 1539.36 934.879C1539.95 938.992 1537.28 943.001 1528.16 953.078L1527.12 954.216C1525.04 956.508 1523.8 957.912 1522.52 959.43L1522.14 959.891C1517.57 965.399 1515.06 969.77 1514.52 974.084C1513.42 982.871 1521.67 995.768 1538.46 1008.84L1539.51 1009.65C1561.8 1026.68 1596.79 1043.04 1645.08 1057.37C1645.26 1057.43 1645.45 1057.46 1645.65 1057.46H1736.7C1737.7 1057.46 1738.54 1056.73 1738.68 1055.74L1738.89 1054.26C1738.96 1053.72 1739.03 1053.14 1739.11 1052.51L1739.31 1050.8C1739.63 1048.1 1739.94 1045.1 1740.24 1041.85L1740.41 1040.05C1742.63 1014.92 1742.94 988.469 1740.12 963.676C1736.62 932.941 1728.61 908.292 1715.07 891.932C1714.53 891.278 1713.63 891.037 1712.84 891.33C1699.76 896.148 1688.9 899.601 1680.12 901.915L1678.88 902.238C1676.17 902.935 1673.84 903.473 1671.88 903.873L1670.93 904.062L1670.97 902.996L1671.02 901.308L1671.09 898.82C1671.48 884.259 1671.28 868.45 1670.12 853.51C1668.78 836.33 1666.3 822.449 1662.4 812.975C1648.31 778.762 1632.22 759.197 1612.88 759.09C1607.36 759.06 1601.14 761.698 1589 768.36L1582.54 771.918C1575.78 775.612 1572.61 777.171 1569.19 778.401L1568.44 778.667C1563.65 780.292 1560.97 780.025 1559.83 778.04C1558.8 776.226 1558.33 773.467 1557.87 767.176L1557.65 764.053C1556.99 754.647 1556.48 750.314 1555.06 744.784L1554.79 743.753ZM1383.76 773.666C1374.16 748.705 1370.9 727.723 1376.36 721.845L1376.73 721.471C1389.57 709.197 1468.03 702.806 1510.5 711.115C1534.29 715.769 1546.21 727.21 1550.93 744.79C1552.41 750.298 1552.94 754.308 1553.59 763.267L1553.82 766.591C1554.35 774.215 1554.85 777.383 1556.36 780.024C1558.69 784.094 1563.15 784.608 1569.38 782.567L1570.1 782.325C1574.17 780.897 1577.57 779.214 1585.74 774.727L1589.11 772.862L1591.95 771.301C1602.71 765.446 1608.45 763.066 1612.86 763.09C1629.98 763.184 1645.19 781.691 1658.7 814.498C1662.27 823.18 1664.65 836.079 1665.99 852.064L1666.13 853.82C1667.33 869.244 1667.49 885.646 1667.04 900.593C1667.03 901.191 1667.01 901.765 1666.99 902.313L1666.89 904.843L1666.83 906.348C1666.76 907.591 1667.84 908.59 1669.07 908.435C1669.4 908.394 1669.95 908.31 1670.72 908.17L1671.77 907.975C1673.68 907.604 1675.96 907.096 1678.62 906.43L1679.88 906.112C1688.58 903.873 1699.36 900.5 1712.35 895.769L1712.87 895.576L1713.22 896.022C1725.3 911.506 1732.67 934.545 1736.03 963.162L1736.14 964.128C1738.93 988.615 1738.62 1014.82 1736.42 1039.7C1736.05 1043.91 1735.65 1047.72 1735.25 1051.06L1735.14 1052.02L1734.96 1053.46H1645.94L1643.39 1052.69C1597.47 1038.84 1564.06 1023.16 1542.59 1006.98L1541.93 1006.47C1525.46 993.896 1517.59 981.796 1518.49 974.58C1518.92 971.122 1521.23 967.18 1525.58 962.002C1526.63 960.754 1527.67 959.574 1529.22 957.862L1531.66 955.168C1536.13 950.238 1537.74 948.328 1539.61 945.613L1539.87 945.222C1542.57 941.192 1543.8 937.674 1543.32 934.313C1542.67 929.715 1538.1 928.041 1530.33 928.109L1529.84 928.114C1525.45 928.18 1521.26 928.623 1512.2 929.905L1503.01 931.225C1490.08 933.042 1482.94 933.565 1477.65 932.717L1477.13 932.628C1470.13 931.355 1462.5 920.831 1455.71 904.55L1455.24 903.419C1449.99 890.557 1445.66 874.654 1445.66 870.028C1445.66 868.358 1447.07 865.697 1449.93 862.056C1450.94 860.776 1452.1 859.39 1453.54 857.758L1454.66 856.486C1454.87 856.25 1455.09 856.012 1455.31 855.766L1460.57 849.979C1461.87 848.54 1462.96 847.32 1463.96 846.167L1464.85 845.143C1468.96 840.351 1471.79 836.445 1473.6 832.843C1475.19 829.652 1474.69 826.764 1472.19 824.746C1470.25 823.172 1467.16 822.173 1462.89 821.557C1456.32 820.61 1448.09 820.567 1433.41 821.083L1427.65 821.292C1421.16 821.527 1417.69 821.63 1414.45 821.661L1412.62 821.669L1412.51 821.622C1405.39 818.172 1393.43 798.348 1384.33 775.142L1383.76 773.666Z" fill="#070707"/>
<path fill-rule="evenodd" clip-rule="evenodd" d="M1554.79 743.753C1549.68 724.719 1536.57 712.141 1511.26 707.189C1467.1 698.549 1386.31 705.252 1373.43 719.123C1366.5 726.586 1369.75 748.105 1379.7 774.264L1380.32 775.871C1390.07 800.967 1402.86 822.087 1411.46 825.528C1411.7 825.622 1411.95 825.671 1412.2 825.671C1415.37 825.671 1418.14 825.617 1422.92 825.46L1434.26 825.056C1447.78 824.591 1455.64 824.627 1461.69 825.43L1462.31 825.516C1469.4 826.537 1471.45 828.196 1470.02 831.054C1468.39 834.3 1465.73 837.975 1461.81 842.54C1460.49 844.083 1459.07 845.677 1457.21 847.729L1453.04 852.314L1451.28 854.267C1449.45 856.325 1448.01 858.02 1446.78 859.587C1443.4 863.902 1441.66 867.173 1441.66 870.028C1441.66 875.297 1446.1 891.628 1451.54 904.931L1451.78 905.516C1459.15 923.374 1467.46 934.936 1476.42 936.564C1482.61 937.69 1490.44 937.081 1505.56 934.902L1510.12 934.242C1520.85 932.698 1525.33 932.184 1529.89 932.114L1530.74 932.107C1536.41 932.102 1539.11 933.13 1539.36 934.879C1539.95 938.992 1537.28 943.001 1528.16 953.078L1527.12 954.216C1525.04 956.508 1523.8 957.912 1522.52 959.43L1522.14 959.891C1517.57 965.399 1515.06 969.77 1514.52 974.084C1513.42 982.871 1521.67 995.768 1538.46 1008.84L1539.51 1009.65C1561.8 1026.68 1596.79 1043.04 1645.08 1057.37C1645.26 1057.43 1645.45 1057.46 1645.65 1057.46H1736.7C1737.7 1057.46 1738.54 1056.73 1738.68 1055.74L1738.89 1054.26C1738.96 1053.72 1739.03 1053.14 1739.11 1052.51L1739.31 1050.8C1739.63 1048.1 1739.94 1045.1 1740.24 1041.85L1740.41 1040.05C1742.63 1014.92 1742.94 988.469 1740.12 963.676C1736.62 932.941 1728.61 908.292 1715.07 891.932C1714.53 891.278 1713.63 891.037 1712.84 891.33C1699.76 896.148 1688.9 899.601 1680.12 901.915L1678.88 902.238C1676.17 902.935 1673.84 903.473 1671.88 903.873L1670.93 904.062L1670.97 902.996L1671.02 901.308L1671.09 898.82C1671.48 884.259 1671.28 868.45 1670.12 853.51C1668.78 836.33 1666.3 822.449 1662.4 812.975C1648.31 778.762 1632.22 759.197 1612.88 759.09C1607.36 759.06 1601.14 761.698 1589 768.36L1582.54 771.918C1575.78 775.612 1572.61 777.171 1569.19 778.401L1568.44 778.667C1563.65 780.292 1560.97 780.025 1559.83 778.04C1558.8 776.226 1558.33 773.467 1557.87 767.176L1557.65 764.053C1556.99 754.647 1556.48 750.314 1555.06 744.784L1554.79 743.753ZM1383.76 773.666C1374.16 748.705 1370.9 727.723 1376.36 721.845L1376.73 721.471C1389.57 709.197 1468.03 702.806 1510.5 711.115C1534.29 715.769 1546.21 727.21 1550.93 744.79C1552.41 750.298 1552.94 754.308 1553.59 763.267L1553.82 766.591C1554.35 774.215 1554.85 777.383 1556.36 780.024C1558.69 784.094 1563.15 784.608 1569.38 782.567L1570.1 782.325C1574.17 780.897 1577.57 779.214 1585.74 774.727L1589.11 772.862L1591.95 771.301C1602.71 765.446 1608.45 763.066 1612.86 763.09C1629.98 763.184 1645.19 781.691 1658.7 814.498C1662.27 823.18 1664.65 836.079 1665.99 852.064L1666.13 853.82C1667.33 869.244 1667.49 885.646 1667.04 900.593C1667.03 901.191 1667.01 901.765 1666.99 902.313L1666.89 904.843L1666.83 906.348C1666.76 907.591 1667.84 908.59 1669.07 908.435C1669.4 908.394 1669.95 908.31 1670.72 908.17L1671.77 907.975C1673.68 907.604 1675.96 907.096 1678.62 906.43L1679.88 906.112C1688.58 903.873 1699.36 900.5 1712.35 895.769L1712.87 895.576L1713.22 896.022C1725.3 911.506 1732.67 934.545 1736.03 963.162L1736.14 964.128C1738.93 988.615 1738.62 1014.82 1736.42 1039.7C1736.05 1043.91 1735.65 1047.72 1735.25 1051.06L1735.14 1052.02L1734.96 1053.46H1645.94L1643.39 1052.69C1597.47 1038.84 1564.06 1023.16 1542.59 1006.98L1541.93 1006.47C1525.46 993.896 1517.59 981.796 1518.49 974.58C1518.92 971.122 1521.23 967.18 1525.58 962.002C1526.63 960.754 1527.67 959.574 1529.22 957.862L1531.66 955.168C1536.13 950.238 1537.74 948.328 1539.61 945.613L1539.87 945.222C1542.57 941.192 1543.8 937.674 1543.32 934.313C1542.67 929.715 1538.1 928.041 1530.33 928.109L1529.84 928.114C1525.45 928.18 1521.26 928.623 1512.2 929.905L1503.01 931.225C1490.08 933.042 1482.94 933.565 1477.65 932.717L1477.13 932.628C1470.13 931.355 1462.5 920.831 1455.71 904.55L1455.24 903.419C1449.99 890.557 1445.66 874.654 1445.66 870.028C1445.66 868.358 1447.07 865.697 1449.93 862.056C1450.94 860.776 1452.1 859.39 1453.54 857.758L1454.66 856.486C1454.87 856.25 1455.09 856.012 1455.31 855.766L1460.57 849.979C1461.87 848.54 1462.96 847.32 1463.96 846.167L1464.85 845.143C1468.96 840.351 1471.79 836.445 1473.6 832.843C1475.19 829.652 1474.69 826.764 1472.19 824.746C1470.25 823.172 1467.16 822.173 1462.89 821.557C1456.32 820.61 1448.09 820.567 1433.41 821.083L1427.65 821.292C1421.16 821.527 1417.69 821.63 1414.45 821.661L1412.62 821.669L1412.51 821.622C1405.39 818.172 1393.43 798.348 1384.33 775.142L1383.76 773.666Z" fill="#070707"/>
<path fill-rule="evenodd" clip-rule="evenodd" d="M1473.73 449.641C1454.82 451.803 1436.9 594.023 1500.47 610.542C1524 616.655 1562.74 628.242 1541.67 651.656C1530.93 663.58 1487.82 676.957 1477.03 700.943C1468.81 719.211 1489.77 774.646 1521.3 789.076C1557.39 805.596 1591.51 798.411 1594.54 820.6C1597.56 842.789 1545.08 856.637 1541.84 886.905C1539.56 908.179 1574.97 986.15 1691.18 1051.87C1759.76 1051.87 1817.24 1050.86 1817.24 1050.86C1817.24 1050.86 1872.56 963.298 1886.68 860.42C1900.8 757.542 1879.01 721.546 1840.64 716.713C1820.19 714.137 1780.74 743.672 1760.96 737.894C1744.47 733.077 1765.6 677.611 1765.6 638.275C1765.6 598.94 1755.34 563.686 1738.77 555.335C1725.43 548.611 1685.78 578.157 1672.67 584.208C1659.55 590.26 1633.79 596.528 1628.86 583.144C1622.8 566.694 1644.53 523.689 1628.32 499.367C1608.05 468.957 1516.94 444.703 1473.73 449.641Z" fill="#FF4B33"/>
<path d="M1501.48 491.772C1500.68 492.538 1500.66 493.804 1501.42 494.6L1502.12 495.337C1502.63 495.878 1503.22 496.51 1503.89 497.233L1505.95 499.47C1507.63 501.31 1509.48 503.362 1511.49 505.623L1512.04 506.245C1520.51 515.807 1529.95 526.983 1540.12 539.671C1569.18 575.931 1598.25 617.03 1625.37 662.156C1659.35 718.697 1687.83 777.558 1708.99 837.981C1733.92 909.176 1747.93 980.427 1749.21 1050.98C1749.23 1052.08 1750.14 1052.96 1751.24 1052.94C1752.35 1052.92 1753.23 1052.01 1753.21 1050.91C1751.92 979.905 1737.83 908.237 1712.76 836.659C1691.51 775.962 1662.92 716.858 1628.8 660.096C1601.58 614.806 1572.41 573.563 1543.24 537.17L1541.34 534.799C1531.85 523.032 1523.02 512.603 1515.04 503.593L1513.4 501.746C1511.08 499.146 1508.98 496.84 1507.12 494.833L1505.74 493.348L1504.31 491.827C1503.54 491.031 1502.27 491.007 1501.48 491.772Z" fill="#070707"/>
<path fill-rule="evenodd" clip-rule="evenodd" d="M1640.75 1302.98C1698.23 1302.98 1755.73 1302.97 1813.22 1302.98C1867.11 1211.03 1883.4 1142.86 1844.5 1050.89H1609.47C1570.58 1142.86 1586.86 1211.01 1640.75 1302.98Z" fill="#FFC81A"/>
<path fill-rule="evenodd" clip-rule="evenodd" d="M1607.63 1050.11C1607.94 1049.37 1608.67 1048.89 1609.47 1048.89H1844.5L1844.66 1048.89C1845.4 1048.95 1846.05 1049.42 1846.34 1050.11C1865.68 1095.82 1871.72 1136.27 1865.63 1177.23C1859.98 1215.34 1843.93 1254.53 1814.95 1303.99C1814.59 1304.6 1813.94 1304.98 1813.23 1304.98H1640.75L1640.75 1302.98L1639.02 1303.99L1638.16 1302.51C1609.72 1253.74 1593.94 1214.95 1588.34 1177.23C1582.25 1136.27 1588.3 1095.82 1607.63 1050.11ZM1843.17 1052.89H1610.8L1610.18 1054.36C1592.02 1098.32 1586.44 1137.25 1592.29 1176.64L1592.46 1177.76C1598.12 1214.56 1613.69 1252.62 1641.61 1300.5L1641.9 1300.98L1812.08 1300.98L1812.36 1300.5C1840.56 1252.14 1856.16 1213.79 1861.68 1176.65L1861.85 1175.44C1867.47 1136.05 1861.65 1097.07 1843.23 1053.02L1843.17 1052.89Z" fill="#141414"/>
<path d="M1712 1075.98C1710.89 1075.98 1710 1076.87 1710 1077.98C1710 1079.03 1710.82 1079.9 1711.85 1079.97L1712 1079.98H1831C1832.11 1079.98 1833 1079.08 1833 1077.98C1833 1076.92 1832.18 1076.06 1831.15 1075.98L1831 1075.98H1712Z" fill="#141414"/>
<path d="M810 81C810 36.2649 846.265 0 891 0H1395C1439.74 0 1476 36.2649 1476 81V1222C1476 1266.74 1439.74 1303 1395 1303H891C846.265 1303 810 1266.74 810 1222V81Z" fill="white"/>
<path fill-rule="evenodd" clip-rule="evenodd" d="M1395 24H891C859.52 24 834 49.5198 834 81V1222C834 1253.48 859.52 1279 891 1279H1395C1426.48 1279 1452 1253.48 1452 1222V81C1452 49.5198 1426.48 24 1395 24ZM891 0C846.265 0 810 36.2649 810 81V1222C810 1266.74 846.265 1303 891 1303H1395C1439.74 1303 1476 1266.74 1476 1222V81C1476 36.2649 1439.74 0 1395 0H891Z" fill="#141414"/>
<path fill-rule="evenodd" clip-rule="evenodd" d="M891 367.069H1395.87V162H891V367.069Z" fill="white"/>
<path fill-rule="evenodd" clip-rule="evenodd" d="M891 160H1395.87C1396.97 160 1397.87 160.895 1397.87 162V367.069C1397.87 368.174 1396.97 369.069 1395.87 369.069H891C889.895 369.069 889 368.174 889 367.069V162C889 160.895 889.895 160 891 160ZM1393.87 365.068V163.999H893V365.068H1393.87Z" fill="#141414"/>
<path fill-rule="evenodd" clip-rule="evenodd" d="M933.906 322.975H1055.85V201.975H933.906V322.975Z" fill="#FF4B33"/>
<path fill-rule="evenodd" clip-rule="evenodd" d="M1312.83 215.688C1317.25 215.688 1320.83 219.27 1320.83 223.688C1320.83 228.023 1317.38 231.552 1313.08 231.684L1312.83 231.688H1087.58C1083.16 231.688 1079.58 228.106 1079.58 223.688C1079.58 219.353 1083.03 215.823 1087.33 215.692L1087.58 215.688H1312.83ZM1259.52 255.987C1263.94 255.987 1267.52 259.568 1267.52 263.987C1267.52 268.322 1264.07 271.851 1259.77 271.983L1259.52 271.987H1087.58C1083.16 271.987 1079.58 268.405 1079.58 263.987C1079.58 259.652 1083.03 256.122 1087.33 255.99L1087.58 255.987H1259.52ZM1215.29 304.285C1215.29 299.867 1211.71 296.285 1207.29 296.285H1087.58L1087.33 296.289C1083.03 296.421 1079.58 299.95 1079.58 304.285C1079.58 308.704 1083.16 312.285 1087.58 312.285H1207.29L1207.54 312.282C1211.84 312.15 1215.29 308.62 1215.29 304.285Z" fill="#D3E2F2"/>
<path fill-rule="evenodd" clip-rule="evenodd" d="M891 625.009H1395.87V419.94H891V625.009Z" fill="white"/>
<path fill-rule="evenodd" clip-rule="evenodd" d="M891 417.94H1395.87C1396.97 417.94 1397.87 418.835 1397.87 419.94V625.009C1397.87 626.114 1396.97 627.009 1395.87 627.009H891C889.895 627.009 889 626.114 889 625.009V419.94C889 418.835 889.895 417.94 891 417.94ZM1393.87 623.008V421.939H893V623.008H1393.87Z" fill="#141414"/>
<path fill-rule="evenodd" clip-rule="evenodd" d="M933.906 580.915H1055.85V459.915H933.906V580.915Z" fill="#13D6C3"/>
<path fill-rule="evenodd" clip-rule="evenodd" d="M1312.83 473.629C1317.25 473.629 1320.83 477.211 1320.83 481.629C1320.83 485.964 1317.38 489.493 1313.08 489.625L1312.83 489.629H1087.58C1083.16 489.629 1079.58 486.047 1079.58 481.629C1079.58 477.294 1083.03 473.764 1087.33 473.633L1087.58 473.629H1312.83ZM1259.52 513.928C1263.94 513.928 1267.52 517.509 1267.52 521.928C1267.52 526.263 1264.07 529.792 1259.77 529.924L1259.52 529.928H1087.58C1083.16 529.928 1079.58 526.346 1079.58 521.928C1079.58 517.593 1083.03 514.063 1087.33 513.931L1087.58 513.928H1259.52ZM1215.29 562.226C1215.29 557.808 1211.71 554.226 1207.29 554.226H1087.58L1087.33 554.23C1083.03 554.362 1079.58 557.891 1079.58 562.226C1079.58 566.645 1083.16 570.226 1087.58 570.226H1207.29L1207.54 570.223C1211.84 570.091 1215.29 566.561 1215.29 562.226Z" fill="#D3E2F2"/>
<g opacity="0.553153">
<path opacity="0.553153" fill-rule="evenodd" clip-rule="evenodd" d="M891 882.949H1395.87V677.88H891V882.949Z" fill="white"/>
<path opacity="0.553153" fill-rule="evenodd" clip-rule="evenodd" d="M891 675.88H1395.87C1396.97 675.88 1397.87 676.775 1397.87 677.88V882.949C1397.87 884.054 1396.97 884.949 1395.87 884.949H891C889.895 884.949 889 884.054 889 882.949V677.88C889 676.775 889.895 675.88 891 675.88ZM1393.87 880.948V679.879H893V880.948H1393.87Z" fill="#141414"/>
<path opacity="0.553153" fill-rule="evenodd" clip-rule="evenodd" d="M933.906 838.854H1055.85V717.854H933.906V838.854Z" fill="#02BAD3"/>
<path opacity="0.553153" fill-rule="evenodd" clip-rule="evenodd" d="M1312.83 731.568C1317.25 731.568 1320.83 735.15 1320.83 739.568C1320.83 743.903 1317.38 747.432 1313.08 747.564L1312.83 747.568H1087.58C1083.16 747.568 1079.58 743.986 1079.58 739.568C1079.58 735.233 1083.03 731.703 1087.33 731.572L1087.58 731.568H1312.83ZM1259.52 771.867C1263.94 771.867 1267.52 775.448 1267.52 779.867C1267.52 784.202 1264.07 787.731 1259.77 787.863L1259.52 787.867H1087.58C1083.16 787.867 1079.58 784.285 1079.58 779.867C1079.58 775.532 1083.03 772.002 1087.33 771.87L1087.58 771.867H1259.52ZM1215.29 820.165C1215.29 815.747 1211.71 812.165 1207.29 812.165H1087.58L1087.33 812.169C1083.03 812.301 1079.58 815.83 1079.58 820.165C1079.58 824.584 1083.16 828.165 1087.58 828.165H1207.29L1207.54 828.162C1211.84 828.03 1215.29 824.5 1215.29 820.165Z" fill="#D3E2F2"/>
</g>
<g opacity="0.162202">
<path opacity="0.162202" fill-rule="evenodd" clip-rule="evenodd" d="M891 1140.89H1395.87V935.82H891V1140.89Z" fill="white"/>
<path opacity="0.162202" fill-rule="evenodd" clip-rule="evenodd" d="M891 933.82H1395.87C1396.97 933.82 1397.87 934.715 1397.87 935.82V1140.89C1397.87 1141.99 1396.97 1142.89 1395.87 1142.89H891C889.895 1142.89 889 1141.99 889 1140.89V935.82C889 934.715 889.895 933.82 891 933.82ZM1393.87 1138.89V937.819H893V1138.89H1393.87Z" fill="#141414"/>
<path opacity="0.162202" fill-rule="evenodd" clip-rule="evenodd" d="M933.906 1096.79H1055.85V975.795H933.906V1096.79Z" fill="#FFC81A"/>
<path opacity="0.162202" fill-rule="evenodd" clip-rule="evenodd" d="M1312.83 989.508C1317.25 989.508 1320.83 993.09 1320.83 997.508C1320.83 1001.84 1317.38 1005.37 1313.08 1005.5L1312.83 1005.51H1087.58C1083.16 1005.51 1079.58 1001.93 1079.58 997.508C1079.58 993.173 1083.03 989.643 1087.33 989.512L1087.58 989.508H1312.83ZM1259.52 1029.81C1263.94 1029.81 1267.52 1033.39 1267.52 1037.81C1267.52 1042.14 1264.07 1045.67 1259.77 1045.8L1259.52 1045.81H1087.58C1083.16 1045.81 1079.58 1042.22 1079.58 1037.81C1079.58 1033.47 1083.03 1029.94 1087.33 1029.81H1087.58H1259.52ZM1215.29 1078.11C1215.29 1073.69 1211.71 1070.11 1207.29 1070.11H1087.58H1087.33C1083.03 1070.24 1079.58 1073.77 1079.58 1078.11C1079.58 1082.52 1083.16 1086.11 1087.58 1086.11H1207.29L1207.54 1086.1C1211.84 1085.97 1215.29 1082.44 1215.29 1078.11Z" fill="#D3E2F2"/>
</g>
<path fill-rule="evenodd" clip-rule="evenodd" d="M2209 1305H0V1301H2209V1305Z" fill="#141414"/>
<path fill-rule="evenodd" clip-rule="evenodd" d="M895.779 1243L885.507 1338.79L835.173 1335.73L825.797 1244.39L895.779 1243Z" fill="white"/>
<path fill-rule="evenodd" clip-rule="evenodd" d="M828.637 1251.21L837.092 1333.58L883.622 1336.41L892.76 1251.2C892.883 1250.06 893.792 1249.19 894.873 1249.19C896.143 1249.19 897.13 1250.37 896.986 1251.71L887.62 1339.05C887.497 1340.2 886.582 1341.05 885.509 1341.05C885.468 1341.05 885.427 1341.05 885.386 1341.05L835.053 1337.99C834.015 1337.93 833.173 1337.07 833.059 1335.98L824.408 1251.7C824.271 1250.36 825.257 1249.19 826.523 1249.19C827.608 1249.19 828.519 1250.06 828.637 1251.21Z" fill="#141414"/>
<path fill-rule="evenodd" clip-rule="evenodd" d="M783.128 1206L779.202 1330.49L722.068 1335.42L696.754 1241.74L783.128 1206Z" fill="white"/>
<path fill-rule="evenodd" clip-rule="evenodd" d="M700.414 1247.1L723.635 1333.03L777.14 1328.41L780.747 1220.12C780.794 1218.71 782.055 1217.69 783.36 1218.01C784.349 1218.26 785.035 1219.21 784.999 1220.28L781.328 1330.56C781.291 1331.7 780.452 1332.63 779.375 1332.73L722.242 1337.66C722.184 1337.66 722.125 1337.67 722.067 1337.67C721.126 1337.67 720.286 1337.01 720.024 1336.04L696.324 1248.34C695.948 1246.94 696.899 1245.54 698.269 1245.48C699.255 1245.43 700.143 1246.1 700.414 1247.1Z" fill="#141414"/>
<path fill-rule="evenodd" clip-rule="evenodd" d="M786.17 1322.48C785.912 1321.41 784.912 1320.73 783.879 1320.93C782.895 1321.11 781.651 1321.36 780.185 1321.66C771.204 1323.48 752.515 1327.27 734.804 1327.29H734.758C724.325 1327.29 721.238 1322.95 715.009 1317.49C714.515 1317.05 713.852 1316.9 713.226 1317.07C682.829 1325.4 654.777 1332.76 638.501 1344.2C635.64 1346.21 625.324 1354.98 627.108 1361.19C627.934 1364.06 630.872 1365.51 635.841 1365.51C653.986 1365.51 693.077 1365.62 727.566 1365.71C755.472 1365.79 779.573 1365.86 788.647 1365.86C789.605 1365.86 790.471 1365.4 791.084 1364.57C794.657 1359.73 788.838 1333.52 786.17 1322.48Z" fill="#F45648"/>
<path fill-rule="evenodd" clip-rule="evenodd" d="M788.281 1375.14H631.445C628.838 1375.14 626.725 1372.91 626.725 1370.16V1368.52C626.725 1365.77 628.838 1363.55 631.445 1363.55H788.281C790.887 1363.55 793 1365.77 793 1368.52V1370.16C793 1372.91 790.887 1375.14 788.281 1375.14Z" fill="#141414"/>
<path fill-rule="evenodd" clip-rule="evenodd" d="M675.985 1338.25C675.19 1338.25 674.428 1337.78 674.064 1336.97C670.727 1329.59 664.316 1331.4 663.595 1331.63C662.477 1331.99 661.287 1331.33 660.94 1330.15C660.593 1328.97 661.207 1327.72 662.322 1327.35C665.958 1326.14 673.896 1326.18 677.903 1335.05C678.408 1336.17 677.958 1337.5 676.898 1338.03C676.603 1338.18 676.292 1338.25 675.985 1338.25Z" fill="#141414"/>
<path fill-rule="evenodd" clip-rule="evenodd" d="M694.766 1332.85C693.971 1332.85 693.209 1332.38 692.845 1331.58C689.507 1324.19 683.096 1326 682.377 1326.23C681.258 1326.59 680.068 1325.93 679.721 1324.76C679.374 1323.58 679.989 1322.33 681.103 1321.96C684.743 1320.74 692.679 1320.79 696.684 1329.65C697.189 1330.77 696.739 1332.1 695.679 1332.64C695.384 1332.79 695.073 1332.85 694.766 1332.85Z" fill="#141414"/>
<path fill-rule="evenodd" clip-rule="evenodd" d="M889.765 1315.52C889.765 1315.52 919.241 1342.2 905.215 1362.6C886.634 1368.09 842.225 1373.19 822.507 1363.32C808.685 1356.39 830.543 1315 830.543 1315C852.795 1317.34 869.042 1316.23 889.765 1315.52Z" fill="#F45648"/>
<path fill-rule="evenodd" clip-rule="evenodd" d="M816.739 1367.3C816.947 1371.3 820.983 1373.79 825.266 1373.79H901.594C906.101 1373.79 909.133 1369.53 908.336 1364.96C907.54 1360.4 906.216 1360.79 903.216 1360.79L825.266 1361.22C822.064 1361.22 816.509 1362.86 816.739 1367.3Z" fill="#141414"/>
<path fill-rule="evenodd" clip-rule="evenodd" d="M885.175 1345.59C885.935 1345.59 886.661 1345.13 886.997 1344.36C887.454 1343.3 887.012 1342.05 886.008 1341.57C885.208 1341.18 866.189 1332.23 844.97 1338.73C843.909 1339.06 843.3 1340.23 843.608 1341.35C843.917 1342.46 845.027 1343.11 846.087 1342.78C865.841 1336.73 884.166 1345.31 884.349 1345.4C884.617 1345.53 884.898 1345.59 885.175 1345.59Z" fill="#141414"/>
<path fill-rule="evenodd" clip-rule="evenodd" d="M879.063 1331.62C879.842 1331.62 880.583 1331.14 880.906 1330.34C881.336 1329.27 880.864 1328.03 879.848 1327.57C879.211 1327.29 864.115 1320.68 850.862 1327.37C849.866 1327.87 849.446 1329.13 849.924 1330.18C850.401 1331.23 851.596 1331.67 852.592 1331.17C864.191 1325.31 878.146 1331.39 878.285 1331.45C878.539 1331.57 878.803 1331.62 879.063 1331.62Z" fill="#141414"/>
<path fill-rule="evenodd" clip-rule="evenodd" d="M974.438 887.043C950.557 1108.89 957.258 1270.37 957.258 1270.37C909.044 1278.36 861.73 1278.39 816.025 1264.19L805 797.184L748 941.171C748 941.171 813.909 1188.51 802.473 1209.27C791.038 1230.02 691.134 1272.84 664.288 1256.77C653.181 1250.13 593.233 1045.25 596 926.348C597.447 864.152 701.94 692.405 709 646.845C742.611 642.694 925.702 646.845 925.702 646.845C925.702 646.845 994.139 704.037 974.438 887.043Z" fill="#141414"/>
<path fill-rule="evenodd" clip-rule="evenodd" d="M809.389 675.858C805.098 679.024 795.537 685.198 779.587 691.072C773.882 693.173 770.838 692.852 769.963 691.938C769.372 691.321 769.651 690.052 769.871 689.35C771.597 683.835 780.919 675.174 793.933 673.258C798.576 672.577 803.881 673.695 809.389 675.858ZM824.993 671.495C827.979 671.495 831.46 673.282 834.362 674.774C846.366 680.939 856.216 694.373 857.12 700.839C854.699 699.862 849.256 695.905 844.378 692.359C836.42 686.572 826.888 679.639 817.328 674.804C819.032 673.504 820.926 672.511 823.056 671.792C823.668 671.586 824.318 671.495 824.993 671.495ZM828.769 722.613C829.01 722.613 829.255 722.566 829.493 722.468C830.522 722.044 831.032 720.818 830.632 719.728C825.841 706.669 819.066 687.649 816.463 679.108C825.654 683.879 834.873 690.584 842.115 695.849C852.986 703.756 856.885 706.412 859.569 704.915C860.174 704.578 861.188 703.719 861.188 701.747C861.188 692.88 848.531 677.344 836.108 670.963C831.911 668.808 826.682 666.124 821.842 667.758C818.485 668.889 815.651 670.603 813.222 672.863C806.31 669.841 799.497 668.16 793.383 669.064C779.354 671.13 768.482 680.324 766.075 688.018C764.883 691.829 766.24 694.001 767.155 694.955C769.59 697.495 774.214 697.534 780.901 695.071C792.395 690.839 800.648 686.483 806.124 683.094C802.006 691.929 799.617 703.961 797.102 718.584C796.905 719.735 797.624 720.837 798.711 721.048C799.789 721.254 800.839 720.495 801.037 719.343C804.34 700.13 807.354 687.552 812.539 679.952C815.889 691.17 825.617 717.755 826.903 721.262C827.211 722.099 827.968 722.612 828.769 722.613Z" fill="white"/>
<path fill-rule="evenodd" clip-rule="evenodd" d="M938.662 649.827C940.051 638.531 950.28 564.11 952.663 522.018C969.628 525.595 971.972 448.422 950.036 398.995C915.09 320.255 795.126 344.873 795.126 344.873C795.126 344.873 759.285 343.195 723.903 372.152C708.088 385.096 690.671 414 682.008 445.737C684.719 454.514 713.386 493.859 723.839 500.553C707.682 579.03 694.896 649.827 694.896 649.827C694.896 649.827 903.185 653.08 938.662 649.827Z" fill="#F45648"/>
<path fill-rule="evenodd" clip-rule="evenodd" d="M697.262 648.904C699.543 635.893 711.398 570.896 725.798 500.956C725.965 500.145 725.614 499.315 724.917 498.869C714.817 492.401 687.541 454.788 684.099 445.671C692.317 415.981 708.776 387.116 725.169 373.7C759.493 345.609 794.685 346.851 795.033 346.871C795.201 346.875 795.365 346.865 795.527 346.832C795.825 346.772 825.692 340.774 859.357 344.405C879.027 346.527 896.125 351.471 910.179 359.102C927.631 368.579 940.426 382.274 948.207 399.807C956.735 419.022 962.37 444.678 963.665 470.197C964.821 492.959 962.232 511.789 957.069 518.168C955.374 520.261 953.977 520.254 953.075 520.061C952.503 519.942 951.909 520.076 951.447 520.429C950.983 520.784 950.698 521.322 950.665 521.905C948.607 558.255 940.144 616.599 936.958 641.197C936.607 643.905 936.323 646.103 936.12 647.693C899.22 650.405 719.738 649.641 697.262 648.904ZM938.085 651.545C939.022 651.459 939.772 650.732 939.887 649.797C940.074 648.278 940.434 645.495 940.925 641.711C944.059 617.509 952.294 560.932 954.543 524.097C956.272 523.911 958.272 523.04 960.179 520.684C966.015 513.473 968.882 494.05 967.66 469.995C966.34 444.004 960.582 417.83 951.863 398.184C937.268 365.299 905.395 345.324 859.689 340.418C827.048 336.912 797.928 342.292 794.968 342.866C791.429 342.744 757.053 342.437 722.636 370.604C705.543 384.594 688.44 414.575 680.078 445.21C679.978 445.577 679.984 445.964 680.097 446.327C682.682 454.695 709.8 492.537 721.615 501.436C705.76 578.572 693.052 649.751 692.925 650.485C692.826 651.055 692.978 651.64 693.344 652.089C693.709 652.537 694.25 652.806 694.828 652.826C701.66 653.055 832.568 652.426 901.579 652.426C918.22 652.426 931.247 652.172 938.085 651.545Z" fill="#141414"/>
<path fill-rule="evenodd" clip-rule="evenodd" d="M844.533 314.126C844.533 314.126 845.891 348.564 860.12 353.482C863.991 372.838 837.759 386.055 817.819 385.119C779.218 383.307 791.232 351.756 793.886 351.67C793.809 347.715 791.677 318.133 791.677 318.133L844.533 314.126Z" fill="white"/>
<path fill-rule="evenodd" clip-rule="evenodd" d="M858.222 355.005C858.913 360.067 857.344 364.864 853.547 369.28C846.179 377.851 831.199 383.628 817.919 382.995C804.652 382.372 796.123 377.956 793.256 370.225C790.562 362.964 793.529 355.09 794.727 353.625C795.498 353.293 796.031 352.519 796.014 351.629C795.947 348.243 794.443 326.984 793.95 320.093L842.54 316.41C843.105 324.11 845.881 349.258 858.222 355.005ZM819.849 387.293C833.778 387.293 849.017 381.073 856.772 372.053C861.672 366.355 863.551 359.788 862.206 353.066C862.058 352.325 861.529 351.719 860.816 351.473C850.281 347.832 847.025 323.218 846.659 314.042C846.636 313.465 846.38 312.922 845.949 312.538C845.517 312.154 844.944 311.967 844.373 312.005L791.517 316.012C790.349 316.101 789.472 317.117 789.556 318.286C789.576 318.562 791.424 344.22 791.722 350.67C789.407 353.165 787.938 359.28 787.907 363.611C787.862 369.679 789.943 374.974 793.926 378.923C798.985 383.941 806.991 386.74 817.72 387.244C818.425 387.276 819.136 387.293 819.849 387.293Z" fill="#141414"/>
<path fill-rule="evenodd" clip-rule="evenodd" d="M682.084 445.43L736.945 453.118L730.887 488.523C730.887 488.523 809.839 480.876 836.958 471.898C850.607 467.379 868.249 472.41 875.16 486.614C878.816 494.128 876.46 513.68 876.46 513.68C876.46 513.68 851.03 513.333 843.765 513.333C843.022 513.333 842.062 513.583 840.916 514.031L877.426 514.421L879.256 461.725L965.199 462.811C965.199 462.811 981.523 576.306 916.201 593.975C856.682 610.075 784.77 555.586 779.149 551.23C751.221 565.767 718.02 577.169 686.755 569.188C647.214 559.095 680.468 449.906 682.084 445.43Z" fill="white"/>
<path fill-rule="evenodd" clip-rule="evenodd" d="M674.851 556.906C677.81 562.491 681.866 565.874 687.251 567.249C735.582 579.587 788.128 545.121 819.525 524.53C829.909 517.719 836.267 513.62 840.452 512.061C840.462 512.049 840.475 512.037 840.485 512.025L840.552 512.026C841.799 511.57 842.86 511.332 843.767 511.332C849.827 511.332 868.706 511.575 874.667 511.655C875.275 505.357 875.878 492.658 873.363 487.488C868.102 476.678 853.285 468.6 837.587 473.796C810.643 482.716 734.752 490.157 731.118 490.51L718.052 492.251C717.962 492.263 717.873 492.269 717.785 492.269C716.798 492.269 715.939 491.538 715.805 490.533C715.659 489.438 716.428 488.432 717.523 488.286L729.164 486.734L734.627 454.811L683.466 447.642C681.749 453.134 676.546 471.224 672.978 491.936C667.752 522.264 668.401 544.73 674.851 556.906ZM893.05 594.917C900.699 594.917 908.299 594.04 915.68 592.044C941.9 584.951 957.89 561.244 963.205 521.579C966.657 495.814 964.214 471.325 963.436 464.788L881.188 463.748L879.426 514.489C879.388 515.575 878.486 516.409 877.406 516.42L841.248 516.033C837.139 517.764 829.877 522.523 821.719 527.874C810.924 534.954 797.667 543.642 782.922 551.555C795.28 560.622 845.198 594.92 893.05 594.917ZM680.205 444.75C680.526 443.861 681.425 443.32 682.363 443.448L735.359 450.875L742.016 417.891C742.236 416.808 743.294 416.106 744.372 416.326C745.456 416.545 746.156 417.599 745.938 418.682L738.913 453.486L733.302 486.27C747.182 484.853 812.497 477.888 836.331 469.999C843.529 467.615 851.884 467.743 859.254 470.348C866.844 473.033 872.909 478.133 876.456 484.767L877.247 461.976C877.238 461.89 877.225 461.806 877.226 461.718L877.927 421.017C877.945 419.913 878.81 419.013 879.961 419.052C881.065 419.071 881.945 419.982 881.926 421.086L881.26 459.749L965.226 460.81C966.211 460.823 967.04 461.551 967.18 462.526C967.222 462.812 971.253 491.527 967.18 522.031C961.72 562.908 944.273 588.453 916.724 595.905C908.975 598.001 901.029 598.905 893.083 598.905C867.588 598.905 842.122 589.601 823.381 580.548C801.049 569.759 783.938 557.351 778.996 553.625C757.472 564.756 733.049 573.853 708.563 573.853C701.109 573.853 693.647 573.01 686.261 571.125C679.813 569.478 674.785 565.324 671.317 558.779C654.153 526.381 679.923 445.528 680.205 444.75Z" fill="#141414"/>
<path fill-rule="evenodd" clip-rule="evenodd" d="M776.118 271.093C782.115 221.353 814.847 218.487 838.464 222.78C857.287 226.203 881.366 241.764 879.234 273.072C888.659 270.012 895.54 275.741 896.764 283.188C898.151 291.639 893.715 305.934 879.763 303.472C876.708 327.698 859.951 355.606 814.421 350.937C779.95 347.401 770.66 316.367 776.118 271.093Z" fill="white"/>
<path fill-rule="evenodd" clip-rule="evenodd" d="M877.778 303.223C875.996 316.852 869.835 330.361 858.736 338.967C845.769 351.118 802.797 356.006 787.781 335.456C775.002 322.433 773.094 277.249 782.883 251.154C789.659 251.9 800.06 252.764 809.542 252.394C811.716 249.325 814.061 243.437 815.749 239.2C816.562 237.159 817.222 235.501 817.637 234.726C818.851 236.388 817.203 245.156 816.212 250.432C816.018 251.462 815.85 252.359 815.732 253.043C828.924 259.493 857.117 262.73 872.98 259.809C873.153 262.856 872.609 266.159 872.134 269.049C871.066 275.546 870.34 279.959 878.851 274.69C892.285 266.373 899.193 288.976 889.927 297.937C884.824 302.873 881.026 303.217 877.778 303.223ZM857.97 189.079C862.82 191.152 875.635 196.846 875.816 202.246C854.938 184.741 785.786 176.608 764.686 239.659C757.94 261.51 753.797 339.211 755.126 346.185C766.052 348.461 782.434 350.963 797.047 350.631C797.302 349.908 797.464 349.137 797.59 348.347C815.496 356.697 841.537 355.383 857 345C856.594 348.508 856.642 350.906 856.678 352.671C856.705 354.064 856.725 355.062 856.508 355.9C871.749 358.358 894.399 352.212 894.399 352.212C894.399 352.212 933.279 272.685 896.415 226.19C905.05 224.198 923.139 211.674 910.851 185.77C901.344 165.729 867.224 165.37 857.97 189.079ZM882.168 287.933C882.381 288.964 882.577 289.91 883.623 289.698C886.813 289.05 887.22 284.497 884.31 283.023C881.922 281.814 881.188 284.511 881.951 287.022C882.04 287.314 882.104 287.627 882.168 287.933Z" fill="#141414"/>
<path fill-rule="evenodd" clip-rule="evenodd" d="M787.332 268.312C788.472 266.897 789.951 265.638 791.685 264.748C793.411 263.838 795.35 263.373 797.222 263.155C799.103 262.943 800.946 262.962 802.724 263.134C804.502 263.308 806.228 263.589 807.932 263.891C808.106 263.923 808.298 263.974 808.471 264.037C810.096 264.636 810.927 266.439 810.328 268.064C809.728 269.689 807.925 270.52 806.3 269.921C804.832 269.379 803.353 268.919 801.888 268.588C800.424 268.259 798.971 268.018 797.575 268.044C794.765 268.097 792.369 269.178 790.005 270.998L789.978 271.019C789.297 271.543 788.321 271.555 787.621 270.991C786.802 270.331 786.672 269.131 787.332 268.312ZM839.465 265.745C838.186 265.709 836.951 265.674 835.75 265.564C834.099 265.414 832.638 266.631 832.488 268.283C832.338 269.934 833.555 271.395 835.207 271.544C835.275 271.551 835.344 271.555 835.412 271.556L835.459 271.557C837.396 271.595 839.264 271.475 841.045 271.36C842.509 271.266 843.915 271.176 845.253 271.18C846.738 271.182 848.148 271.324 849.502 271.689C850.855 272.059 852.157 272.604 853.567 273.204L853.639 273.234C854.501 273.602 855.498 273.2 855.865 272.338C856.134 271.706 855.988 271.001 855.552 270.525C854.322 269.188 852.72 268.14 850.976 267.44C849.235 266.723 847.386 266.311 845.606 266.087C844.081 265.895 842.604 265.846 841.183 265.799H841.183C840.943 265.791 840.704 265.784 840.467 265.775C840.13 265.764 839.796 265.755 839.466 265.745H839.465ZM799.918 285.393C800.326 282.571 798.59 279.983 796.038 279.614C793.487 279.245 791.089 281.234 790.681 284.056C790.272 286.879 792.009 289.466 794.559 289.835C797.111 290.204 799.51 288.215 799.918 285.393ZM817.336 311.916C817.786 311.814 818.12 311.72 818.695 311.474C819.405 311.171 819.735 310.35 819.431 309.64C819.253 309.222 818.894 308.936 818.485 308.833L817.942 308.7C817.721 308.646 817.241 308.663 816.881 308.682L816.776 308.689C816.426 308.713 816.177 308.73 815.814 308.73C815.082 308.737 814.362 308.682 813.681 308.563C812.317 308.323 811.146 307.76 810.595 307.011C810.311 306.636 810.139 306.199 810.071 305.659C809.998 305.134 810.038 304.46 810.176 303.995C810.425 303.063 811.183 302.28 812.345 301.503C812.913 301.122 813.551 300.768 814.234 300.455L814.487 300.334L814.644 300.26C814.799 300.185 814.996 300.056 815.085 299.978C815.181 299.896 815.278 299.804 815.36 299.713L815.525 299.503C815.819 299.066 815.904 298.811 815.985 298.569C816.002 298.518 816.018 298.469 816.037 298.418C816.202 297.872 816.284 297.418 816.358 296.967C816.63 295.191 816.718 293.543 816.803 291.871C816.965 288.542 816.97 285.257 816.894 281.945C816.876 281.166 816.231 280.549 815.452 280.567C814.715 280.584 814.122 281.163 814.076 281.886L814.075 281.905C813.878 285.145 813.651 288.41 813.348 291.619C813.184 293.212 812.999 294.834 812.694 296.286C812.638 296.545 812.574 296.787 812.509 296.999C811.745 297.312 810.98 297.674 810.221 298.125C809.411 298.624 808.586 299.221 807.875 300.05C807.152 300.857 806.587 301.94 806.339 303.049C806.094 304.175 806.09 305.173 806.263 306.264C806.437 307.342 806.906 308.476 807.659 309.373C808.404 310.277 809.362 310.917 810.317 311.326C811.281 311.735 812.246 311.937 813.188 312.049C814.13 312.154 815.054 312.161 815.958 312.094C816.379 312.066 816.933 312.013 817.336 311.916ZM804.889 324.531L804.905 324.539C808.757 326.451 813.242 326.882 817.463 326.339C819.549 326.101 821.575 325.562 823.41 324.664C824.331 324.228 825.21 323.711 826.014 323.116C826.417 322.82 826.802 322.506 827.165 322.181C827.214 322.135 827.263 322.088 827.313 322.042C827.439 321.924 827.565 321.806 827.678 321.685C827.831 321.536 828.02 321.315 828.063 321.258C828.111 321.193 828.164 321.127 828.219 321.067C829.146 320.041 830.73 319.961 831.756 320.888C832.782 321.815 832.861 323.398 831.934 324.424L831.912 324.448C831.573 324.824 831.362 325.02 831.092 325.263C830.885 325.455 830.675 325.628 830.464 325.8C830.415 325.841 830.365 325.882 830.315 325.923C829.789 326.336 829.252 326.719 828.7 327.072C827.597 327.781 826.434 328.367 825.236 328.845C822.846 329.827 820.303 330.326 817.789 330.451C815.287 330.576 812.826 330.287 810.408 329.723C808 329.141 805.668 328.198 803.573 326.864C803.004 326.499 802.785 325.754 803.091 325.136C803.421 324.472 804.226 324.201 804.889 324.531ZM849.249 285.783C848.841 282.961 846.442 280.972 843.891 281.341C841.34 281.71 839.603 284.297 840.011 287.119C840.419 289.942 842.818 291.93 845.37 291.562C847.92 291.193 849.657 288.605 849.249 285.783Z" fill="#141414"/>
<path fill-rule="evenodd" clip-rule="evenodd" d="M1824.79 793.648C1834.51 778.001 1827 774.256 1821.6 777.555C1821.6 777.555 1830.96 766.048 1826.35 761.064C1823.47 757.951 1820.44 758.386 1812.75 765.429C1812.75 765.429 1821.52 752.527 1816.51 747.565C1811.87 742.96 1805.48 751.525 1799.87 758.086C1799.87 758.086 1805.03 742.007 1796.23 741.297C1787.52 740.594 1775.03 766.188 1769.78 776.745C1771.56 763.882 1763.98 751.824 1759.78 757.405C1754.58 764.304 1733.59 831.188 1701.84 888.595C1661.48 954.217 1611.48 948.953 1611.48 948.953L1638.33 1037.87C1638.33 1037.87 1646.21 1042.17 1676.96 1024.99C1732.69 993.865 1765.12 929.519 1779.51 893.921C1780.85 893.128 1781.66 892.345 1781.83 891.61C1783.07 886.55 1784.45 881.584 1785.94 876.721C1787.44 872.349 1788.25 869.617 1788.43 869.012C1799.81 835.409 1815.98 807.834 1824.79 793.648Z" fill="white"/>
<path fill-rule="evenodd" clip-rule="evenodd" d="M1826.36 771.412C1828.96 767.069 1831.63 760.643 1827.91 756.62C1825.15 753.646 1822.26 753.451 1818.87 755.156C1824.1 741.573 1812.28 736.018 1803.44 747.667C1803.94 742.538 1802.26 736.547 1796.4 736.178C1788.75 735.558 1780.17 748.912 1771.8 765.025C1770.38 756.259 1764.83 746.411 1758.08 753.125C1745.2 782.47 1727.43 834.217 1703.68 877.961C1703.49 878.3 1702.64 880.081 1702.39 880.507C1683.3 913.131 1661.95 928.63 1646.39 935.967C1637.24 940.285 1629.12 942.29 1623.04 943.201L1624.25 947.343C1630.52 946.354 1638.69 944.269 1647.93 939.945C1681.19 924.386 1702.43 891.88 1714.64 866.472C1715.01 865.704 1716.61 861.8 1716.95 861.091C1735.89 822.21 1750.92 780.877 1761.47 755.685C1764.57 753.35 1769.04 764.803 1767.67 773.454C1767.47 775.798 1767.53 778.031 1768.17 780.324C1768.55 782.496 1770.63 784.026 1772.24 785.506C1778.29 791.069 1776.13 801.168 1775.99 801.76C1775.85 802.381 1775.83 802.787 1775.61 803.246C1774.97 804.486 1776.7 805.432 1777.4 804.266C1781.83 796.642 1778.22 786.716 1772.93 780.487C1772 778.707 1771.71 775.93 1772.06 773.927C1776.25 765.498 1788.99 739.847 1796.06 740.416C1801.33 741.375 1798.89 750.012 1797.91 754.203L1787.4 771.061C1786.93 771.822 1787.16 772.824 1787.92 773.299C1788.66 773.758 1789.62 773.551 1790.11 772.847C1790.11 772.847 1801.55 756.387 1801.55 756.386C1805.4 752.462 1811.03 743.198 1815.01 746.076C1819.57 753.363 1803.15 771.707 1799.77 778.547C1798.6 780.297 1801.32 782.148 1802.52 780.415L1814.34 763.852C1822.19 756.708 1823.51 758.13 1824.79 759.509C1827.32 762.242 1822.62 769.923 1819.95 773.215C1819.94 773.23 1810.75 784.801 1810.74 784.816C1809.54 786.287 1811.77 788.208 1813.05 786.805L1822.91 776.258C1829.13 773.541 1828.75 780.011 1822.98 789.528C1817.19 795.708 1791.15 848.9 1784.36 871.899C1783.89 873.505 1781.46 879.948 1780.91 881.424C1776.69 892.695 1769.99 908.82 1760.57 926.38C1731.14 981.228 1698.3 1007.64 1675.92 1020.14C1663.18 1027.25 1654.52 1030.57 1648.83 1032.06L1650.02 1036.16C1657.48 1034.19 1666.86 1030.07 1677.99 1023.85C1719.46 1000.69 1747.85 959.11 1764.36 928.306C1773.35 911.542 1779.89 896.061 1784.19 884.778C1784.48 884.016 1790.24 867.373 1790.45 866.673C1798.69 842.319 1810.8 817.195 1826.59 791.77C1834.31 778.601 1832.56 773.264 1826.36 771.412Z" fill="#141414"/>
<path fill-rule="evenodd" clip-rule="evenodd" d="M1441.42 953.019C1400.67 945.495 1364.23 920.851 1340.62 864.836L1340.39 864.79C1318.77 808.731 1306.77 750.704 1302.7 743.936C1299.09 737.948 1290.31 749.156 1290.75 762.134C1286.62 751.089 1276.85 724.337 1268.11 724.133C1259.28 723.927 1262.75 740.455 1262.75 740.455C1257.85 733.347 1252.38 724.165 1247.29 728.264C1241.8 732.681 1249.18 746.422 1249.18 746.422C1242.26 738.62 1239.29 737.873 1236.11 740.67C1231 745.149 1239.12 757.564 1239.12 757.564C1234.08 753.723 1226.23 756.669 1234.28 773.24C1243.15 791.516 1260.81 830.624 1266.84 875.129C1266.96 876.038 1267.99 877.113 1269.78 878.267C1298.98 978.81 1362.94 1020.99 1415.12 1042.09L1441.42 953.019Z" fill="white"/>
<path fill-rule="evenodd" clip-rule="evenodd" d="M1415.74 1037C1356.24 1012.82 1288.07 964.241 1265.01 848.361C1264.9 847.842 1264.19 845.463 1263.92 844.303C1256.63 817.422 1240.57 775.085 1236.19 769.312C1231.44 759.249 1231.74 752.775 1237.63 756.122L1246.35 767.634C1247.48 769.164 1249.89 767.483 1248.85 765.896C1248.84 765.88 1240.91 753.419 1240.9 753.402C1238.58 749.851 1234.71 741.725 1237.51 739.269C1238.92 738.029 1240.38 736.752 1247.44 744.672L1257.49 762.371C1258.5 764.22 1261.39 762.66 1260.41 760.798C1257.76 753.644 1243.33 733.696 1248.62 726.921C1252.88 724.472 1257.52 734.27 1260.94 738.573C1260.94 738.573 1270.61 756.131 1270.61 756.131C1271.02 756.882 1271.96 757.188 1272.74 756.808C1273.55 756.415 1273.88 755.442 1273.49 754.636L1264.79 736.778C1264.25 732.508 1262.72 723.665 1268.06 723.259C1275.15 723.425 1285.17 750.26 1288.46 759.078C1288.59 761.105 1288.02 763.838 1286.91 765.512C1281.01 771.159 1276.38 780.657 1279.99 788.699C1280.57 789.931 1282.56 789.12 1282.06 787.82C1281.88 787.34 1281.56 786.849 1281.66 786.353C1281.77 785.756 1280.48 775.481 1287.08 770.575C1288.83 769.27 1291.06 767.965 1291.66 765.843C1292.53 763.629 1292.83 761.415 1292.87 759.062C1292.41 750.316 1298.04 739.389 1300.88 742.032C1310.07 772.541 1322.01 822.566 1340.93 868.582C1341.18 869.241 1342.58 871.903 1343.18 873.05C1357.55 902.812 1376.94 924.373 1400.85 937.821C1413 944.656 1426.25 949.387 1440.81 952.093L1442.02 947.975C1396.31 939.674 1363.54 911.156 1342.52 861.294C1342.39 860.991 1342.24 860.719 1342.03 860.25C1325.1 816.627 1313.6 768.236 1304.52 739.839C1298.5 732.459 1291.96 741.679 1289.63 750.25C1282.98 733.357 1275.83 719.184 1268.16 719.007C1262.3 718.768 1260 724.551 1259.96 729.704C1252.38 717.202 1240.05 721.5 1243.84 735.552C1240.65 733.505 1237.75 733.399 1234.7 736.071C1230.58 739.687 1232.57 746.354 1234.71 750.944C1228.35 752.143 1226.05 757.27 1232.36 771.168C1247 801.312 1255.27 825.951 1262.32 856.007C1262.85 858.294 1264.26 862.808 1265.11 866.29C1278.99 923.311 1304.92 964.812 1341.44 996.975C1365.59 1018.24 1391.73 1031.9 1414.52 1041.13L1415.74 1037Z" fill="#141414"/>
<path fill-rule="evenodd" clip-rule="evenodd" d="M1631.88 1024.11C1631.61 1022.97 1632.33 1021.83 1633.47 1021.56C1634.61 1021.3 1635.76 1022.01 1636.02 1023.16L1642.26 1050.23C1679.11 1041.22 1685.69 1025.82 1685.69 1025.82C1685.69 1025.82 1679.63 977.001 1654.63 930.001C1588.63 936.001 1570.63 927.001 1560.63 927.001C1540.63 920.001 1501.63 922.173 1479.63 929.001C1450.63 938.001 1446.63 940.001 1413.08 935.958C1409.1 952.51 1387.75 995.286 1368 1029.21C1381.63 1038 1394.02 1042.23 1418.93 1048.93L1420.32 1027.96C1420.4 1026.79 1421.41 1025.92 1422.58 1025.98C1423.75 1026.06 1424.64 1027.07 1424.56 1028.25L1422.76 1055.35C1422.76 1055.39 1422.75 1055.42 1422.74 1055.46C1420.81 1132.65 1418.29 1222.25 1418.29 1222.25L1674.32 1218.25C1674.32 1218.25 1647.22 1105.17 1638.74 1053.91C1638.74 1053.9 1638.73 1053.89 1638.73 1053.87L1631.88 1024.11Z" fill="#06B6D4"/>
<path fill-rule="evenodd" clip-rule="evenodd" d="M1503.17 898.643L1499.4 933.806C1499.4 933.806 1506.83 949.903 1529.61 951.006C1560.35 952.493 1553.92 933.448 1553.92 933.448L1553.06 901.691" fill="white"/>
<path fill-rule="evenodd" clip-rule="evenodd" d="M1529.52 953.003C1505.8 951.855 1497.91 935.346 1497.59 934.644C1497.44 934.316 1497.38 933.952 1497.41 933.593L1501.18 898.429C1501.3 897.331 1502.29 896.536 1503.38 896.653C1504.48 896.771 1505.28 897.757 1505.16 898.855L1501.46 933.429C1502.84 936.004 1510.36 948.071 1529.71 949.007C1539.96 949.5 1548.83 947.671 1551.57 943.709C1554.38 939.645 1552.11 934.303 1552.09 934.25C1551.99 934.015 1551.93 933.756 1551.92 933.501L1551.07 901.745C1551.04 900.641 1551.91 899.721 1553.01 899.692C1554.11 899.65 1555.03 900.533 1555.06 901.637L1555.91 933.035C1556.52 934.648 1558.45 940.748 1554.88 945.948C1551.63 950.691 1542.91 953.087 1532.89 953.087C1531.8 953.087 1530.68 953.059 1529.52 953.003Z" fill="#141414"/>
<path fill-rule="evenodd" clip-rule="evenodd" d="M1606.83 1322C1606.83 1322 1554.16 1352.81 1556.72 1382.26C1559.28 1411.71 1582.17 1411.07 1592.73 1410.59C1618.98 1409.4 1647.63 1386.46 1647.63 1386.46L1606.83 1322Z" fill="#06B6D4"/>
<path fill-rule="evenodd" clip-rule="evenodd" d="M1607.82 1387.19C1607.37 1387.19 1606.91 1387.04 1606.54 1386.72C1593.18 1375.57 1589.1 1361.67 1588.93 1361.08C1588.63 1360.02 1589.25 1358.91 1590.31 1358.61C1591.37 1358.31 1592.48 1358.92 1592.78 1359.98C1592.82 1360.11 1596.73 1373.32 1609.1 1383.65C1609.95 1384.36 1610.06 1385.62 1609.36 1386.47C1608.96 1386.94 1608.39 1387.19 1607.82 1387.19Z" fill="#141414"/>
<path fill-rule="evenodd" clip-rule="evenodd" d="M1558.63 1193.39C1558.63 1193.39 1644.25 1153.48 1750.16 1138.91C1852.59 1124.83 1868.26 1191.48 1843.62 1241.34C1789.85 1350.18 1650.22 1398.86 1650.22 1398.86C1574.56 1360.63 1599.92 1269.77 1558.63 1193.39Z" fill="#141414"/>
<path fill-rule="evenodd" clip-rule="evenodd" d="M1645.75 1278.39C1645.13 1278.39 1644.52 1278.11 1644.13 1277.57C1643.48 1276.68 1643.67 1275.43 1644.56 1274.78C1645.26 1274.27 1714.11 1223.63 1734.72 1183.86C1735.23 1182.88 1736.43 1182.49 1737.41 1183C1738.39 1183.51 1738.78 1184.72 1738.27 1185.7C1729.42 1202.78 1711.34 1223.51 1684.55 1247.33C1664.65 1265.01 1647.1 1277.88 1646.92 1278.01C1646.57 1278.27 1646.15 1278.39 1645.75 1278.39Z" fill="white"/>
<path fill-rule="evenodd" clip-rule="evenodd" d="M1761.41 1346.37C1761.41 1346.37 1746.93 1356.21 1761.71 1372.25C1768.86 1380.01 1855.06 1414.3 1882.75 1396.79C1895.54 1388.71 1898.45 1379.63 1899.78 1375.75C1885.26 1371.33 1761.41 1346.37 1761.41 1346.37Z" fill="#141414"/>
<path fill-rule="evenodd" clip-rule="evenodd" d="M1791.07 1293.06C1808.36 1291.95 1840.87 1306.85 1881.02 1327.11C1921.29 1347.44 1905.46 1390.54 1868.74 1393.03C1847.02 1394.5 1792.68 1381.97 1767.82 1366.91C1748.54 1355.22 1754.87 1332.43 1759.15 1323.44C1765.48 1310.17 1779.16 1293.82 1791.07 1293.06Z" fill="#06B6D4"/>
<path fill-rule="evenodd" clip-rule="evenodd" d="M1833.41 1361.27C1833.39 1361.27 1833.37 1361.27 1833.34 1361.26C1832.29 1361.18 1831.51 1360.26 1831.6 1359.22C1833.14 1339.85 1843.16 1327.17 1843.59 1326.64C1844.25 1325.83 1845.44 1325.7 1846.26 1326.35C1847.08 1327.01 1847.21 1328.21 1846.56 1329.03C1846.46 1329.15 1836.83 1341.37 1835.39 1359.52C1835.31 1360.54 1834.43 1361.31 1833.41 1361.27Z" fill="#141414"/>
<path fill-rule="evenodd" clip-rule="evenodd" d="M1852.95 1364.88C1852.93 1364.88 1852.9 1364.88 1852.88 1364.87C1851.83 1364.79 1851.05 1363.87 1851.14 1362.83C1852.28 1348.46 1859.73 1339.04 1860.05 1338.65C1860.7 1337.83 1861.9 1337.7 1862.72 1338.36C1863.54 1339.01 1863.67 1340.21 1863.01 1341.03C1862.94 1341.12 1855.98 1349.98 1854.93 1363.13C1854.85 1364.15 1853.97 1364.92 1852.95 1364.88Z" fill="#141414"/>
<path fill-rule="evenodd" clip-rule="evenodd" d="M1770.2 1276.31C1770.2 1276.31 1817.6 1308.98 1820.45 1317.37C1826.42 1334.96 1816.98 1349.5 1805.27 1354.29C1783.54 1363.17 1734.57 1332.69 1734.57 1332.69" fill="white"/>
<path fill-rule="evenodd" clip-rule="evenodd" d="M1798.78 1357.78C1774.65 1359.78 1735.35 1335.53 1733.52 1334.39C1732.58 1333.8 1732.29 1332.57 1732.88 1331.63C1733.46 1330.69 1734.69 1330.41 1735.63 1330.99C1735.75 1331.07 1747.96 1338.63 1762.61 1345C1781.66 1353.29 1796.14 1355.86 1804.51 1352.44C1815.47 1347.96 1824.11 1334.38 1818.55 1318.02C1816.63 1312.36 1787.18 1290.44 1769.06 1277.96C1768.15 1277.33 1767.92 1276.08 1768.55 1275.17C1769.18 1274.26 1770.42 1274.04 1771.33 1274.66C1771.45 1274.75 1783.36 1282.96 1795.46 1292.1C1817.78 1308.95 1821.49 1314.23 1822.34 1316.73C1828.69 1335.41 1818.67 1350.97 1806.02 1356.14C1803.83 1357.04 1801.39 1357.56 1798.78 1357.78Z" fill="#141414"/>
<path fill-rule="evenodd" clip-rule="evenodd" d="M1415.06 1238.62C1423.11 1069.5 1580.59 1148.26 1611.55 1164.17C1712.22 1215.92 1814.5 1279.14 1814.5 1279.14C1817.39 1331.8 1758.47 1379.03 1722.56 1384.28L1597.93 1321.68C1597.93 1321.68 1566.27 1367.21 1509.47 1364.8C1435.01 1361.64 1411.01 1323.58 1415.06 1238.62Z" fill="#0B379B"/>
<path fill-rule="evenodd" clip-rule="evenodd" d="M1598.03 1321.76C1591.79 1318.46 1549.71 1296.04 1528.68 1279.46C1527.82 1278.77 1526.56 1278.92 1525.88 1279.79C1525.19 1280.65 1525.34 1281.91 1526.21 1282.6C1546.84 1298.87 1587.26 1320.58 1595.48 1324.94C1596.41 1323.88 1597.36 1322.73 1598.03 1321.76Z" fill="white"/>
<path fill-rule="evenodd" clip-rule="evenodd" d="M1584.73 833.183C1584.06 785.104 1535.83 781.233 1513.14 786.434C1494.49 790.707 1474.16 806.781 1476.29 838.088C1465.09 837.094 1459.21 842.408 1459.21 849.954C1459.21 857.502 1461.02 864.802 1474.89 864.802C1476.23 887.797 1490.97 929.249 1548.43 921.861C1577.74 918.093 1585.27 872.453 1584.73 833.183Z" fill="white"/>
<path fill-rule="evenodd" clip-rule="evenodd" d="M1548.17 919.877C1560.65 918.274 1569.97 908.293 1575.87 890.215C1581.94 871.636 1582.95 848.961 1582.73 833.211C1582.51 817.76 1577.23 805.863 1567.03 797.85C1557.58 790.428 1544.58 787.18 1532.4 786.741C1529.26 817.911 1491.64 841.077 1476.11 840.135C1474.87 840.16 1473.67 840.1 1472.5 840.004C1468.91 840.182 1466.03 841.188 1464.06 842.99C1462.19 844.696 1461.21 847.105 1461.21 849.954C1461.21 856.455 1462.26 862.801 1474.89 862.801C1475.95 862.801 1476.82 863.627 1476.89 864.685C1477.27 871.291 1479.89 893.972 1497.38 908.476C1509.81 918.776 1526.9 922.614 1548.17 919.877ZM1563.52 749.534C1599.88 761.389 1599.67 788.964 1591.66 818.569C1590.34 823.459 1591.78 829.413 1593.39 836.043C1596.68 849.55 1600.64 865.859 1583.25 881.67C1582.86 882.021 1582.46 882.403 1582.05 882.808C1577.18 903.207 1567.52 921.423 1548.68 923.845C1544.07 924.438 1539.64 924.735 1535.39 924.735C1519.01 924.735 1505.4 920.321 1494.83 911.554C1492.66 909.752 1490.7 907.834 1488.93 905.84C1479.52 902.691 1471.29 896.784 1465.66 886.396C1461.81 879.295 1458.62 877.664 1455.61 876.269C1451.51 879.608 1450.17 885.539 1448.7 892.021C1446.62 901.171 1444.3 911.42 1433.64 917.032C1427.36 920.334 1409 921.75 1407.42 903.252C1399.72 909.099 1391.12 906.594 1383.6 900.515C1376.08 894.435 1373.46 883.036 1377.56 874.28C1381.67 865.525 1392.11 860.252 1401.59 862.144C1397.43 856.053 1399.19 847.018 1404.72 842.136C1410.26 837.256 1418.65 836.384 1425.55 839.001C1426.93 839.523 1428.46 840.03 1430.06 840.56C1434.43 842.005 1439.29 843.615 1442.83 846.139C1443.61 841.427 1445.12 836.853 1446.58 832.411C1448.36 827.016 1450.07 821.817 1450.33 816.804C1450.38 815.82 1450.52 814.881 1450.69 813.96C1451.35 802.945 1452.65 785.197 1464.07 770.047C1480.23 748.602 1508.08 752.356 1521.57 756.683C1535.3 744.547 1545.43 743.632 1563.52 749.534ZM1469.55 850.901C1468.71 849.214 1470.23 847.346 1471.23 847.247C1476.11 846.764 1474.96 850.555 1472.86 851.831C1471.73 852.518 1469.84 851.491 1469.55 850.901Z" fill="#141414"/>
<path fill-rule="evenodd" clip-rule="evenodd" d="M1456.23 876.444C1449.36 874.54 1444.9 867.12 1443.22 859.415C1441.45 853.708 1442.37 848.257 1443.37 843.652C1427.28 834.57 1432.33 867.02 1436.56 873.97C1439.2 884.554 1458.35 892.611 1456.23 876.444Z" fill="#FF4B33"/>
<path fill-rule="evenodd" clip-rule="evenodd" d="M1519.86 838.115C1519.56 838.091 1519.03 838.053 1518.58 838.046C1518.23 838.031 1517.87 838.04 1517.51 838.049C1517.4 838.052 1517.28 838.055 1517.17 838.057C1516.22 838.104 1515.26 838.171 1514.31 838.32C1512.42 838.631 1510.52 839.046 1508.73 839.794C1506.95 840.532 1505.15 841.353 1503.55 842.512C1501.98 843.488 1500.59 844.724 1499.16 845.986L1498.83 846.279L1498.74 846.362C1498.21 846.826 1497.41 846.777 1496.95 846.253C1496.55 845.804 1496.53 845.151 1496.86 844.681C1496.99 844.502 1497.11 844.322 1497.24 844.141C1497.75 843.408 1498.27 842.668 1498.86 841.982C1499.04 841.784 1499.22 841.583 1499.4 841.382L1499.4 841.382C1499.98 840.745 1500.56 840.105 1501.22 839.548C1502.9 838.01 1504.84 836.722 1506.91 835.69C1508.98 834.666 1511.19 833.887 1513.48 833.466C1514.62 833.248 1515.78 833.095 1516.95 833.027C1517.03 833.024 1517.12 833.022 1517.21 833.019C1517.71 833.005 1518.21 832.99 1518.72 833.009C1519.33 833.018 1519.87 833.056 1520.62 833.159C1521.99 833.347 1522.94 834.61 1522.75 835.978C1522.57 837.297 1521.4 838.234 1520.09 838.133L1519.86 838.115ZM1566.78 853.233L1566.78 853.233C1566.94 853.353 1567.09 853.466 1567.22 853.558L1567.54 853.778C1567.98 854.076 1568.55 854.143 1569.06 853.904C1569.83 853.544 1570.16 852.631 1569.8 851.864C1569.43 851.071 1569.05 850.526 1568.57 849.923C1568.1 849.346 1567.55 848.827 1566.95 848.355C1565.74 847.421 1564.28 846.76 1562.7 846.461C1561.13 846.161 1559.42 846.265 1557.89 846.811C1556.35 847.33 1555.06 848.265 1554.02 849.323C1553.4 849.966 1553.26 850.978 1553.76 851.775C1554.34 852.713 1555.58 852.999 1556.51 852.415L1556.62 852.347C1557.52 851.791 1558.39 851.349 1559.27 851.126C1560.14 850.88 1561.02 850.852 1561.92 850.968C1562.82 851.124 1563.76 851.416 1564.64 851.876C1565.09 852.099 1565.53 852.365 1565.97 852.658C1566.24 852.824 1566.52 853.038 1566.78 853.233ZM1506.99 852.149C1506.41 852.869 1505.93 853.544 1505.47 854.451C1505.19 855.013 1505.32 855.715 1505.82 856.134C1506.41 856.623 1507.28 856.544 1507.77 855.957L1507.88 855.832C1508.26 855.377 1508.79 854.803 1509.31 854.366C1509.84 853.912 1510.39 853.497 1510.97 853.172C1512.14 852.516 1513.36 852.137 1514.59 852.122C1514.9 852.122 1515.19 852.134 1515.52 852.172C1515.64 852.19 1515.76 852.201 1515.88 852.213C1516.09 852.233 1516.3 852.252 1516.5 852.302C1517.15 852.399 1517.73 852.606 1518.29 852.832C1518.84 853.05 1519.32 853.355 1519.74 853.698L1519.81 853.76C1519.99 853.917 1520.16 854.071 1520.31 854.242C1520.38 854.328 1520.45 854.417 1520.51 854.502L1520.53 854.523L1520.62 854.648C1520.63 854.655 1520.64 854.672 1520.64 854.686C1520.66 854.71 1520.67 854.724 1520.64 854.661C1521.15 855.806 1522.49 856.32 1523.64 855.809C1524.79 855.298 1525.3 853.956 1524.79 852.811C1524.68 852.569 1524.62 852.476 1524.55 852.358L1524.52 852.3C1524.46 852.186 1524.4 852.093 1524.33 851.996V851.996L1524.31 851.963L1524.28 851.922C1524.12 851.689 1523.95 851.465 1523.77 851.26C1523.42 850.842 1523.03 850.472 1522.62 850.14C1521.79 849.49 1520.88 848.978 1519.94 848.632C1518.99 848.307 1518.03 848.075 1517.09 847.993C1516.77 847.944 1516.45 847.935 1516.14 847.925C1515.99 847.921 1515.84 847.917 1515.69 847.908C1515.21 847.901 1514.71 847.942 1514.22 848.001C1512.27 848.264 1510.41 849.067 1508.95 850.236C1508.22 850.81 1507.56 851.453 1506.99 852.149ZM1553.97 833.722C1553.39 833.852 1552.89 833.993 1552.21 834.228C1551.03 834.638 1550.35 835.9 1550.69 837.115C1551.05 838.378 1552.36 839.116 1553.62 838.761L1553.81 838.71C1554.1 838.626 1554.6 838.5 1555.03 838.41C1555.47 838.309 1555.93 838.235 1556.38 838.165L1557.76 837.991L1559.15 837.902C1561 837.848 1562.86 837.997 1564.66 838.416C1566.45 838.836 1568.21 839.469 1569.86 840.371C1571.41 841.121 1572.81 842.173 1574.25 843.256L1574.25 843.257C1574.38 843.357 1574.52 843.457 1574.65 843.557L1574.75 843.635C1575.23 843.997 1575.92 844.007 1576.41 843.62C1577.01 843.156 1577.12 842.296 1576.65 841.699C1576.32 841.268 1575.97 840.846 1575.61 840.424C1575.51 840.311 1575.42 840.194 1575.32 840.077L1575.32 840.076C1575.06 839.765 1574.81 839.453 1574.49 839.197C1574.32 839.045 1574.16 838.89 1573.99 838.735C1573.33 838.133 1572.68 837.525 1571.92 837.043C1570.1 835.697 1567.98 834.748 1565.8 834.101C1563.62 833.443 1561.33 833.094 1559.06 833.135C1557.92 833.159 1556.78 833.211 1555.66 833.399C1555.1 833.491 1554.53 833.589 1553.97 833.722ZM1541.48 852.566C1541.62 854.744 1541.86 856.917 1542.42 858.787C1542.58 859.241 1542.74 859.685 1542.93 860.04C1543.12 860.396 1543.35 860.674 1543.47 860.741C1543.72 860.921 1544.2 861.243 1544.66 861.529C1545.14 861.829 1545.64 862.152 1546.16 862.521C1547.16 863.275 1548.28 864.224 1549.01 865.769C1549.33 866.555 1549.56 867.379 1549.48 868.402C1549.4 869.407 1548.92 870.365 1548.37 870.999C1547.24 872.293 1546.01 872.832 1544.87 873.328C1543.72 873.784 1542.6 874.114 1541.48 874.367C1540.64 874.559 1539.8 874.03 1539.61 873.186C1539.45 872.466 1539.81 871.751 1540.44 871.437L1540.45 871.433C1540.77 871.272 1541.1 871.117 1541.42 870.964H1541.42C1542.08 870.646 1542.72 870.338 1543.31 870.004C1544.19 869.538 1544.98 868.964 1545.3 868.519C1545.45 868.292 1545.46 868.182 1545.47 868.066L1545.47 868.065C1545.49 867.966 1545.42 867.671 1545.31 867.431C1545.1 866.918 1544.51 866.293 1543.75 865.695C1543.37 865.387 1542.94 865.081 1542.49 864.754C1542.37 864.667 1542.25 864.584 1542.13 864.499C1541.78 864.248 1541.41 863.984 1540.96 863.567C1540.25 862.878 1539.9 862.167 1539.63 861.505C1539.35 860.837 1539.22 860.195 1539.1 859.562C1538.68 857.046 1538.93 854.677 1539.41 852.394C1539.53 851.829 1540.09 851.469 1540.65 851.589C1541.12 851.689 1541.45 852.089 1541.48 852.545L1541.48 852.566ZM1526 887.377C1531.16 890.307 1552.4 889.756 1559.14 885.491C1559.74 883.458 1558.99 882.522 1558.99 882.522C1558.99 882.522 1539.07 885.432 1526.01 883.892C1526.01 883.892 1525.58 886.538 1526 887.377ZM1559.66 879.298C1561.08 879.015 1562.38 879.515 1563.14 880.63C1566.22 887.689 1556.46 899.189 1542.44 899.124C1533.13 899.611 1521.83 893.949 1521.35 887.527C1520.92 884.753 1523.4 880.004 1527.25 880.701C1529.98 881.197 1536.53 881.38 1542.92 881.152C1551.28 880.858 1559.25 879.373 1559.64 879.3C1559.65 879.299 1559.65 879.298 1559.66 879.298Z" fill="#141414"/>
</svg>
