<svg viewBox="30 210 2250 1439.9999999999998" fill="none" xmlns="http://www.w3.org/2000/svg" xmlns:xlink="http://www.w3.org/1999/xlink" overflow="visible" width="2250px" height="1439.9999999999998px"><g id="Master/Scenes/Mobile"><g id="Big Plants" transform="matrix(-1 0 0 1 1226 156) scale(1 1)"><g id="Big Plants/2"><g id="leafs"><path id="Fill 4 (Stroke)" fill-rule="evenodd" clip-rule="evenodd" d="M514.671 378.608C522.067 395.79 522.658 418.491 511.316 447.554C493.383 493.509 458.263 524.573 426.021 552.555C425.464 553.039 424.908 553.521 424.352 554.003C408.984 567.337 394.213 580.152 382.94 593.473C371.204 607.342 362.803 622.273 361.488 639.635C360.624 651.065 363.264 664.161 367.184 678.1C369.648 686.863 372.738 696.342 375.957 706.214C377.847 712.011 379.782 717.943 381.659 723.947C391.944 756.825 401.076 793.446 396.202 831.356C393.065 855.754 385.798 873.153 376.82 886.828C367.784 900.592 356.901 910.779 346.032 920.792C345.688 921.108 345.345 921.424 345.001 921.74C334.61 931.307 324.096 940.986 316.437 953.336C308.382 966.323 303.596 982.02 304.412 1003.46C305.734 1038.14 326.278 1060.96 348.329 1083.82C349.665 1085.21 351.009 1086.6 352.357 1087.99C373.506 1109.83 395.754 1132.81 408.205 1167.7C424.597 1213.64 415.962 1257.72 402.969 1290.63C396.482 1307.07 388.951 1320.6 383.047 1330.02C380.097 1334.72 377.56 1338.39 375.772 1340.86C375.322 1341.48 374.919 1342.03 374.57 1342.5H-6.3266C-6.89484 1341.76 -7.60492 1340.83 -8.43976 1339.7C-10.8225 1336.5 -14.2197 1331.76 -18.2354 1325.69C-26.2708 1313.54 -36.7601 1296.09 -46.5526 1274.89C-66.1801 1232.4 -82.7698 1175.41 -71.814 1116.13C-61.68 1061.31 -32.6273 1028.42 -3.56616 1002.65C3.17902 996.67 9.89963 991.094 16.4218 985.683C16.9551 985.24 17.4871 984.799 18.0177 984.359C25.0034 978.56 31.7621 972.913 37.8728 967.26C50.0276 956.015 60.2173 944.221 64.8234 930.054C76.529 894.045 69.8649 857.777 62.2617 821.456C61.7968 819.235 61.3282 817.013 60.8592 814.79C53.5763 780.259 46.2169 745.367 51.5039 708.232C60.3277 646.262 95.2898 612.474 133.716 587.498C146.644 579.095 159.724 571.831 172.415 564.783C178.822 561.225 185.13 557.721 191.269 554.155C209.233 543.718 225.628 532.79 236.493 518.882C245.846 506.909 252.942 493.088 259.554 478.613C261.994 473.271 264.348 467.892 266.723 462.463C270.883 452.954 275.109 443.295 279.981 433.425C295.075 402.847 315.582 372.026 355.234 347.247C386.091 327.965 436.922 324.676 474.161 340.817C492.616 348.817 507.255 361.379 514.671 378.608ZM-8.99988 1348C-13.2614 1351.48 -13.2629 1351.48 -13.2647 1351.47L-13.27 1351.47L-13.2869 1351.45L-13.3451 1351.37C-13.3947 1351.31 -13.4656 1351.22 -13.5573 1351.11C-13.6589 1350.98 -13.7861 1350.82 -13.9376 1350.63C-14.0591 1350.48 -14.1962 1350.3 -14.3485 1350.11C-15.0328 1349.23 -16.0226 1347.94 -17.2679 1346.27C-19.7582 1342.92 -23.2723 1338.02 -27.4097 1331.76C-35.6804 1319.26 -46.4639 1301.31 -56.5386 1279.5C-76.6453 1235.98 -94.1668 1176.55 -82.6307 1114.13C-71.868 1055.91 -40.8289 1020.99 -10.8644 994.422C-3.97748 988.315 2.87714 982.627 9.37769 977.234C9.91827 976.786 10.4564 976.339 10.9919 975.895C18.0002 970.077 24.5399 964.609 30.4026 959.185C42.1947 948.276 50.6526 938.063 54.3623 926.653C65.0449 893.791 59.1514 860.284 51.4951 823.71C51.0082 821.384 50.5144 819.047 50.018 816.697C42.7932 782.499 35.0426 745.812 40.6137 706.681C50.0526 640.392 87.8225 604.209 127.721 578.275C140.951 569.676 154.655 562.062 167.544 554.901C173.856 551.394 179.973 547.996 185.743 544.644C203.629 534.252 218.372 524.211 227.825 512.11C236.362 501.181 243.029 488.313 249.548 474.043C251.836 469.035 254.126 463.803 256.476 458.435C260.719 448.743 265.155 438.609 270.117 428.556C285.753 396.881 307.436 364.146 349.405 337.918C383.574 316.567 438.249 313.262 478.536 330.725C498.845 339.528 515.975 353.817 524.775 374.259C533.595 394.748 533.667 420.538 521.563 451.553C502.513 500.371 465.284 533.045 433.231 560.863C432.788 561.248 432.346 561.631 431.905 562.014C416.247 575.601 402.049 587.92 391.337 600.579C380.38 613.528 373.528 626.318 372.457 640.466C371.746 649.863 373.912 661.393 377.773 675.122C380.187 683.706 383.144 692.773 386.302 702.453C388.207 708.291 390.184 714.351 392.158 720.663C402.521 753.794 412.307 792.349 407.112 832.759C403.77 858.754 395.941 877.748 386.015 892.865C376.148 907.894 364.321 918.899 353.484 928.882L352.921 929.401C342.169 939.304 332.639 948.082 325.785 959.134C318.953 970.149 314.667 983.659 315.404 1003.04C316.549 1033.08 334.032 1053.15 356.247 1076.19C357.643 1077.64 359.057 1079.1 360.483 1080.57C381.491 1102.24 405.287 1126.8 418.565 1164.01C436.171 1213.34 426.757 1260.33 413.2 1294.67C406.412 1311.87 398.542 1326.01 392.366 1335.86C389.275 1340.79 386.602 1344.65 384.689 1347.3C383.732 1348.63 382.965 1349.65 382.43 1350.35C382.163 1350.69 381.953 1350.96 381.807 1351.15L381.707 1351.28L381.637 1351.36L381.588 1351.42L381.573 1351.44L381.568 1351.45C381.567 1351.45 381.565 1351.45 377.285 1348L381.565 1351.45L379.914 1353.5H-11.6108L-13.2614 1351.48L-8.99988 1348Z" fill="white"/><path id="Fill 1" fill-rule="evenodd" clip-rule="evenodd" d="M815.714 743.606C892.958 728.493 1035.69 740.247 1057.52 763.757C1081.98 790.092 1020.62 935.468 991.183 947.246C947.021 947.246 873.421 938.413 885.196 961.966C896.972 985.518 935.246 1014.96 935.246 1029.68C935.246 1044.4 908.749 1138.61 876.364 1144.49C843.981 1150.38 764.491 1123.89 761.546 1144.49C758.603 1165.1 802.764 1191.6 805.708 1215.15C808.651 1238.71 764.491 1303.47 576.071 1359.41H414.151C414.151 1359.41 384.71 1156.27 455.366 1070.9C511.305 1091.5 534.858 1094.45 534.858 1094.45C534.858 1094.45 528.968 979.629 549.576 929.581C570.185 879.531 598.007 836.164 634.358 835.963C661.596 835.814 719.977 888.477 731.752 867.868C743.528 847.26 717.436 762.834 815.714 743.606" fill="white"/><path id="Fill 5" fill-rule="evenodd" clip-rule="evenodd" d="M879.989 282.14C913.627 285.985 945.489 538.882 832.439 568.257C790.603 579.127 721.719 599.731 759.189 641.366C778.275 662.57 854.937 686.357 874.131 729.009C888.752 761.494 851.466 860.069 795.41 885.729C731.227 915.105 670.554 902.328 665.172 941.785C659.792 981.242 753.12 1005.87 758.885 1059.69C762.941 1097.52 699.968 1236.17 493.327 1353.03C371.366 1353.03 269.161 1351.23 269.161 1351.23C269.161 1351.23 170.799 1195.53 145.691 1012.59C120.58 829.655 159.321 765.646 227.554 757.052C263.919 752.471 334.07 804.991 369.241 794.716C398.558 786.15 360.981 687.52 360.981 617.572C360.981 547.626 379.242 484.937 408.699 470.087C432.421 458.13 502.927 510.669 526.243 521.429C549.561 532.191 595.375 543.337 604.147 519.537C614.924 490.286 576.273 413.813 605.107 370.564C641.155 316.488 803.156 273.359 879.989 282.14" fill="#D3E2F2"/><path id="Stroke 10" d="M830.612 357.098C832.006 358.438 832.049 360.654 830.709 362.047L829.465 363.357C828.843 364.017 828.153 364.753 827.396 365.565L825.795 367.29C821.942 371.457 817.497 376.361 812.507 381.985L811.824 382.756C797.075 399.406 780.671 418.807 763.018 440.79L761.89 442.197C710.212 506.678 658.531 579.762 610.297 660.009C549.863 760.553 499.226 865.224 461.601 972.674C417.268 1099.28 392.36 1225.98 390.08 1351.45C390.045 1353.38 388.45 1354.92 386.517 1354.88C384.584 1354.85 383.046 1353.25 383.081 1351.32C385.376 1225.07 410.426 1097.64 454.994 970.36C492.787 862.432 543.63 757.336 604.298 656.402C652.165 576.766 703.411 504.164 754.699 439.98L756.427 437.819C773.828 416.108 790.039 396.871 804.683 380.266L806.584 378.115C810.963 373.17 814.938 368.762 818.478 364.902L820.655 362.538C821.509 361.614 822.298 360.766 823.02 359.995L825.664 357.195C827.004 355.801 829.219 355.758 830.612 357.098Z" fill="white"/></g></g></g><g id="Background"><g id="Plant" transform="matrix(-1 0 0 1 2072 659) scale(1 1)"><g id="Plant/Plant 3"><g id="Group"><g id="leaf 2"><path id="Fill 1" fill-rule="evenodd" clip-rule="evenodd" d="M505.12 260.152C548.559 251.653 628.827 258.263 641.103 271.484C654.855 286.294 620.352 368.048 603.797 374.671C578.962 374.671 537.572 369.704 544.194 382.949C550.816 396.194 572.34 412.75 572.34 421.028C572.34 429.306 557.439 482.286 539.227 485.596C521.016 488.908 476.314 474.007 474.658 485.596C473.003 497.186 497.837 512.087 499.493 525.332C501.148 538.577 476.314 575 370.354 606.457H279.296C279.296 606.457 262.74 492.219 302.474 444.207C333.932 455.796 347.177 457.451 347.177 457.451C347.177 457.451 343.865 392.882 355.454 364.737C367.044 336.591 382.69 312.203 403.132 312.09C418.45 312.006 451.281 341.622 457.903 330.032C464.525 318.443 449.852 270.965 505.12 260.152" fill="white"/><path id="Stroke 3" fill-rule="evenodd" clip-rule="evenodd" d="M460.208 294.753C465.319 275.719 478.426 263.141 503.735 258.189C547.895 249.549 628.688 256.252 641.568 270.123C648.497 277.586 645.253 299.105 635.296 325.264L634.679 326.871C624.934 351.967 612.139 373.087 603.539 376.528C603.303 376.622 603.051 376.671 602.796 376.671C599.631 376.671 596.86 376.617 592.079 376.46L580.742 376.056C567.224 375.591 559.362 375.627 553.305 376.43L552.685 376.516C545.604 377.537 543.553 379.196 544.982 382.054C546.605 385.3 549.274 388.975 553.187 393.54C554.51 395.083 555.927 396.677 557.789 398.729L561.963 403.314L563.717 405.267C565.547 407.325 566.986 409.02 568.215 410.587C571.601 414.902 573.339 418.173 573.339 421.028C573.339 426.297 568.897 442.628 563.464 455.931L563.224 456.516C555.853 474.374 547.541 485.936 538.584 487.564C532.392 488.69 524.559 488.081 509.438 485.902L504.88 485.242C494.152 483.698 489.667 483.184 485.111 483.114L484.257 483.107C478.593 483.102 475.887 484.13 475.637 485.879C475.05 489.992 477.72 494.001 486.843 504.078L487.876 505.216C489.959 507.508 491.204 508.912 492.479 510.43L492.864 510.891C497.43 516.399 499.937 520.77 500.477 525.084C501.575 533.871 493.326 546.768 476.541 559.845L475.492 560.655C453.195 577.677 418.206 594.04 369.922 608.374C369.737 608.429 369.546 608.457 369.353 608.457H278.295C277.301 608.457 276.458 607.727 276.316 606.744L276.114 605.256C276.044 604.724 275.971 604.142 275.893 603.513L275.688 601.802C275.372 599.096 275.056 596.101 274.755 592.848L274.592 591.049C272.373 565.924 272.062 539.469 274.883 514.676C278.381 483.941 286.393 459.292 299.932 442.932C300.473 442.278 301.368 442.037 302.164 442.33C315.243 447.148 326.103 450.601 334.88 452.915L336.119 453.238C338.833 453.935 341.162 454.473 343.119 454.873L344.071 455.062L344.032 453.996L343.976 452.308L343.905 449.82C343.522 435.259 343.719 419.45 344.88 404.51C346.216 387.33 348.703 373.449 352.604 363.975C366.692 329.762 382.775 310.197 402.12 310.09C407.641 310.06 413.861 312.698 426.004 319.36L432.461 322.918C439.215 326.612 442.394 328.171 445.806 329.401L446.563 329.667C451.351 331.292 454.031 331.025 455.166 329.04C456.202 327.226 456.671 324.467 457.129 318.176L457.346 315.053C458.005 305.647 458.521 301.314 459.938 295.784L460.208 294.753ZM631.242 324.666C640.837 299.705 644.095 278.723 638.636 272.845L638.267 272.471C625.425 260.197 546.971 253.806 504.503 262.115C480.714 266.769 468.792 278.21 464.071 295.79C462.593 301.298 462.058 305.308 461.412 314.267L461.181 317.591C460.653 325.215 460.148 328.383 458.639 331.024C456.313 335.094 451.849 335.608 445.615 333.567L444.902 333.325C440.832 331.897 437.425 330.214 429.263 325.727L425.885 323.862L423.045 322.301C412.285 316.446 406.553 314.066 402.142 314.09C385.024 314.184 369.812 332.691 356.302 365.498C352.728 374.18 350.346 387.079 349.01 403.064L348.868 404.82C347.669 420.244 347.509 436.646 347.956 451.593C347.974 452.191 347.992 452.765 348.011 453.313L348.106 455.843L348.173 457.348C348.237 458.591 347.163 459.59 345.928 459.435C345.6 459.394 345.052 459.31 344.275 459.17L343.234 458.975C341.322 458.604 339.041 458.096 336.379 457.43L335.123 457.112C326.416 454.873 315.637 451.5 302.652 446.769L302.126 446.576L301.777 447.022C289.703 462.506 282.331 485.545 278.97 514.162L278.858 515.128C276.071 539.615 276.38 565.817 278.577 590.697C278.949 594.912 279.348 598.722 279.746 602.059L279.863 603.023L280.043 604.456H369.061L371.611 603.693C417.525 589.836 450.94 574.164 472.405 557.976L473.065 557.475C489.542 544.896 497.409 532.796 496.507 525.58C496.075 522.122 493.766 518.18 489.416 513.002C488.367 511.754 487.33 510.574 485.782 508.862L483.337 506.168C478.869 501.238 477.261 499.328 475.394 496.613L475.128 496.222C472.429 492.192 471.197 488.674 471.677 485.313C472.334 480.715 476.904 479.041 484.674 479.109L485.162 479.114C489.545 479.18 493.738 479.623 502.804 480.905L511.991 482.225C524.915 484.042 532.064 484.565 537.346 483.717L537.868 483.628C544.87 482.355 552.497 471.831 559.293 455.55L559.761 454.419C565.014 441.557 569.339 425.654 569.339 421.028C569.339 419.358 567.925 416.697 565.068 413.056C564.064 411.776 562.899 410.39 561.464 408.758L560.336 407.486C560.125 407.25 559.912 407.012 559.69 406.766L554.43 400.979C553.127 399.54 552.039 398.32 551.035 397.167L550.15 396.143C546.042 391.351 543.205 387.445 541.404 383.843C539.809 380.652 540.31 377.764 542.805 375.746C544.753 374.172 547.843 373.173 552.114 372.557C558.682 371.61 566.912 371.567 581.587 372.083L587.353 372.292C593.839 372.527 597.311 372.63 600.554 372.661L602.382 372.669L602.488 372.622C609.612 369.172 621.572 349.348 630.669 326.142L631.242 324.666Z" fill="#070707"/><path id="Stroke 3 Copy" fill-rule="evenodd" clip-rule="evenodd" d="M460.208 294.753C465.319 275.719 478.426 263.141 503.735 258.189C547.895 249.549 628.688 256.252 641.568 270.123C648.497 277.586 645.253 299.105 635.296 325.264L634.679 326.871C624.934 351.967 612.139 373.087 603.539 376.528C603.303 376.622 603.051 376.671 602.796 376.671C599.631 376.671 596.86 376.617 592.079 376.46L580.742 376.056C567.224 375.591 559.362 375.627 553.305 376.43L552.685 376.516C545.604 377.537 543.553 379.196 544.982 382.054C546.605 385.3 549.274 388.975 553.187 393.54C554.51 395.083 555.927 396.677 557.789 398.729L561.963 403.314L563.717 405.267C565.547 407.325 566.986 409.02 568.215 410.587C571.601 414.902 573.339 418.173 573.339 421.028C573.339 426.297 568.897 442.628 563.464 455.931L563.224 456.516C555.853 474.374 547.541 485.936 538.584 487.564C532.392 488.69 524.559 488.081 509.438 485.902L504.88 485.242C494.152 483.698 489.667 483.184 485.111 483.114L484.257 483.107C478.593 483.102 475.887 484.13 475.637 485.879C475.05 489.992 477.72 494.001 486.843 504.078L487.876 505.216C489.959 507.508 491.204 508.912 492.479 510.43L492.864 510.891C497.43 516.399 499.937 520.77 500.477 525.084C501.575 533.871 493.326 546.768 476.541 559.845L475.492 560.655C453.195 577.677 418.206 594.04 369.922 608.374C369.737 608.429 369.546 608.457 369.353 608.457H278.295C277.301 608.457 276.458 607.727 276.316 606.744L276.114 605.256C276.044 604.724 275.971 604.142 275.893 603.513L275.688 601.802C275.372 599.096 275.056 596.101 274.755 592.848L274.592 591.049C272.373 565.924 272.062 539.469 274.883 514.676C278.381 483.941 286.393 459.292 299.932 442.932C300.473 442.278 301.368 442.037 302.164 442.33C315.243 447.148 326.103 450.601 334.88 452.915L336.119 453.238C338.833 453.935 341.162 454.473 343.119 454.873L344.071 455.062L344.032 453.996L343.976 452.308L343.905 449.82C343.522 435.259 343.719 419.45 344.88 404.51C346.216 387.33 348.703 373.449 352.604 363.975C366.692 329.762 382.775 310.197 402.12 310.09C407.641 310.06 413.861 312.698 426.004 319.36L432.461 322.918C439.215 326.612 442.394 328.171 445.806 329.401L446.563 329.667C451.351 331.292 454.031 331.025 455.166 329.04C456.202 327.226 456.671 324.467 457.129 318.176L457.346 315.053C458.005 305.647 458.521 301.314 459.938 295.784L460.208 294.753ZM631.242 324.666C640.837 299.705 644.095 278.723 638.636 272.845L638.267 272.471C625.425 260.197 546.971 253.806 504.503 262.115C480.714 266.769 468.792 278.21 464.071 295.79C462.593 301.298 462.058 305.308 461.412 314.267L461.181 317.591C460.653 325.215 460.148 328.383 458.639 331.024C456.313 335.094 451.849 335.608 445.615 333.567L444.902 333.325C440.832 331.897 437.425 330.214 429.263 325.727L425.885 323.862L423.045 322.301C412.285 316.446 406.553 314.066 402.142 314.09C385.024 314.184 369.812 332.691 356.302 365.498C352.728 374.18 350.346 387.079 349.01 403.064L348.868 404.82C347.669 420.244 347.509 436.646 347.956 451.593C347.974 452.191 347.992 452.765 348.011 453.313L348.106 455.843L348.173 457.348C348.237 458.591 347.163 459.59 345.928 459.435C345.6 459.394 345.052 459.31 344.275 459.17L343.234 458.975C341.322 458.604 339.041 458.096 336.379 457.43L335.123 457.112C326.416 454.873 315.637 451.5 302.652 446.769L302.126 446.576L301.777 447.022C289.703 462.506 282.331 485.545 278.97 514.162L278.858 515.128C276.071 539.615 276.38 565.817 278.577 590.697C278.949 594.912 279.348 598.722 279.746 602.059L279.863 603.023L280.043 604.456H369.061L371.611 603.693C417.525 589.836 450.94 574.164 472.405 557.976L473.065 557.475C489.542 544.896 497.409 532.796 496.507 525.58C496.075 522.122 493.766 518.18 489.416 513.002C488.367 511.754 487.33 510.574 485.782 508.862L483.337 506.168C478.869 501.238 477.261 499.328 475.394 496.613L475.128 496.222C472.429 492.192 471.197 488.674 471.677 485.313C472.334 480.715 476.904 479.041 484.674 479.109L485.162 479.114C489.545 479.18 493.738 479.623 502.804 480.905L511.991 482.225C524.915 484.042 532.064 484.565 537.346 483.717L537.868 483.628C544.87 482.355 552.497 471.831 559.293 455.55L559.761 454.419C565.014 441.557 569.339 425.654 569.339 421.028C569.339 419.358 567.925 416.697 565.068 413.056C564.064 411.776 562.899 410.39 561.464 408.758L560.336 407.486C560.125 407.25 559.912 407.012 559.69 406.766L554.43 400.979C553.127 399.54 552.039 398.32 551.035 397.167L550.15 396.143C546.042 391.351 543.205 387.445 541.404 383.843C539.809 380.652 540.31 377.764 542.805 375.746C544.753 374.172 547.843 373.173 552.114 372.557C558.682 371.61 566.912 371.567 581.587 372.083L587.353 372.292C593.839 372.527 597.311 372.63 600.554 372.661L602.382 372.669L602.488 372.622C609.612 369.172 621.572 349.348 630.669 326.142L631.242 324.666Z" fill="#070707"/></g><g id="Leaf 1"><path id="Fill 5" fill-rule="evenodd" clip-rule="evenodd" d="M541.266 0.641154C560.183 2.80315 578.101 145.023 514.526 161.542C490.999 167.655 452.261 179.242 473.333 202.656C484.066 214.58 527.178 227.957 537.972 251.943C546.194 270.211 525.226 325.646 493.702 340.076C457.608 356.596 423.488 349.411 420.461 371.6C417.436 393.789 469.92 407.637 473.162 437.905C475.443 459.179 440.029 537.15 323.822 602.866C255.236 602.866 197.76 601.857 197.76 601.857C197.76 601.857 142.445 514.298 128.325 411.42C114.204 308.542 135.99 272.546 174.362 267.713C194.812 265.137 234.262 294.672 254.041 288.894C270.528 284.077 249.396 228.611 249.396 189.275C249.396 149.94 259.665 114.686 276.231 106.335C289.571 99.6112 329.221 129.157 342.333 135.208C355.446 141.26 381.21 147.528 386.143 134.144C392.204 117.694 370.468 74.6892 386.683 50.3672C406.955 19.9572 498.058 -4.29685 541.266 0.641154" fill="#FF4B33"/><path id="Stroke 10" d="M513.522 42.7719C514.318 43.5375 514.343 44.8036 513.577 45.5997L512.878 46.3364C512.368 46.8771 511.776 47.5095 511.106 48.2326L509.047 50.4699C507.367 52.3092 505.517 54.3616 503.509 56.6229L502.958 57.2448C494.487 66.807 485.047 77.9827 474.878 90.6709C445.817 126.931 416.755 168.03 389.631 213.156C355.646 269.697 327.17 328.558 306.012 388.981C281.082 460.176 267.075 531.426 265.793 601.978C265.773 603.082 264.862 603.961 263.757 603.941C262.653 603.921 261.774 603.009 261.794 601.905C263.084 530.904 277.172 459.237 302.237 387.659C323.491 326.962 352.084 267.858 386.202 211.096C413.424 165.806 442.589 124.563 471.756 88.1694L473.662 85.7983C483.149 74.0317 491.983 63.6021 499.963 54.5925L501.605 52.7458C503.925 50.1459 506.021 47.8391 507.877 45.8323L509.257 44.3479L510.694 42.827C511.46 42.0309 512.726 42.0062 513.522 42.7719Z" fill="#070707"/></g><g id="pot"><path id="pot_2" fill-rule="evenodd" clip-rule="evenodd" d="M374.253 853.978C316.767 853.982 259.269 853.974 201.775 853.978C147.89 762.027 131.603 693.859 170.498 601.888H405.531C444.422 693.859 428.145 762.007 374.253 853.978" fill="#FFC81A"/><path id="pot_3" fill-rule="evenodd" clip-rule="evenodd" d="M407.372 601.109C407.059 600.369 406.334 599.888 405.53 599.888H170.497L170.338 599.895C169.599 599.953 168.947 600.418 168.655 601.109C149.323 646.822 143.281 687.273 149.365 728.235C155.024 766.34 171.067 805.535 200.049 854.991C200.408 855.603 201.064 855.979 201.774 855.979H374.252L374.251 853.978L375.978 854.99L376.843 853.51C405.282 804.742 421.061 765.949 426.663 728.227C432.745 687.27 426.703 646.824 407.372 601.109ZM171.826 603.887H404.2L404.816 605.365C422.976 649.32 428.556 688.246 422.706 727.64L422.536 728.765C416.875 765.557 401.306 803.62 373.385 851.499L373.103 851.979L202.92 851.978L202.641 851.5C174.439 803.142 158.838 764.79 153.321 727.647L153.146 726.441C147.528 687.052 153.353 648.074 171.771 604.017L171.826 603.887Z" fill="#141414"/><path id="Path 4" d="M303 626.979C304.105 626.979 305 627.875 305 628.979C305 630.034 304.184 630.897 303.149 630.974L303 630.979H184C182.895 630.979 182 630.084 182 628.979C182 627.925 182.816 627.061 183.851 626.985L184 626.979H303Z" fill="#141414"/></g></g></g></g><g id="Phone" transform="translate(867 210) scale(1 1)"><g id="Phone/Screen 1"><g id="mobile frame"><path id="mobile" d="M0 81C0 36.2649 36.2649 0 81 0H585C629.735 0 666 36.2649 666 81V1222C666 1266.74 629.735 1303 585 1303H81C36.2649 1303 0 1266.74 0 1222V81Z" fill="white"/><path id="mobile (Stroke)" fill-rule="evenodd" clip-rule="evenodd" d="M585 24H81C49.5198 24 24 49.5198 24 81V1222C24 1253.48 49.5198 1279 81 1279H585C616.48 1279 642 1253.48 642 1222V81C642 49.5198 616.48 24 585 24ZM81 0C36.2649 0 0 36.2649 0 81V1222C0 1266.74 36.2649 1303 81 1303H585C629.735 1303 666 1266.74 666 1222V81C666 36.2649 629.735 0 585 0H81Z" fill="#141414"/><g id="Info Cards"><g id="Info Card"><path id="Bg" fill-rule="evenodd" clip-rule="evenodd" d="M81 367.069H585.868V162H81V367.069Z" fill="white"/><path id="Border" fill-rule="evenodd" clip-rule="evenodd" d="M81 160H585.868C586.973 160 587.868 160.895 587.868 162V367.069C587.868 368.174 586.973 369.069 585.868 369.069H81C79.8954 369.069 79 368.174 79 367.069V162C79 160.895 79.8954 160 81 160ZM583.868 365.068V163.999H83V365.068H583.868Z" fill="#141414"/><path id="Place Holder" fill-rule="evenodd" clip-rule="evenodd" d="M123.906 322.975H245.851V201.975H123.906V322.975Z" fill="#FF4B33"/><path id="Text" fill-rule="evenodd" clip-rule="evenodd" d="M502.827 215.688C507.245 215.688 510.827 219.27 510.827 223.688C510.827 228.023 507.379 231.552 503.076 231.684L502.827 231.688H277.582C273.164 231.688 269.582 228.106 269.582 223.688C269.582 219.353 273.03 215.823 277.333 215.692L277.582 215.688H502.827ZM449.521 255.987C453.939 255.987 457.521 259.568 457.521 263.987C457.521 268.322 454.073 271.851 449.77 271.983L449.521 271.987H277.582C273.164 271.987 269.582 268.405 269.582 263.987C269.582 259.652 273.03 256.122 277.333 255.99L277.582 255.987H449.521ZM405.289 304.285C405.289 299.867 401.707 296.285 397.289 296.285H277.582L277.333 296.289C273.03 296.421 269.582 299.95 269.582 304.285C269.582 308.704 273.164 312.285 277.582 312.285H397.289L397.538 312.282C401.841 312.15 405.289 308.62 405.289 304.285Z" fill="#D3E2F2"/></g><g id="Info Card 2"><path id="Bg_2" fill-rule="evenodd" clip-rule="evenodd" d="M81 625.009H585.868V419.94H81V625.009Z" fill="white"/><path id="Border_2" fill-rule="evenodd" clip-rule="evenodd" d="M81 417.94H585.868C586.973 417.94 587.868 418.835 587.868 419.94V625.009C587.868 626.114 586.973 627.009 585.868 627.009H81C79.8954 627.009 79 626.114 79 625.009V419.94C79 418.835 79.8954 417.94 81 417.94ZM583.868 623.008V421.939H83V623.008H583.868Z" fill="#141414"/><path id="Place Holder_2" fill-rule="evenodd" clip-rule="evenodd" d="M123.906 580.915H245.851V459.915H123.906V580.915Z" fill="#13D6C3"/><path id="Text_2" fill-rule="evenodd" clip-rule="evenodd" d="M502.827 473.628C507.245 473.628 510.827 477.21 510.827 481.628C510.827 485.963 507.379 489.492 503.076 489.624L502.827 489.628H277.582C273.164 489.628 269.582 486.046 269.582 481.628C269.582 477.293 273.03 473.763 277.333 473.632L277.582 473.628H502.827ZM449.521 513.927C453.939 513.927 457.521 517.508 457.521 521.927C457.521 526.262 454.073 529.791 449.77 529.923L449.521 529.927H277.582C273.164 529.927 269.582 526.345 269.582 521.927C269.582 517.592 273.03 514.062 277.333 513.93L277.582 513.927H449.521ZM405.289 562.225C405.289 557.807 401.707 554.225 397.289 554.225H277.582L277.333 554.229C273.03 554.361 269.582 557.89 269.582 562.225C269.582 566.644 273.164 570.225 277.582 570.225H397.289L397.538 570.222C401.841 570.09 405.289 566.56 405.289 562.225Z" fill="#D3E2F2"/></g><g id="Info Card 3" opacity="0.553153"><path id="Bg_3" fill-rule="evenodd" clip-rule="evenodd" d="M81 882.949H585.868V677.88H81V882.949Z" fill="white"/><path id="Border_3" fill-rule="evenodd" clip-rule="evenodd" d="M81 675.88H585.868C586.973 675.88 587.868 676.775 587.868 677.88V882.949C587.868 884.054 586.973 884.949 585.868 884.949H81C79.8954 884.949 79 884.054 79 882.949V677.88C79 676.775 79.8954 675.88 81 675.88ZM583.868 880.948V679.879H83V880.948H583.868Z" fill="#141414"/><path id="Place Holder_3" fill-rule="evenodd" clip-rule="evenodd" d="M123.906 838.855H245.851V717.855H123.906V838.855Z" fill="#02BAD3"/><path id="Text_3" fill-rule="evenodd" clip-rule="evenodd" d="M502.827 731.568C507.245 731.568 510.827 735.15 510.827 739.568C510.827 743.903 507.379 747.432 503.076 747.564L502.827 747.568H277.582C273.164 747.568 269.582 743.986 269.582 739.568C269.582 735.233 273.03 731.703 277.333 731.572L277.582 731.568H502.827ZM449.521 771.867C453.939 771.867 457.521 775.448 457.521 779.867C457.521 784.202 454.073 787.731 449.77 787.863L449.521 787.867H277.582C273.164 787.867 269.582 784.285 269.582 779.867C269.582 775.532 273.03 772.002 277.333 771.87L277.582 771.867H449.521ZM405.289 820.165C405.289 815.747 401.707 812.165 397.289 812.165H277.582L277.333 812.169C273.03 812.301 269.582 815.83 269.582 820.165C269.582 824.584 273.164 828.165 277.582 828.165H397.289L397.538 828.162C401.841 828.03 405.289 824.5 405.289 820.165Z" fill="#D3E2F2"/></g><g id="Info Card 4" opacity="0.162202"><path id="Bg_4" fill-rule="evenodd" clip-rule="evenodd" d="M81 1140.89H585.868V935.82H81V1140.89Z" fill="white"/><path id="Border_4" fill-rule="evenodd" clip-rule="evenodd" d="M81 933.82H585.868C586.973 933.82 587.868 934.715 587.868 935.82V1140.89C587.868 1141.99 586.973 1142.89 585.868 1142.89H81C79.8954 1142.89 79 1141.99 79 1140.89V935.82C79 934.715 79.8954 933.82 81 933.82ZM583.868 1138.89V937.819H83V1138.89H583.868Z" fill="#141414"/><path id="Place Holder_4" fill-rule="evenodd" clip-rule="evenodd" d="M123.906 1096.79H245.851V975.795H123.906V1096.79Z" fill="#FFC81A"/><path id="Text_4" fill-rule="evenodd" clip-rule="evenodd" d="M502.827 989.508C507.245 989.508 510.827 993.09 510.827 997.508C510.827 1001.84 507.379 1005.37 503.076 1005.5L502.827 1005.51H277.582C273.164 1005.51 269.582 1001.93 269.582 997.508C269.582 993.173 273.03 989.643 277.333 989.512L277.582 989.508H502.827ZM449.521 1029.81C453.939 1029.81 457.521 1033.39 457.521 1037.81C457.521 1042.14 454.073 1045.67 449.77 1045.8L449.521 1045.81H277.582C273.164 1045.81 269.582 1042.22 269.582 1037.81C269.582 1033.47 273.03 1029.94 277.333 1029.81L277.582 1029.81H449.521ZM405.289 1078.11C405.289 1073.69 401.707 1070.11 397.289 1070.11H277.582L277.333 1070.11C273.03 1070.24 269.582 1073.77 269.582 1078.11C269.582 1082.52 273.164 1086.11 277.582 1086.11H397.289L397.538 1086.1C401.841 1085.97 405.289 1082.44 405.289 1078.11Z" fill="#D3E2F2"/></g></g></g></g></g><path id="line (Stroke)" fill-rule="evenodd" clip-rule="evenodd" d="M2266 1515H57V1511H2266V1515Z" fill="#141414"/></g><g id="Master/Character/Standing" transform="matrix(-1 0 0 1 1422 287) scale(1 1)"><g id="Master/Character/Standing"><g id="Lower Body" transform="translate(0 569) scale(1 1)"><g id="Lower Body/Fat Pant"><g id="Group"><g id="Assets 46"><path id="SKIN" fill-rule="evenodd" clip-rule="evenodd" d="M469.221 597L479.493 692.789L529.827 689.728L539.203 598.39L469.221 597Z" fill="white"/><path id="Fill 14" fill-rule="evenodd" clip-rule="evenodd" d="M536.363 605.21L527.908 687.577L481.378 690.407L472.24 605.199C472.117 604.055 471.208 603.192 470.127 603.192C468.857 603.192 467.87 604.369 468.014 605.713L477.38 693.047C477.503 694.195 478.418 695.053 479.491 695.053C479.532 695.053 479.573 695.052 479.614 695.05L529.947 691.989C530.985 691.925 531.827 691.073 531.941 689.975L540.592 605.702C540.729 604.362 539.743 603.192 538.477 603.192C537.392 603.192 536.481 604.062 536.363 605.21" fill="#141414"/></g><g id="Assets 47"><path id="SKIN_2" fill-rule="evenodd" clip-rule="evenodd" d="M581.872 560L585.798 684.49L642.932 689.42L668.246 595.745L581.872 560Z" fill="white"/><path id="Fill 2" fill-rule="evenodd" clip-rule="evenodd" d="M664.586 601.104L641.365 687.031L587.86 682.415L584.253 574.123C584.206 572.707 582.945 571.69 581.64 572.015C580.651 572.261 579.965 573.209 580.001 574.281L583.672 684.563C583.709 685.704 584.548 686.634 585.625 686.727L642.758 691.658C642.816 691.663 642.875 691.666 642.933 691.666C643.874 691.666 644.714 691.007 644.976 690.037L668.676 602.336C669.052 600.944 668.101 599.544 666.731 599.476C665.745 599.428 664.857 600.101 664.586 601.104" fill="#141414"/></g><g id="Assets 48"><path id="Fill 4" fill-rule="evenodd" clip-rule="evenodd" d="M578.83 676.481C579.088 675.41 580.088 674.732 581.121 674.926C582.105 675.112 583.349 675.364 584.815 675.662C593.796 677.483 612.485 681.273 630.196 681.287H630.242C640.675 681.287 643.762 676.949 649.991 671.487C650.485 671.053 651.148 670.898 651.774 671.067C682.171 679.405 710.223 686.761 726.499 698.197C729.36 700.208 739.676 708.983 737.892 715.188C737.066 718.058 734.128 719.513 729.159 719.513C711.014 719.513 671.923 719.619 637.434 719.714C609.528 719.791 585.427 719.858 576.353 719.858C575.395 719.858 574.529 719.399 573.916 718.568C570.343 713.726 576.162 687.521 578.83 676.481" fill="#ffc81a"/><path id="Fill 6" fill-rule="evenodd" clip-rule="evenodd" d="M576.719 729.136H733.555C736.162 729.136 738.275 726.911 738.275 724.164V722.522C738.275 719.775 736.162 717.549 733.555 717.549H576.719C574.113 717.549 572 719.775 572 722.522V724.164C572 726.911 574.113 729.136 576.719 729.136" fill="#141414"/><path id="Fill 8" fill-rule="evenodd" clip-rule="evenodd" d="M689.015 692.251C689.81 692.251 690.572 691.78 690.936 690.973C694.273 683.589 700.684 685.396 701.405 685.629C702.523 685.986 703.713 685.328 704.06 684.152C704.407 682.974 703.793 681.725 702.678 681.352C699.042 680.137 691.104 680.181 687.097 689.047C686.592 690.165 687.042 691.5 688.102 692.033C688.397 692.181 688.708 692.251 689.015 692.251" fill="#141414"/><path id="Fill 10" fill-rule="evenodd" clip-rule="evenodd" d="M670.234 686.854C671.029 686.854 671.791 686.383 672.155 685.576C675.493 678.193 681.904 680 682.623 680.232C683.742 680.591 684.932 679.931 685.279 678.755C685.626 677.577 685.011 676.329 683.897 675.956C680.257 674.741 672.321 674.787 668.316 683.65C667.811 684.768 668.261 686.104 669.321 686.636C669.616 686.785 669.927 686.854 670.234 686.854" fill="#141414"/></g><g id="Assets 49"><path id="Fill 16" fill-rule="evenodd" clip-rule="evenodd" d="M475.235 669.523C475.235 669.523 445.759 696.202 459.785 716.602C478.366 722.093 522.775 727.194 542.493 717.318C556.315 710.395 534.457 669 534.457 669C512.205 671.344 495.958 670.226 475.235 669.523" fill="#ffc81a"/><path id="Fill 18" fill-rule="evenodd" clip-rule="evenodd" d="M548.261 721.296C548.053 725.297 544.017 727.787 539.734 727.787H463.406C458.899 727.787 455.867 723.534 456.664 718.964C457.46 714.396 458.784 714.789 461.784 714.789L539.734 715.22C542.936 715.22 548.491 716.863 548.261 721.296" fill="#141414"/><path id="Fill 20" fill-rule="evenodd" clip-rule="evenodd" d="M479.825 699.591C479.065 699.591 478.339 699.131 478.003 698.356C477.546 697.298 477.988 696.05 478.992 695.567C479.792 695.181 498.811 686.227 520.03 692.734C521.091 693.06 521.7 694.228 521.392 695.346C521.083 696.463 519.973 697.108 518.913 696.78C499.159 690.728 480.834 699.314 480.651 699.401C480.383 699.529 480.102 699.591 479.825 699.591" fill="#141414"/><path id="Fill 22" fill-rule="evenodd" clip-rule="evenodd" d="M485.937 685.621C485.158 685.621 484.417 685.139 484.094 684.336C483.664 683.266 484.136 682.03 485.152 681.575C485.789 681.29 500.885 674.677 514.138 681.37C515.134 681.873 515.554 683.133 515.076 684.182C514.599 685.232 513.404 685.674 512.408 685.171C500.809 679.31 486.854 685.392 486.715 685.455C486.461 685.568 486.197 685.621 485.937 685.621" fill="#141414"/></g><g id="Pant"><path id="Fill 24" fill-rule="evenodd" clip-rule="evenodd" d="M390.562 241.043C414.443 462.886 407.742 624.366 407.742 624.366C455.956 632.36 503.27 632.39 548.975 618.187L560 151.184L617 295.171C617 295.171 551.091 542.515 562.527 563.269C573.962 584.023 673.866 626.838 700.712 610.773C711.819 604.125 771.767 399.254 769 280.348C767.553 218.152 663.06 46.4052 656 0.845087C622.389 -3.30617 439.298 0.844769 439.298 0.844769C439.298 0.844769 370.861 58.0371 390.562 241.043Z" fill="#141414"/><path id="Fill 27" fill-rule="evenodd" clip-rule="evenodd" d="M555.611 29.8584C559.902 33.024 569.463 39.1984 585.413 45.0722C591.118 47.1728 594.162 46.852 595.037 45.9383C595.628 45.321 595.349 44.0516 595.129 43.3497C593.403 37.8348 584.081 29.1744 571.067 27.2581C566.424 26.5774 561.119 27.6954 555.611 29.8584M540.007 25.4954C537.021 25.4954 533.54 27.2825 530.638 28.7742C518.634 34.9392 508.784 48.3734 507.88 54.839C510.301 53.8618 515.744 49.9053 520.622 46.3586C528.58 40.5716 538.112 33.6391 547.672 28.8039C545.968 27.5038 544.074 26.5107 541.944 25.7918C541.332 25.5864 540.682 25.4954 540.007 25.4954M536.231 76.6127C535.99 76.6127 535.745 76.5661 535.507 76.4677C534.478 76.0442 533.968 74.8182 534.368 73.7277C539.159 60.6694 545.934 41.6494 548.537 33.1076C539.346 37.8793 530.127 44.5842 522.885 49.8492C512.014 57.7558 508.115 60.4121 505.431 58.9151C504.826 58.5784 503.812 57.7187 503.812 55.7474C503.812 46.8805 516.469 31.3438 528.892 24.9628C533.089 22.8083 538.318 20.1245 543.158 21.7581C546.515 22.8888 549.349 24.6029 551.778 26.8632C558.69 23.8406 565.503 22.1604 571.617 23.0645C585.646 25.1301 596.518 34.3241 598.925 42.0178C600.117 45.8292 598.76 48.0007 597.845 48.9546C595.41 51.4955 590.786 51.5336 584.099 49.0711C572.605 44.8393 564.352 40.4827 558.876 37.0937C562.994 45.9288 565.383 57.9612 567.898 72.5843C568.095 73.7351 567.376 74.8372 566.289 75.0479C565.211 75.2544 564.161 74.4953 563.963 73.3434C560.66 54.1296 557.646 41.552 552.461 33.9525C549.111 45.1697 539.383 71.7553 538.097 75.2618C537.789 76.0992 537.032 76.6117 536.231 76.6127" fill="white"/></g></g></g></g><g id="Upper Body" transform="translate(272 187) scale(1 1)"><g id="Upper Body/Arms Crossed"><g id="T Shirt"><path id="Fill 1" fill-rule="evenodd" clip-rule="evenodd" d="M154.338 385.827C152.949 374.531 142.72 300.11 140.337 258.018C123.372 261.595 121.028 184.422 142.964 134.995C177.91 56.2549 297.874 80.8729 297.874 80.8729C297.874 80.8729 333.715 79.1949 369.097 108.152C384.912 121.096 402.329 150 410.992 181.737C408.281 190.514 379.614 229.859 369.161 236.553C385.318 315.03 398.104 385.827 398.104 385.827C398.104 385.827 189.815 389.08 154.338 385.827Z" fill="#ffc81a"/><path id="Fill 3" fill-rule="evenodd" clip-rule="evenodd" d="M395.738 384.904C393.457 371.893 381.602 306.896 367.202 236.956C367.035 236.145 367.386 235.315 368.083 234.869C378.183 228.401 405.459 190.788 408.901 181.671C400.683 151.981 384.224 123.116 367.831 109.7C333.507 81.6091 298.315 82.8511 297.967 82.8711C297.799 82.8751 297.635 82.8651 297.473 82.8321C297.175 82.7721 267.308 76.7741 233.643 80.4051C213.973 82.5271 196.875 87.4711 182.821 95.1021C165.369 104.579 152.574 118.274 144.793 135.807C136.265 155.022 130.63 180.678 129.335 206.197C128.179 228.959 130.768 247.789 135.931 254.168C137.626 256.261 139.023 256.254 139.925 256.061C140.497 255.942 141.091 256.076 141.553 256.429C142.017 256.784 142.302 257.322 142.335 257.905C144.393 294.255 152.856 352.599 156.042 377.197C156.393 379.905 156.677 382.103 156.88 383.693C193.78 386.405 373.262 385.641 395.738 384.904ZM154.915 387.545C153.978 387.459 153.228 386.732 153.113 385.797C152.926 384.278 152.566 381.495 152.075 377.711C148.941 353.509 140.706 296.932 138.457 260.097C136.728 259.911 134.728 259.04 132.821 256.684C126.985 249.473 124.118 230.05 125.34 205.995C126.66 180.004 132.418 153.83 141.137 134.184C155.732 101.299 187.605 81.3241 233.311 76.4181C265.952 72.9121 295.072 78.2921 298.032 78.8661C301.571 78.7441 335.947 78.4371 370.364 106.604C387.457 120.594 404.56 150.575 412.922 181.21C413.022 181.577 413.016 181.964 412.903 182.327C410.318 190.695 383.2 228.537 371.385 237.436C387.24 314.572 399.948 385.751 400.075 386.485C400.174 387.055 400.022 387.64 399.656 388.089C399.291 388.537 398.75 388.806 398.172 388.826C391.34 389.055 260.432 388.426 191.421 388.426C174.78 388.426 161.753 388.172 154.915 387.545Z" fill="#141414"/></g><g id="Neck"><path id="SKIN" fill-rule="evenodd" clip-rule="evenodd" d="M248.467 50.1257C248.467 50.1257 247.109 84.5637 232.88 89.4817C229.009 108.838 255.241 122.055 275.181 121.119C313.782 119.307 301.768 87.7557 299.114 87.6697C299.191 83.7147 301.323 54.1327 301.323 54.1327L248.467 50.1257Z" fill="white"/><path id="Fill 8" fill-rule="evenodd" clip-rule="evenodd" d="M234.778 91.0046C234.087 96.0666 235.656 100.864 239.453 105.28C246.821 113.851 261.801 119.628 275.081 118.995C288.348 118.372 296.877 113.956 299.744 106.225C302.438 98.9636 299.471 91.0896 298.273 89.6246C297.502 89.2926 296.969 88.5186 296.986 87.6286C297.053 84.2426 298.557 62.9836 299.05 56.0926L250.46 52.4096C249.895 60.1096 247.119 85.2576 234.778 91.0046M273.151 123.293C259.222 123.293 243.983 117.073 236.228 108.053C231.328 102.355 229.449 95.7876 230.794 89.0656C230.942 88.3246 231.471 87.7186 232.184 87.4726C242.719 83.8316 245.975 59.2176 246.341 50.0416C246.364 49.4646 246.62 48.9216 247.051 48.5376C247.483 48.1536 248.056 47.9666 248.627 48.0046L301.483 52.0116C302.651 52.1006 303.528 53.1166 303.444 54.2856C303.424 54.5616 301.576 80.2196 301.278 86.6696C303.593 89.1646 305.062 95.2796 305.093 99.6106C305.138 105.679 303.057 110.974 299.074 114.923C294.015 119.941 286.009 122.74 275.28 123.244C274.575 123.276 273.864 123.293 273.151 123.293" fill="#141414"/></g><g id="Hand"><path id="SKIN_2" fill-rule="evenodd" clip-rule="evenodd" d="M410.916 181.429L356.055 189.117L362.113 224.522C362.113 224.522 283.161 216.875 256.042 207.897C242.393 203.378 224.751 208.409 217.84 222.613C214.184 230.127 216.54 249.679 216.54 249.679C216.54 249.679 241.97 249.332 249.235 249.332C249.978 249.332 250.938 249.582 252.084 250.03L215.574 250.42L213.744 197.724L127.801 198.81C127.801 198.81 111.477 312.305 176.799 329.974C236.318 346.074 308.23 291.585 313.851 287.229C341.779 301.766 374.98 313.168 406.245 305.187C445.786 295.094 412.532 185.905 410.916 181.429" fill="white"/><path id="Fill 13" fill-rule="evenodd" clip-rule="evenodd" d="M418.149 292.906C415.19 298.491 411.134 301.874 405.749 303.249C357.418 315.587 304.872 281.121 273.475 260.53C263.091 253.719 256.733 249.62 252.548 248.061C252.538 248.049 252.525 248.037 252.515 248.025L252.448 248.026C251.201 247.57 250.14 247.332 249.233 247.332C243.173 247.332 224.294 247.575 218.333 247.655C217.725 241.357 217.122 228.658 219.637 223.488C224.898 212.678 239.715 204.6 255.413 209.796C282.357 218.716 358.248 226.157 361.882 226.51L374.948 228.251C375.038 228.263 375.127 228.269 375.215 228.269C376.202 228.269 377.061 227.538 377.195 226.533C377.341 225.438 376.572 224.432 375.477 224.286L363.836 222.734L358.373 190.811L409.534 183.642C411.251 189.134 416.454 207.224 420.022 227.936C425.248 258.264 424.599 280.73 418.149 292.906M199.95 330.917C192.301 330.917 184.701 330.04 177.32 328.044C151.1 320.951 135.11 297.244 129.795 257.579C126.343 231.814 128.786 207.325 129.564 200.788L211.812 199.748L213.574 250.489C213.612 251.575 214.514 252.409 215.594 252.42L251.752 252.033C255.861 253.764 263.123 258.523 271.281 263.874C282.076 270.954 295.333 279.642 310.078 287.555C297.72 296.622 247.802 330.92 199.95 330.917M412.795 180.75C412.474 179.861 411.575 179.32 410.637 179.448L357.641 186.875L350.984 153.891C350.764 152.808 349.706 152.106 348.628 152.326C347.544 152.545 346.844 153.599 347.062 154.682L354.087 189.486L359.698 222.27C345.818 220.853 280.503 213.888 256.669 205.999C249.471 203.615 241.116 203.743 233.746 206.348C226.156 209.033 220.091 214.133 216.544 220.767L215.753 197.976C215.762 197.89 215.775 197.806 215.774 197.718L215.073 157.017C215.055 155.913 214.19 155.013 213.039 155.052C211.935 155.071 211.055 155.982 211.074 157.086L211.74 195.749L127.774 196.81C126.789 196.823 125.96 197.551 125.82 198.526C125.778 198.812 121.747 227.527 125.82 258.031C131.28 298.908 148.727 324.453 176.276 331.905C184.025 334.001 191.971 334.905 199.917 334.905C225.412 334.905 250.878 325.601 269.619 316.548C291.951 305.759 309.062 293.351 314.004 289.625C335.528 300.756 359.951 309.853 384.437 309.853C391.891 309.853 399.353 309.01 406.739 307.125C413.187 305.478 418.215 301.324 421.683 294.779C438.847 262.381 413.077 181.528 412.795 180.75" fill="#141414"/></g></g></g><g id="Head" transform="translate(439 92) scale(1 1)"><g id="Head/Bun 1"><path id="SKIN" fill-rule="evenodd" clip-rule="evenodd" d="M149.882 102.094C143.885 52.3538 111.153 49.4878 87.5365 53.7808C68.7135 57.2038 44.6345 72.7648 46.7665 104.073C37.3415 101.013 30.4605 106.742 29.2365 114.189C27.8495 122.64 32.2855 136.935 46.2375 134.473C49.2925 158.699 66.0495 186.607 111.579 181.938C146.05 178.402 155.34 147.368 149.882 102.094" fill="white"/><path id="Combined Shape" fill-rule="evenodd" clip-rule="evenodd" d="M48.2218 134.223C50.0038 147.852 56.1648 161.361 67.2638 169.967C80.2308 182.118 123.203 187.006 138.219 166.456C150.998 153.433 152.906 108.249 143.117 82.1546C136.341 82.9006 125.94 83.7646 116.458 83.3946C114.284 80.3254 111.939 74.4372 110.251 70.2005C109.438 68.1591 108.778 66.5011 108.363 65.7266C107.149 67.3883 108.797 76.1561 109.788 81.4324C109.982 82.462 110.15 83.3587 110.268 84.0436C97.0758 90.4936 68.8828 93.7306 53.0198 90.8096C52.8477 93.8559 53.3909 97.1587 53.8662 100.049C54.9346 106.546 55.6603 110.959 47.1488 105.69C33.7148 97.3736 26.8068 119.976 36.0728 128.937C41.1758 133.873 44.9738 134.217 48.2218 134.223ZM68.0298 20.0796C63.1798 22.1526 50.3648 27.8466 50.1838 33.2466C71.0618 15.7416 140.214 7.6086 161.314 70.6596C168.06 92.5106 172.203 170.211 170.874 177.185C159.948 179.461 143.566 181.963 128.953 181.631C128.698 180.908 128.536 180.137 128.41 179.347C110.504 187.697 84.463 186.383 69 176C69.4059 179.508 69.358 181.906 69.3227 183.671C69.2949 185.064 69.275 186.062 69.4918 186.9C54.2508 189.358 31.6008 183.212 31.6008 183.212C31.6008 183.212 -7.27916 103.685 29.5848 57.1906C20.9498 55.1986 2.86084 42.6746 15.1488 16.7706C24.6558 -3.2704 58.7758 -3.6294 68.0298 20.0796ZM43.8325 118.933C43.6189 119.964 43.4228 120.91 42.3775 120.698C39.1875 120.05 38.7805 115.497 41.6905 114.023C44.0785 112.814 44.8125 115.511 44.0495 118.022C43.9606 118.314 43.8958 118.627 43.8325 118.933Z" fill="#141414"/></g></g><g id="Face" transform="translate(499 178) scale(1 1)"><g id="Face/Normal Face 2"><path id="Normal face 2" fill-rule="evenodd" clip-rule="evenodd" d="M78.6678 13.3124C77.5278 11.8974 76.0488 10.6384 74.3148 9.74741C72.5888 8.83741 70.6498 8.37241 68.7778 8.15441C66.8968 7.94241 65.0538 7.96141 63.2758 8.13341C61.4978 8.30741 59.7718 8.58841 58.0678 8.89041C57.8938 8.92241 57.7018 8.97341 57.5288 9.03641C55.9038 9.63541 55.0728 11.4394 55.6718 13.0644C56.2718 14.6894 58.0748 15.5204 59.6998 14.9214C61.1678 14.3794 62.6468 13.9194 64.1118 13.5884C65.5758 13.2594 67.0288 13.0184 68.4248 13.0444C71.2348 13.0974 73.6308 14.1784 75.9948 15.9984L76.0218 16.0194C76.7028 16.5434 77.6788 16.5554 78.3788 15.9914C79.1978 15.3314 79.3278 14.1314 78.6678 13.3124ZM26.5348 10.7451C27.8138 10.7087 29.0491 10.6735 30.2504 10.5639C31.9014 10.4139 33.3624 11.6309 33.5124 13.2829C33.6624 14.9339 32.4454 16.3949 30.7934 16.5439C30.7254 16.5509 30.6564 16.5549 30.5884 16.5559L30.5414 16.5569C28.6041 16.5948 26.7364 16.4748 24.9549 16.3603L24.9549 16.3603C23.4912 16.2662 22.0856 16.1758 20.7474 16.1799C19.2624 16.1819 17.8524 16.3239 16.4984 16.6889C15.1454 17.0589 13.8434 17.6039 12.4334 18.2039L12.3614 18.2339C11.4994 18.6019 10.5024 18.1999 10.1354 17.3379C9.86637 16.7059 10.0124 16.0009 10.4484 15.5249C11.6784 14.1879 13.2804 13.1399 15.0244 12.4399C16.7654 11.7229 18.6144 11.3109 20.3944 11.0869C21.9192 10.8953 23.3965 10.8464 24.8169 10.7993L24.8169 10.7993L24.817 10.7993C25.0574 10.7914 25.2962 10.7835 25.5334 10.7749C25.8702 10.764 26.2039 10.7545 26.5347 10.7451L26.5348 10.7451ZM66.0818 30.3932C65.6738 27.5712 67.4098 24.9832 69.9618 24.6142C72.5128 24.2452 74.9108 26.2342 75.3188 29.0562C75.7278 31.8792 73.9908 34.4662 71.4408 34.8352C68.8888 35.2042 66.4898 33.2152 66.0818 30.3932ZM48.6647 56.9164C48.2147 56.8144 47.8807 56.7204 47.3057 56.4744C46.5957 56.1714 46.2657 55.3504 46.5697 54.6404C46.7477 54.2224 47.1067 53.9364 47.5157 53.8334L48.0587 53.7004C48.2797 53.6464 48.7597 53.6634 49.1197 53.6824L49.2238 53.6894C49.5738 53.7128 49.8236 53.7295 50.1867 53.7304C50.9187 53.7374 51.6387 53.6824 52.3197 53.5634C53.6837 53.3234 54.8547 52.7604 55.4057 52.0114C55.6897 51.6364 55.8617 51.1994 55.9297 50.6594C56.0027 50.1344 55.9627 49.4604 55.8247 48.9954C55.5757 48.0634 54.8177 47.2804 53.6557 46.5034C53.0877 46.1224 52.4497 45.7684 51.7667 45.4554L51.5137 45.3344L51.3567 45.2604C51.2017 45.1854 51.0047 45.0564 50.9157 44.9784C50.8197 44.8964 50.7227 44.8044 50.6407 44.7134L50.4757 44.5034C50.1816 44.0661 50.0961 43.8105 50.0152 43.5686C49.9984 43.5184 49.9819 43.4689 49.9637 43.4184C49.7987 42.8724 49.7167 42.4184 49.6427 41.9674C49.3707 40.1914 49.2827 38.5434 49.1977 36.8714C49.0357 33.5424 49.0307 30.2574 49.1067 26.9454C49.1247 26.1664 49.7697 25.5494 50.5487 25.5674C51.2857 25.5844 51.8787 26.1634 51.9247 26.8864L51.9257 26.9054C52.1227 30.1454 52.3497 33.4104 52.6527 36.6194C52.8167 38.2124 53.0017 39.8344 53.3067 41.2864C53.3627 41.5454 53.4267 41.7874 53.4917 41.9994C54.2557 42.3124 55.0207 42.6744 55.7797 43.1254C56.5897 43.6244 57.4147 44.2214 58.1257 45.0504C58.8487 45.8574 59.4137 46.9404 59.6617 48.0494C59.9067 49.1754 59.9107 50.1734 59.7377 51.2644C59.5637 52.3424 59.0947 53.4764 58.3417 54.3734C57.5967 55.2774 56.6387 55.9174 55.6837 56.3264C54.7197 56.7354 53.7547 56.9374 52.8127 57.0494C51.8707 57.1544 50.9467 57.1614 50.0427 57.0944C49.6217 57.0664 49.0677 57.0134 48.6647 56.9164ZM61.1112 69.5312L61.0952 69.5392C57.2432 71.4512 52.7582 71.8822 48.5372 71.3392C46.4512 71.1012 44.4252 70.5622 42.5902 69.6642C41.6692 69.2282 40.7902 68.7112 39.9862 68.1162C39.5832 67.8202 39.1982 67.5062 38.8352 67.1812C38.7863 67.1346 38.7368 67.0883 38.6874 67.042C38.5609 66.9237 38.4351 66.806 38.3222 66.6852C38.1692 66.5362 37.9802 66.3152 37.9372 66.2582C37.8892 66.1932 37.8362 66.1272 37.7812 66.0672C36.8542 65.0412 35.2702 64.9612 34.2442 65.8882C33.2182 66.8152 33.1392 68.3982 34.0662 69.4242L34.0882 69.4482C34.4272 69.8242 34.6382 70.0202 34.9082 70.2632C35.1152 70.4549 35.3256 70.6276 35.536 70.8004C35.5857 70.8413 35.6355 70.8821 35.6852 70.9232C36.2112 71.3362 36.7482 71.7192 37.3002 72.0722C38.4032 72.7812 39.5662 73.3672 40.7642 73.8452C43.1542 74.8272 45.6972 75.3262 48.2112 75.4512C50.7132 75.5762 53.1742 75.2872 55.5922 74.7232C58.0002 74.1412 60.3322 73.1982 62.4272 71.8642C62.9962 71.4992 63.2152 70.7542 62.9092 70.1362C62.5792 69.4722 61.7742 69.2012 61.1112 69.5312ZM16.7508 30.7827C17.1588 27.9607 19.5578 25.9717 22.1088 26.3407C24.6598 26.7097 26.3968 29.2967 25.9888 32.1187C25.5808 34.9417 23.1818 36.9297 20.6298 36.5617C18.0798 36.1927 16.3428 33.6047 16.7508 30.7827Z" fill="#141414"/></g></g><g id="Accessories" transform="translate(491 176) scale(103 60)"><g id="Accessories/None" stroke="none" stroke-width="1" fill="none" fill-rule="evenodd" fill-opacity="0"/></g><g id="Facial Hair" transform="translate(501 234) scale(90 60)"><g id="Facial Hair/None" stroke="none" stroke-width="1" fill="none" fill-rule="evenodd" fill-opacity="0"/></g></g></g><g id="Master/Character/Sitting on Floor" transform="translate(1131.63 270) scale(1 1)"><g id="Master/Character/Sitting on Floor"><g id="Upper Body" transform="translate(190 768) scale(1 1)"><g id="Upper Body/Arms Up"><g id="Hand 2"><path id="Fill 1" fill-rule="evenodd" clip-rule="evenodd" d="M560.16 -34.3514C569.879 -49.9984 562.375 -53.7434 556.969 -50.4444C556.969 -50.4444 566.331 -61.9514 561.719 -66.9354C558.838 -70.0484 555.813 -69.6134 548.12 -62.5704C548.12 -62.5704 556.886 -75.4724 551.883 -80.4344C547.24 -85.0394 540.852 -76.4744 535.236 -69.9134C535.236 -69.9134 540.405 -85.9924 531.602 -86.7024C522.891 -87.4054 510.396 -61.8114 505.147 -51.2544C506.926 -64.1174 499.355 -76.1754 495.147 -70.5944C489.947 -63.6954 468.963 3.18864 437.212 60.5956C396.851 126.217 346.852 120.953 346.852 120.953L373.702 209.871C373.702 209.871 381.576 214.172 412.329 196.995C468.061 165.865 500.494 101.519 514.878 65.9216C516.216 65.1286 517.027 64.3456 517.205 63.6106C518.436 58.5506 519.82 53.5846 521.313 48.7216C522.808 44.3496 523.623 41.6176 523.801 41.0126C535.176 7.40964 551.348 -20.1654 560.16 -34.3514" fill="white"/><path id="Fill 3" fill-rule="evenodd" clip-rule="evenodd" d="M561.733 -56.5878C564.333 -60.9308 567.002 -67.3568 563.278 -71.3798C560.525 -74.3538 557.629 -74.5488 554.245 -72.8438C559.472 -86.4268 547.651 -91.9818 538.813 -80.3328C539.313 -85.4618 537.627 -91.4528 531.772 -91.8218C524.122 -92.4418 515.539 -79.0878 507.174 -62.9748C505.749 -71.7408 500.2 -81.5888 493.446 -74.8748C480.571 -45.5298 462.797 6.21723 439.05 49.9612C438.862 50.3002 438.006 52.0812 437.757 52.5072C418.669 85.1312 397.318 100.63 381.765 107.967C372.61 112.285 364.492 114.29 358.414 115.201L359.616 119.343C365.894 118.354 374.058 116.269 383.3 111.945C416.556 96.3862 437.805 63.8802 450.013 38.4722C450.382 37.7042 451.979 33.8002 452.324 33.0912C471.261 -5.78978 486.289 -47.1228 496.844 -72.3148C499.937 -74.6498 504.407 -63.1968 503.039 -54.5458C502.84 -52.2018 502.903 -49.9688 503.541 -47.6758C503.92 -45.5038 505.998 -43.9738 507.608 -42.4938C513.66 -36.9308 511.499 -26.8318 511.363 -26.2398C511.221 -25.6188 511.204 -25.2128 510.98 -24.7538C510.345 -23.5138 512.07 -22.5678 512.773 -23.7338C517.199 -31.3578 513.586 -41.2838 508.298 -47.5128C507.367 -49.2928 507.083 -52.0698 507.43 -54.0728C511.617 -62.5018 524.358 -88.1528 531.43 -87.5838C536.702 -86.6248 534.262 -77.9878 533.28 -73.7968L522.773 -56.9388C522.298 -56.1778 522.531 -55.1758 523.292 -54.7008C524.029 -54.2418 524.994 -54.4488 525.485 -55.1528C525.485 -55.1528 536.92 -71.6128 536.92 -71.6138C540.771 -75.5378 546.403 -84.8018 550.384 -81.9238C554.941 -74.6368 538.525 -56.2928 535.145 -49.4528C533.974 -47.7028 536.689 -45.8518 537.89 -47.5848L549.714 -64.1478C557.559 -71.2918 558.88 -69.8698 560.156 -68.4908C562.686 -65.7578 557.988 -58.0768 555.317 -54.7848C555.31 -54.7698 546.123 -43.1988 546.113 -43.1838C544.912 -41.7128 547.138 -39.7918 548.419 -41.1948L558.284 -51.7418C564.496 -54.4588 564.123 -47.9888 558.353 -38.4718C552.561 -32.2918 526.519 20.9002 519.732 43.8992C519.258 45.5052 516.831 51.9482 516.279 53.4242C512.062 64.6952 505.36 80.8202 495.94 98.3802C466.515 153.228 433.666 179.64 411.29 192.138C398.552 199.252 389.893 202.569 384.199 204.063L385.389 208.164C392.85 206.194 402.233 202.068 413.364 195.85C454.829 172.69 483.218 131.11 499.733 100.306C508.721 83.5422 515.262 68.0612 519.557 56.7782C519.847 56.0162 525.613 39.3732 525.821 38.6732C534.059 14.3192 546.172 -10.8048 561.965 -36.2298C569.682 -49.3988 567.928 -54.7358 561.733 -56.5878" fill="#141414"/></g><g id="Hand 1"><path id="Fill 5" fill-rule="evenodd" clip-rule="evenodd" d="M176.791 125.019C136.04 117.495 99.604 92.851 75.992 36.836L75.763 36.79C54.144 -19.269 42.144 -77.296 38.068 -84.064C34.462 -90.052 25.681 -78.844 26.116 -65.866C21.991 -76.911 12.218 -103.663 3.48 -103.867C-5.349 -104.073 -1.875 -87.545 -1.875 -87.545C-6.78 -94.653 -12.245 -103.835 -17.341 -99.736C-22.832 -95.319 -15.451 -81.578 -15.451 -81.578C-22.372 -89.38 -25.335 -90.127 -28.523 -87.33C-33.628 -82.851 -25.51 -70.436 -25.51 -70.436C-30.545 -74.277 -38.397 -71.331 -30.353 -54.76C-21.48 -36.484 -3.822 2.62401 2.21 47.129C2.333 48.038 3.365 49.113 5.148 50.267C34.348 150.81 98.315 192.986 150.49 214.09L176.791 125.019Z" fill="white"/><path id="Fill 7" fill-rule="evenodd" clip-rule="evenodd" d="M151.108 208.999C91.6087 184.818 23.4397 136.241 0.376747 20.361C0.273747 19.842 -0.442254 17.463 -0.711254 16.303C-7.99725 -10.578 -24.0603 -52.915 -28.4403 -58.688C-33.1933 -68.751 -32.8923 -75.225 -26.9963 -71.878L-18.2783 -60.366C-17.1493 -58.836 -14.7363 -60.517 -15.7783 -62.104C-15.7873 -62.12 -23.7243 -74.581 -23.7293 -74.598C-26.0453 -78.149 -29.9203 -86.275 -27.1213 -88.731C-25.7093 -89.971 -24.2473 -91.248 -17.1863 -83.328L-7.14325 -65.629C-6.12825 -63.78 -3.23625 -65.34 -4.21925 -67.202C-6.87225 -74.356 -21.2963 -94.304 -16.0093 -101.079C-11.7513 -103.528 -7.10925 -93.73 -3.68525 -89.427C-3.68625 -89.427 5.97975 -71.869 5.97975 -71.869C6.39475 -71.118 7.33375 -70.812 8.11375 -71.192C8.92075 -71.585 9.25475 -72.558 8.86275 -73.364L0.159744 -91.222C-0.382256 -95.492 -1.91226 -104.335 3.42974 -104.741C10.5237 -104.575 20.5357 -77.74 23.8257 -68.922C23.9627 -66.895 23.3917 -64.162 22.2807 -62.488C16.3757 -56.841 11.7537 -47.343 15.3647 -39.301C15.9427 -38.069 17.9287 -38.88 17.4257 -40.18C17.2497 -40.66 16.9317 -41.151 17.0267 -41.647C17.1407 -42.244 15.8517 -52.519 22.4477 -57.425C24.2017 -58.73 26.4267 -60.035 27.0297 -62.157C27.9017 -64.371 28.1967 -66.585 28.2417 -68.938C27.7777 -77.684 33.4127 -88.611 36.2467 -85.968C45.4447 -55.459 57.3767 -5.43395 76.3017 40.582C76.5527 41.241 77.9517 43.903 78.5467 45.05C92.9197 74.812 112.312 96.373 136.219 109.821C148.371 116.656 161.62 121.387 176.179 124.093L177.395 119.975C131.678 111.674 98.9058 83.1561 77.8857 33.2941C77.7587 32.9911 77.6137 32.719 77.3997 32.25C60.4748 -11.373 48.9737 -59.764 39.8917 -88.161C33.8697 -95.541 27.3297 -86.321 25.0037 -77.75C18.3547 -94.643 11.2037 -108.816 3.52975 -108.993C-2.33125 -109.232 -4.62925 -103.449 -4.66525 -98.296C-12.2473 -110.798 -24.5803 -106.5 -20.7903 -92.448C-23.9793 -94.495 -26.8803 -94.601 -29.9263 -91.929C-34.0473 -88.313 -32.0593 -81.646 -29.9243 -77.056C-36.2773 -75.857 -38.5763 -70.73 -32.2663 -56.832C-17.6333 -26.688 -9.35826 -2.04895 -2.31326 28.007C-1.77726 30.294 -0.366254 34.808 0.482746 38.29C14.3647 95.311 40.2897 136.812 76.8137 168.975C100.965 190.243 127.096 203.902 149.89 213.125L151.108 208.999Z" fill="#141414"/></g><path id="T Shirt" fill-rule="evenodd" clip-rule="evenodd" d="M367.246 196.113C366.982 194.969 367.696 193.827 368.841 193.563C369.984 193.298 371.127 194.014 371.391 195.158L377.628 222.234C414.481 213.224 421.061 197.817 421.061 197.817C421.061 197.817 414.999 149 389.999 102C323.999 108 305.999 99 295.999 99C275.999 92 236.998 94.1729 214.999 101C185.999 110 181.999 112 148.454 107.957C144.47 124.509 123.116 167.285 103.371 201.207C116.999 210 129.392 214.23 154.296 220.934L155.688 199.963C155.766 198.792 156.784 197.918 157.951 197.982C159.122 198.06 160.01 199.073 159.932 200.245L158.134 227.348C158.131 227.388 158.12 227.424 158.115 227.463C156.184 304.653 153.657 394.247 153.657 394.247L409.687 390.247C409.687 390.247 382.587 277.174 374.114 225.91C374.111 225.897 374.105 225.886 374.102 225.873L367.246 196.113Z" fill="#02bad3"/><g id="neck"><path id="Fill 30" fill-rule="evenodd" clip-rule="evenodd" d="M238.539 70.6416L234.773 105.805C234.773 105.805 242.2 121.902 264.984 123.005C295.722 124.492 289.289 105.447 289.289 105.447L288.434 73.6896" fill="white"/><path id="Fill 32" fill-rule="evenodd" clip-rule="evenodd" d="M264.888 125.002C241.166 123.854 233.282 107.345 232.958 106.643C232.807 106.315 232.747 105.951 232.785 105.592L236.552 70.4284C236.669 69.3304 237.661 68.5354 238.753 68.6524C239.851 68.7704 240.647 69.7564 240.529 70.8544L236.826 105.428C238.215 108.003 245.735 120.07 265.082 121.006C275.333 121.499 284.198 119.67 286.937 115.708C289.747 111.644 287.482 106.302 287.459 106.249C287.357 106.014 287.298 105.755 287.291 105.5L286.436 73.7444C286.406 72.6404 287.277 71.7204 288.382 71.6914C289.477 71.6494 290.405 72.5324 290.435 73.6364L291.28 105.034C291.892 106.647 293.818 112.747 290.252 117.947C286.999 122.69 278.281 125.086 268.26 125.086C267.175 125.086 266.051 125.058 264.888 125.002Z" fill="#141414"/></g></g></g><g id="Lower Body Floor" transform="translate(182 1025) scale(1 1)"><g id="Lower Body Floor/Legs Crossed"><g id="Shoe 1"><path id="Fill 1" fill-rule="evenodd" clip-rule="evenodd" d="M350.201 237C350.201 237 297.529 267.81 300.09 297.259C302.651 326.708 325.538 326.068 336.101 325.588C362.348 324.395 390.999 301.461 390.999 301.461L350.201 237Z" fill="#02bad3"/><path id="Fill 5" fill-rule="evenodd" clip-rule="evenodd" d="M351.191 302.189C350.739 302.189 350.284 302.037 349.91 301.724C336.551 290.57 332.472 276.668 332.305 276.081C332.002 275.019 332.618 273.912 333.68 273.609C334.74 273.308 335.847 273.92 336.151 274.982C336.189 275.114 340.1 288.322 352.474 298.654C353.322 299.362 353.435 300.623 352.727 301.471C352.332 301.945 351.763 302.189 351.191 302.189" fill="#141414"/></g><g id="Leg 1"><path id="Fill 7" fill-rule="evenodd" clip-rule="evenodd" d="M302 108.389C302 108.389 387.625 68.4751 493.526 53.9131C595.957 39.8291 611.633 106.481 586.994 156.344C533.219 265.177 393.587 313.862 393.587 313.862C317.928 275.635 343.287 184.769 302 108.389" fill="#141414"/><path id="Fill 9" fill-rule="evenodd" clip-rule="evenodd" d="M389.116 193.392C388.5 193.392 387.891 193.108 387.5 192.573C386.847 191.681 387.042 190.43 387.933 189.778C388.627 189.271 457.477 138.625 478.089 98.855C478.596 97.875 479.803 97.491 480.784 98C481.765 98.508 482.148 99.715 481.639 100.696C472.789 117.775 454.714 138.51 427.916 162.325C408.021 180.006 390.47 192.878 390.295 193.006C389.938 193.267 389.525 193.392 389.116 193.392" fill="white"/></g><g id="Shoe 2"><path id="Fill 11" fill-rule="evenodd" clip-rule="evenodd" d="M504.78 261.366C504.78 261.366 490.304 271.214 505.081 287.253C512.228 295.012 598.434 329.295 626.118 311.794C638.906 303.71 641.816 294.626 643.154 290.751C628.63 286.326 504.78 261.366 504.78 261.366" fill="#141414"/><path id="Fill 13" fill-rule="evenodd" clip-rule="evenodd" d="M534.438 208.058C551.733 206.951 584.239 221.851 624.391 242.115C664.663 262.438 648.827 305.537 612.106 308.026C590.386 309.498 536.049 296.971 511.193 281.909C491.912 270.225 498.241 247.43 502.523 238.443C508.846 225.174 522.535 208.82 534.438 208.058" fill="#02bad3"/><path id="Fill 16" fill-rule="evenodd" clip-rule="evenodd" d="M576.784 276.269C576.761 276.268 576.735 276.267 576.71 276.264C575.663 276.181 574.882 275.264 574.966 274.216C576.508 254.85 586.533 242.175 586.958 241.645C587.616 240.828 588.811 240.696 589.634 241.354C590.452 242.012 590.582 243.208 589.926 244.028C589.829 244.148 580.203 256.369 578.758 274.519C578.677 275.541 577.801 276.31 576.784 276.269" fill="#141414"/><path id="Fill 18" fill-rule="evenodd" clip-rule="evenodd" d="M596.324 279.879C596.3 279.878 596.274 279.877 596.25 279.874C595.203 279.791 594.421 278.874 594.505 277.826C595.648 263.461 603.099 254.04 603.416 253.647C604.074 252.828 605.27 252.697 606.091 253.356C606.909 254.014 607.04 255.209 606.384 256.027C606.313 256.116 599.345 264.98 598.297 278.129C598.216 279.151 597.34 279.92 596.324 279.879" fill="#141414"/><path id="SKIN" fill-rule="evenodd" clip-rule="evenodd" d="M513.568 191.311C513.568 191.311 560.968 223.98 563.819 232.374C569.794 249.965 560.353 264.504 548.638 269.291C526.91 278.17 477.944 247.689 477.944 247.689" fill="white"/><path id="Fill 22" fill-rule="evenodd" clip-rule="evenodd" d="M542.146 272.779C518.016 274.776 478.723 250.529 476.887 249.386C475.949 248.802 475.663 247.568 476.246 246.631C476.83 245.695 478.064 245.408 479.001 245.99C479.123 246.066 491.326 253.628 505.983 260.004C525.026 268.287 539.515 270.856 547.882 267.439C558.837 262.964 567.482 249.378 561.925 233.017C560.003 227.359 530.548 205.443 512.433 192.957C511.524 192.33 511.294 191.085 511.921 190.175C512.547 189.265 513.792 189.036 514.703 189.664C514.823 189.746 526.729 197.962 538.83 207.098C561.152 223.952 564.862 229.228 565.712 231.73C572.056 250.407 562.04 265.975 549.395 271.141C547.203 272.038 544.761 272.563 542.146 272.779" fill="#141414"/></g><g id="Leg 2"><path id="Fill 24" fill-rule="evenodd" clip-rule="evenodd" d="M158.43 153.617C166.483 -15.4981 323.957 63.2599 354.919 79.1729C455.59 130.916 557.875 194.139 557.875 194.139C560.758 246.803 501.836 294.03 465.935 299.277L341.297 236.679C341.297 236.679 309.643 282.211 252.84 279.801C178.376 276.641 154.384 238.585 158.43 153.617" fill="#0B379B"/><path id="Fill 27" fill-rule="evenodd" clip-rule="evenodd" d="M341.402 236.758C335.16 233.463 293.082 211.039 272.055 194.455C271.187 193.771 269.929 193.919 269.246 194.787C268.562 195.654 268.711 196.912 269.578 197.596C290.212 213.87 330.628 235.575 338.852 239.935C339.781 238.88 340.734 237.733 341.402 236.758" fill="white"/></g></g></g><g id="Head" transform="translate(357 673) scale(1 1)"><g id="Head/Bun 2"><g id="Bun"><path id="SKIN" fill-rule="evenodd" clip-rule="evenodd" d="M153.098 100.182C152.428 52.1032 104.201 48.2322 81.5081 53.4332C62.8601 57.7062 42.5261 73.7802 44.6581 105.087C33.4581 104.093 27.5781 109.407 27.5781 116.953C27.5781 124.501 29.3891 131.801 43.2601 131.801C44.6041 154.796 59.3371 196.248 116.798 188.86C146.108 185.092 153.645 139.452 153.098 100.182" fill="white"/><path id="ink" fill-rule="evenodd" clip-rule="evenodd" d="M116.544 186.876C129.024 185.273 138.343 175.292 144.243 157.214C150.306 138.635 151.318 115.96 151.098 100.21C150.884 84.7595 145.601 72.8625 135.399 64.8495C125.95 57.4275 112.95 54.1795 100.768 53.7405C97.6297 84.9105 60.0057 108.076 44.4817 107.134C43.2357 107.159 42.0407 107.099 40.8717 107.003C37.2827 107.181 34.3967 108.187 32.4267 109.989C30.5627 111.695 29.5777 114.104 29.5777 116.953C29.5777 123.454 30.6347 129.8 43.2597 129.8C44.3187 129.8 45.1947 130.626 45.2567 131.684C45.6427 138.29 48.2617 160.971 65.7537 175.475C78.1787 185.775 95.2657 189.613 116.544 186.876ZM131.895 16.5335C168.25 28.3885 168.042 55.9635 160.029 85.5685C158.706 90.458 160.153 96.4127 161.764 103.042C165.046 116.549 169.008 132.858 151.617 148.669C151.23 149.02 150.83 149.402 150.418 149.807C145.553 170.206 135.889 188.422 117.054 190.844C112.44 191.437 108.009 191.734 103.764 191.734C87.3787 191.734 73.7737 187.32 63.2007 178.553C61.0257 176.751 59.0667 174.833 57.3017 172.839C47.8887 169.69 39.6607 163.783 34.0297 153.395C30.1807 146.294 26.9897 144.663 23.9767 143.268C19.881 146.607 18.5369 152.538 17.0677 159.02C14.9941 168.17 12.6714 178.419 2.00974 184.031C-4.26526 187.333 -22.6343 188.749 -24.2073 170.251C-31.9083 176.098 -40.5073 173.593 -48.0273 167.514C-55.5473 161.434 -58.1713 150.035 -54.0663 141.279C-49.9613 132.524 -39.5203 127.251 -30.0373 129.143C-34.2023 123.052 -32.4383 114.017 -26.9053 109.135C-21.3733 104.255 -12.9773 103.383 -6.07826 106C-4.70259 106.522 -3.16978 107.029 -1.56988 107.559C2.79756 109.004 7.66497 110.614 11.2007 113.138C11.9783 108.426 13.4852 103.852 14.9483 99.4102C16.7253 94.0157 18.4379 88.8167 18.7017 83.8035C18.7537 82.8195 18.8877 81.8805 19.0567 80.9595C19.7197 69.9445 21.0217 52.1965 32.4397 37.0465C48.6007 15.6015 76.4497 19.3555 89.9367 23.6825C103.67 11.5465 113.796 10.6315 131.895 16.5335ZM37.919 117.9C37.076 116.213 38.604 114.345 39.605 114.246C44.484 113.763 43.334 117.554 41.231 118.83C40.099 119.517 38.214 118.49 37.919 117.9Z" fill="#141414"/><path id="band" fill-rule="evenodd" clip-rule="evenodd" d="M24.5958 143.443C17.7288 141.539 13.2718 134.119 11.5858 126.414C9.82181 120.707 10.7428 115.256 11.7388 110.651C-4.34619 101.569 0.702807 134.019 4.92881 140.969C7.57181 151.553 26.7218 159.61 24.5958 143.443" fill="#FF4B33"/></g></g></g><g id="Face" transform="translate(417 759) scale(1 1)"><g id="Face/Happy"><path id="Happy" fill-rule="evenodd" clip-rule="evenodd" d="M28.2306 19.1149C27.9276 19.0909 27.4006 19.0529 26.9546 19.0459C26.6004 19.0306 26.2392 19.0399 25.8777 19.0491C25.7656 19.0519 25.6535 19.0548 25.5416 19.0569C24.5906 19.1039 23.6326 19.1709 22.6836 19.3199C20.7916 19.6309 18.8906 20.0459 17.0996 20.7939C15.3156 21.5319 13.5216 22.3529 11.9156 23.5119C10.3495 24.4885 8.95584 25.7236 7.53129 26.986L7.2006 27.2789L7.1066 27.3619C6.5836 27.8259 5.7816 27.7769 5.3176 27.2529C4.9206 26.8039 4.8996 26.1509 5.2316 25.6809C5.35826 25.502 5.48428 25.3217 5.61063 25.141C6.12273 24.4085 6.64007 23.6685 7.2256 22.9819C7.40976 22.7841 7.59172 22.5831 7.77402 22.3817L7.77412 22.3816C8.35009 21.7454 8.92952 21.1054 9.5926 20.5479C11.2736 19.0099 13.2106 17.7219 15.2756 16.6899C17.3466 15.6659 19.5596 14.8869 21.8466 14.4659C22.9886 14.2479 24.1466 14.0949 25.3156 14.0269C25.4029 14.0245 25.4902 14.022 25.5774 14.0194C26.0776 14.0048 26.5774 13.9902 27.0866 14.0089C27.7016 14.0179 28.2356 14.0559 28.9866 14.1589C30.3556 14.3469 31.3126 15.6099 31.1246 16.9779C30.9436 18.2969 29.7666 19.2339 28.4566 19.1329L28.2306 19.1149ZM75.1516 34.2331L75.1518 34.2333C75.311 34.3531 75.4613 34.4662 75.5939 34.5578L75.9109 34.7778C76.3449 35.0758 76.9209 35.1428 77.4319 34.9038C78.1989 34.5438 78.5299 33.6308 78.1699 32.8638C77.7989 32.0708 77.4159 31.5258 76.9419 30.9228C76.4709 30.3458 75.9229 29.8268 75.3219 29.3548C74.1049 28.4208 72.6519 27.7598 71.0739 27.4608C69.4989 27.1608 67.7849 27.2648 66.2629 27.8108C64.7239 28.3298 63.4249 29.2648 62.3939 30.3228C61.7669 30.9658 61.6329 31.9778 62.1289 32.7748C62.7129 33.7128 63.9459 33.9988 64.8839 33.4148L64.9939 33.3468C65.8869 32.7908 66.7609 32.3488 67.6369 32.1258C68.5109 31.8798 69.3859 31.8518 70.2919 31.9678C71.1909 32.1238 72.1249 32.4158 73.0069 32.8758C73.4559 33.0988 73.9009 33.3648 74.3399 33.6578C74.6089 33.8245 74.892 34.0377 75.1516 34.2331ZM15.3559 33.1489C14.7779 33.8689 14.2989 34.5439 13.8429 35.4509C13.5609 36.0129 13.6899 36.7149 14.1939 37.1339C14.7799 37.6229 15.6529 37.5439 16.1409 36.9569L16.2449 36.8319C16.6249 36.3769 17.1549 35.8029 17.6759 35.3659C18.2069 34.9119 18.7589 34.4969 19.3429 34.1719C20.5099 33.5159 21.7289 33.1369 22.9569 33.1219C23.2679 33.1219 23.5629 33.1339 23.8859 33.1719C24.0074 33.1897 24.1309 33.2013 24.2541 33.2129C24.4637 33.2326 24.6724 33.2522 24.8689 33.3019C25.5169 33.3989 26.1039 33.6059 26.6549 33.8319C27.2089 34.0499 27.6909 34.3549 28.1089 34.6979L28.1793 34.7601C28.3569 34.9166 28.5327 35.0714 28.6749 35.2419C28.7544 35.3279 28.821 35.4172 28.8844 35.5021L28.8999 35.5229L28.9889 35.6479C28.9955 35.6549 29.0061 35.6721 29.0147 35.686C29.0293 35.7099 29.038 35.724 29.0109 35.6609C29.5219 36.8059 30.8639 37.3199 32.0099 36.8089C33.1549 36.2979 33.6679 34.9559 33.1569 33.8109C33.0454 33.569 32.9922 33.4763 32.9243 33.3582L32.9243 33.3582L32.8909 33.2999C32.8277 33.1864 32.7665 33.0933 32.7026 32.9962L32.7026 32.9961L32.6807 32.9629L32.6539 32.9219C32.4899 32.6889 32.3219 32.4649 32.1429 32.2599C31.7879 31.8419 31.4029 31.4719 30.9899 31.1399C30.1599 30.4899 29.2469 29.9779 28.3059 29.6319C27.3619 29.3069 26.4009 29.0749 25.4599 28.9929C25.1383 28.9442 24.8236 28.9348 24.5093 28.9255C24.3593 28.9211 24.2094 28.9166 24.0589 28.9079C23.5839 28.9009 23.0799 28.9419 22.5939 29.0009C20.6349 29.2639 18.7769 30.0669 17.3229 31.2359C16.5879 31.8099 15.9319 32.4529 15.3559 33.1489ZM62.3409 14.7222C61.7589 14.8522 61.2579 14.9932 60.5749 15.2282C59.3989 15.6382 58.7229 16.9002 59.0639 18.1152C59.4179 19.3782 60.7289 20.1162 61.9929 19.7612L62.1749 19.7102C62.4729 19.6262 62.9709 19.5002 63.3969 19.4102C63.8399 19.3092 64.2949 19.2352 64.7519 19.1652L66.1299 18.9912L67.5179 18.9022C69.3719 18.8482 71.2289 18.9972 73.0269 19.4162C74.8229 19.8362 76.5779 20.4692 78.2249 21.3712C79.7834 22.1207 81.1811 23.1734 82.6181 24.2557L82.6202 24.2573C82.7527 24.3571 82.8856 24.4571 83.0189 24.5572L83.1219 24.6352C83.6039 24.9972 84.2849 25.0072 84.7829 24.6202C85.3809 24.1562 85.4889 23.2962 85.0239 22.6992C84.6889 22.2682 84.3369 21.8462 83.9819 21.4242C83.8828 21.3106 83.7865 21.1938 83.6901 21.0769L83.6897 21.0764C83.4332 20.7652 83.1758 20.453 82.8619 20.1972C82.693 20.0451 82.5254 19.8905 82.3574 19.7354C81.7047 19.133 81.046 18.5252 80.2849 18.0432C78.4679 16.6972 76.3519 15.7482 74.1699 15.1012C71.9859 14.4432 69.6999 14.0942 67.4269 14.1352C66.2909 14.1592 65.1539 14.2112 64.0279 14.3992C63.4659 14.4912 62.9029 14.5892 62.3409 14.7222ZM49.8507 33.5661C49.9857 35.7441 50.2307 37.9171 50.7947 39.7871C50.9457 40.2411 51.1127 40.6851 51.3017 41.0401C51.4857 41.3961 51.7177 41.6741 51.8387 41.7411C52.0857 41.9211 52.5727 42.2431 53.0317 42.5291C53.5057 42.8291 54.0127 43.1521 54.5267 43.5211C55.5277 44.2751 56.6517 45.2241 57.3767 46.7691C57.6997 47.5551 57.9277 48.3791 57.8467 49.4021C57.7707 50.4071 57.2947 51.3651 56.7367 51.9991C55.6067 53.2931 54.3797 53.8321 53.2447 54.3281C52.0907 54.7841 50.9707 55.1141 49.8537 55.3671C49.0097 55.5591 48.1707 55.0301 47.9797 54.1861C47.8167 53.4661 48.1767 52.7511 48.8097 52.4371L48.8177 52.4331C49.1421 52.272 49.4659 52.1169 49.7854 51.9638L49.7855 51.9638C50.4477 51.6465 51.0914 51.338 51.6837 51.0041C52.5557 50.5381 53.3537 49.9641 53.6657 49.5191C53.8213 49.2918 53.8326 49.1817 53.8446 49.0661L53.8447 49.0651C53.8567 48.9661 53.7887 48.6711 53.6807 48.4311C53.4677 47.9181 52.8827 47.2931 52.1167 46.6951C51.7357 46.3871 51.3147 46.0811 50.8587 45.7541C50.7412 45.6669 50.624 45.5836 50.5047 45.499C50.1511 45.2479 49.7799 44.9844 49.3327 44.5671C48.6197 43.8781 48.2727 43.1671 47.9977 42.5051C47.7217 41.8371 47.5877 41.1951 47.4717 40.5621C47.0527 38.0461 47.2987 35.6771 47.7847 33.3941C47.9047 32.8291 48.4597 32.4691 49.0237 32.5891C49.4937 32.6891 49.8217 33.0891 49.8497 33.5451L49.8507 33.5661ZM34.3663 68.3769C39.5273 71.3069 60.7703 70.7559 67.5133 66.4909C68.1083 64.4579 67.3563 63.5219 67.3563 63.5219C67.3563 63.5219 47.4373 66.4319 34.3803 64.8919C34.3803 64.8919 33.9463 67.5379 34.3663 68.3769ZM68.0263 60.2979C69.4483 60.0149 70.7503 60.5149 71.5093 61.6299C74.5893 68.6889 64.8293 80.1889 50.8123 80.1239C41.4983 80.6109 30.2033 74.9489 29.7223 68.5269C29.2853 65.7529 31.7743 61.0039 35.6163 61.7009C38.3533 62.1969 44.8963 62.3799 51.2903 62.1519C59.6542 61.8579 67.6242 60.3728 68.0121 60.3005C68.02 60.2991 68.0247 60.2982 68.0263 60.2979Z" fill="#141414"/></g></g><g id="Accessories" transform="translate(409 757) scale(103 60)"><g id="Accessories/None" stroke="none" stroke-width="1" fill="none" fill-rule="evenodd" fill-opacity="0"/></g><g id="Facial Hair" transform="translate(419 815) scale(90 60)"><g id="Facial Hair/None" stroke="none" stroke-width="1" fill="none" fill-rule="evenodd" fill-opacity="0"/></g></g></g></g></svg>