<svg width="2209" height="1411" fill="none" xmlns="http://www.w3.org/2000/svg">
  <path fill-rule="evenodd" clip-rule="evenodd" d="M654 325c-7 17-8 39 4 69a276 276 0 0 0 87 106c15 13 30 26 41 39 12 14 20 29 22 47 0 11-2 24-6 38l-9 28-6 18c-10 33-19 69-14 107a128 128 0 0 0 50 90l1 1c10 9 21 19 29 31 8 13 12 29 12 50-2 35-22 58-44 81l-4 4c-22 22-44 45-56 80-17 46-8 90 5 123a243 243 0 0 0 28 52h381l2-3a317 317 0 0 0 39-65c19-43 36-100 25-159-10-55-39-88-68-113l-20-17-2-2-20-17a91 91 0 0 1-27-37c-12-36-5-72 3-109l1-6c7-35 15-70 10-107-9-62-44-96-83-121a636 636 0 0 0-57-33c-18-10-35-21-45-35-10-12-17-26-24-40a1099 1099 0 0 1-20-46c-15-30-36-61-75-86-31-19-82-22-119-6-19 8-33 20-41 38Zm524 969 4 3h1v-1a310 310 0 0 0 43-70c20-44 37-103 26-166-11-58-42-93-72-120l-20-17-2-1c-7-6-14-11-19-17a81 81 0 0 1-24-32c-11-33-5-67 3-103l1-7c7-35 15-71 9-110-9-67-47-103-87-129l-40-23-18-10c-18-11-32-21-42-33-8-11-15-24-22-38l-6-16-14-29c-16-32-37-65-79-91-35-21-89-25-130-7-20 9-37 23-46 43-9 21-9 47 3 78 19 48 57 81 89 109l1 1c16 14 30 26 41 39s17 25 19 39c0 10-2 21-6 35a711 711 0 0 1-14 46c-11 33-20 71-15 112a138 138 0 0 0 54 96c11 10 20 19 27 30s11 25 11 44c-2 30-19 50-41 73l-4 5c-21 21-45 46-59 83-17 49-8 96 6 131a254 254 0 0 0 31 56l5-3-5 3 2 3h392l1-3-4-3Z" fill="#fff"/>
  <path fill-rule="evenodd" clip-rule="evenodd" d="M353 690c-77-16-220-4-242 20-24 26 37 171 67 183 44 0 118-9 106 15s-50 53-50 68c0 14 26 109 59 114 32 6 112-20 114 0 3 21-41 48-44 71-3 24 42 88 230 144h162s29-203-41-288c-56 21-80 23-80 23s6-114-15-164c-20-50-48-94-84-94-28 0-86 52-98 32-12-21 15-105-84-124Z" fill="#fff"/>
  <path fill-rule="evenodd" clip-rule="evenodd" d="M289 228c-34 4-65 257 48 286 41 11 110 32 73 73-19 22-96 45-115 88-15 32 23 131 79 157 64 29 124 16 130 56 5 39-88 64-94 118-4 38 59 176 266 293 122 0 224-2 224-2s98-155 123-338-13-247-82-256c-36-5-106 48-141 38-30-9 8-107 8-177s-18-133-48-148c-23-12-94 41-117 51-24 11-69 22-78-1-11-30 28-106-1-149-36-55-198-98-275-89Z" fill="#D3E2F2"/>
  <path d="M338 303v5l2 1 2 3 1 1 13 15 1 1c15 16 31 36 49 58l1 1c52 65 103 138 152 218 60 101 111 205 148 313 45 126 70 253 72 378a3 3 0 1 0 7 0c-2-126-27-253-72-381-38-108-89-213-149-314-48-79-99-152-151-216l-1-2-49-58-2-2-11-13-3-2-2-3-3-3h-5Z" fill="#fff"/>
  <path fill-rule="evenodd" clip-rule="evenodd" d="M1510 709c-44-8-124-2-136 11-14 15 21 97 37 104 25 0 66-5 60 8-7 13-28 30-28 38s15 61 33 65c18 3 63-12 64 0 2 11-23 26-24 39-2 14 23 50 129 81h91s16-114-23-162c-32 12-45 13-45 13s3-64-8-92c-12-28-28-53-48-53-15 0-48 30-55 18s8-59-47-70Z" fill="#fff"/>
  <path fill-rule="evenodd" clip-rule="evenodd" d="M1555 744c-5-19-18-32-44-37-44-8-125-2-138 12-6 8-3 29 7 55v2c10 25 23 46 31 50h1l11-1h39v1c7 1 9 2 8 5l-8 12-5 5-4 4-2 2-4 6c-4 4-5 7-5 10 0 5 4 22 10 35v1c7 17 15 29 24 31 7 1 14 0 30-2l4-1 20-2h1c5 0 8 1 8 3 1 4-2 8-11 18l-1 1-4 5-1 1c-4 5-7 10-7 14-2 9 7 22 23 35l2 1a335 335 0 0 0 106 47h91l2-1v-5l1-9v-2c3-25 3-52 0-76-3-31-11-56-25-72l-2-1-33 11h-1l-7 2h-1v-5l-1-45c-1-18-4-32-8-41-14-34-30-54-49-54-6 0-12 3-24 9l-6 4-14 6-1 1c-4 1-7 1-8-1s-2-5-2-11v-3l-3-19v-1Zm-171 30c-10-25-13-46-8-52l1-1c13-12 91-18 134-10 23 5 35 16 40 34l3 18v4c0 7 1 10 2 13 3 4 7 5 13 3l1-1 16-7 3-2 3-2c11-6 16-8 21-8 17 0 32 19 46 51 3 9 6 22 7 38v2a445 445 0 0 1 1 48v4c0 2 1 3 2 2h3l7-2h1l32-10h1c12 16 20 39 23 67v1a382 382 0 0 1-1 87v2h-92c-46-14-79-30-100-46l-1-1c-17-12-24-24-24-31 1-4 3-8 8-13l3-4 3-3 8-9v-1c3-4 4-7 3-11 0-4-5-6-13-6l-18 2-9 1c-13 2-20 3-25 2h-1c-7-2-14-12-21-28l-1-2c-5-12-9-28-9-33l4-8 4-4 1-2 6-6 3-4 1-1 9-12c1-3 1-6-2-8-2-2-5-3-9-3l-30-1h-5l-14 1h-1c-8-4-20-24-29-47v-1Z" fill="#070707"/>
  <path fill-rule="evenodd" clip-rule="evenodd" d="M1555 744c-5-19-18-32-44-37-44-8-125-2-138 12-6 8-3 29 7 55v2c10 25 23 46 31 50h1l11-1h39v1c7 1 9 2 8 5l-8 12-5 5-4 4-2 2-4 6c-4 4-5 7-5 10 0 5 4 22 10 35v1c7 17 15 29 24 31 7 1 14 0 30-2l4-1 20-2h1c5 0 8 1 8 3 1 4-2 8-11 18l-1 1-4 5-1 1c-4 5-7 10-7 14-2 9 7 22 23 35l2 1a335 335 0 0 0 106 47h91l2-1v-5l1-9v-2c3-25 3-52 0-76-3-31-11-56-25-72l-2-1-33 11h-1l-7 2h-1v-5l-1-45c-1-18-4-32-8-41-14-34-30-54-49-54-6 0-12 3-24 9l-6 4-14 6-1 1c-4 1-7 1-8-1s-2-5-2-11v-3l-3-19v-1Zm-171 30c-10-25-13-46-8-52l1-1c13-12 91-18 134-10 23 5 35 16 40 34l3 18v4c0 7 1 10 2 13 3 4 7 5 13 3l1-1 16-7 3-2 3-2c11-6 16-8 21-8 17 0 32 19 46 51 3 9 6 22 7 38v2a445 445 0 0 1 1 48v4c0 2 1 3 2 2h3l7-2h1l32-10h1c12 16 20 39 23 67v1a382 382 0 0 1-1 87v2h-92c-46-14-79-30-100-46l-1-1c-17-12-24-24-24-31 1-4 3-8 8-13l3-4 3-3 8-9v-1c3-4 4-7 3-11 0-4-5-6-13-6l-18 2-9 1c-13 2-20 3-25 2h-1c-7-2-14-12-21-28l-1-2c-5-12-9-28-9-33l4-8 4-4 1-2 6-6 3-4 1-1 9-12c1-3 1-6-2-8-2-2-5-3-9-3l-30-1h-5l-14 1h-1c-8-4-20-24-29-47v-1Z" fill="#070707"/>
  <path fill-rule="evenodd" clip-rule="evenodd" d="M1474 450c-19 2-37 144 26 161 24 6 63 17 42 41-11 12-54 25-65 49-8 18 13 74 44 88 36 17 71 9 74 32 3 22-50 36-53 66-2 21 33 99 149 165l126-1s56-88 70-191c14-102-8-138-46-143-21-3-60 27-80 21-17-5 5-60 5-100 0-39-11-74-27-83-14-6-53 23-66 29s-39 13-44-1c-6-16 16-59-1-84-20-30-111-54-154-49Z" fill="#FF4B33"/>
  <path d="M1501 492v3h1l2 2 2 2 5 7h1l28 34a1115 1115 0 0 1 169 298 682 682 0 0 1 42 215l2-2c-1-71-15-143-40-214a960 960 0 0 0-170-300l-2-2-26-31-2-2-6-7-1-2-2-1h-3Z" fill="#070707"/>
  <path fill-rule="evenodd" clip-rule="evenodd" d="M1641 1303h172c54-92 70-160 32-252h-236c-38 92-22 160 32 252Z" fill="#FFC81A"/>
  <path fill-rule="evenodd" clip-rule="evenodd" d="m1608 1050 1-1h236l1 1c20 46 26 86 20 127a355 355 0 0 1-53 128h-172v-2l-2 1-1-1c-28-49-44-88-50-126-6-41 0-81 20-127Zm235 3h-232l-1 1c-18 44-24 83-18 123v1c6 37 22 75 50 123h170c29-49 44-87 50-124v-2c5-39 0-78-19-122Z" fill="#141414"/>
  <path d="M1712 1076a2 2 0 0 0 0 4h119a2 2 0 0 0 0-4h-119Z" fill="#141414"/>
  <path d="M810 81c0-45 36-81 81-81h504c45 0 81 36 81 81v1141c0 45-36 81-81 81H891c-45 0-81-36-81-81V81Z" fill="#fff"/>
  <path fill-rule="evenodd" clip-rule="evenodd" d="M1395 24H891c-31 0-57 26-57 57v1141c0 31 26 57 57 57h504c31 0 57-26 57-57V81c0-31-26-57-57-57ZM891 0c-45 0-81 36-81 81v1141c0 45 36 81 81 81h504c45 0 81-36 81-81V81c0-45-36-81-81-81H891Z" fill="#141414"/>
  <path fill-rule="evenodd" clip-rule="evenodd" d="M891 367h505V162H891v205Z" fill="#fff"/>
  <path fill-rule="evenodd" clip-rule="evenodd" d="M891 160h505l2 2v205l-2 2H891l-2-2V162l2-2Zm503 205V164H893v201h501Z" fill="#141414"/>
  <path fill-rule="evenodd" clip-rule="evenodd" d="M934 323h122V202H934v121Z" fill="#FF4B33"/>
  <path fill-rule="evenodd" clip-rule="evenodd" d="M1313 216a8 8 0 0 1 0 16h-225a8 8 0 0 1-1-16h226Zm-53 40a8 8 0 0 1 0 16h-172a8 8 0 0 1-1-16h173Zm-45 48c0-4-3-8-8-8h-120a8 8 0 0 0 1 16h120c4 0 7-3 7-8Z" fill="#D3E2F2"/>
  <path fill-rule="evenodd" clip-rule="evenodd" d="M891 625h505V420H891v205Z" fill="#fff"/>
  <path fill-rule="evenodd" clip-rule="evenodd" d="M891 418h505l2 2v205l-2 2H891l-2-2V420l2-2Zm503 205V422H893v201h501Z" fill="#141414"/>
  <path fill-rule="evenodd" clip-rule="evenodd" d="M934 581h122V460H934v121Z" fill="#13D6C3"/>
  <path fill-rule="evenodd" clip-rule="evenodd" d="M1313 474a8 8 0 0 1 0 16h-225a8 8 0 0 1-1-16h226Zm-53 40a8 8 0 0 1 0 16h-172a8 8 0 0 1-1-16h173Zm-45 48c0-4-3-8-8-8h-120a8 8 0 0 0 1 16h120c4 0 7-3 7-8Z" fill="#D3E2F2"/>
  <g opacity=".6" fill-rule="evenodd" clip-rule="evenodd">
    <path opacity=".6" d="M891 883h505V678H891v205Z" fill="#fff"/>
    <path opacity=".6" d="M891 676h505l2 2v205l-2 2H891l-2-2V678l2-2Zm503 205V680H893v201h501Z" fill="#141414"/>
    <path opacity=".6" d="M934 839h122V718H934v121Z" fill="#02BAD3"/>
    <path opacity=".6" d="M1313 732a8 8 0 0 1 0 16h-225a8 8 0 0 1-1-16h226Zm-53 40a8 8 0 0 1 0 16h-172a8 8 0 0 1-1-16h173Zm-45 48c0-4-3-8-8-8h-120a8 8 0 0 0 1 16h120c4 0 7-3 7-8Z" fill="#D3E2F2"/>
  </g>
  <g opacity=".2" fill-rule="evenodd" clip-rule="evenodd">
    <path opacity=".2" d="M891 1141h505V936H891v205Z" fill="#fff"/>
    <path opacity=".2" d="M891 934h505l2 2v205l-2 2H891l-2-2V936l2-2Zm503 205V938H893v201h501Z" fill="#141414"/>
    <path opacity=".2" d="M934 1097h122V976H934v121Z" fill="#FFC81A"/>
    <path opacity=".2" d="M1313 990a8 8 0 0 1 0 16h-225a8 8 0 0 1-1-16h226Zm-53 40a8 8 0 0 1 0 16h-172a8 8 0 0 1-1-16h173Zm-45 48c0-4-3-8-8-8h-120a8 8 0 0 0 1 16h120c4 0 7-4 7-8Z" fill="#D3E2F2"/>
  </g>
  <path fill-rule="evenodd" clip-rule="evenodd" d="M2209 1305H0v-4h2209v4Z" fill="#141414"/>
  <path fill-rule="evenodd" clip-rule="evenodd" d="m896 1243-10 96-51-3-9-92 70-1Z" fill="#fff"/>
  <path fill-rule="evenodd" clip-rule="evenodd" d="m829 1251 8 83 47 2 9-85 2-2c1 0 2 1 2 3l-9 87-2 2h-1l-50-3-2-2-9-84c0-2 1-3 3-3l2 2Z" fill="#141414"/>
  <path fill-rule="evenodd" clip-rule="evenodd" d="m783 1206-4 124-57 5-25-93 86-36Z" fill="#fff"/>
  <path fill-rule="evenodd" clip-rule="evenodd" d="m700 1247 24 86 53-5 4-108 2-2 2 2-4 111-2 2-57 5-2-2-24-88 2-3 2 2Z" fill="#141414"/>
  <path fill-rule="evenodd" clip-rule="evenodd" d="m786 1322-2-1-4 1c-9 1-27 5-45 5-11 0-14-4-20-10h-2c-30 8-58 16-74 27-3 2-14 11-12 17 1 3 4 5 9 5h153l2-1c4-5-2-31-5-43Z" fill="#F45648"/>
  <path fill-rule="evenodd" clip-rule="evenodd" d="M788 1375H631c-2 0-4-2-4-5v-1c0-3 2-5 4-5h157c3 0 5 2 5 5v1c0 3-2 5-5 5ZM676 1338l-2-1c-3-7-10-6-10-5-2 0-3-1-3-2l1-3c4-1 12-1 16 8l-1 3h-1ZM695 1333l-2-1c-3-8-10-6-11-6-1 1-2 0-2-1-1-1 0-3 1-3 4-1 12-1 16 8l-1 3h-1Z" fill="#141414"/>
  <path fill-rule="evenodd" clip-rule="evenodd" d="M890 1316s29 26 15 47c-18 5-63 10-82 0-14-7 8-48 8-48 22 2 38 1 59 1Z" fill="#F45648"/>
  <path fill-rule="evenodd" clip-rule="evenodd" d="M817 1367c0 4 4 7 8 7h77c4 0 7-4 6-9 0-5-2-4-5-4h-78c-3 0-8 2-8 6ZM885 1346l2-2-1-2c-1-1-20-10-41-3-1 0-2 1-1 2l2 2a58 58 0 0 1 39 3ZM879 1332l2-2-1-2c-1-1-16-7-29-1-1 1-2 2-1 3 0 1 2 2 3 1 11-6 25 0 25 0l1 1ZM974 887c-23 222-17 383-17 383-48 8-95 8-141-6l-11-467-57 144s66 248 54 268c-11 21-111 64-138 48-11-7-71-212-68-331 1-62 106-234 113-279 34-4 217 0 217 0s68 57 48 240Z" fill="#141414"/>
  <path fill-rule="evenodd" clip-rule="evenodd" d="M809 676c-4 3-13 9-29 15-6 2-9 2-10 1v-3c2-5 11-14 24-16l15 3Zm16-5c3 0 6 2 9 4 12 6 22 19 23 26l-13-9c-8-5-17-12-27-17l6-3 2-1Zm4 52v-1c2 0 2-1 2-2l-15-41c10 5 19 12 26 17 11 8 15 10 18 9l1-3c0-9-12-25-25-31-4-2-9-5-14-3-4 1-6 3-9 5-7-3-14-5-20-4-14 2-25 11-27 19-1 4 0 6 1 7 3 2 7 3 14 0 11-4 20-9 25-12-4 9-6 21-9 36l2 2 2-2c3-19 6-31 12-39a1073 1073 0 0 0 16 43Z" fill="#fff"/>
  <path fill-rule="evenodd" clip-rule="evenodd" d="M939 650c1-11 11-86 14-128 17 4 19-74-3-123-35-79-155-54-155-54s-36-2-71 27c-16 13-33 42-42 74 3 9 31 48 42 55l-29 149s208 3 244 0Z" fill="#F45648"/>
  <path fill-rule="evenodd" clip-rule="evenodd" d="M697 649a6201 6201 0 0 1 28-150c-10-7-37-44-41-53 8-30 25-59 41-72a113 113 0 0 1 71-27s30-6 63-3c20 3 37 7 51 15 18 10 30 23 38 41 9 19 14 45 16 70 1 23-2 42-7 48l-4 2a2 2 0 0 0-2 2c-2 36-11 95-14 119l-1 7c-37 2-216 2-239 1Zm241 3 2-2 1-8c3-24 11-81 14-118l5-3c6-8 9-27 8-51-2-26-7-52-16-72-15-33-47-53-92-58-33-3-62 2-65 3-4 0-38-1-72 28a157 157 0 0 0-43 75c3 9 30 47 42 55a6518 6518 0 0 0-27 152l207-1h36Z" fill="#141414"/>
  <path fill-rule="evenodd" clip-rule="evenodd" d="M845 314s1 35 15 39c4 20-22 33-42 32-39-2-27-33-24-33l-2-34 53-4Z" fill="#fff"/>
  <path fill-rule="evenodd" clip-rule="evenodd" d="M858 355c1 5-1 10-4 14-8 9-23 15-36 14s-22-5-25-13c-2-7 1-15 2-16l1-2-2-32 49-4c0 8 3 33 15 39Zm-38 32c14 0 29-6 37-15 5-6 7-12 5-19l-1-2c-11-3-14-28-14-37a2 2 0 0 0-3-2l-52 4a2555 2555 0 0 1 0 35c-3 2-4 8-4 13 0 6 2 11 6 15 5 5 13 8 24 8h2Z" fill="#141414"/>
  <path fill-rule="evenodd" clip-rule="evenodd" d="m682 445 55 8-6 36s79-8 106-17c14-5 31 0 38 15 4 7 1 27 1 27l-32-1-3 1h36l2-52 86 1s17 113-49 131c-59 16-131-38-137-43-28 15-61 26-92 18-40-10-7-119-5-124Z" fill="#fff"/>
  <path fill-rule="evenodd" clip-rule="evenodd" d="M675 557c3 5 7 9 12 10 49 13 101-22 133-42l20-13h1l3-1 31 1c0-7 1-19-2-25-5-10-20-18-35-13-27 9-103 16-107 17l-13 1a2 2 0 0 1 0-4l11-1 6-32-52-7-10 44c-5 30-5 53 2 65Zm218 38c8 0 15-1 23-3 26-7 42-31 47-70 4-26 1-51 0-57l-82-1-2 50c0 2-1 2-2 2h-36l-19 12c-11 7-24 16-39 24 12 9 62 43 110 43ZM680 445l2-2 53 8 7-33a2 2 0 0 1 4 1l-7 34-6 33c14-1 79-8 103-16 8-2 16-2 23 0 8 3 14 8 17 15l1-23 1-41 2-2 2 2-1 39 84 1 2 2s4 29 0 59c-5 41-23 66-50 74l-24 3c-25 0-51-9-70-18-22-11-39-24-44-27-22 11-46 20-70 20-8 0-15-1-23-3-6-2-11-6-15-12-17-33 9-113 9-114Z" fill="#141414"/>
  <path fill-rule="evenodd" clip-rule="evenodd" d="M776 271c6-50 39-53 62-48 19 3 43 19 41 50 10-3 17 3 18 10 1 9-3 23-17 20-3 25-20 53-66 48-34-4-43-35-38-80Z" fill="#fff"/>
  <path fill-rule="evenodd" clip-rule="evenodd" d="M878 303c-2 14-8 27-19 36-13 12-56 17-71-4-13-13-15-58-5-84 7 1 17 2 27 1l6-13 2-4c1 1-1 10-2 15v3c13 6 41 10 57 7l-1 9c-1 7-2 11 7 6 13-9 20 14 11 23-5 5-9 5-12 5Zm-20-114c5 2 18 8 18 13-21-17-90-25-111 38-7 22-11 99-10 106 11 2 27 5 42 5l1-3c17 9 44 7 59-3v11c15 2 37-4 37-4s39-79 2-126c9-2 27-14 15-40-10-20-44-21-53 3Zm24 99 2 2c3-1 3-6 0-7-2-1-3 2-2 4v1Z" fill="#141414"/>
  <path fill-rule="evenodd" clip-rule="evenodd" d="m787 268 5-3 5-2h6a67 67 0 0 1 5 1 3 3 0 1 1-2 6l-4-1-4-1c-3 0-6 1-8 3a2 2 0 0 1-3-3Zm52-2h-3a3 3 0 1 0-1 6 66 66 0 0 0 10-1l5 1 4 1a2 2 0 0 0 2-2l-5-4-5-1h-7Zm-39 19c0-2-1-5-4-5-3-1-5 1-5 4-1 3 1 5 4 6 2 0 5-2 5-5Zm17 27 2-1a1 1 0 0 0-1-2h-1a13 13 0 0 1-3 0l-3-2-1-1v-2l2-2 2-2h2v-3l1-5v-10a1 1 0 0 0-3 0 293 293 0 0 1-1 15l-3 1-2 2-2 3v3a7 7 0 0 0 4 5l3 1a15 15 0 0 0 4 0Zm-12 13a22 22 0 0 0 21-2l1-1h1a5 5 0 0 0 0-1 3 3 0 0 1 4 3 10 10 0 0 1-2 2 20 20 0 0 1-5 3l-7 1a27 27 0 0 1-14-3l-1-2h2Zm44-39c0-3-3-5-5-5-3 1-4 3-4 6s3 5 5 5c3-1 5-3 4-6Z" fill="#141414"/>
  <path fill-rule="evenodd" clip-rule="evenodd" d="M1825 794c10-16 2-20-3-16 0 0 9-12 4-17-3-3-6-3-13 4 0 0 9-12 4-17s-12 4-17 10c0 0 5-16-4-17-8 0-21 25-26 36 2-13-6-25-10-20-5 7-26 74-58 132-41 65-91 60-91 60l27 89s8 4 39-13c56-31 88-95 103-131l2-2 4-15 2-8c12-34 28-61 37-75Z" fill="#fff"/>
  <path fill-rule="evenodd" clip-rule="evenodd" d="M1826 771c3-4 6-10 2-14-3-3-6-4-9-2 5-13-7-19-16-7 1-5-1-11-7-12-7 0-16 13-24 29-2-9-7-19-14-12-13 29-31 81-54 125l-2 3c-19 32-40 48-56 55-9 4-17 6-23 7l1 4c7-1 15-3 24-7 33-16 54-48 67-74l2-5c19-39 34-80 44-105 4-3 8 9 7 17v7l4 6c6 5 4 15 4 16v1c-1 1 1 2 1 1 5-7 1-17-4-24l-1-6c4-9 17-34 24-34 5 1 3 10 2 14l-11 17 1 2h2l12-17c3-4 9-13 13-10 5 7-12 26-15 33-1 1 1 3 3 1l11-16c8-7 10-6 11-4 2 2-2 10-5 13l-9 12c-1 1 1 3 2 2l10-11c6-2 6 4 0 14-6 6-32 59-39 82l-3 9c-4 12-11 28-20 45-30 55-63 82-85 94-13 7-21 11-27 12l1 4c7-2 17-6 28-12 41-23 70-65 86-96a378 378 0 0 0 26-61c9-25 21-50 37-75 7-13 6-19-1-21Z" fill="#141414"/>
  <path fill-rule="evenodd" clip-rule="evenodd" d="M1441 953c-40-8-77-32-100-88h-1c-21-56-33-114-37-121-4-6-13 5-12 18-4-11-14-38-23-38s-5 16-5 16c-5-7-11-16-16-12-5 5 2 18 2 18-7-7-10-8-13-5-5 4 3 17 3 17-5-4-13-1-5 15 9 19 27 58 33 102l3 3c29 101 93 143 145 164l26-89Z" fill="#fff"/>
  <path fill-rule="evenodd" clip-rule="evenodd" d="M1416 1037c-60-24-128-73-151-189l-1-4c-7-27-23-69-28-75-5-10-4-16 2-13l8 12c1 1 4-1 3-2l-8-13c-2-3-6-11-3-14 1-1 2-2 9 6l10 17c2 2 4 1 3-1-2-7-17-27-11-34 4-3 9 7 12 12l10 17a2 2 0 0 0 2-1l-8-18c-1-4-2-13 3-14 7 0 17 27 20 36 1 2 0 5-1 7-6 5-11 15-7 23 1 1 3 0 2-1v-2s-2-11 5-15l5-5 1-7c-1-9 5-20 8-17 9 31 21 81 40 127l2 4c15 30 34 51 58 65 12 7 25 11 40 14l1-4c-46-8-78-37-99-87l-1-1c-17-43-28-92-37-120-6-8-13 2-15 10-7-17-14-31-22-31-6 0-8 6-8 11-8-13-20-8-16 6-3-2-6-3-9 0-4 4-2 10 0 15-7 1-9 6-3 20 15 30 23 55 30 85l3 10a243 243 0 0 0 150 175l1-4Z" fill="#141414"/>
  <path fill-rule="evenodd" clip-rule="evenodd" d="M1632 1024a2 2 0 1 1 4-1l6 27c37-9 44-24 44-24s-6-49-31-96c-66 6-84-3-94-3-20-7-59-5-81 2-29 9-33 11-67 7-4 17-25 59-45 93 14 9 26 13 51 20l1-21c0-1 1-2 3-2l2 2-2 27-5 167 256-4s-27-113-35-164l-7-30Z" fill="#06B6D4"/>
  <path fill-rule="evenodd" clip-rule="evenodd" d="m1503 899-4 35s8 16 31 17c30 1 24-18 24-18l-1-31" fill="#fff"/>
  <path fill-rule="evenodd" clip-rule="evenodd" d="M1530 953c-24-1-32-18-32-18l-1-1 4-36a2 2 0 0 1 4 1l-4 34c2 3 9 15 29 16 10 1 19-1 22-5 2-4 0-10 0-10l-1-32a2 2 0 1 1 4 0l1 31c1 2 2 8-1 13s-12 7-22 7h-3Z" fill="#141414"/>
  <path fill-rule="evenodd" clip-rule="evenodd" d="M1607 1322s-53 31-50 60c2 30 25 29 36 29 26-2 55-25 55-25l-41-64Z" fill="#06B6D4"/>
  <path fill-rule="evenodd" clip-rule="evenodd" d="M1608 1387h-1a57 57 0 0 1-18-26 2 2 0 0 1 4-1s4 13 16 24v2l-1 1ZM1559 1193s85-40 191-54c103-14 118 52 94 102-54 109-194 158-194 158-75-38-50-129-91-206Z" fill="#141414"/>
  <path fill-rule="evenodd" clip-rule="evenodd" d="M1646 1278h-2a383 383 0 0 0 93-95c1 1 2 2 1 3-9 17-27 38-53 61a575 575 0 0 1-39 31Z" fill="#fff"/>
  <path fill-rule="evenodd" clip-rule="evenodd" d="M1761 1346s-14 10 1 26c7 8 93 42 121 25 13-8 15-17 17-21-15-5-139-30-139-30Z" fill="#141414"/>
  <path fill-rule="evenodd" clip-rule="evenodd" d="M1791 1293c17-1 50 14 90 34s24 64-12 66c-22 2-76-11-101-26-19-12-13-35-9-44 6-13 20-29 32-30Z" fill="#06B6D4"/>
  <path fill-rule="evenodd" clip-rule="evenodd" d="m1833 1361-1-2c1-19 11-32 12-32l2-1 1 3c-1 0-10 12-12 31l-2 1ZM1853 1365l-2-2c1-15 9-24 9-24l3-1v3s-7 9-8 22l-2 2Z" fill="#141414"/>
  <path fill-rule="evenodd" clip-rule="evenodd" d="M1770 1276s48 33 50 41c6 18-3 33-15 37-21 9-70-21-70-21" fill="#fff"/>
  <path fill-rule="evenodd" clip-rule="evenodd" d="M1799 1358c-24 2-64-22-65-24a2 2 0 1 1 2-3s12 8 27 14c19 8 33 11 42 7 10-4 19-18 14-34-2-6-32-28-50-40a2 2 0 0 1 2-3l24 17c23 17 26 22 27 25 7 18-3 34-16 39l-7 2Z" fill="#141414"/>
  <path fill-rule="evenodd" clip-rule="evenodd" d="M1415 1239c8-169 166-91 197-75 100 52 203 115 203 115 2 53-57 100-92 105l-125-62s-32 45-89 43c-74-3-98-41-94-126Z" fill="#0B379B"/>
  <path fill-rule="evenodd" clip-rule="evenodd" d="M1598 1322a586 586 0 0 1-72-42v3c21 16 61 38 69 42l3-3ZM1585 833c-1-48-49-52-72-47-19 5-39 21-37 52-11-1-17 4-17 12s2 15 16 15c1 23 16 64 73 57 30-4 37-50 37-89Z" fill="#fff"/>
  <path fill-rule="evenodd" clip-rule="evenodd" d="M1548 920c13-2 22-12 28-30s7-41 7-57c0-15-6-27-16-35-9-8-22-11-35-11-3 31-40 54-56 53h-3c-4 0-7 1-9 3s-3 4-3 7c0 6 1 13 14 13l2 2c0 6 3 29 20 43 13 11 30 15 51 12Zm16-170c36 11 36 39 28 69-2 4 0 10 1 17 4 14 8 30-10 46l-1 1c-5 20-14 38-33 41l-14 1a62 62 0 0 1-46-19c-9-3-18-9-23-20-4-7-7-8-10-10-4 4-6 10-7 16-2 9-5 19-15 25-7 3-25 5-27-14-7 6-16 4-23-2-8-7-11-18-6-27 4-8 14-14 24-12-5-6-3-15 3-20 5-5 14-6 21-3l4 2 13 5 4-14a62 62 0 0 0 4-18c0-11 2-29 13-44 16-21 44-18 58-13 13-12 23-13 42-7Zm-94 101c-1-2 0-4 1-4 5 0 4 4 2 5-1 1-3-1-3-1Z" fill="#141414"/>
  <path fill-rule="evenodd" clip-rule="evenodd" d="M1456 876c-7-1-11-9-13-17-2-5-1-11 0-15-16-9-11 23-6 30 2 11 21 19 19 2Z" fill="#FF4B33"/>
  <path fill-rule="evenodd" clip-rule="evenodd" d="M1520 838a22 22 0 0 0-6 0 25 25 0 0 0-10 5c-2 0-3 2-5 3a1 1 0 0 1-2-1v-1l2-2v-1l2-1a25 25 0 0 1 12-7h8l2 3-3 2Zm47 15v1h1a2 2 0 0 0 2-2 9 9 0 0 0-3-4l-4-2a9 9 0 0 0-9 3 2 2 0 0 0 3 3l2-1h3a9 9 0 0 1 4 2h1Zm-60-1-2 2 1 2h2a12 12 0 0 1 3-3 8 8 0 0 1 5-1h1a8 8 0 0 1 3 2 5 5 0 0 1 1 1l3 1 1-3v-1h-1v-1l-1-1a10 10 0 0 0-6-2h-3l-5 2-2 2Zm47-18h-2c-1 1-2 2-1 3 0 1 1 2 3 2a19 19 0 0 1 2-1h3a22 22 0 0 1 15 5l1 1a1 1 0 0 0 2-2l-1-2h-1l-1-1-2-2-6-3a22 22 0 0 0-12 0Zm-13 19a29 29 0 0 0 2 7v1a24 24 0 0 0 3 2l3 3v2l-1 3-3 2-4 1a2 2 0 0 1-1-3h1l2-1 2-1v-2l-1-1-2-1v-1h-1l-1-2-1-2v-8a1 1 0 0 1 2 1Zm-15 34c5 3 26 3 33-2v-2s-20 2-33 1v3Zm34-8 3 2c3 7-7 18-21 18-9 1-20-5-21-11 0-3 2-8 6-7h16l17-2Z" fill="#141414"/>
</svg>
