<svg width="928" height="188" viewBox="0 0 928 188" fill="none" xmlns="http://www.w3.org/2000/svg">
<path d="M88.0004 34.3883L77.7162 28.9693C82.0672 23.2181 89.4797 21.897 98.5456 25.4094C99.044 24.7291 99.5977 24.0171 100.128 23.2814C106.733 13.6696 119.114 12.3248 127.492 20.4888C135.403 28.202 143.171 36.1208 151.003 43.9447C151.92 44.8623 152.878 45.7325 154.492 47.2752C154.642 39.0795 157.308 32.8219 164.198 29.0801C168.164 26.9208 172.824 26.4229 177.156 27.6957C186.918 30.4091 192.068 39.9497 189.663 51.0487C175.946 49.4665 165.25 54.4583 157.798 66.7756C156.722 65.7709 155.694 64.8769 154.729 63.9197C145.679 54.8855 136.257 46.1914 127.705 36.7141C117.563 25.4885 101.884 21.7546 88.0004 34.3883Z" fill="#6B68F9"/>
<path d="M58.9042 15.4737C58.9042 18.4957 59.0229 21.5256 58.9042 24.5396C58.7143 28.3448 56.4202 30.6627 53.0897 30.7022C49.7592 30.7418 47.2514 28.4555 47.1407 24.6899C46.9772 18.5194 46.9772 12.3437 47.1407 6.1626C47.1882 2.37327 49.5772 0.0395545 52.9077 0C56.3964 0 58.7143 2.37327 58.8884 6.40783C59.015 9.42189 58.9121 12.4518 58.9042 15.4737Z" fill="#6B68F9"/>
<path d="M14.9833 59.2273C11.8189 59.2273 8.65453 59.3855 5.53763 59.1877C1.62174 58.9425 0 56.9015 0 53.0647C0 49.2279 2.29416 47.5271 5.68794 47.4638C11.985 47.2897 18.2847 47.2897 24.5871 47.4638C28.1391 47.5745 30.3383 49.9795 30.4095 53.1755C30.4807 56.5218 28.2103 58.9662 24.4763 59.1877C21.312 59.3776 18.1476 59.2273 14.9833 59.2273Z" fill="#6B68F9"/>
<path d="M16.4201 10.627C18.5085 11.774 20.2094 12.312 21.3644 13.4195C26.0555 17.8654 30.5885 22.4379 35.074 27.0737C37.827 29.9296 37.8112 33.4025 35.2955 35.8311C32.7798 38.2598 29.5363 38.1332 26.8466 35.5068C22.1001 30.9343 17.2824 26.4013 12.9709 21.4491C11.7131 20.0014 11.2542 16.9794 11.8159 15.1203C12.3143 13.3641 14.6955 12.1933 16.4201 10.627Z" fill="#6B68F9"/>
<path fill-rule="evenodd" clip-rule="evenodd" d="M82.2256 45.9388C81.5615 45.2952 80.8925 44.6573 80.2171 44.0272C76.317 40.3882 71.5388 39.5734 66.6262 41.2426C61.7135 42.9118 58.6441 46.5587 58.0191 51.6138C57.7956 53.4407 58.0466 55.3393 58.345 57.2417L105.098 103.994L101.321 107.771L53.0926 59.5431C47.9909 59.0745 43.8807 61.0262 41.0898 65.3313C37.2451 71.2012 38.2972 77.5853 44.1434 83.4077C44.8791 84.1478 45.6171 84.8842 46.3566 85.6179L46.5101 85.4644L83.5557 122.51L79.7788 126.287L48.5402 95.0484C44.1631 95.6473 40.9335 97.7269 38.7165 101.445C37.164 104.007 36.5261 107.019 36.9069 109.991C37.2876 112.962 38.6646 115.717 40.8129 117.804C44.8193 121.831 48.8212 125.863 52.8231 129.895L52.8235 129.895L52.8236 129.895C68.6871 145.876 84.5501 161.857 100.691 177.555C115.215 191.676 137.951 191.399 152.467 177.207C166.984 163.015 181.39 148.728 195.408 134.053C198.485 130.834 201.294 125.96 201.523 121.696C202.298 107.251 202.187 92.7346 201.752 78.2577C201.539 71.0429 196.935 66.1303 190.179 63.6858C187.657 62.7652 184.957 62.4372 182.288 62.7272C179.619 63.0173 177.052 63.9176 174.787 65.3585C172.521 66.7994 170.618 68.7422 169.224 71.0367C167.829 73.3311 166.982 75.9155 166.747 78.5899C166.47 81.444 166.543 84.3464 166.616 87.2538V87.2543V87.2548C166.65 88.586 166.683 89.9183 166.683 91.2474C165.068 90.667 163.614 89.7097 162.443 88.4548C147.729 73.7353 133.004 59.0184 118.269 44.3041C117.093 43.044 115.824 41.8751 114.471 40.8075C112.333 39.2391 109.767 38.3589 107.116 38.284C104.465 38.2091 101.854 38.943 99.6305 40.3882C97.3913 41.808 95.6239 43.8604 94.5522 46.2855C94.0661 47.3854 93.7331 48.5396 93.5569 49.7162L126.703 82.8619L122.926 86.6388L82.2256 45.9388Z" fill="#6B68F9"/>
<path d="M295.676 19.3149C300.066 19.3149 304.456 20.1929 308.626 22.8267L310.162 21.9488L316.308 6.80412L315.43 5.04822C309.504 1.53642 301.383 0 293.701 0C273.508 0 252.656 12.0718 252.656 41.0442V42.8001H234V61.4566H252.656V157.373C252.656 163.079 251.559 166.811 247.608 166.811C246.072 166.811 244.974 166.372 244.096 165.494L242.56 166.152L239.048 182.394L239.926 183.931C242.999 186.126 247.608 187.662 253.754 187.662C268.46 187.662 276.581 177.566 276.581 162.421V61.4566H309.284V42.8001H276.581V40.8247C276.581 25.6801 285.58 19.3149 295.676 19.3149Z" fill="#1D1D20"/>
<path d="M441.294 133.668L439.758 133.01C439.319 133.449 438.221 134.327 436.246 134.327C432.515 134.327 431.198 130.815 431.198 124.669V42.8001H410.127V55.9694C400.469 46.5314 387.3 40.1663 371.278 40.1663C339.013 40.1663 316.186 65.4074 316.186 97.6721C316.186 129.717 339.013 155.178 371.278 155.178C387.3 155.178 400.689 148.813 410.346 139.155C412.761 149.252 420.004 155.178 430.759 155.178C436.246 155.178 440.855 153.422 443.928 151.447L444.806 149.91L441.294 133.668ZM375.009 134.327C354.158 134.327 340.549 118.084 340.549 97.6721C340.549 77.4792 353.938 61.0176 375.228 61.0176C394.104 61.0176 409.468 73.9674 409.468 97.6721C409.468 121.157 394.104 134.327 375.009 134.327Z" fill="#1D1D20"/>
<path d="M580.132 133.668L578.596 133.01C577.718 133.668 576.62 134.327 575.084 134.327C571.133 134.327 570.036 130.595 570.036 124.669V86.4782C570.036 59.0422 552.257 40.1663 524.382 40.1663C509.677 40.1663 497.166 45.434 488.606 53.994C485.752 45.2145 478.509 40.1663 468.632 40.1663C462.926 40.1663 458.317 41.7027 455.244 43.8976L454.366 45.434L457.878 61.6761L459.414 62.3345C460.292 61.6761 461.389 61.0176 462.926 61.0176C467.096 61.0176 467.974 64.7489 467.974 70.6751V152.544H492.118V88.4536C492.118 71.7725 503.312 60.7981 519.773 60.7981C536.235 60.7981 546.112 71.7725 546.112 88.4536V130.595C546.112 145.52 553.794 155.178 568.938 155.178C575.084 155.178 579.693 153.641 582.766 151.447L583.644 149.91L580.132 133.668Z" fill="#1D1D20"/>
<path d="M792.79 133.668L791.254 133.01C790.376 133.668 789.278 134.327 787.742 134.327C783.791 134.327 782.694 130.595 782.694 124.669V86.4782C782.694 59.0422 765.793 40.1663 738.577 40.1663C721.457 40.1663 707.629 47.6289 699.069 58.8227C691.606 47.1899 678.876 40.1663 662.195 40.1663C647.709 40.1663 635.417 45.6535 626.857 53.994C624.224 45.2145 616.98 40.1663 606.884 40.1663C601.177 40.1663 596.568 41.7027 593.495 43.8976L592.617 45.434L596.129 61.6761L597.666 62.3345C598.543 61.6761 599.641 61.0176 601.177 61.0176C605.348 61.0176 606.226 64.7489 606.226 70.6751V152.544H630.369V88.4536C630.369 71.7725 641.563 60.7981 657.366 60.7981C673.169 60.7981 682.607 71.7725 682.607 88.4536V152.544H706.531V88.4536C706.531 71.7725 717.725 60.7981 733.748 60.7981C749.551 60.7981 758.77 71.7725 758.77 88.4536V130.595C758.77 145.52 766.452 155.178 781.596 155.178C787.742 155.178 792.351 153.641 795.424 151.447L796.302 149.91L792.79 133.668Z" fill="#1D1D20"/>
<path d="M867.805 155.178C902.704 155.178 927.726 130.595 927.726 97.6721C927.726 64.9684 902.704 40.1663 867.805 40.1663C832.907 40.1663 808.105 64.9684 808.105 97.6721C808.105 130.376 832.907 155.178 867.805 155.178ZM867.805 134.327C847.173 134.327 832.468 118.743 832.468 97.6721C832.468 76.6012 847.173 61.0176 867.805 61.0176C888.657 61.0176 903.143 76.6012 903.143 97.6721C903.143 118.743 888.657 134.327 867.805 134.327Z" fill="#1D1D20"/>
</svg>
