<svg width="1200" height="600" viewBox="0 0 1200 600" fill="none" xmlns="http://www.w3.org/2000/svg">
<rect width="1200" height="600" fill="#6B68F9"/>
<path opacity="0.67" d="M338.992 258.834L331.865 255.078C334.88 251.092 340.018 250.177 346.301 252.611C346.647 252.139 347.03 251.646 347.398 251.136C351.976 244.474 360.557 243.542 366.363 249.201C371.846 254.547 377.231 260.035 382.659 265.458C383.295 266.094 383.958 266.697 385.077 267.766C385.181 262.086 387.029 257.749 391.805 255.155C394.553 253.659 397.783 253.313 400.786 254.196C407.552 256.076 411.121 262.689 409.454 270.381C399.947 269.285 392.534 272.745 387.369 281.282C386.623 280.585 385.91 279.966 385.241 279.302C378.969 273.041 372.439 267.015 366.512 260.446C359.482 252.666 348.615 250.078 338.992 258.834Z" fill="white"/>
<path d="M318.826 245.725C318.826 247.819 318.908 249.919 318.826 252.008C318.694 254.646 317.104 256.252 314.796 256.279C312.488 256.307 310.75 254.722 310.673 252.112C310.56 247.836 310.56 243.555 310.673 239.271C310.706 236.645 312.362 235.027 314.67 235C317.088 235 318.694 236.645 318.815 239.441C318.903 241.53 318.832 243.63 318.826 245.725Z" fill="white"/>
<path d="M288.385 276.05C286.192 276.05 283.998 276.16 281.838 276.023C279.124 275.853 278 274.438 278 271.779C278 269.119 279.59 267.941 281.942 267.897C286.307 267.776 290.673 267.776 295.041 267.897C297.503 267.974 299.027 269.64 299.077 271.855C299.126 274.175 297.552 275.869 294.964 276.023C292.771 276.154 290.578 276.05 288.385 276.05Z" fill="white"/>
<path d="M289.381 242.365C290.828 243.161 292.007 243.533 292.807 244.301C296.059 247.382 299.201 250.552 302.309 253.765C304.218 255.744 304.207 258.151 302.463 259.834C300.719 261.518 298.471 261.43 296.607 259.609C293.317 256.44 289.978 253.299 286.99 249.866C286.118 248.863 285.8 246.768 286.189 245.48C286.535 244.263 288.185 243.451 289.381 242.365Z" fill="white"/>
<path fill-rule="evenodd" clip-rule="evenodd" d="M334.993 266.843C334.531 266.396 334.067 265.953 333.598 265.515C330.895 262.993 327.583 262.428 324.178 263.585C320.773 264.742 318.646 267.269 318.212 270.773C318.058 272.039 318.231 273.355 318.438 274.674L350.842 307.078L348.225 309.696L314.798 276.269C311.262 275.944 308.413 277.297 306.479 280.281C303.814 284.349 304.543 288.774 308.595 292.809C309.105 293.322 309.617 293.833 310.129 294.341L310.236 294.235L335.912 319.911L333.294 322.529L311.643 300.877C308.609 301.292 306.371 302.734 304.834 305.31C303.758 307.086 303.316 309.174 303.58 311.234C303.844 313.293 304.798 315.202 306.287 316.649C309.064 319.441 311.838 322.235 314.611 325.029L314.612 325.03C325.607 336.106 336.601 347.182 347.788 358.062C357.854 367.85 373.613 367.658 383.674 357.821C393.735 347.985 403.72 338.082 413.436 327.911C415.568 325.68 417.515 322.302 417.674 319.347C418.211 309.335 418.135 299.274 417.833 289.24C417.685 284.239 414.494 280.834 409.811 279.14C408.063 278.502 406.192 278.275 404.342 278.476C402.492 278.677 400.713 279.301 399.143 280.3C397.573 281.298 396.254 282.645 395.288 284.235C394.321 285.825 393.734 287.616 393.571 289.47C393.379 291.448 393.43 293.46 393.48 295.475V295.475V295.475C393.504 296.398 393.527 297.321 393.527 298.243C392.407 297.841 391.4 297.177 390.588 296.307C380.39 286.105 370.184 275.905 359.971 265.707C359.156 264.834 358.276 264.023 357.339 263.283C355.857 262.196 354.079 261.586 352.241 261.534C350.404 261.482 348.594 261.991 347.053 262.993C345.501 263.977 344.276 265.399 343.533 267.08C343.196 267.842 342.966 268.642 342.843 269.458L365.817 292.431L363.199 295.049L334.993 266.843Z" fill="white"/>
<path d="M482.931 248.387C485.974 248.387 489.016 248.996 491.906 250.821L492.971 250.213L497.231 239.716L496.622 238.499C492.515 236.065 486.886 235 481.562 235C467.566 235 453.114 243.367 453.114 263.447V264.664H440.184V277.595H453.114V344.074C453.114 348.029 452.354 350.615 449.616 350.615C448.551 350.615 447.79 350.311 447.182 349.703L446.117 350.159L443.683 361.416L444.291 362.481C446.421 364.002 449.616 365.067 453.875 365.067C464.068 365.067 469.696 358.069 469.696 347.573V277.595H492.363V264.664H469.696V263.295C469.696 252.799 475.933 248.387 482.931 248.387Z" fill="white"/>
<path d="M583.858 327.644L582.793 327.188C582.489 327.492 581.728 328.101 580.359 328.101C577.773 328.101 576.86 325.667 576.86 321.407V264.664H562.256V273.792C555.563 267.251 546.435 262.839 535.33 262.839C512.968 262.839 497.146 280.333 497.146 302.696C497.146 324.906 512.968 342.553 535.33 342.553C546.435 342.553 555.715 338.141 562.408 331.448C564.082 338.445 569.102 342.553 576.556 342.553C580.359 342.553 583.554 341.336 585.683 339.967L586.292 338.902L583.858 327.644ZM537.916 328.101C523.464 328.101 514.032 316.843 514.032 302.696C514.032 288.7 523.312 277.291 538.068 277.291C551.151 277.291 561.8 286.266 561.8 302.696C561.8 318.973 551.151 328.101 537.916 328.101Z" fill="white"/>
<path d="M680.086 327.644L679.021 327.188C678.412 327.644 677.652 328.101 676.587 328.101C673.848 328.101 673.088 325.515 673.088 321.407V294.937C673.088 275.922 660.766 262.839 641.446 262.839C631.253 262.839 622.582 266.49 616.649 272.423C614.672 266.338 609.652 262.839 602.806 262.839C598.851 262.839 595.656 263.904 593.526 265.425L592.918 266.49L595.352 277.747L596.417 278.204C597.025 277.747 597.786 277.291 598.851 277.291C601.741 277.291 602.35 279.877 602.35 283.984V340.727H619.083V296.307C619.083 284.745 626.842 277.139 638.251 277.139C649.661 277.139 656.506 284.745 656.506 296.307V325.515C656.506 335.859 661.831 342.553 672.327 342.553C676.587 342.553 679.781 341.488 681.911 339.967L682.52 338.902L680.086 327.644Z" fill="white"/>
<path d="M827.477 327.644L826.412 327.188C825.804 327.644 825.043 328.101 823.978 328.101C821.24 328.101 820.48 325.515 820.48 321.407V294.937C820.48 275.922 808.766 262.839 789.902 262.839C778.037 262.839 768.453 268.011 762.52 275.77C757.348 267.707 748.524 262.839 736.963 262.839C726.922 262.839 718.403 266.642 712.471 272.423C710.645 266.338 705.625 262.839 698.627 262.839C694.672 262.839 691.477 263.904 689.347 265.425L688.739 266.49L691.173 277.747L692.238 278.204C692.846 277.747 693.607 277.291 694.672 277.291C697.562 277.291 698.171 279.877 698.171 283.984V340.727H714.905V296.307C714.905 284.745 722.663 277.139 733.616 277.139C744.569 277.139 751.11 284.745 751.11 296.307V340.727H767.692V296.307C767.692 284.745 775.45 277.139 786.556 277.139C797.509 277.139 803.898 284.745 803.898 296.307V325.515C803.898 335.859 809.222 342.553 819.719 342.553C823.978 342.553 827.173 341.488 829.303 339.967L829.911 338.902L827.477 327.644Z" fill="white"/>
<path d="M879.47 342.553C903.658 342.553 921 325.515 921 302.696C921 280.029 903.658 262.839 879.47 262.839C855.282 262.839 838.092 280.029 838.092 302.696C838.092 325.363 855.282 342.553 879.47 342.553ZM879.47 328.101C865.17 328.101 854.978 317.3 854.978 302.696C854.978 288.092 865.17 277.291 879.47 277.291C893.922 277.291 903.962 288.092 903.962 302.696C903.962 317.3 893.922 328.101 879.47 328.101Z" fill="white"/>
</svg>
