<svg width="28" height="26" viewBox="0 0 28 26" fill="none" xmlns="http://www.w3.org/2000/svg">
<path d="M11.9685 4.67694L10.5698 3.93994C11.1616 3.15775 12.1697 2.97807 13.4027 3.45578C13.4705 3.36325 13.5458 3.26642 13.6179 3.16636C14.5163 1.85912 16.2001 1.67621 17.3395 2.78656C18.4154 3.83557 19.4719 4.91257 20.5371 5.97665C20.6619 6.10145 20.7921 6.2198 21.0116 6.42961C21.032 5.31496 21.3946 4.46391 22.3317 3.955C22.8711 3.66133 23.5049 3.59361 24.0941 3.76672C25.4218 4.13576 26.1222 5.43331 25.7951 6.94282C23.9295 6.72764 22.4748 7.40654 21.4613 9.08174C21.315 8.9451 21.1751 8.82352 21.0439 8.69333C19.813 7.46464 18.5316 6.28221 17.3685 4.99326C15.9892 3.46654 13.8567 2.9587 11.9685 4.67694Z" fill="currentColor"/>
<path d="M8.01109 2.10449C8.01109 2.51549 8.02723 2.92757 8.01109 3.33749C7.98527 3.85501 7.67326 4.17025 7.2203 4.17563C6.76734 4.18101 6.42627 3.87007 6.41121 3.35793C6.38897 2.51872 6.38897 1.67879 6.41121 0.838138C6.41766 0.322775 6.74259 0.00537958 7.19555 0C7.67003 0 7.98527 0.322775 8.00894 0.871492C8.02616 1.28142 8.01217 1.69349 8.01109 2.10449Z" fill="currentColor"/>
<path d="M2.03778 8.05514C1.60742 8.05514 1.17705 8.07666 0.753141 8.04976C0.220563 8.01641 0 7.73882 0 7.217C0 6.69518 0.312015 6.46386 0.773583 6.45525C1.63001 6.43158 2.4868 6.43158 3.34395 6.45525C3.82703 6.47032 4.12614 6.79739 4.13582 7.23206C4.1455 7.68718 3.83671 8.01963 3.32888 8.04976C2.89852 8.07558 2.46815 8.05514 2.03778 8.05514Z" fill="currentColor"/>
<path d="M2.23308 1.44531C2.51712 1.60132 2.74844 1.67448 2.90553 1.82511C3.54355 2.42978 4.16005 3.05165 4.77009 3.68214C5.14451 4.07055 5.14236 4.54287 4.80022 4.87318C4.45807 5.20349 4.01695 5.18627 3.65114 4.82907C3.00559 4.20719 2.35036 3.59069 1.76398 2.91716C1.59291 2.72027 1.53051 2.30927 1.6069 2.05643C1.67468 1.81758 1.99853 1.65834 2.23308 1.44531Z" fill="currentColor"/>
<path fill-rule="evenodd" clip-rule="evenodd" d="M11.1827 6.24755C11.0925 6.16012 11.0016 6.07346 10.9099 5.98786C10.3794 5.49294 9.72958 5.38212 9.06144 5.60914C8.3933 5.83615 7.97584 6.33215 7.89084 7.01966C7.86044 7.26815 7.89459 7.52639 7.93518 7.78514L14.2937 14.1437L13.7801 14.6574L7.22076 8.09808C6.52694 8.03436 5.96795 8.2998 5.58838 8.8853C5.06549 9.68363 5.20859 10.5519 6.00369 11.3438C6.10376 11.4444 6.20413 11.5446 6.30471 11.6444L6.32557 11.6235L11.3639 16.6619L10.8503 17.1756L6.60164 12.927C6.00636 13.0084 5.56713 13.2912 5.26561 13.7969C5.05447 14.1453 4.96771 14.555 5.01949 14.9592C5.07128 15.3633 5.25855 15.7379 5.55073 16.0218C6.09562 16.5696 6.63991 17.1179 7.18419 17.6662L7.18429 17.6663C9.34177 19.8398 11.4992 22.0132 13.6943 24.1482C15.6697 26.0687 18.7619 26.0311 20.7362 24.1009C22.7105 22.1707 24.6698 20.2276 26.5763 18.2318C26.9948 17.7939 27.3768 17.1311 27.408 16.5512C27.5134 14.5866 27.4983 12.6123 27.4392 10.6433C27.4101 9.66211 26.7839 8.99397 25.8651 8.66151C25.5221 8.5363 25.1549 8.49169 24.7919 8.53114C24.4289 8.57059 24.0798 8.69304 23.7717 8.88901C23.4636 9.08497 23.2047 9.34921 23.0151 9.66126C22.8255 9.9733 22.7102 10.3248 22.6782 10.6885C22.6406 11.0767 22.6505 11.4714 22.6605 11.8669V11.8669V11.8669C22.6651 12.048 22.6696 12.2292 22.6696 12.41C22.4499 12.3311 22.2522 12.2009 22.0929 12.0302C20.0917 10.0283 18.0891 8.02672 16.085 6.02552C15.9252 5.85415 15.7525 5.69517 15.5686 5.54996C15.2777 5.33666 14.9288 5.21695 14.5683 5.20676C14.2077 5.19658 13.8526 5.29639 13.5502 5.49294C13.2456 5.68603 13.0053 5.96517 12.8595 6.295C12.7934 6.4446 12.7481 6.60157 12.7241 6.76159L17.2321 11.2695L16.7184 11.7832L11.1827 6.24755Z" fill="currentColor"/>
</svg>
